<svg version="1.1" id="Layer_1" xmlns="http://www.w3.org/2000/svg" xmlns:xlink="http://www.w3.org/1999/xlink" x="0" y="0" viewBox="0 0 5476 2780.5" style="enable-background:new 0 0 5476 2780.5" xml:space="preserve"><style>.st0,.st1,.st2,.st3,.st4,.st5,.st6{clip-path:url(#SVGID_00000181798713233668259160000006734029374785700227_);fill:#e5825d}.st1,.st2,.st3,.st4,.st5,.st6{fill:#ea995f}.st2,.st3,.st4,.st5,.st6{fill:#eac95f}.st3,.st4,.st5,.st6{fill:#c1ea5f}.st4,.st5,.st6{fill:#5feaa3}.st5,.st6{fill:#bd7fe5}.st6{fill:#7d77e8}</style><g id="Layer_5"><defs><path id="SVGID_1_" d="M3 0h5473v2783.1H3z"/></defs><clipPath id="SVGID_00000109013207343408094770000012835746766698803362_"><use xlink:href="#SVGID_1_" style="overflow:visible"/></clipPath><path style="clip-path:url(#SVGID_00000109013207343408094770000012835746766698803362_);fill:#e5825d" d="M2738 895.3c725.5 0 1313.6 588.1 1313.6 1313.6S3463.5 3522.5 2738 3522.5s-1313.6-588.1-1313.6-1313.6S2012.5 895.3 2738 895.3m0-600c-129.4 0-259 13.1-385 38.9-123.1 25.2-244.3 62.8-360 111.8-113.5 48-223 107.4-325.3 176.5-101.2 68.4-196.3 146.9-282.8 233.3-86.4 86.4-164.9 181.6-233.3 282.8-69.1 102.3-128.5 211.8-176.5 325.3-49 115.8-86.6 236.9-111.8 360-25.8 126-38.9 255.6-38.9 385s13.1 259 38.9 385c25.2 123.1 62.8 244.3 111.8 360 48 113.5 107.4 223 176.5 325.3 68.4 101.2 146.9 196.3 233.3 282.8 86.4 86.4 181.6 164.9 282.8 233.3 102.3 69.1 211.8 128.5 325.3 176.5 115.8 49 236.9 86.6 360 111.8 126 25.8 255.6 38.9 385 38.9s259-13.1 385-38.9c123.1-25.2 244.3-62.8 360-111.8 113.5-48 223-107.4 325.3-176.5 101.2-68.4 196.3-146.9 282.8-233.3 86.4-86.4 164.9-181.6 233.3-282.8 69.1-102.3 128.5-211.8 176.5-325.3 49-115.8 86.6-236.9 111.8-360 25.8-126 38.9-255.6 38.9-385s-13.1-259-38.9-385c-25.2-123.1-62.8-244.3-111.8-360-48-113.5-107.4-223-176.5-325.3-68.4-101.2-146.9-196.3-233.3-282.8-86.4-86.4-181.6-164.9-282.8-233.3C3706 553.4 3596.6 494 3483 445.9c-115.8-49-236.9-86.6-360-111.8-126-25.7-255.6-38.8-385-38.8z"/><path style="clip-path:url(#SVGID_00000109013207343408094770000012835746766698803362_);fill:#ea995f" d="M2738 895.3c725.5 0 1313.6 588.1 1313.6 1313.6S3463.5 3522.5 2738 3522.5s-1313.6-588.1-1313.6-1313.6S2012.5 895.3 2738 895.3m0-500c-122.7 0-245.5 12.4-365 36.8-116.7 23.9-231.4 59.5-341.1 105.9-107.6 45.5-211.3 101.8-308.3 167.3-95.9 64.8-186.1 139.2-268.1 221.2-81.9 81.9-156.4 172.1-221.2 268.1-65.5 97-121.8 200.7-167.3 308.3-46.4 109.7-82 224.4-105.9 341.1-24.4 119.5-36.8 242.2-36.8 365 0 122.7 12.4 245.5 36.8 365 23.9 116.7 59.5 231.4 105.9 341.1 45.5 107.6 101.8 211.3 167.3 308.3 64.8 95.9 139.2 186.1 221.2 268.1 81.9 81.9 172.1 156.4 268.1 221.2 97 65.5 200.7 121.8 308.3 167.3 109.7 46.4 224.4 82 341.1 105.9 119.5 24.4 242.2 36.8 365 36.8s245.5-12.4 365-36.8c116.7-23.9 231.4-59.5 341.1-105.9 107.6-45.5 211.3-101.8 308.3-167.3 95.9-64.8 186.1-139.2 268.1-221.2s156.4-172.1 221.2-268.1c65.5-97 121.8-200.7 167.3-308.3 46.4-109.7 82-224.4 105.9-341.1 24.4-119.5 36.8-242.2 36.8-365 0-122.7-12.4-245.5-36.8-365-23.9-116.7-59.5-231.4-105.9-341.1-45.5-107.6-101.8-211.3-167.3-308.3-64.8-95.9-139.2-186.1-221.2-268.1s-172.1-156.4-268.1-221.2c-97-65.5-200.7-121.8-308.3-167.3-109.7-46.4-224.4-82-341.1-105.9-119.5-24.4-242.3-36.8-365-36.8z"/><path style="clip-path:url(#SVGID_00000109013207343408094770000012835746766698803362_);fill:#eac95f" d="M2738 895.3c725.5 0 1313.6 588.1 1313.6 1313.6S3463.5 3522.5 2738 3522.5s-1313.6-588.1-1313.6-1313.6S2012.5 895.3 2738 895.3m0-400c-116 0-232.1 11.7-344.9 34.8-110.2 22.6-218.6 56.2-322.2 100-101.6 43-199.6 96.2-291.2 158.1-90.7 61.2-175.9 131.6-253.3 209s-147.8 162.7-209 253.3c-61.9 91.6-115.1 189.6-158.1 291.2-43.8 103.6-77.5 212-100 322.2-23.1 112.9-34.8 228.9-34.8 344.9s11.7 232.1 34.8 344.9c22.6 110.2 56.2 218.6 100 322.2 43 101.6 96.2 199.6 158.1 291.2 61.2 90.7 131.6 175.9 209 253.3s162.7 147.8 253.3 209c91.6 61.9 189.6 115.1 291.2 158.1 103.6 43.8 212 77.5 322.2 100 112.9 23.1 228.9 34.8 344.9 34.8s232.1-11.7 344.9-34.8c110.2-22.6 218.6-56.2 322.2-100 101.6-43 199.6-96.2 291.2-158.1 90.7-61.2 175.9-131.6 253.3-209s147.8-162.7 209-253.3c61.9-91.6 115.1-189.6 158.1-291.2 43.8-103.6 77.5-212 100-322.2 23.1-112.9 34.8-228.9 34.8-344.9s-11.7-232.1-34.8-344.9c-22.6-110.2-56.2-218.6-100-322.2-43-101.6-96.2-199.6-158.1-291.2-61.2-90.7-131.6-175.9-209-253.3s-162.7-147.8-253.3-209c-91.6-61.9-189.6-115.1-291.2-158.1-103.6-43.8-212-77.5-322.2-100-112.8-23.1-228.9-34.8-344.9-34.8z"/><path style="clip-path:url(#SVGID_00000109013207343408094770000012835746766698803362_);fill:#c1ea5f" d="M2738 895.3c725.5 0 1313.6 588.1 1313.6 1313.6S3463.5 3522.5 2738 3522.5s-1313.6-588.1-1313.6-1313.6S2012.5 895.3 2738 895.3m0-300c-109.3 0-218.6 11-324.9 32.8-103.7 21.2-205.8 52.9-303.3 94.1-95.7 40.5-187.9 90.5-274.2 148.8-85.4 57.8-165.6 124-238.6 196.9-72.9 72.9-139.2 153.2-196.9 238.6-58.3 86.3-108.4 178.5-148.8 274.2-41.2 97.5-72.9 199.6-94.1 303.3-21.8 106.3-32.8 215.6-32.8 324.9 0 109.3 11 218.6 32.8 324.9 21.2 103.7 52.9 205.8 94.1 303.3 40.5 95.7 90.5 187.9 148.8 274.2 57.7 85.4 123.9 165.7 196.9 238.6 72.9 72.9 153.2 139.2 238.6 196.9 86.3 58.3 178.5 108.4 274.2 148.8 97.5 41.2 199.6 72.9 303.3 94.1 106.3 21.8 215.6 32.8 324.9 32.8s218.6-11 324.9-32.8c103.7-21.2 205.8-52.9 303.3-94.1 95.7-40.5 187.9-90.5 274.2-148.8 85.4-57.7 165.7-123.9 238.6-196.9 72.9-72.9 139.2-153.2 196.9-238.6 58.3-86.3 108.4-178.5 148.8-274.2 41.2-97.5 72.9-199.6 94.1-303.3 21.8-106.3 32.8-215.6 32.8-324.9 0-109.3-11-218.6-32.8-324.9-21.2-103.7-52.9-205.8-94.1-303.3-40.5-95.7-90.5-187.9-148.8-274.2-57.7-85.4-123.9-165.7-196.9-238.6-72.9-72.9-153.2-139.2-238.6-196.9-86.3-58.3-178.5-108.4-274.2-148.8-97.5-41.2-199.6-72.9-303.3-94.1-106.3-21.8-215.6-32.8-324.9-32.8z"/><path style="clip-path:url(#SVGID_00000109013207343408094770000012835746766698803362_);fill:#5feaa3" d="M2738 895.3c725.5 0 1313.6 588.1 1313.6 1313.6S3463.5 3522.5 2738 3522.5s-1313.6-588.1-1313.6-1313.6S2012.5 895.3 2738 895.3m0-200c-102.6 0-205.1 10.3-304.8 30.7-97.3 19.9-193 49.6-284.4 88.3-89.7 38-176.3 84.9-257.2 139.6-80.1 54.1-155.4 116.3-223.9 184.7s-130.6 143.8-184.7 223.9c-54.7 80.9-101.6 167.5-139.6 257.2-38.7 91.4-68.4 187.1-88.3 284.4-20.4 99.7-30.7 202.3-30.7 304.8s10.3 205.1 30.7 304.8c19.9 97.3 49.6 193 88.3 284.4 38 89.7 84.9 176.3 139.6 257.2 54.1 80.1 116.3 155.4 184.7 223.9s143.8 130.6 223.9 184.7c80.9 54.7 167.5 101.6 257.2 139.6 91.4 38.7 187.1 68.4 284.4 88.3 99.7 20.4 202.3 30.7 304.8 30.7s205.1-10.3 304.8-30.7c97.3-19.9 193-49.6 284.4-88.3 89.7-38 176.3-84.9 257.2-139.6 80.1-54.1 155.4-116.3 223.9-184.7s130.6-143.8 184.7-223.9c54.7-80.9 101.6-167.5 139.6-257.2 38.7-91.4 68.4-187.1 88.3-284.4 20.4-99.7 30.7-202.3 30.7-304.8s-10.3-205.1-30.7-304.8c-19.9-97.3-49.6-193-88.3-284.4-38-89.7-84.9-176.3-139.6-257.2-54.1-80.1-116.3-155.4-184.7-223.9s-143.8-130.6-223.9-184.7c-80.9-54.7-167.5-101.6-257.2-139.6-91.4-38.7-187.1-68.4-284.4-88.3-99.7-20.3-202.2-30.7-304.8-30.7z"/><path style="clip-path:url(#SVGID_00000109013207343408094770000012835746766698803362_);fill:#bd7fe5" d="M2738 995.3c82.4 0 164.7 8.3 244.7 24.7 77.9 15.9 154.5 39.7 227.7 70.7 71.9 30.4 141.2 68 206.1 111.9 64.3 43.4 124.7 93.3 179.7 148.2s104.8 115.4 148.2 179.7c43.8 64.9 81.5 134.2 111.9 206.1 31 73.2 54.7 149.8 70.7 227.7 16.4 80 24.7 162.3 24.7 244.7s-8.3 164.7-24.7 244.7c-15.9 77.9-39.7 154.5-70.7 227.7-30.4 71.9-68 141.2-111.9 206.1-43.4 64.3-93.3 124.7-148.2 179.7s-115.4 104.8-179.7 148.2c-64.9 43.8-134.2 81.5-206.1 111.9-73.2 31-149.8 54.7-227.7 70.7-80 16.4-162.3 24.7-244.7 24.7s-164.7-8.3-244.7-24.7c-77.9-15.9-154.5-39.7-227.7-70.7-71.9-30.4-141.2-68-206.1-111.9-64.3-43.4-124.7-93.3-179.7-148.2-54.9-54.9-104.8-115.4-148.2-179.7-43.8-64.9-81.5-134.2-111.9-206.1-31-73.2-54.7-149.8-70.7-227.7-16.4-80-24.7-162.3-24.7-244.7s8.3-164.7 24.7-244.7c15.9-77.9 39.7-154.5 70.7-227.7 30.4-71.9 68-141.2 111.9-206.1 43.4-64.3 93.3-124.7 148.2-179.7 54.9-54.9 115.4-104.8 179.7-148.2 64.9-43.8 134.2-81.5 206.1-111.9 73.2-31 149.8-54.7 227.7-70.7 80-16.4 162.3-24.7 244.7-24.7m0-100c-725.5 0-1313.6 588.1-1313.6 1313.6S2012.5 3522.5 2738 3522.5s1313.6-588.1 1313.6-1313.6S3463.5 895.3 2738 895.3z"/><path style="clip-path:url(#SVGID_00000109013207343408094770000012835746766698803362_);fill:#7d77e8" d="M2738 895.3c725.5 0 1313.6 588.1 1313.6 1313.6S3463.5 3522.5 2738 3522.5s-1313.6-588.1-1313.6-1313.6S2012.5 895.3 2738 895.3m0-100c-95.8 0-191.7 9.7-284.8 28.7-90.8 18.6-180.1 46.3-265.5 82.4-83.8 35.4-164.6 79.3-240.2 130.3-74.8 50.6-145.2 108.6-209.1 172.6-63.9 63.9-122 134.3-172.6 209.1-51.1 75.6-94.9 156.4-130.3 240.2-36.1 85.4-63.8 174.7-82.4 265.5-19.1 93.1-28.7 188.9-28.7 284.8s9.7 191.7 28.7 284.8c18.6 90.8 46.3 180.1 82.4 265.5 35.4 83.8 79.3 164.6 130.3 240.2 50.6 74.8 108.6 145.2 172.6 209.1 63.9 63.9 134.3 122 209.1 172.6 75.6 51.1 156.4 94.9 240.2 130.3 85.4 36.1 174.7 63.8 265.5 82.4 93.1 19.1 188.9 28.7 284.8 28.7s191.7-9.7 284.8-28.7c90.8-18.6 180.1-46.3 265.5-82.4 83.8-35.4 164.6-79.3 240.2-130.3 74.8-50.6 145.2-108.6 209.1-172.6 63.9-63.9 122-134.3 172.6-209.1 51.1-75.6 94.9-156.4 130.3-240.2 36.1-85.4 63.8-174.7 82.4-265.5 19.1-93.1 28.7-188.9 28.7-284.8s-9.7-191.7-28.7-284.8c-18.6-90.8-46.3-180.1-82.4-265.5-35.4-83.8-79.3-164.6-130.3-240.2-50.6-74.8-108.6-145.2-172.6-209.1-63.9-63.9-134.3-122-209.1-172.6-75.6-51.1-156.4-94.9-240.2-130.3-85.4-36.1-174.7-63.8-265.5-82.4-93.1-19-189-28.7-284.8-28.7z"/></g></svg>