<svg version="1.1" id="Layer_2_00000121271633283879181940000008228027180461343654_" xmlns="http://www.w3.org/2000/svg" x="0" y="0" viewBox="0 0 5476 2249.7" style="enable-background:new 0 0 5476 2249.7" xml:space="preserve"><style>.st0{fill:none;stroke:#624166;stroke-width:2}.st0,.st1,.st6,.st7{stroke-miterlimit:10}.st1{fill:none;stroke:#624166;stroke-width:6;stroke-linecap:round}.st6,.st7{fill:#e27695;stroke:#7f3d4f;stroke-width:2}.st7{fill:none;stroke:#c45781;stroke-linecap:round}.st9{fill:#a777b2}.st10{fill:#cc547f}.st15{fill:#c46681}.st16{fill:none;stroke:#cc6281;stroke-width:2;stroke-miterlimit:10}</style><path class="st0" d="M3987.9 1508.7s13.3 105.6 123.7 77.4c0 0 97.9-44 188.2-31.3"/><path class="st1" d="M3696.3 1418.1 3594.8 1609"/><path d="m3426 1497.3 29.8 105.6c3.4 12 14.4 20.4 26.9 20.4h376.7c18.8 0 37.1-6.4 51.7-18.3 17.7-14.4 38.4-35.7 54.1-65.9 10.1-19.5 15.8-38 19-53.4 1.6-7.8-4.4-15.2-12.4-15.2h-525.5c-13.9 0-24.1 13.4-20.3 26.8z" style="fill:#93588f;stroke:#624166;stroke-width:2;stroke-miterlimit:10"/><path class="st0" d="M3432.5 1521.4h541.4"/><path d="M3987.9 1508.7h-565.1c-5 0-9.1-4.1-9.1-9.1v-24.9c0-5 4.1-9.1 9.1-9.1h565.1c5 0 9.1 4.1 9.1 9.1v24.9c.1 5-4 9.1-9.1 9.1z" style="fill:#a3629f;stroke:#624166;stroke-width:2;stroke-miterlimit:10"/><path d="M3193 1623.4c91.9 0 91.9 6 183.7 6 91.9 0 91.9-6 183.7-6 91.9 0 91.9 6 183.7 6 91.9 0 91.9-6 183.7-6 91.9 0 91.9 6 183.7 6" style="fill:none;stroke:#f2c7dd;stroke-width:6;stroke-linecap:round;stroke-linejoin:round;stroke-miterlimit:10"/><path class="st1" d="m3726.3 1440.5-203.4 208.9"/><path d="M3934.9 1549.8h-45.4c-5.1 0-9.2-4.1-9.2-9.2s4.1-9.2 9.2-9.2h45.4c5.1 0 9.2 4.1 9.2 9.2 0 5-4.1 9.2-9.2 9.2z" style="fill:#a3629f"/><path class="st6" d="M5222 1577.6c5.7-6.3 13.2-16.3 18.3-29.9 9.9-26.3 7.7-57.7 0-59.7-5.8-1.5-14.7 13.6-22.3 26.6-11.2 19-16.9 36.7-17.6 36.5-1.2-.4 23-45.4 9.2-88.2-.6-1.8-9.1-27.6-19.7-27.2-15.6.6-24.2 57.9-27.7 57.2-4.7-.9 18.7-100.6 0-108.1-10.3-4.2-28.8 21.7-29.9 23.3-25.3 36-12.6 82.3-11.4 86.5 4.6 15.7 12.3 28.3 9.7 30-3.9 2.5-22.9-25.2-29.9-21.6-7.2 3.7 4.5 37.3-1.7 39.9-4.9 2.1-14.2-18.4-23.3-16.6-10.4 2-8.8 30.8-20 33.3-6.7 1.4-9.5-8.3-23.3-13.3-13.2-4.8-30.8-3-34.9 5-4.8 9.2 9.8 23.7 6.7 26.6-3.5 3.3-18.6-17.3-43.3-20-2.9-.3-23.1-2.2-38.3 10-9.7 7.8-9 14.6-16.6 16.6-11.3 3-18.1-10.5-33.3-11.6-5.7-.4-13.1 7.1-22.3 16.1-2.7 2.7-.8 7.3 3 7.3l358.9-.6c5.1 0 9.3-4 9.5-9.1l.2-9z"/><path class="st7" d="M5159.5 1581.9c-42.4-149.9 0-183.1 0-183.1m32.7 46.7s4.9 71.7-29.9 120.4m-56.5-55.2s7 40.4 49.1 68.2m85.6-77.8s-.4 76.5-72.1 77.8m-18.4 6.9s-66.8-17.6-71.4-48.9m-65.4 16.4s18.6 30.6 60.3 32.6m-67.5 3.9s-51.4-.1-74.8-17.7m49.3 8.6s-20.3-4.3-27.8-16.2"/><path d="M5263 1639.9c9.9 0 14.8-12 7.7-19-19.9-19.5-40.1-37.8-62.5-55.3-41.8-32.6-92.8-49.3-137.6-73-46.5-24.7-89.2-57.4-138.1-72-49.9-14.9-103.4-10.8-155-14.8-63.1-4.8-127.8-15-191.7-3.3-61.3 11.3-118.6 43.3-179.1 69.1-57 24.3-119.8 42.8-174.7 79.5-31.8 21.3-61.3 44.2-90.6 69.3-7.8 6.7-3.1 19.5 7.2 19.5H5263z" style="fill:#b680c1;stroke:#685c7f;stroke-width:2;stroke-miterlimit:10"/><ellipse class="st9" cx="4338.6" cy="1570.3" rx="46.8" ry="20.5"/><ellipse class="st9" cx="4399.8" cy="1525.1" rx="18.6" ry="12.1"/><ellipse class="st9" cx="4451.7" cy="1538.4" rx="15.4" ry="10"/><ellipse class="st9" cx="5125.3" cy="1584.1" rx="31.3" ry="13.7"/><path class="st6" d="M4503.5 1535.2c-2.8-.6-20.9-4.7-27-15.3-4.6-8.1-1.7-19.1 9-22.4 11.2-3.5 27.1 2.7 28.8 1 1.8-1.9-19.8-6.7-25.2-17.3-3.8-7.5.6-17.3 10.8-20.4 11.2-3.4 25 2.8 28.8 0 3.4-2.5-7.9-7.5-10.8-17.3-.7-2.3-4.1-14 9-20.4 12-5.8 32.7 1.3 36-2 3.4-3.6-20.2-10.1-19.8-20.4.3-7.7 14.1-15.9 27-16.3 11.8-.4 17.4 5.8 25.2 4.1 8.7-2 3.8-10.2 14.4-14.3 10.8-4.2 29.6-.9 36 3.1.6.4 1.1.7 1.1.7 6.3 4.5 4.7 9.3 6.1 9.5 2.3.2 2.5-14.1 14.4-17.3 9.6-2.6 26.8 2 34.2 9.2 8.9 8.6-.3 17.3 7.2 20.4 7.7 3.2 23-7.7 30.6-5.1 9.7 3.4-6.9 23.6 5.4 28.6 4.9 2 8.6-.8 18 1 12.3 2.4 22.6 10.5 21.6 18.4-.1 1.1-.7 4.5-4.7 7.8-5.1 4.2-11.7 4.7-11.5 6.5.3 2.5 13.5 1.5 23.4 6.1 11 5.1 15.5 16 9 22.4-5.4 5.3-16.9 6.4-16.2 8.2.9 2.2 17.8-.7 25.2 3.1 6.8 3.4 6.8 13.1-12.6 36.7l-293.4 1.7z"/><circle class="st10" cx="4603.9" cy="1497.5" r="4.3"/><circle class="st10" cx="4643" cy="1474" r="4.3"/><circle class="st10" cx="4580.4" cy="1411.4" r="4.3"/><circle class="st10" cx="4588.3" cy="1442.7" r="4.3"/><circle class="st10" cx="4549.1" cy="1481.9" r="4.3"/><circle class="st10" cx="4627.4" cy="1411.4" r="4.3"/><circle class="st10" cx="4635.2" cy="1420" r="4.3"/><circle class="st10" cx="4674.4" cy="1514" r="4.3"/><circle class="st10" cx="4556.9" cy="1506.1" r="4.3"/><circle class="st10" cx="4674.4" cy="1435.7" r="4.3"/><circle class="st10" cx="4723" cy="1474" r="4.3"/><circle class="st10" cx="4714.4" cy="1425.7" r="4.3"/><path d="M4841.5 1073.5v34.6c0 11.1-9 20.2-20.2 20.2h-8.1v-106.7h-48.6v130.2h-5.7c-23.4 0-42.5-19.1-42.5-42.5v-68.8H4701v68.8c0 31.9 26 57.9 57.9 57.9h5.7v367.1h48.6v-390.6h8.1c19.6 0 35.6-16 35.6-35.6v-34.6h-15.4z" style="fill:#cc6981;stroke:#592e38;stroke-width:2;stroke-miterlimit:10"/><path d="M4774 1084.4v71.3m29.3-65.1v109.8m-15.4-77.5v109.9m-13.9-18.9v71.3m0 13.4v32.8m15.4-63.6v132.9m10-177.6v133m-25.4 19.6v132.9m23.1-71.3v86.7" style="fill:none;stroke:#a35467;stroke-width:3;stroke-linecap:round;stroke-miterlimit:10"/><path d="M4991.5 910.4c0 14.5-12.9 27.4-16 41-3.2 14 2.8 31.2-3.4 43.9-6.2 12.9-23.4 18.9-32.2 30-8.9 11.1-11 29.2-22.1 38.1-11.1 8.8-29.1 6.9-42 13.1-12.7 6.1-22.4 21.5-36.4 24.7-13.6 3.1-29-6.5-43.5-6.5s-29.9 9.6-43.5 6.5c-14-3.2-23.7-18.6-36.4-24.7-12.9-6.2-31-4.2-42-13.1-11.1-8.9-13.2-27-22.1-38.1-8.8-11.1-26-17.1-32.2-30-6.1-12.7-.2-29.8-3.4-43.9-3.1-13.6-16-26.5-16-41s12.9-27.4 16-41c3.2-14-2.8-31.2 3.4-43.9 6.2-12.9 23.4-18.9 32.2-30 8.9-11.1 11-29.2 22.1-38.1 11.1-8.8 29.1-6.9 42-13.1 12.7-6.1 22.4-21.5 36.4-24.7 13.6-3.1 29 6.5 43.5 6.5s29.9-9.6 43.5-6.5c14 3.2 23.7 18.6 36.4 24.7 12.9 6.2 31 4.2 42 13.1 11.1 8.9 13.2 27 22.1 38.1 8.8 11.1 26 17.1 32.2 30 6.1 12.7.2 29.8 3.4 43.9 3.1 13.6 16 26.5 16 41z" style="fill:#e27695"/><path d="M4991.5 910.4c0 14.5-12.9 27.4-16 41-3.2 14 2.8 31.2-3.4 43.9-6.2 12.9-23.4 18.9-32.2 30-8.9 11.1-11 29.2-22.1 38.1-11.1 8.8-29.1 6.9-42 13.1-12.7 6.1-22.4 21.5-36.4 24.7-13.6 3.1-29-6.5-43.5-6.5s-29.9 9.6-43.5 6.5c-14-3.2-23.7-18.6-36.4-24.7-12.9-6.2-31-4.2-42-13.1-11.1-8.9-13.2-27-22.1-38.1-8.8-11.1-26-17.1-32.2-30-6.1-12.7-.2-29.8-3.4-43.9-3.1-13.6-16-26.5-16-41s12.9-27.4 16-41c3.2-14-2.8-31.2 3.4-43.9 6.2-12.9 23.4-18.9 32.2-30 8.9-11.1 11-29.2 22.1-38.1 11.1-8.8 29.1-6.9 42-13.1 12.7-6.1 22.4-21.5 36.4-24.7 13.6-3.1 29 6.5 43.5 6.5s29.9-9.6 43.5-6.5c14 3.2 23.7 18.6 36.4 24.7 12.9 6.2 31 4.2 42 13.1 11.1 8.9 13.2 27 22.1 38.1 8.8 11.1 26 17.1 32.2 30 6.1 12.7.2 29.8 3.4 43.9 3.1 13.6 16 26.5 16 41z" style="fill:none;stroke:#7f3d4f;stroke-width:2;stroke-miterlimit:10"/><path class="st15" d="M4671.2 861.5c-.4-1.3-.7-2.6-.9-4 .1.9.2 1.9.4 2.8-.3-2.2-.3-4.3 0-6.5-.1.9-.2 1.9-.4 2.8.3-2.2.9-4.3 1.7-6.3-.4.8-.7 1.7-1.1 2.5.8-1.8 1.8-3.5 3-5.1-.5.7-1.1 1.4-1.6 2.1 1.3-1.7 2.8-3.2 4.6-4.5-.7.5-1.4 1.1-2.1 1.6 1.7-1.3 3.6-2.4 5.6-3.2-.8.4-1.7.7-2.5 1.1 1.8-.7 3.6-1.2 5.5-1.5 2.4-.4 5.1-2.8 6.3-4.8 1.3-2.3 1.9-5.6 1.1-8.1s-2.4-5-4.8-6.3c-.8-.4-1.7-.7-2.5-1.1-1.9-.5-3.7-.5-5.6 0-9.3 1.5-17.6 7.6-22.7 15.3-5.5 8.2-6.9 19.4-4 28.8.8 2.6 2.5 4.9 4.8 6.3 2.3 1.3 5.6 1.9 8.1 1.1 5.1-1.8 8.8-7.4 7.1-13z"/><circle class="st16" cx="4717.1" cy="961.4" r="18.6"/><path class="st15" d="M4847.5 1027.6c5.4 1.6 10.8 1.7 16.4.9 5.3-.8 10.1-3.3 14.3-6.6 8-6.4 11.6-17.7 9-27.6-.7-2.5-2.6-5-4.8-6.3-2.3-1.3-5.6-1.9-8.1-1.1-5.5 1.8-8.8 7.2-7.3 12.9.2.6.3 1.2.4 1.8-.1-.9-.2-1.9-.4-2.8.2 1.3.2 2.6 0 4 .1-.9.2-1.9.4-2.8-.2 1.6-.6 3.1-1.3 4.5.4-.8.7-1.7 1.1-2.5-.6 1.4-1.3 2.6-2.2 3.8.5-.7 1.1-1.4 1.6-2.1-1 1.3-2.1 2.4-3.4 3.4.7-.5 1.4-1.1 2.1-1.6-1.3.9-2.6 1.7-4.1 2.3.8-.4 1.7-.7 2.5-1.1-1.7.7-3.5 1.2-5.4 1.5.9-.1 1.9-.3 2.8-.4-2.3.3-4.6.3-6.8 0 .9.1 1.9.3 2.8.4-1.3-.2-2.6-.5-3.9-.9-5.3-1.6-11.7 1.9-12.9 7.3-1.5 5.7 1.5 11.3 7.2 13zm-100.7-229.8c6.4-.5 12.8-.3 19.1.5 2.5.3 5.8-1.4 7.4-3.1 1.8-1.8 3.2-4.8 3.1-7.4-.1-2.7-1-5.5-3.1-7.4-.7-.5-1.4-1.1-2.1-1.6-1.6-.9-3.4-1.4-5.3-1.4-6.3-.8-12.7-1-19.1-.5-2.8.2-5.4 1-7.4 3.1-1.8 1.8-3.2 4.8-3.1 7.4.1 2.7 1 5.5 3.1 7.4 1.9 1.7 4.7 3.2 7.4 3zm114.5 39c2.7 0 5.5-1.2 7.4-3.1 1.8-1.8 3.2-4.8 3.1-7.4-.3-5.7-4.6-10.5-10.5-10.5-2.7 0-5.5 1.2-7.4 3.1-1.8 1.8-3.2 4.8-3.1 7.4.2 5.7 4.6 10.5 10.5 10.5zm-45 122.1c4.9.8 9.6.8 14.4-.5 4.7-1.4 8.7-3.7 12.5-6.8 3.1-2.5 5.8-5.7 7.7-9.1 2.4-4.3 3.6-8.8 4-13.7.2-2.6-1.3-5.7-3.1-7.4-1.8-1.8-4.8-3.2-7.4-3.1-2.7.1-5.5 1-7.4 3.1-2 2.1-2.9 4.5-3.1 7.4 0 .5-.1.9-.1 1.4.1-.9.2-1.9.4-2.8-.3 1.7-.7 3.3-1.4 4.9.4-.8.7-1.7 1.1-2.5-.8 1.8-1.8 3.5-3 5 .5-.7 1.1-1.4 1.6-2.1-1.2 1.5-2.6 2.9-4.1 4.1.7-.5 1.4-1.1 2.1-1.6-1.6 1.3-3.4 2.3-5.3 3.1.8-.4 1.7-.7 2.5-1.1-1.8.7-3.7 1.3-5.6 1.5.9-.1 1.9-.3 2.8-.4-1.7.2-3.4.2-5.1 0 .9.1 1.9.3 2.8.4-.2 0-.5-.1-.7-.1-2.9-.5-5.5-.5-8.1 1.1-2.2 1.3-4.3 3.8-4.8 6.3-.6 2.7-.5 5.7 1.1 8.1 1.3 2.1 3.6 4.4 6.2 4.8zm102.5-80.6c.9.9 1.8 1.9 2.6 2.9-.5-.7-1.1-1.4-1.6-2.1 1.8 2.4 3.3 5 4.5 7.7-.4-.8-.7-1.7-1.1-2.5 1.1 2.8 1.9 5.7 2.3 8.6-.1-.9-.2-1.9-.4-2.8.4 3 .4 6 0 8.9.1-.9.2-1.9.4-2.8l-.3 1.5c-.5 2.8-.4 5.5 1.1 8.1 1.3 2.2 3.8 4.3 6.3 4.8 2.7.6 5.7.5 8.1-1.1 2.2-1.4 4.3-3.6 4.8-6.3 1.3-7.2 1.2-14.5-.9-21.5-2.1-6.9-5.8-13.2-10.9-18.4-1.9-1.9-4.7-3.1-7.4-3.1-2.6 0-5.7 1.1-7.4 3.1-4 4.4-4.3 10.8-.1 15zM4768 867.5c-.1.1-.2.1-.3.2.7-.5 1.4-1.1 2.1-1.6-.9.7-1.9 1.3-3 1.7.8-.4 1.7-.7 2.5-1.1-1.2.5-2.4.8-3.7 1 .9-.1 1.9-.3 2.8-.4-1.3.1-2.5.1-3.8 0 .9.1 1.9.2 2.8.4-1.2-.2-2.3-.5-3.3-.9.8.4 1.7.7 2.5 1.1-1.1-.5-2.2-1.1-3.1-1.8.7.5 1.4 1.1 2.1 1.6-1-.8-1.8-1.6-2.5-2.6.5.7 1.1 1.4 1.6 2.1-.7-1-1.3-2-1.8-3.1.4.8.7 1.7 1.1 2.5-.5-1.1-.8-2.3-1-3.5.1.9.2 1.9.4 2.8v-.3c.1-1.4-.2-2.8-.9-4-.4-1.3-1.1-2.4-2.2-3.4-1.8-1.8-4.8-3.2-7.4-3.1-2.7.1-5.5 1-7.4 3.1-1.8 1.9-3.4 4.7-3.1 7.4.5 4.3 1.5 8.4 4.1 12 2.5 3.5 5.6 6.6 9.5 8.4 2.6 1.2 4.6 1.9 7.4 2.2 2.3.3 4.3.3 6.6 0s4.2-.8 6.3-1.7c2.6-1.1 4.4-2.3 6.7-4.1 2-1.5 3.1-5.1 3.1-7.4 0-2.6-1.1-5.7-3.1-7.4-2-1.8-4.6-3.2-7.4-3.1-.9.1-1.9.2-2.8.4-1.9.4-3.5 1.3-4.8 2.6z"/><circle class="st16" cx="4926.2" cy="961.4" r="10.9"/><circle class="st16" cx="4825.3" cy="756.1" r="10.9"/><circle class="st16" cx="4756.4" cy="1054.5" r="10.9"/><path class="st15" d="M4751.1 1006.3c8 3.1 16.2 5.1 24.8 3.4 3.9-.8 7.5-2.6 10.6-5 3.9-3 6.4-6.7 8.1-11.3.9-2.5.2-5.9-1.1-8.1-1.3-2.2-3.8-4.3-6.3-4.8-2.7-.6-5.7-.5-8.1 1.1-2.4 1.5-3.9 3.6-4.8 6.3-.1.2-.2.4-.2.7.4-.8.7-1.7 1.1-2.5-.4 1-.9 1.9-1.6 2.7.5-.7 1.1-1.4 1.6-2.1-.7.9-1.6 1.7-2.5 2.4.7-.5 1.4-1.1 2.1-1.6-1.1.8-2.2 1.4-3.4 2 .8-.4 1.7-.7 2.5-1.1-1.6.7-3.2 1.1-4.9 1.3.9-.1 1.9-.3 2.8-.4-2 .2-4.1.2-6.1-.1.9.1 1.9.3 2.8.4-4.1-.6-8-2-11.9-3.5-2.4-.9-6-.2-8.1 1.1-2.2 1.3-4.3 3.8-4.8 6.3-.6 2.7-.5 5.7 1.1 8.1.5.7 1.1 1.4 1.6 2.1 1.4 1.2 2.9 2.1 4.7 2.6zm-88.2-53.3c-2.4-5.9-4.2-12.1-5.3-18.4-.4-2.5-2.7-5.1-4.8-6.3-2.3-1.3-5.6-1.9-8.1-1.1-2.5.8-5 2.4-6.3 4.8-.4.8-.7 1.7-1.1 2.5-.5 1.9-.5 3.7 0 5.6 1.1 6.3 2.9 12.4 5.3 18.4.3 1.4 1 2.6 1.9 3.6.7 1.1 1.7 2 2.9 2.7 2.3 1.3 5.6 1.9 8.1 1.1s5-2.4 6.3-4.8 2.1-5.6 1.1-8.1z"/><path class="st6" d="M4913 1507.6c-3.6-1.3-9.3.3-12.7 2.5-5.7 3.5-7 8.4-8.1 8-2.7-1 12.5-41.8-14-40.4-.2 0-.4 0-.6.1-27.4 4.2-8.1 45.5-7.5 47.3 5 14.8-15.6-3-15-23.9.3-9.4 3.7-8.3 2.8-16.5-.6-5.5-9.5-8-14.8-6.5-9.1 2.5-10.9 18.1-11.3 21.3-1.2 10.2 1.8 17.8-.4 18.7-1.9.8-4-5-10.9-7.4-1.1-.4-7.7-2.7-12.6.9-4.9 3.5-4.8 10.5-4.8 11.7.1 6 3.4 9.9 2.6 10.4-.8.6-3.9-3.7-8.7-7.4-6.6-5.1-17.2-9.9-21.3-6.5-3.4 2.8.3 9.5-3 11.7-3.1 2.1-7.1-3.4-15.2-3.9-9.2-.6-11.2 6.1-20 5.2-7.6-.8-9.9-6.1-14.8-4.8-2 .5-3.5 1.9-4.8 3.7-2.4 3.4 0 8 4.2 8h185.3c1.9 0 3.6-1 4.5-2.6 3.9-7 12.7-25.4 1.1-29.6z"/><g><path class="st6" d="M4137.7 1622.2c-5.7-6.3-13.2-16.3-18.3-29.9-9.9-26.3-7.7-57.7 0-59.7 5.8-1.5 14.7 13.6 22.3 26.6 11.2 19 16.9 36.7 17.6 36.5 1.2-.4-23-45.4-9.2-88.2.6-1.8 9.1-27.6 19.7-27.2 15.6.6 24.2 57.9 27.7 57.2 4.7-.9-18.7-100.6 0-108.1 10.3-4.2 28.8 21.7 29.9 23.3 25.3 36 12.6 82.3 11.4 86.5-4.6 15.7-12.3 28.3-9.7 30 3.9 2.5 22.9-25.2 29.9-21.6 7.2 3.7-4.5 37.3 1.7 39.9 4.9 2.1 14.2-18.4 23.3-16.6 10.4 2 8.8 30.8 20 33.3 6.7 1.4 9.5-8.3 23.3-13.3 13.2-4.8 30.8-3 34.9 5 4.8 9.2-9.8 23.7-6.7 26.6 3.5 3.3 18.6-17.3 43.3-20 2.9-.3 23.1-2.2 38.3 10 9.7 7.8 9 14.6 16.6 16.6 11.3 3 18.1-10.5 33.3-11.6 5.7-.4 13.1 7.1 22.3 16.1 2.7 2.7.8 7.3-3 7.3l-358.9-.6c-5.1 0-9.3-4-9.5-9.1l-.2-9z"/><path class="st7" d="M4200.2 1626.4c42.4-149.9 0-183.1 0-183.1m-32.7 46.8s-4.9 71.7 29.9 120.4m56.4-55.3s-7 40.4-49.1 68.2m-85.5-77.7s.4 76.5 72.1 77.8m18.3 6.9s66.8-17.6 71.4-48.9m65.5 16.3s-18.6 30.6-60.3 32.6m67.4 3.9s51.4-.1 74.8-17.7m-49.3 8.6s20.3-4.3 27.8-16.2"/></g><path class="st6" d="M5055.2 1640.2c1.3 0 2.5-.5 3.5-1.3 3.6-3.1 11.6-11.4 11.1-23.1 0-.7-.7-14.3-7.5-16.5-10.2-3.3-24.7 21.6-30.6 18.4-3.5-1.9 1.5-11.1-3.9-18.6-4.6-6.5-15.6-9.6-21.5-5.9-7.6 4.7-3.9 18.6-9.8 20.5-3.9 1.3-6.4-4.7-14.7-7.8-11.3-4.3-26.8-.8-30.3 6.8-3.2 7 4.8 14.9 2 17.6-2.9 2.7-10.5-6.3-24.4-7.8-14.8-1.6-26.5 6.5-28.3 7.8l-.1.1c-4.2 3-2 9.7 3.2 9.7h151.3v.1z"/></svg>