<?xml version="1.0" encoding="utf-8"?>
<!-- Generator: Adobe Illustrator 26.2.1, SVG Export Plug-In . SVG Version: 6.00 Build 0)  -->
<svg version="1.1" id="Layer_2" xmlns="http://www.w3.org/2000/svg" xmlns:xlink="http://www.w3.org/1999/xlink" x="0px" y="0px"
	 viewBox="0 0 5476 2249.7" style="enable-background:new 0 0 5476 2249.7;" xml:space="preserve">
<style type="text/css">
	.st0{fill:none;stroke:#624166;stroke-width:2;stroke-miterlimit:10;}
	.st1{fill:none;stroke:#624166;stroke-width:6;stroke-linecap:round;stroke-miterlimit:10;}
	.st2{fill:#93588F;stroke:#624166;stroke-width:2;stroke-miterlimit:10;}
	.st3{fill:#A3629F;stroke:#624166;stroke-width:2;stroke-miterlimit:10;}
	.st4{fill:none;stroke:#F2C7DD;stroke-width:6;stroke-linecap:round;stroke-linejoin:round;stroke-miterlimit:10;}
	.st5{fill:#A3629F;}
	.st6{fill:#E27695;stroke:#7F3D4F;stroke-width:2;stroke-miterlimit:10;}
	.st7{fill:none;stroke:#C45781;stroke-width:2;stroke-linecap:round;stroke-miterlimit:10;}
	.st8{fill:#B680C1;stroke:#685C7F;stroke-width:2;stroke-miterlimit:10;}
	.st9{fill:#A777B2;}
	.st10{fill:#CC547F;}
	.st11{fill:#CC6981;stroke:#592E38;stroke-width:2;stroke-miterlimit:10;}
	.st12{fill:none;stroke:#A35467;stroke-width:3;stroke-linecap:round;stroke-miterlimit:10;}
	.st13{fill:#E27695;}
	.st14{fill:none;stroke:#7F3D4F;stroke-width:2;stroke-miterlimit:10;}
	.st15{fill:#C46681;}
	.st16{fill:none;stroke:#CC6281;stroke-width:2;stroke-miterlimit:10;}
</style>
<g>
	<path class="st0" d="M3987.9,1408.7c0,0,13.3,105.6,123.7,77.4c0,0,97.9-44,188.2-31.3"/>
	<g>
		<line class="st1" x1="3696.3" y1="1318.1" x2="3594.8" y2="1509"/>
		<path class="st2" d="M3426,1397.3l29.8,105.6c3.4,12,14.4,20.4,26.9,20.4h376.7c18.8,0,37.1-6.4,51.7-18.3
			c17.7-14.4,38.4-35.7,54.1-65.9c10.1-19.5,15.8-38,19-53.4c1.6-7.8-4.4-15.2-12.4-15.2h-525.5
			C3432.4,1370.5,3422.2,1383.9,3426,1397.3z"/>
		<line class="st0" x1="3432.5" y1="1421.4" x2="3973.9" y2="1421.4"/>
		<path class="st3" d="M3987.9,1408.7h-565.1c-5,0-9.1-4.1-9.1-9.1v-24.9c0-5,4.1-9.1,9.1-9.1h565.1c5,0,9.1,4.1,9.1,9.1v24.9
			C3997.1,1404.6,3993,1408.7,3987.9,1408.7z"/>
		<g>
			<path class="st4" d="M3193,1523.4c91.9,0,91.9,6,183.7,6c91.9,0,91.9-6,183.7-6c91.9,0,91.9,6,183.7,6c91.9,0,91.9-6,183.7-6
				c91.9,0,91.9,6,183.7,6"/>
		</g>
		<line class="st1" x1="3726.3" y1="1340.5" x2="3522.9" y2="1549.4"/>
		<path class="st5" d="M3934.9,1449.8h-45.4c-5.1,0-9.2-4.1-9.2-9.2l0,0c0-5.1,4.1-9.2,9.2-9.2h45.4c5.1,0,9.2,4.1,9.2,9.2l0,0
			C3944.1,1445.6,3940,1449.8,3934.9,1449.8z"/>
	</g>
</g>
<g>
	<g>
		<path class="st6" d="M5222,1477.6c5.7-6.3,13.2-16.3,18.3-29.9c9.9-26.3,7.7-57.7,0-59.7c-5.8-1.5-14.7,13.6-22.3,26.6
			c-11.2,19-16.9,36.7-17.6,36.5c-1.2-0.4,23-45.4,9.2-88.2c-0.6-1.8-9.1-27.6-19.7-27.2c-15.6,0.6-24.2,57.9-27.7,57.2
			c-4.7-0.9,18.7-100.6,0-108.1c-10.3-4.2-28.8,21.7-29.9,23.3c-25.3,36-12.6,82.3-11.4,86.5c4.6,15.7,12.3,28.3,9.7,30
			c-3.9,2.5-22.9-25.2-29.9-21.6c-7.2,3.7,4.5,37.3-1.7,39.9c-4.9,2.1-14.2-18.4-23.3-16.6c-10.4,2-8.8,30.8-20,33.3
			c-6.7,1.4-9.5-8.3-23.3-13.3c-13.2-4.8-30.8-3-34.9,5c-4.8,9.2,9.8,23.7,6.7,26.6c-3.5,3.3-18.6-17.3-43.3-20
			c-2.9-0.3-23.1-2.2-38.3,10c-9.7,7.8-9,14.6-16.6,16.6c-11.3,3-18.1-10.5-33.3-11.6c-5.7-0.4-13.1,7.1-22.3,16.1
			c-2.7,2.7-0.8,7.3,3,7.3l358.9-0.6c5.1,0,9.3-4,9.5-9.1L5222,1477.6z"/>
		<path class="st7" d="M5159.5,1481.9c-42.4-149.9,0-183.1,0-183.1"/>
		<path class="st7" d="M5192.2,1345.5c0,0,4.9,71.7-29.9,120.4"/>
		<path class="st7" d="M5105.8,1410.7c0,0,7,40.4,49.1,68.2"/>
		<path class="st7" d="M5240.5,1401.1c0,0-0.4,76.5-72.1,77.8"/>
		<path class="st7" d="M5150,1485.8c0,0-66.8-17.6-71.4-48.9"/>
		<path class="st7" d="M5013.2,1453.3c0,0,18.6,30.6,60.3,32.6"/>
		<path class="st7" d="M5006,1489.8c0,0-51.4-0.1-74.8-17.7"/>
		<path class="st7" d="M4980.5,1480.7c0,0-20.3-4.3-27.8-16.2"/>
	</g>
	<g>
		<path class="st8" d="M5263,1539.9c9.9,0,14.8-12,7.7-19c-19.9-19.5-40.1-37.8-62.5-55.3c-41.8-32.6-92.8-49.3-137.6-73
			c-46.5-24.7-89.2-57.4-138.1-72c-49.9-14.9-103.4-10.8-155-14.8c-63.1-4.8-127.8-15-191.7-3.3c-61.3,11.3-118.6,43.3-179.1,69.1
			c-57,24.3-119.8,42.8-174.7,79.5c-31.8,21.3-61.3,44.2-90.6,69.3c-7.8,6.7-3.1,19.5,7.2,19.5H5263z"/>
	</g>
	<ellipse class="st9" cx="4338.6" cy="1470.3" rx="46.8" ry="20.5"/>
	<ellipse class="st9" cx="4399.8" cy="1425.1" rx="18.6" ry="12.1"/>
	<ellipse class="st9" cx="4451.7" cy="1438.4" rx="15.4" ry="10"/>
	<ellipse class="st9" cx="5125.3" cy="1484.1" rx="31.3" ry="13.7"/>
	<g>
		<path class="st6" d="M4503.5,1435.2c-2.8-0.6-20.9-4.7-27-15.3c-4.6-8.1-1.7-19.1,9-22.4c11.2-3.5,27.1,2.7,28.8,1
			c1.8-1.9-19.8-6.7-25.2-17.3c-3.8-7.5,0.6-17.3,10.8-20.4c11.2-3.4,25,2.8,28.8,0c3.4-2.5-7.9-7.5-10.8-17.3
			c-0.7-2.3-4.1-14,9-20.4c12-5.8,32.7,1.3,36-2c3.4-3.6-20.2-10.1-19.8-20.4c0.3-7.7,14.1-15.9,27-16.3c11.8-0.4,17.4,5.8,25.2,4.1
			c8.7-2,3.8-10.2,14.4-14.3c10.8-4.2,29.6-0.9,36,3.1c0.6,0.4,1.1,0.7,1.1,0.7c6.3,4.5,4.7,9.3,6.1,9.5c2.3,0.2,2.5-14.1,14.4-17.3
			c9.6-2.6,26.8,2,34.2,9.2c8.9,8.6-0.3,17.3,7.2,20.4c7.7,3.2,23-7.7,30.6-5.1c9.7,3.4-6.9,23.6,5.4,28.6c4.9,2,8.6-0.8,18,1
			c12.3,2.4,22.6,10.5,21.6,18.4c-0.1,1.1-0.7,4.5-4.7,7.8c-5.1,4.2-11.7,4.7-11.5,6.5c0.3,2.5,13.5,1.5,23.4,6.1
			c11,5.1,15.5,16,9,22.4c-5.4,5.3-16.9,6.4-16.2,8.2c0.9,2.2,17.8-0.7,25.2,3.1c6.8,3.4,6.8,13.1-12.6,36.7L4503.5,1435.2z"/>
		<circle class="st10" cx="4603.9" cy="1397.5" r="4.3"/>
		<circle class="st10" cx="4643" cy="1374" r="4.3"/>
		<circle class="st10" cx="4580.4" cy="1311.4" r="4.3"/>
		<circle class="st10" cx="4588.3" cy="1342.7" r="4.3"/>
		<circle class="st10" cx="4549.1" cy="1381.9" r="4.3"/>
		<circle class="st10" cx="4627.4" cy="1311.4" r="4.3"/>
		<circle class="st10" cx="4635.2" cy="1320" r="4.3"/>
		<circle class="st10" cx="4674.4" cy="1414" r="4.3"/>
		<circle class="st10" cx="4556.9" cy="1406.1" r="4.3"/>
		<circle class="st10" cx="4674.4" cy="1335.7" r="4.3"/>
		<circle class="st10" cx="4723" cy="1374" r="4.3"/>
		<circle class="st10" cx="4714.4" cy="1325.7" r="4.3"/>
	</g>
	<g>
		<g>
			<g>
				<path class="st11" d="M4841.5,973.5v34.6c0,11.1-9,20.2-20.2,20.2h-8.1V921.6h-48.6v130.2h-5.7c-23.4,0-42.5-19.1-42.5-42.5
					v-68.8H4701v68.8c0,31.9,26,57.9,57.9,57.9h5.7v367.1h48.6v-390.6h8.1c19.6,0,35.6-16,35.6-35.6v-34.6H4841.5z"/>
				<line class="st12" x1="4774" y1="984.4" x2="4774" y2="1055.7"/>
				<line class="st12" x1="4803.3" y1="990.6" x2="4803.3" y2="1100.4"/>
				<line class="st12" x1="4787.9" y1="1022.9" x2="4787.9" y2="1132.8"/>
				<line class="st12" x1="4774" y1="1113.9" x2="4774" y2="1185.2"/>
				<line class="st12" x1="4774" y1="1198.6" x2="4774" y2="1231.4"/>
				<line class="st12" x1="4789.4" y1="1167.8" x2="4789.4" y2="1300.7"/>
				<line class="st12" x1="4799.4" y1="1123.1" x2="4799.4" y2="1256.1"/>
				<line class="st12" x1="4774" y1="1275.7" x2="4774" y2="1408.6"/>
				<line class="st12" x1="4797.1" y1="1337.3" x2="4797.1" y2="1424"/>
				<g>
					<path class="st13" d="M4991.5,810.4c0,14.5-12.9,27.4-16,41c-3.2,14,2.8,31.2-3.4,43.9c-6.2,12.9-23.4,18.9-32.2,30
						c-8.9,11.1-11,29.2-22.1,38.1c-11.1,8.8-29.1,6.9-42,13.1c-12.7,6.1-22.4,21.5-36.4,24.7c-13.6,3.1-29-6.5-43.5-6.5
						s-29.9,9.6-43.5,6.5c-14-3.2-23.7-18.6-36.4-24.7c-12.9-6.2-31-4.2-42-13.1c-11.1-8.9-13.2-27-22.1-38.1
						c-8.8-11.1-26-17.1-32.2-30c-6.1-12.7-0.2-29.8-3.4-43.9c-3.1-13.6-16-26.5-16-41s12.9-27.4,16-41c3.2-14-2.8-31.2,3.4-43.9
						c6.2-12.9,23.4-18.9,32.2-30c8.9-11.1,11-29.2,22.1-38.1c11.1-8.8,29.1-6.9,42-13.1c12.7-6.1,22.4-21.5,36.4-24.7
						c13.6-3.1,29,6.5,43.5,6.5s29.9-9.6,43.5-6.5c14,3.2,23.7,18.6,36.4,24.7c12.9,6.2,31,4.2,42,13.1c11.1,8.9,13.2,27,22.1,38.1
						c8.8,11.1,26,17.1,32.2,30c6.1,12.7,0.2,29.8,3.4,43.9C4978.6,783,4991.5,795.9,4991.5,810.4z"/>
					<path class="st14" d="M4991.5,810.4c0,14.5-12.9,27.4-16,41c-3.2,14,2.8,31.2-3.4,43.9c-6.2,12.9-23.4,18.9-32.2,30
						c-8.9,11.1-11,29.2-22.1,38.1c-11.1,8.8-29.1,6.9-42,13.1c-12.7,6.1-22.4,21.5-36.4,24.7c-13.6,3.1-29-6.5-43.5-6.5
						s-29.9,9.6-43.5,6.5c-14-3.2-23.7-18.6-36.4-24.7c-12.9-6.2-31-4.2-42-13.1c-11.1-8.9-13.2-27-22.1-38.1
						c-8.8-11.1-26-17.1-32.2-30c-6.1-12.7-0.2-29.8-3.4-43.9c-3.1-13.6-16-26.5-16-41s12.9-27.4,16-41c3.2-14-2.8-31.2,3.4-43.9
						c6.2-12.9,23.4-18.9,32.2-30c8.9-11.1,11-29.2,22.1-38.1c11.1-8.8,29.1-6.9,42-13.1c12.7-6.1,22.4-21.5,36.4-24.7
						c13.6-3.1,29,6.5,43.5,6.5s29.9-9.6,43.5-6.5c14,3.2,23.7,18.6,36.4,24.7c12.9,6.2,31,4.2,42,13.1c11.1,8.9,13.2,27,22.1,38.1
						c8.8,11.1,26,17.1,32.2,30c6.1,12.7,0.2,29.8,3.4,43.9C4978.6,783,4991.5,795.9,4991.5,810.4z"/>
				</g>
				<g>
					<g>
						<path class="st15" d="M4671.2,761.5c-0.4-1.3-0.7-2.6-0.9-4c0.1,0.9,0.2,1.9,0.4,2.8c-0.3-2.2-0.3-4.3,0-6.5
							c-0.1,0.9-0.2,1.9-0.4,2.8c0.3-2.2,0.9-4.3,1.7-6.3c-0.4,0.8-0.7,1.7-1.1,2.5c0.8-1.8,1.8-3.5,3-5.1c-0.5,0.7-1.1,1.4-1.6,2.1
							c1.3-1.7,2.8-3.2,4.6-4.5c-0.7,0.5-1.4,1.1-2.1,1.6c1.7-1.3,3.6-2.4,5.6-3.2c-0.8,0.4-1.7,0.7-2.5,1.1
							c1.8-0.7,3.6-1.2,5.5-1.5c2.4-0.4,5.1-2.8,6.3-4.8c1.3-2.3,1.9-5.6,1.1-8.1c-0.8-2.5-2.4-5-4.8-6.3c-0.8-0.4-1.7-0.7-2.5-1.1
							c-1.9-0.5-3.7-0.5-5.6,0c-9.3,1.5-17.6,7.6-22.7,15.3c-5.5,8.2-6.9,19.4-4,28.8c0.8,2.6,2.5,4.9,4.8,6.3
							c2.3,1.3,5.6,1.9,8.1,1.1C4669.2,772.7,4672.9,767.1,4671.2,761.5L4671.2,761.5z"/>
					</g>
				</g>
				<circle class="st16" cx="4717.1" cy="861.4" r="18.6"/>
				<g>
					<g>
						<path class="st15" d="M4847.5,927.6c5.4,1.6,10.8,1.7,16.4,0.9c5.3-0.8,10.1-3.3,14.3-6.6c8-6.4,11.6-17.7,9-27.6
							c-0.7-2.5-2.6-5-4.8-6.3c-2.3-1.3-5.6-1.9-8.1-1.1c-5.5,1.8-8.8,7.2-7.3,12.9c0.2,0.6,0.3,1.2,0.4,1.8
							c-0.1-0.9-0.2-1.9-0.4-2.8c0.2,1.3,0.2,2.6,0,4c0.1-0.9,0.2-1.9,0.4-2.8c-0.2,1.6-0.6,3.1-1.3,4.5c0.4-0.8,0.7-1.7,1.1-2.5
							c-0.6,1.4-1.3,2.6-2.2,3.8c0.5-0.7,1.1-1.4,1.6-2.1c-1,1.3-2.1,2.4-3.4,3.4c0.7-0.5,1.4-1.1,2.1-1.6c-1.3,0.9-2.6,1.7-4.1,2.3
							c0.8-0.4,1.7-0.7,2.5-1.1c-1.7,0.7-3.5,1.2-5.4,1.5c0.9-0.1,1.9-0.3,2.8-0.4c-2.3,0.3-4.6,0.3-6.8,0c0.9,0.1,1.9,0.3,2.8,0.4
							c-1.3-0.2-2.6-0.5-3.9-0.9c-5.3-1.6-11.7,1.9-12.9,7.3C4838.8,920.3,4841.8,925.9,4847.5,927.6L4847.5,927.6z"/>
					</g>
				</g>
				<g>
					<g>
						<path class="st15" d="M4746.8,697.8c6.4-0.5,12.8-0.3,19.1,0.5c2.5,0.3,5.8-1.4,7.4-3.1c1.8-1.8,3.2-4.8,3.1-7.4
							c-0.1-2.7-1-5.5-3.1-7.4c-0.7-0.5-1.4-1.1-2.1-1.6c-1.6-0.9-3.4-1.4-5.3-1.4c-6.3-0.8-12.7-1-19.1-0.5c-2.8,0.2-5.4,1-7.4,3.1
							c-1.8,1.8-3.2,4.8-3.1,7.4c0.1,2.7,1,5.5,3.1,7.4C4741.3,696.5,4744.1,698,4746.8,697.8L4746.8,697.8z"/>
					</g>
				</g>
				<g>
					<g>
						<path class="st15" d="M4861.3,736.8c2.7,0,5.5-1.2,7.4-3.1c1.8-1.8,3.2-4.8,3.1-7.4c-0.3-5.7-4.6-10.5-10.5-10.5
							c-2.7,0-5.5,1.2-7.4,3.1c-1.8,1.8-3.2,4.8-3.1,7.4C4851,732,4855.4,736.8,4861.3,736.8L4861.3,736.8z"/>
					</g>
				</g>
				<g>
					<g>
						<path class="st15" d="M4816.3,858.9c4.9,0.8,9.6,0.8,14.4-0.5c4.7-1.4,8.7-3.7,12.5-6.8c3.1-2.5,5.8-5.7,7.7-9.1
							c2.4-4.3,3.6-8.8,4-13.7c0.2-2.6-1.3-5.7-3.1-7.4c-1.8-1.8-4.8-3.2-7.4-3.1c-2.7,0.1-5.5,1-7.4,3.1c-2,2.1-2.9,4.5-3.1,7.4
							c0,0.5-0.1,0.9-0.1,1.4c0.1-0.9,0.2-1.9,0.4-2.8c-0.3,1.7-0.7,3.3-1.4,4.9c0.4-0.8,0.7-1.7,1.1-2.5c-0.8,1.8-1.8,3.5-3,5
							c0.5-0.7,1.1-1.4,1.6-2.1c-1.2,1.5-2.6,2.9-4.1,4.1c0.7-0.5,1.4-1.1,2.1-1.6c-1.6,1.3-3.4,2.3-5.3,3.1
							c0.8-0.4,1.7-0.7,2.5-1.1c-1.8,0.7-3.7,1.3-5.6,1.5c0.9-0.1,1.9-0.3,2.8-0.4c-1.7,0.2-3.4,0.2-5.1,0c0.9,0.1,1.9,0.3,2.8,0.4
							c-0.2,0-0.5-0.1-0.7-0.1c-2.9-0.5-5.5-0.5-8.1,1.1c-2.2,1.3-4.3,3.8-4.8,6.3c-0.6,2.7-0.5,5.7,1.1,8.1
							C4811.4,856.2,4813.7,858.5,4816.3,858.9L4816.3,858.9z"/>
					</g>
				</g>
				<g>
					<g>
						<path class="st15" d="M4918.8,778.3c0.9,0.9,1.8,1.9,2.6,2.9c-0.5-0.7-1.1-1.4-1.6-2.1c1.8,2.4,3.3,5,4.5,7.7
							c-0.4-0.8-0.7-1.7-1.1-2.5c1.1,2.8,1.9,5.7,2.3,8.6c-0.1-0.9-0.2-1.9-0.4-2.8c0.4,3,0.4,6,0,8.9c0.1-0.9,0.2-1.9,0.4-2.8
							c-0.1,0.5-0.2,1-0.3,1.5c-0.5,2.8-0.4,5.5,1.1,8.1c1.3,2.2,3.8,4.3,6.3,4.8c2.7,0.6,5.7,0.5,8.1-1.1c2.2-1.4,4.3-3.6,4.8-6.3
							c1.3-7.2,1.2-14.5-0.9-21.5c-2.1-6.9-5.8-13.2-10.9-18.4c-1.9-1.9-4.7-3.1-7.4-3.1c-2.6,0-5.7,1.1-7.4,3.1
							C4914.9,767.7,4914.6,774.1,4918.8,778.3L4918.8,778.3z"/>
					</g>
				</g>
				<g>
					<g>
						<path class="st15" d="M4768,767.5c-0.1,0.1-0.2,0.1-0.3,0.2c0.7-0.5,1.4-1.1,2.1-1.6c-0.9,0.7-1.9,1.3-3,1.7
							c0.8-0.4,1.7-0.7,2.5-1.1c-1.2,0.5-2.4,0.8-3.7,1c0.9-0.1,1.9-0.3,2.8-0.4c-1.3,0.1-2.5,0.1-3.8,0c0.9,0.1,1.9,0.2,2.8,0.4
							c-1.2-0.2-2.3-0.5-3.3-0.9c0.8,0.4,1.7,0.7,2.5,1.1c-1.1-0.5-2.2-1.1-3.1-1.8c0.7,0.5,1.4,1.1,2.1,1.6c-1-0.8-1.8-1.6-2.5-2.6
							c0.5,0.7,1.1,1.4,1.6,2.1c-0.7-1-1.3-2-1.8-3.1c0.4,0.8,0.7,1.7,1.1,2.5c-0.5-1.1-0.8-2.3-1-3.5c0.1,0.9,0.2,1.9,0.4,2.8
							c0-0.1,0-0.2,0-0.3c0.1-1.4-0.2-2.8-0.9-4c-0.4-1.3-1.1-2.4-2.2-3.4c-1.8-1.8-4.8-3.2-7.4-3.1c-2.7,0.1-5.5,1-7.4,3.1
							c-1.8,1.9-3.4,4.7-3.1,7.4c0.5,4.3,1.5,8.4,4.1,12c2.5,3.5,5.6,6.6,9.5,8.4c2.6,1.2,4.6,1.9,7.4,2.2c2.3,0.3,4.3,0.3,6.6,0
							c2.3-0.3,4.2-0.8,6.3-1.7c2.6-1.1,4.4-2.3,6.7-4.1c2-1.5,3.1-5.1,3.1-7.4c0-2.6-1.1-5.7-3.1-7.4c-2-1.8-4.6-3.2-7.4-3.1
							c-0.9,0.1-1.9,0.2-2.8,0.4C4770.9,765.3,4769.3,766.2,4768,767.5L4768,767.5z"/>
					</g>
				</g>
				<circle class="st16" cx="4926.2" cy="861.4" r="10.9"/>
				<circle class="st16" cx="4825.3" cy="656.1" r="10.9"/>
				<circle class="st16" cx="4756.4" cy="954.5" r="10.9"/>
				<g>
					<g>
						<path class="st15" d="M4751.1,906.3c8,3.1,16.2,5.1,24.8,3.4c3.9-0.8,7.5-2.6,10.6-5c3.9-3,6.4-6.7,8.1-11.3
							c0.9-2.5,0.2-5.9-1.1-8.1c-1.3-2.2-3.8-4.3-6.3-4.8c-2.7-0.6-5.7-0.5-8.1,1.1c-2.4,1.5-3.9,3.6-4.8,6.3
							c-0.1,0.2-0.2,0.4-0.2,0.7c0.4-0.8,0.7-1.7,1.1-2.5c-0.4,1-0.9,1.9-1.6,2.7c0.5-0.7,1.1-1.4,1.6-2.1c-0.7,0.9-1.6,1.7-2.5,2.4
							c0.7-0.5,1.4-1.1,2.1-1.6c-1.1,0.8-2.2,1.4-3.4,2c0.8-0.4,1.7-0.7,2.5-1.1c-1.6,0.7-3.2,1.1-4.9,1.3c0.9-0.1,1.9-0.3,2.8-0.4
							c-2,0.2-4.1,0.2-6.1-0.1c0.9,0.1,1.9,0.3,2.8,0.4c-4.1-0.6-8-2-11.9-3.5c-2.4-0.9-6-0.2-8.1,1.1c-2.2,1.3-4.3,3.8-4.8,6.3
							c-0.6,2.7-0.5,5.7,1.1,8.1c0.5,0.7,1.1,1.4,1.6,2.1C4747.8,904.9,4749.3,905.8,4751.1,906.3L4751.1,906.3z"/>
					</g>
				</g>
				<g>
					<g>
						<path class="st15" d="M4662.9,853c-2.4-5.9-4.2-12.1-5.3-18.4c-0.4-2.5-2.7-5.1-4.8-6.3c-2.3-1.3-5.6-1.9-8.1-1.1
							c-2.5,0.8-5,2.4-6.3,4.8c-0.4,0.8-0.7,1.7-1.1,2.5c-0.5,1.9-0.5,3.7,0,5.6c1.1,6.3,2.9,12.4,5.3,18.4c0.3,1.4,1,2.6,1.9,3.6
							c0.7,1.1,1.7,2,2.9,2.7c2.3,1.3,5.6,1.9,8.1,1.1c2.5-0.8,5-2.4,6.3-4.8C4663.1,858.7,4663.9,855.5,4662.9,853L4662.9,853z"/>
					</g>
				</g>
			</g>
		</g>
	</g>
	<path class="st6" d="M4913,1407.6c-3.6-1.3-9.3,0.3-12.7,2.5c-5.7,3.5-7,8.4-8.1,8c-2.7-1,12.5-41.8-14-40.4c-0.2,0-0.4,0-0.6,0.1
		c-27.4,4.2-8.1,45.5-7.5,47.3c5,14.8-15.6-3-15-23.9c0.3-9.4,3.7-8.3,2.8-16.5c-0.6-5.5-9.5-8-14.8-6.5
		c-9.1,2.5-10.9,18.1-11.3,21.3c-1.2,10.2,1.8,17.8-0.4,18.7c-1.9,0.8-4-5-10.9-7.4c-1.1-0.4-7.7-2.7-12.6,0.9
		c-4.9,3.5-4.8,10.5-4.8,11.7c0.1,6,3.4,9.9,2.6,10.4c-0.8,0.6-3.9-3.7-8.7-7.4c-6.6-5.1-17.2-9.9-21.3-6.5c-3.4,2.8,0.3,9.5-3,11.7
		c-3.1,2.1-7.1-3.4-15.2-3.9c-9.2-0.6-11.2,6.1-20,5.2c-7.6-0.8-9.9-6.1-14.8-4.8c-2,0.5-3.5,1.9-4.8,3.7c-2.4,3.4,0,8,4.2,8h185.3
		c1.9,0,3.6-1,4.5-2.6C4915.8,1430.2,4924.6,1411.8,4913,1407.6z"/>
	<g>
		<path class="st6" d="M4137.7,1522.2c-5.7-6.3-13.2-16.3-18.3-29.9c-9.9-26.3-7.7-57.7,0-59.7c5.8-1.5,14.7,13.6,22.3,26.6
			c11.2,19,16.9,36.7,17.6,36.5c1.2-0.4-23-45.4-9.2-88.2c0.6-1.8,9.1-27.6,19.7-27.2c15.6,0.6,24.2,57.9,27.7,57.2
			c4.7-0.9-18.7-100.6,0-108.1c10.3-4.2,28.8,21.7,29.9,23.3c25.3,36,12.6,82.3,11.4,86.5c-4.6,15.7-12.3,28.3-9.7,30
			c3.9,2.5,22.9-25.2,29.9-21.6c7.2,3.7-4.5,37.3,1.7,39.9c4.9,2.1,14.2-18.4,23.3-16.6c10.4,2,8.8,30.8,20,33.3
			c6.7,1.4,9.5-8.3,23.3-13.3c13.2-4.8,30.8-3,34.9,5c4.8,9.2-9.8,23.7-6.7,26.6c3.5,3.3,18.6-17.3,43.3-20
			c2.9-0.3,23.1-2.2,38.3,10c9.7,7.8,9,14.6,16.6,16.6c11.3,3,18.1-10.5,33.3-11.6c5.7-0.4,13.1,7.1,22.3,16.1
			c2.7,2.7,0.8,7.3-3,7.3l-358.9-0.6c-5.1,0-9.3-4-9.5-9.1L4137.7,1522.2z"/>
		<path class="st7" d="M4200.2,1526.4c42.4-149.9,0-183.1,0-183.1"/>
		<path class="st7" d="M4167.5,1390.1c0,0-4.9,71.7,29.9,120.4"/>
		<path class="st7" d="M4253.8,1455.2c0,0-7,40.4-49.1,68.2"/>
		<path class="st7" d="M4119.2,1445.7c0,0,0.4,76.5,72.1,77.8"/>
		<path class="st7" d="M4209.6,1530.4c0,0,66.8-17.6,71.4-48.9"/>
		<path class="st7" d="M4346.5,1497.8c0,0-18.6,30.6-60.3,32.6"/>
		<path class="st7" d="M4353.6,1534.3c0,0,51.4-0.1,74.8-17.7"/>
		<path class="st7" d="M4379.1,1525.2c0,0,20.3-4.3,27.8-16.2"/>
	</g>
	<path class="st6" d="M5055.2,1540.2c1.3,0,2.5-0.5,3.5-1.3c3.6-3.1,11.6-11.4,11.1-23.1c0-0.7-0.7-14.3-7.5-16.5
		c-10.2-3.3-24.7,21.6-30.6,18.4c-3.5-1.9,1.5-11.1-3.9-18.6c-4.6-6.5-15.6-9.6-21.5-5.9c-7.6,4.7-3.9,18.6-9.8,20.5
		c-3.9,1.3-6.4-4.7-14.7-7.8c-11.3-4.3-26.8-0.8-30.3,6.8c-3.2,7,4.8,14.9,2,17.6c-2.9,2.7-10.5-6.3-24.4-7.8
		c-14.8-1.6-26.5,6.5-28.3,7.8c0,0-0.1,0.1-0.1,0.1c-4.2,3-2,9.7,3.2,9.7H5055.2z"/>
</g>
<g>
</g>
<g>
</g>
<g>
</g>
<g>
</g>
<g>
</g>
<g>
</g>
<g>
</g>
<g>
</g>
<g>
</g>
<g>
</g>
<g>
</g>
<g>
</g>
<g>
</g>
<g>
</g>
<g>
</g>
</svg>
