<?xml version="1.0" encoding="utf-8"?>
<!-- Generator: Adobe Illustrator 26.2.1, SVG Export Plug-In . SVG Version: 6.00 Build 0)  -->
<svg version="1.1" id="Layer_2_00000001647501480954407860000001023038268120092575_"
	 xmlns="http://www.w3.org/2000/svg" xmlns:xlink="http://www.w3.org/1999/xlink" x="0px" y="0px" viewBox="0 0 792.4 498.3"
	 style="enable-background:new 0 0 792.4 498.3;" xml:space="preserve">
<style type="text/css">
	.st0{fill:#9B5F66;}
	.st1{fill:#4C3035;}
	.st2{clip-path:url(#SVGID_00000093896071424736062550000014239854895554065583_);}
	.st3{fill:none;stroke:#B27D85;stroke-linecap:round;stroke-miterlimit:10;}
	.st4{fill:none;stroke:#7F4F56;stroke-width:10;stroke-miterlimit:10;}
	.st5{fill:none;stroke:#4C3035;stroke-width:2;stroke-miterlimit:10;}
	.st6{fill:#BABA6A;stroke:#665D39;stroke-width:2;stroke-miterlimit:10;}
	.st7{fill:none;stroke:#665D39;stroke-linecap:round;stroke-miterlimit:10;}
	.st8{fill:#FC92B1;}
	.st9{fill:none;stroke:#995B73;stroke-width:2;stroke-linecap:round;stroke-miterlimit:10;}
	.st10{clip-path:url(#SVGID_00000061433903022363335200000011988766020063615415_);}
	.st11{clip-path:url(#SVGID_00000091731945343718727150000016402466221333805194_);}
	.st12{clip-path:url(#SVGID_00000135688920208578699660000013197976920529933225_);}
	.st13{clip-path:url(#SVGID_00000176723888881768128950000014357753306292001966_);}
	.st14{clip-path:url(#SVGID_00000093891379062880079430000017152917094203749293_);}
	.st15{fill:#FDFAEA;}
	.st16{fill:#EFEAD8;}
	.st17{clip-path:url(#SVGID_00000182504063221066908550000015029734446243677619_);}
	.st18{fill:none;stroke:#B27D85;stroke-width:2;stroke-linecap:round;stroke-miterlimit:10;}
	.st19{clip-path:url(#SVGID_00000065052937298733977600000007561331086016667538_);}
	.st20{clip-path:url(#SVGID_00000000182031321652141850000000681509832103245454_);}
</style>
<g>
	<g>
		<g>
			<g>
				<g>
					<path class="st0" d="M689.1,261.4c-8.6,0-15.7-7-15.7-15.7V54.9c0-8.6,7-15.7,15.7-15.7s15.7,7,15.7,15.7v190.8
						C704.8,254.4,697.7,261.4,689.1,261.4z"/>
					<path class="st1" d="M689.1,40.2c8.1,0,14.7,6.5,14.7,14.7v190.8c0,8.1-6.5,14.7-14.7,14.7s-14.7-6.5-14.7-14.7V54.9
						C674.3,46.8,681,40.2,689.1,40.2 M689.1,38.2c-9.2,0-16.7,7.5-16.7,16.7v190.8c0,9.2,7.5,16.7,16.7,16.7s16.7-7.5,16.7-16.7
						V54.9C705.8,45.7,698.2,38.2,689.1,38.2L689.1,38.2z"/>
				</g>
				<g>
					<g>
						<defs>
							<path id="SVGID_1_" d="M689.1,260.4L689.1,260.4c-8.1,0-14.7-6.5-14.7-14.7V54.9c0-8.1,6.5-14.7,14.7-14.7l0,0
								c8.1,0,14.7,6.5,14.7,14.7v190.8C703.8,253.9,697.2,260.4,689.1,260.4z"/>
						</defs>
						<clipPath id="SVGID_00000150098941161744686670000007841257514740149918_">
							<use xlink:href="#SVGID_1_"  style="overflow:visible;"/>
						</clipPath>
						<g style="clip-path:url(#SVGID_00000150098941161744686670000007841257514740149918_);">
							<g>
								<line class="st3" x1="680.7" y1="247.7" x2="680.7" y2="313.3"/>
								<line class="st3" x1="688.2" y1="276.7" x2="688.2" y2="342.3"/>
								<line class="st3" x1="698" y1="229.2" x2="698" y2="306.4"/>
								<line class="st3" x1="687.3" y1="250.9" x2="687.3" y2="268.2"/>
								<line class="st3" x1="681.3" y1="321.6" x2="681.3" y2="334.5"/>
							</g>
							<g>
								<line class="st3" x1="680.7" y1="147.3" x2="680.7" y2="212.9"/>
								<line class="st3" x1="688.2" y1="176.3" x2="688.2" y2="241.9"/>
								<line class="st3" x1="698" y1="128.8" x2="698" y2="206"/>
								<line class="st3" x1="687.3" y1="150.5" x2="687.3" y2="167.9"/>
								<line class="st3" x1="681.3" y1="221.3" x2="681.3" y2="234.1"/>
							</g>
							<g>
								<line class="st3" x1="680.7" y1="46.9" x2="680.7" y2="112.6"/>
								<line class="st3" x1="688.2" y1="75.9" x2="688.2" y2="141.6"/>
								<line class="st3" x1="698" y1="28.4" x2="698" y2="105.6"/>
								<line class="st3" x1="687.3" y1="50.1" x2="687.3" y2="67.5"/>
								<line class="st3" x1="681.3" y1="120.9" x2="681.3" y2="133.7"/>
							</g>
						</g>
					</g>
				</g>
			</g>
			<line class="st4" x1="674.3" y1="76" x2="703.8" y2="76"/>
			<g>
				<polyline class="st0" points="650.3,55.6 793.8,55.6 793.8,60.9 793.8,76.6 650.3,76.6 				"/>
				<line class="st3" x1="663.2" y1="60.9" x2="718.6" y2="60.9"/>
				<line class="st3" x1="686.4" y1="66.3" x2="741.8" y2="66.3"/>
				<line class="st3" x1="669" y1="71.6" x2="764.6" y2="71.6"/>
				<line class="st5" x1="650.3" y1="76.5" x2="793.8" y2="76.5"/>
				<line class="st5" x1="650.3" y1="55.6" x2="793.8" y2="55.6"/>
			</g>
			<g>
				<circle class="st6" cx="688.5" cy="66.4" r="2.8"/>
				<g>
					<line class="st7" x1="687.5" y1="65.4" x2="689.5" y2="67.4"/>
					<line class="st7" x1="689.4" y1="65.4" x2="687.6" y2="67.4"/>
				</g>
			</g>
			<line class="st3" x1="736.6" y1="62.3" x2="751.8" y2="62.3"/>
			<line class="st3" x1="766.7" y1="66.3" x2="792" y2="66.3"/>
			<path class="st8" d="M650.3,163h141.5l-0.4-12.2c-0.3-1.5-1-3-2.3-4.2c-3.8-3.7-8.2-1.4-10.2,0c-0.6,0.5-1.6,0.3-1.9-0.4
				l-7.6-14.8c-2.4-4.6-10.1-4.7-12.7-0.3l-10,16.8c-0.3,0.6-1.3,0.5-1.6,0L742,142c-2.2-4.5-9.7-4.9-12.6-0.7l-6.4,11.9
				c-0.3,0.6-1.4,0.6-1.7,0l-9.7-21.6c-2.4-4.6-10.2-4.7-12.8-0.2l-4.4,7.6c-0.6,1.1-2.4,1.3-3.4,0.4l-3-2.9
				c-3.6-3.5-10.5-2.2-12,2.2l-2,12.9c-0.1,0.6-1.2,0.6-1.2,0l-0.4-5.4c-0.2-3.4-3.9-6.1-8-5.6c-2.3,0.3-4.4,1.5-5.4,3.7L650.3,163z
				"/>
			<path class="st9" d="M789.2,157.7l0.9-4.8c0.3-1.4,0.3-2.9,0.1-4.3c-0.1-0.7-0.4-1.4-1-2c-3.8-3.7-8.2-1.4-10.2,0
				c-0.6,0.5-1.6,0.3-1.9-0.4l-7.6-14.8c-2.4-4.6-10.1-4.7-12.7-0.3l-10,16.8c-0.4,0.6-1.3,0.6-1.6-0.1l-2.9-5.9
				c-2.2-4.5-9.7-4.9-12.6-0.7l-6.4,11.9c-0.4,0.7-1.4,0.7-1.7-0.1l-9.7-21.6c-2.4-4.6-10.2-4.7-12.8-0.2l-4.4,7.6
				c-0.6,1.1-2.4,1.3-3.4,0.4l-3-2.9c-3.6-3.5-10.5-2.2-12,2.2l-2,12.9c-0.1,0.7-1.1,0.7-1.2-0.1l-0.4-5.4c-0.2-3.4-3.9-6.1-8-5.6
				c-2.3,0.3-4.4,1.5-5.4,3.7l-5.4,12.5"/>
		</g>
	</g>
	<g>
		<g>
			<g>
				<g>
					<path class="st0" d="M558.6,261.4c-8.6,0-15.7-7-15.7-15.7V54.9c0-8.6,7-15.7,15.7-15.7s15.7,7,15.7,15.7v190.8
						C574.3,254.4,567.2,261.4,558.6,261.4z"/>
					<path class="st1" d="M558.6,40.2c8.1,0,14.7,6.5,14.7,14.7v190.8c0,8.1-6.5,14.7-14.7,14.7s-14.7-6.5-14.7-14.7V54.9
						C543.9,46.8,550.5,40.2,558.6,40.2 M558.6,38.2c-9.2,0-16.7,7.5-16.7,16.7v190.8c0,9.2,7.5,16.7,16.7,16.7s16.7-7.5,16.7-16.7
						V54.9C575.3,45.7,567.7,38.2,558.6,38.2L558.6,38.2z"/>
				</g>
				<g>
					<g>
						<defs>
							<path id="SVGID_00000166641316628161485740000007909404217757371812_" d="M558.6,260.4L558.6,260.4
								c-8.1,0-14.7-6.5-14.7-14.7V54.9c0-8.1,6.5-14.7,14.7-14.7l0,0c8.1,0,14.7,6.5,14.7,14.7v190.8
								C573.3,253.9,566.7,260.4,558.6,260.4z"/>
						</defs>
						<clipPath id="SVGID_00000144330148362338656510000016861429211470878637_">
							<use xlink:href="#SVGID_00000166641316628161485740000007909404217757371812_"  style="overflow:visible;"/>
						</clipPath>
						<g style="clip-path:url(#SVGID_00000144330148362338656510000016861429211470878637_);">
							<g>
								<line class="st3" x1="550.2" y1="247.7" x2="550.2" y2="313.3"/>
								<line class="st3" x1="557.7" y1="276.7" x2="557.7" y2="342.3"/>
								<line class="st3" x1="567.5" y1="229.2" x2="567.5" y2="306.4"/>
								<line class="st3" x1="556.8" y1="250.9" x2="556.8" y2="268.2"/>
								<line class="st3" x1="550.8" y1="321.6" x2="550.8" y2="334.5"/>
							</g>
							<g>
								<line class="st3" x1="550.2" y1="147.3" x2="550.2" y2="212.9"/>
								<line class="st3" x1="557.7" y1="176.3" x2="557.7" y2="241.9"/>
								<line class="st3" x1="567.5" y1="128.8" x2="567.5" y2="206"/>
								<line class="st3" x1="556.8" y1="150.5" x2="556.8" y2="167.9"/>
								<line class="st3" x1="550.8" y1="221.3" x2="550.8" y2="234.1"/>
							</g>
							<g>
								<line class="st3" x1="550.2" y1="46.9" x2="550.2" y2="112.6"/>
								<line class="st3" x1="557.7" y1="75.9" x2="557.7" y2="141.6"/>
								<line class="st3" x1="567.5" y1="28.4" x2="567.5" y2="105.6"/>
								<line class="st3" x1="556.8" y1="50.1" x2="556.8" y2="67.5"/>
								<line class="st3" x1="550.8" y1="120.9" x2="550.8" y2="133.7"/>
							</g>
						</g>
					</g>
				</g>
			</g>
			<line class="st4" x1="543.9" y1="76" x2="573.3" y2="76"/>
			<g>
				<polyline class="st0" points="519.8,55.6 663.3,55.6 663.3,60.9 663.3,76.6 519.8,76.6 				"/>
				<line class="st3" x1="532.7" y1="60.9" x2="588.1" y2="60.9"/>
				<line class="st3" x1="555.9" y1="66.3" x2="611.3" y2="66.3"/>
				<line class="st3" x1="538.5" y1="71.6" x2="634.1" y2="71.6"/>
				<line class="st5" x1="519.8" y1="76.5" x2="663.3" y2="76.5"/>
				<line class="st5" x1="519.8" y1="55.6" x2="663.3" y2="55.6"/>
			</g>
			<g>
				<circle class="st6" cx="558" cy="66.4" r="2.8"/>
				<g>
					<line class="st7" x1="557" y1="65.4" x2="559" y2="67.4"/>
					<line class="st7" x1="558.9" y1="65.4" x2="557.1" y2="67.4"/>
				</g>
			</g>
			<line class="st3" x1="606.1" y1="62.3" x2="621.4" y2="62.3"/>
			<line class="st3" x1="636.2" y1="66.3" x2="661.5" y2="66.3"/>
			<path class="st8" d="M519.8,163h143.5l-2.4-12.2c-0.3-1.5-1-3-2.3-4.2c-3.8-3.7-8.2-1.4-10.2,0c-0.6,0.5-1.6,0.3-1.9-0.4
				l-7.6-14.8c-2.4-4.6-10.1-4.7-12.7-0.3l-10,16.8c-0.3,0.6-1.3,0.5-1.6,0l-2.9-5.9c-2.2-4.5-9.7-4.9-12.6-0.7l-6.4,11.9
				c-0.3,0.6-1.4,0.6-1.7,0l-9.7-21.6c-2.4-4.6-10.2-4.7-12.8-0.2l-4.4,7.6c-0.6,1.1-2.4,1.3-3.4,0.4l-3-2.9
				c-3.6-3.5-10.5-2.2-12,2.2l-2,12.9c-0.1,0.6-1.2,0.6-1.2,0l-0.4-5.4c-0.2-3.4-3.9-6.1-8-5.6c-2.3,0.3-4.4,1.5-5.4,3.7L519.8,163z
				"/>
			<path class="st9" d="M658.7,157.7l0.9-4.8c0.3-1.4,0.3-2.9,0.1-4.3c-0.1-0.7-0.4-1.4-1-2c-3.8-3.7-8.2-1.4-10.2,0
				c-0.6,0.5-1.6,0.3-1.9-0.4l-7.6-14.8c-2.4-4.6-10.1-4.7-12.7-0.3l-10,16.8c-0.4,0.6-1.3,0.6-1.6-0.1l-2.9-5.9
				c-2.2-4.5-9.7-4.9-12.6-0.7l-6.4,11.9c-0.4,0.7-1.4,0.7-1.7-0.1l-9.7-21.6c-2.4-4.6-10.2-4.7-12.8-0.2l-4.4,7.6
				c-0.6,1.1-2.4,1.3-3.4,0.4l-3-2.9c-3.6-3.5-10.5-2.2-12,2.2l-2,12.9c-0.1,0.7-1.1,0.7-1.2-0.1l-0.4-5.4c-0.2-3.4-3.9-6.1-8-5.6
				c-2.3,0.3-4.4,1.5-5.4,3.7l-5.4,12.5"/>
		</g>
	</g>
	<g>
		<g>
			<g>
				<g>
					<path class="st0" d="M428.1,261.4c-8.6,0-15.7-7-15.7-15.7V54.9c0-8.6,7-15.7,15.7-15.7s15.7,7,15.7,15.7v190.8
						C443.8,254.4,436.8,261.4,428.1,261.4z"/>
					<path class="st1" d="M428.1,40.2c8.1,0,14.7,6.5,14.7,14.7v190.8c0,8.1-6.6,14.7-14.7,14.7c-8,0-14.7-6.5-14.7-14.7V54.9
						C413.4,46.8,420,40.2,428.1,40.2 M428.1,38.2c-9.2,0-16.7,7.5-16.7,16.7v190.8c0,9.2,7.5,16.7,16.7,16.7
						c9.2,0,16.7-7.5,16.7-16.7V54.9C444.8,45.7,437.3,38.2,428.1,38.2L428.1,38.2z"/>
				</g>
				<g>
					<g>
						<defs>
							<path id="SVGID_00000101102144812757670120000008960531830622633120_" d="M428.1,260.4L428.1,260.4
								c-8.1,0-14.7-6.5-14.7-14.7V54.9c0-8.1,6.5-14.7,14.7-14.7l0,0c8.1,0,14.7,6.5,14.7,14.7v190.8
								C442.8,253.9,436.3,260.4,428.1,260.4z"/>
						</defs>
						<clipPath id="SVGID_00000037680520828210847210000006299989665739488166_">
							<use xlink:href="#SVGID_00000101102144812757670120000008960531830622633120_"  style="overflow:visible;"/>
						</clipPath>
						<g style="clip-path:url(#SVGID_00000037680520828210847210000006299989665739488166_);">
							<g>
								<line class="st3" x1="419.7" y1="247.7" x2="419.7" y2="313.3"/>
								<line class="st3" x1="427.2" y1="276.7" x2="427.2" y2="342.3"/>
								<line class="st3" x1="437.1" y1="229.2" x2="437.1" y2="306.4"/>
								<line class="st3" x1="426.3" y1="250.9" x2="426.3" y2="268.2"/>
								<line class="st3" x1="420.3" y1="321.6" x2="420.3" y2="334.5"/>
							</g>
							<g>
								<line class="st3" x1="419.7" y1="147.3" x2="419.7" y2="212.9"/>
								<line class="st3" x1="427.2" y1="176.3" x2="427.2" y2="241.9"/>
								<line class="st3" x1="437.1" y1="128.8" x2="437.1" y2="206"/>
								<line class="st3" x1="426.3" y1="150.5" x2="426.3" y2="167.9"/>
								<line class="st3" x1="420.3" y1="221.3" x2="420.3" y2="234.1"/>
							</g>
							<g>
								<line class="st3" x1="419.7" y1="46.9" x2="419.7" y2="112.6"/>
								<line class="st3" x1="427.2" y1="75.9" x2="427.2" y2="141.6"/>
								<line class="st3" x1="437.1" y1="28.4" x2="437.1" y2="105.6"/>
								<line class="st3" x1="426.3" y1="50.1" x2="426.3" y2="67.5"/>
								<line class="st3" x1="420.3" y1="120.9" x2="420.3" y2="133.7"/>
							</g>
						</g>
					</g>
				</g>
			</g>
			<line class="st4" x1="413.4" y1="76" x2="442.8" y2="76"/>
			<g>
				<polyline class="st0" points="389.3,55.6 532.8,55.6 532.8,60.9 532.8,76.6 389.3,76.6 				"/>
				<line class="st3" x1="402.2" y1="60.9" x2="457.6" y2="60.9"/>
				<line class="st3" x1="425.4" y1="66.3" x2="480.8" y2="66.3"/>
				<line class="st3" x1="408" y1="71.6" x2="503.6" y2="71.6"/>
				<line class="st5" x1="389.3" y1="76.5" x2="532.8" y2="76.5"/>
				<line class="st5" x1="389.3" y1="55.6" x2="532.8" y2="55.6"/>
			</g>
			<g>
				<circle class="st6" cx="427.5" cy="66.4" r="2.8"/>
				<g>
					<line class="st7" x1="426.5" y1="65.4" x2="428.5" y2="67.4"/>
					<line class="st7" x1="428.4" y1="65.4" x2="426.6" y2="67.4"/>
				</g>
			</g>
			<line class="st3" x1="475.6" y1="62.3" x2="490.9" y2="62.3"/>
			<line class="st3" x1="505.7" y1="66.3" x2="531" y2="66.3"/>
			<path class="st8" d="M389.3,163h143.5l-2.4-12.2c-0.3-1.5-1-3-2.3-4.2c-3.8-3.7-8.2-1.4-10.2,0c-0.6,0.5-1.6,0.3-1.9-0.4
				l-7.6-14.8c-2.4-4.6-10.1-4.7-12.7-0.3l-10,16.8c-0.3,0.6-1.3,0.5-1.6,0L481,142c-2.2-4.5-9.7-4.9-12.6-0.7l-6.4,11.9
				c-0.3,0.6-1.4,0.6-1.7,0l-9.7-21.6c-2.4-4.6-10.2-4.7-12.8-0.2l-4.4,7.6c-0.6,1.1-2.4,1.3-3.4,0.4l-3-2.9
				c-3.6-3.5-10.5-2.2-12,2.2l-2,12.9c-0.1,0.6-1.2,0.6-1.2,0l-0.4-5.4c-0.2-3.4-3.9-6.1-8-5.6c-2.3,0.3-4.4,1.5-5.4,3.7L389.3,163z
				"/>
			<path class="st9" d="M528.2,157.7l0.9-4.8c0.3-1.4,0.3-2.9,0.1-4.3c-0.1-0.7-0.4-1.4-1-2c-3.8-3.7-8.2-1.4-10.2,0
				c-0.6,0.5-1.6,0.3-1.9-0.4l-7.6-14.8c-2.4-4.6-10.1-4.7-12.7-0.3l-10,16.8c-0.4,0.6-1.3,0.6-1.6-0.1l-2.9-5.9
				c-2.2-4.5-9.7-4.9-12.6-0.7l-6.4,11.9c-0.4,0.7-1.4,0.7-1.7-0.1l-9.7-21.6c-2.4-4.6-10.2-4.7-12.8-0.2l-4.4,7.6
				c-0.6,1.1-2.4,1.3-3.4,0.4l-3-2.9c-3.6-3.5-10.5-2.2-12,2.2l-2,12.9c-0.1,0.7-1.1,0.7-1.2-0.1l-0.4-5.4c-0.2-3.4-3.9-6.1-8-5.6
				c-2.3,0.3-4.4,1.5-5.4,3.7l-5.4,12.5"/>
		</g>
	</g>
	<g>
		<g>
			<g>
				<g>
					<path class="st0" d="M297.6,261.4c-8.6,0-15.7-7-15.7-15.7V54.9c0-8.6,7-15.7,15.7-15.7s15.7,7,15.7,15.7v190.8
						C313.3,254.4,306.3,261.4,297.6,261.4z"/>
					<path class="st1" d="M297.6,40.2c8.1,0,14.7,6.5,14.7,14.7v190.8c0,8.1-6.6,14.7-14.7,14.7s-14.7-6.5-14.7-14.7V54.9
						C282.9,46.8,289.5,40.2,297.6,40.2 M297.6,38.2c-9.2,0-16.7,7.5-16.7,16.7v190.8c0,9.2,7.5,16.7,16.7,16.7
						c9.2,0,16.7-7.5,16.7-16.7V54.9C314.3,45.7,306.8,38.2,297.6,38.2L297.6,38.2z"/>
				</g>
				<g>
					<g>
						<defs>
							<path id="SVGID_00000169518002883261527410000017750427323401420930_" d="M297.6,260.4L297.6,260.4
								c-8.1,0-14.7-6.5-14.7-14.7V54.9c0-8.1,6.5-14.7,14.7-14.7l0,0c8.1,0,14.7,6.5,14.7,14.7v190.8
								C312.3,253.9,305.8,260.4,297.6,260.4z"/>
						</defs>
						<clipPath id="SVGID_00000052102336846565396640000001282940425107100853_">
							<use xlink:href="#SVGID_00000169518002883261527410000017750427323401420930_"  style="overflow:visible;"/>
						</clipPath>
						<g style="clip-path:url(#SVGID_00000052102336846565396640000001282940425107100853_);">
							<g>
								<line class="st3" x1="289.2" y1="247.7" x2="289.2" y2="313.3"/>
								<line class="st3" x1="296.7" y1="276.7" x2="296.7" y2="342.3"/>
								<line class="st3" x1="306.6" y1="229.2" x2="306.6" y2="306.4"/>
								<line class="st3" x1="295.8" y1="250.9" x2="295.8" y2="268.2"/>
								<line class="st3" x1="289.8" y1="321.6" x2="289.8" y2="334.5"/>
							</g>
							<g>
								<line class="st3" x1="289.2" y1="147.3" x2="289.2" y2="212.9"/>
								<line class="st3" x1="296.7" y1="176.3" x2="296.7" y2="241.9"/>
								<line class="st3" x1="306.6" y1="128.8" x2="306.6" y2="206"/>
								<line class="st3" x1="295.8" y1="150.5" x2="295.8" y2="167.9"/>
								<line class="st3" x1="289.8" y1="221.3" x2="289.8" y2="234.1"/>
							</g>
							<g>
								<line class="st3" x1="289.2" y1="46.9" x2="289.2" y2="112.6"/>
								<line class="st3" x1="296.7" y1="75.9" x2="296.7" y2="141.6"/>
								<line class="st3" x1="306.6" y1="28.4" x2="306.6" y2="105.6"/>
								<line class="st3" x1="295.8" y1="50.1" x2="295.8" y2="67.5"/>
								<line class="st3" x1="289.8" y1="120.9" x2="289.8" y2="133.7"/>
							</g>
						</g>
					</g>
				</g>
			</g>
			<line class="st4" x1="282.9" y1="76" x2="312.3" y2="76"/>
			<g>
				<polyline class="st0" points="258.8,55.6 402.3,55.6 402.3,60.9 402.3,76.6 258.8,76.6 				"/>
				<line class="st3" x1="271.7" y1="60.9" x2="327.1" y2="60.9"/>
				<line class="st3" x1="294.9" y1="66.3" x2="350.3" y2="66.3"/>
				<line class="st3" x1="277.6" y1="71.6" x2="373.1" y2="71.6"/>
				<line class="st5" x1="258.8" y1="76.5" x2="402.3" y2="76.5"/>
				<line class="st5" x1="258.8" y1="55.6" x2="402.3" y2="55.6"/>
			</g>
			<g>
				<circle class="st6" cx="297" cy="66.4" r="2.8"/>
				<g>
					<line class="st7" x1="296" y1="65.4" x2="298" y2="67.4"/>
					<line class="st7" x1="297.9" y1="65.4" x2="296.1" y2="67.4"/>
				</g>
			</g>
			<line class="st3" x1="345.1" y1="62.3" x2="360.4" y2="62.3"/>
			<line class="st3" x1="375.2" y1="66.3" x2="400.5" y2="66.3"/>
			<path class="st8" d="M258.8,163h143.5l-2.4-12.2c-0.3-1.5-1-3-2.3-4.2c-3.8-3.7-8.2-1.4-10.2,0c-0.6,0.5-1.6,0.3-1.9-0.4
				l-7.6-14.8c-2.4-4.6-10.1-4.7-12.7-0.3l-10,16.8c-0.3,0.6-1.3,0.5-1.6,0l-2.9-5.9c-2.2-4.5-9.7-4.9-12.6-0.7l-6.4,11.9
				c-0.3,0.6-1.4,0.6-1.7,0l-9.7-21.6c-2.4-4.6-10.2-4.7-12.8-0.2l-4.4,7.6c-0.6,1.1-2.4,1.3-3.4,0.4l-3-2.9
				c-3.6-3.5-10.5-2.2-12,2.2l-2,12.9c-0.1,0.6-1.2,0.6-1.2,0l-0.4-5.4c-0.2-3.4-3.9-6.1-8-5.6c-2.3,0.3-4.4,1.5-5.4,3.7L258.8,163z
				"/>
			<path class="st9" d="M397.7,157.7l0.9-4.8c0.3-1.4,0.3-2.9,0.1-4.3c-0.1-0.7-0.4-1.4-1-2c-3.8-3.7-8.2-1.4-10.2,0
				c-0.6,0.5-1.6,0.3-1.9-0.4l-7.6-14.8c-2.4-4.6-10.1-4.7-12.7-0.3l-10,16.8c-0.4,0.6-1.3,0.6-1.6-0.1l-2.9-5.9
				c-2.2-4.5-9.7-4.9-12.6-0.7l-6.4,11.9c-0.4,0.7-1.4,0.7-1.7-0.1l-9.7-21.6c-2.4-4.6-10.2-4.7-12.8-0.2l-4.4,7.6
				c-0.6,1.1-2.4,1.3-3.4,0.4l-3-2.9c-3.6-3.5-10.5-2.2-12,2.2l-2,12.9c-0.1,0.7-1.1,0.7-1.2-0.1l-0.4-5.4c-0.2-3.4-3.9-6.1-8-5.6
				c-2.3,0.3-4.4,1.5-5.4,3.7l-5.4,12.5"/>
		</g>
	</g>
	<g>
		<g>
			<g>
				<g>
					<path class="st0" d="M167.1,261.4c-8.6,0-15.7-7-15.7-15.7V54.9c0-8.6,7-15.7,15.7-15.7c8.6,0,15.7,7,15.7,15.7v190.8
						C182.8,254.4,175.8,261.4,167.1,261.4z"/>
					<path class="st1" d="M167.1,40.2c8.1,0,14.7,6.5,14.7,14.7v190.8c0,8.1-6.6,14.7-14.7,14.7c-8,0-14.7-6.5-14.7-14.7V54.9
						C152.4,46.8,159,40.2,167.1,40.2 M167.1,38.2c-9.2,0-16.7,7.5-16.7,16.7v190.8c0,9.2,7.5,16.7,16.7,16.7
						c9.1,0,16.7-7.5,16.7-16.7V54.9C183.8,45.7,176.3,38.2,167.1,38.2L167.1,38.2z"/>
				</g>
				<g>
					<g>
						<defs>
							<path id="SVGID_00000060031225539908472300000000885915485376594621_" d="M167.1,260.4L167.1,260.4
								c-8.1,0-14.7-6.5-14.7-14.7V54.9c0-8.1,6.6-14.7,14.7-14.7l0,0c8.1,0,14.7,6.5,14.7,14.7v190.8
								C181.8,253.9,175.3,260.4,167.1,260.4z"/>
						</defs>
						<clipPath id="SVGID_00000121989826362783132930000006444445737222185627_">
							<use xlink:href="#SVGID_00000060031225539908472300000000885915485376594621_"  style="overflow:visible;"/>
						</clipPath>
						<g style="clip-path:url(#SVGID_00000121989826362783132930000006444445737222185627_);">
							<g>
								<line class="st3" x1="158.7" y1="247.7" x2="158.7" y2="313.3"/>
								<line class="st3" x1="166.2" y1="276.7" x2="166.2" y2="342.3"/>
								<line class="st3" x1="176.1" y1="229.2" x2="176.1" y2="306.4"/>
								<line class="st3" x1="165.3" y1="250.9" x2="165.3" y2="268.2"/>
								<line class="st3" x1="159.3" y1="321.6" x2="159.3" y2="334.5"/>
							</g>
							<g>
								<line class="st3" x1="158.7" y1="147.3" x2="158.7" y2="212.9"/>
								<line class="st3" x1="166.2" y1="176.3" x2="166.2" y2="241.9"/>
								<line class="st3" x1="176.1" y1="128.8" x2="176.1" y2="206"/>
								<line class="st3" x1="165.3" y1="150.5" x2="165.3" y2="167.9"/>
								<line class="st3" x1="159.3" y1="221.3" x2="159.3" y2="234.1"/>
							</g>
							<g>
								<line class="st3" x1="158.7" y1="46.9" x2="158.7" y2="112.6"/>
								<line class="st3" x1="166.2" y1="75.9" x2="166.2" y2="141.6"/>
								<line class="st3" x1="176.1" y1="28.4" x2="176.1" y2="105.6"/>
								<line class="st3" x1="165.3" y1="50.1" x2="165.3" y2="67.5"/>
								<line class="st3" x1="159.3" y1="120.9" x2="159.3" y2="133.7"/>
							</g>
						</g>
					</g>
				</g>
			</g>
			<line class="st4" x1="152.4" y1="76" x2="181.8" y2="76"/>
			<g>
				<polyline class="st0" points="128.3,55.6 271.8,55.6 271.8,60.9 271.8,76.6 128.3,76.6 				"/>
				<line class="st3" x1="141.2" y1="60.9" x2="196.6" y2="60.9"/>
				<line class="st3" x1="164.4" y1="66.3" x2="219.8" y2="66.3"/>
				<line class="st3" x1="147.1" y1="71.6" x2="242.6" y2="71.6"/>
				<line class="st5" x1="128.3" y1="76.5" x2="271.8" y2="76.5"/>
				<line class="st5" x1="128.3" y1="55.6" x2="271.8" y2="55.6"/>
			</g>
			<g>
				<circle class="st6" cx="166.5" cy="66.4" r="2.8"/>
				<g>
					<line class="st7" x1="165.5" y1="65.4" x2="167.5" y2="67.4"/>
					<line class="st7" x1="167.4" y1="65.4" x2="165.6" y2="67.4"/>
				</g>
			</g>
			<line class="st3" x1="214.6" y1="62.3" x2="229.9" y2="62.3"/>
			<line class="st3" x1="244.7" y1="66.3" x2="270" y2="66.3"/>
			<path class="st8" d="M128.3,163h143.5l-2.4-12.2c-0.3-1.5-1-3-2.3-4.2c-3.8-3.7-8.2-1.4-10.2,0c-0.6,0.5-1.6,0.3-1.9-0.4
				l-7.6-14.8c-2.4-4.6-10.1-4.7-12.7-0.3l-10,16.8c-0.3,0.6-1.3,0.5-1.6,0L220,142c-2.2-4.5-9.7-4.9-12.6-0.7l-6.4,11.9
				c-0.3,0.6-1.4,0.6-1.7,0l-9.7-21.6c-2.4-4.6-10.2-4.7-12.8-0.2l-4.4,7.6c-0.6,1.1-2.4,1.3-3.4,0.4l-3-2.9
				c-3.6-3.5-10.5-2.2-12,2.2l-2,12.9c-0.1,0.6-1.2,0.6-1.2,0l-0.4-5.4c-0.2-3.4-3.9-6.1-8-5.6c-2.3,0.3-4.4,1.5-5.4,3.7L128.3,163z
				"/>
			<path class="st9" d="M267.2,157.7l0.9-4.8c0.3-1.4,0.3-2.9,0.1-4.3c-0.1-0.7-0.4-1.4-1-2c-3.8-3.7-8.2-1.4-10.2,0
				c-0.6,0.5-1.6,0.3-1.9-0.4l-7.6-14.8c-2.4-4.6-10.1-4.7-12.7-0.3l-10,16.8c-0.4,0.6-1.3,0.6-1.6-0.1l-2.9-5.9
				c-2.2-4.5-9.7-4.9-12.6-0.7l-6.4,11.9c-0.4,0.7-1.4,0.7-1.7-0.1l-9.7-21.6c-2.4-4.6-10.2-4.7-12.8-0.2l-4.4,7.6
				c-0.6,1.1-2.4,1.3-3.4,0.4l-3-2.9c-3.6-3.5-10.5-2.2-12,2.2l-2,12.9c-0.1,0.7-1.1,0.7-1.2-0.1l-0.4-5.4c-0.2-3.4-3.9-6.1-8-5.6
				c-2.3,0.3-4.4,1.5-5.4,3.7l-5.4,12.5"/>
		</g>
	</g>
	<g>
		<g>
			<g>
				<g>
					<path class="st0" d="M36.6,261.4c-8.6,0-15.7-7-15.7-15.7V54.9c0-8.6,7-15.7,15.7-15.7s15.7,7,15.7,15.7v190.8
						C52.3,254.4,45.3,261.4,36.6,261.4z"/>
					<path class="st1" d="M36.6,40.2c8.1,0,14.7,6.5,14.7,14.7v190.8c0,8.1-6.5,14.7-14.7,14.7S22,253.8,22,245.7V54.9
						C21.9,46.8,28.5,40.2,36.6,40.2 M36.6,38.2c-9.2,0-16.7,7.5-16.7,16.7v190.8c0,9.2,7.5,16.7,16.7,16.7s16.7-7.5,16.7-16.7V54.9
						C53.3,45.7,45.8,38.2,36.6,38.2L36.6,38.2z"/>
				</g>
				<g>
					<g>
						<defs>
							<path id="SVGID_00000169523419024665331290000010438947267366662581_" d="M36.6,260.4L36.6,260.4c-8.1,0-14.7-6.5-14.7-14.7
								V54.9c0-8.1,6.5-14.7,14.7-14.7l0,0c8.1,0,14.7,6.5,14.7,14.7v190.8C51.3,253.9,44.8,260.4,36.6,260.4z"/>
						</defs>
						<clipPath id="SVGID_00000135666651474213198310000006863057814857542575_">
							<use xlink:href="#SVGID_00000169523419024665331290000010438947267366662581_"  style="overflow:visible;"/>
						</clipPath>
						<g style="clip-path:url(#SVGID_00000135666651474213198310000006863057814857542575_);">
							<g>
								<line class="st3" x1="28.2" y1="247.7" x2="28.2" y2="313.3"/>
								<line class="st3" x1="35.7" y1="276.7" x2="35.7" y2="342.3"/>
								<line class="st3" x1="45.6" y1="229.2" x2="45.6" y2="306.4"/>
								<line class="st3" x1="34.8" y1="250.9" x2="34.8" y2="268.2"/>
								<line class="st3" x1="28.8" y1="321.6" x2="28.8" y2="334.5"/>
							</g>
							<g>
								<line class="st3" x1="28.2" y1="147.3" x2="28.2" y2="212.9"/>
								<line class="st3" x1="35.7" y1="176.3" x2="35.7" y2="241.9"/>
								<line class="st3" x1="45.6" y1="128.8" x2="45.6" y2="206"/>
								<line class="st3" x1="34.8" y1="150.5" x2="34.8" y2="167.9"/>
								<line class="st3" x1="28.8" y1="221.3" x2="28.8" y2="234.1"/>
							</g>
							<g>
								<line class="st3" x1="28.2" y1="46.9" x2="28.2" y2="112.6"/>
								<line class="st3" x1="35.7" y1="75.9" x2="35.7" y2="141.6"/>
								<line class="st3" x1="45.6" y1="28.4" x2="45.6" y2="105.6"/>
								<line class="st3" x1="34.8" y1="50.1" x2="34.8" y2="67.5"/>
								<line class="st3" x1="28.8" y1="120.9" x2="28.8" y2="133.7"/>
							</g>
						</g>
					</g>
				</g>
			</g>
			<line class="st4" x1="21.9" y1="76" x2="51.3" y2="76"/>
			<g>
				<polyline class="st0" points="-2.2,55.6 141.3,55.6 141.3,60.9 141.3,76.6 -2.2,76.6 				"/>
				<line class="st3" x1="10.7" y1="60.9" x2="66.2" y2="60.9"/>
				<line class="st3" x1="33.9" y1="66.3" x2="89.3" y2="66.3"/>
				<line class="st3" x1="16.6" y1="71.6" x2="112.1" y2="71.6"/>
				<line class="st5" x1="-2.2" y1="76.5" x2="141.3" y2="76.5"/>
				<line class="st5" x1="-2.2" y1="55.6" x2="141.3" y2="55.6"/>
			</g>
			<g>
				<circle class="st6" cx="36" cy="66.4" r="2.8"/>
				<g>
					<line class="st7" x1="35" y1="65.4" x2="37" y2="67.4"/>
					<line class="st7" x1="36.9" y1="65.4" x2="35.1" y2="67.4"/>
				</g>
			</g>
			<line class="st3" x1="84.1" y1="62.3" x2="99.4" y2="62.3"/>
			<line class="st3" x1="114.2" y1="66.3" x2="139.5" y2="66.3"/>
			<path class="st8" d="M-2.2,163h143.5l-2.4-12.2c-0.3-1.5-1-3-2.3-4.2c-3.8-3.7-8.2-1.4-10.2,0c-0.6,0.5-1.6,0.3-1.9-0.4
				l-7.6-14.8c-2.4-4.6-10.1-4.7-12.7-0.3l-10,16.8c-0.3,0.6-1.3,0.5-1.6,0l-2.9-5.9c-2.2-4.5-9.7-4.9-12.6-0.7l-6.4,11.9
				c-0.3,0.6-1.4,0.6-1.7,0L59,131.6c-2.4-4.6-10.2-4.7-12.8-0.2l-4.4,7.6c-0.6,1.1-2.4,1.3-3.4,0.4l-3-2.9
				c-3.6-3.5-10.5-2.2-12,2.2l-2,12.9c-0.1,0.6-1.2,0.6-1.2,0l-0.4-5.4c-0.2-3.4-3.9-6.1-8-5.6c-2.3,0.3-4.4,1.5-5.4,3.7L-2.2,163z"
				/>
			<path class="st9" d="M136.7,157.7l0.9-4.8c0.3-1.4,0.3-2.9,0.1-4.3c-0.1-0.7-0.4-1.4-1-2c-3.8-3.7-8.2-1.4-10.2,0
				c-0.6,0.5-1.6,0.3-1.9-0.4l-7.6-14.8c-2.4-4.6-10.1-4.7-12.7-0.3l-10,16.8c-0.4,0.6-1.3,0.6-1.6-0.1l-2.9-5.9
				c-2.2-4.5-9.7-4.9-12.6-0.7l-6.4,11.9c-0.4,0.7-1.4,0.7-1.7-0.1l-9.7-21.6c-2.4-4.6-10.2-4.7-12.8-0.2l-4.4,7.6
				c-0.6,1.1-2.4,1.3-3.4,0.4l-3-2.9c-3.6-3.5-10.5-2.2-12,2.2l-2,12.9c-0.1,0.7-1.1,0.7-1.2-0.1l-0.4-5.4c-0.2-3.4-3.9-6.1-8-5.6
				c-2.3,0.3-4.4,1.5-5.4,3.7L0.8,157"/>
		</g>
	</g>
</g>
<g>
	<rect x="-0.7" y="162.3" class="st15" width="793.1" height="335.2"/>
</g>
<g>
	<g>
		<g>
			<path class="st16" d="M3.3,360c26.2,0,52.4,0,78.6,0c8.4,0,15.8,6.2,17.2,14.6c1,5.8-0.3,11.2-4.8,15.7
				c-3.1,3.1-6.6,4.8-10.9,5.4c-1.8,0.2-3.6,0.3-5.4,0.3c-24.9,0-49.8,0-74.7,0C3.3,384,3.3,372,3.3,360z"/>
			<path class="st16" d="M439.5,344.1c-9.8,0-19.6,0-29.3,0c-2.7,0-5.1-1.2-7.1-3.4c-1.7-1.9-2.8-4.3-3.3-7.1
				c-1.2-7.1,2.2-14.2,7.5-16c1-0.3,2-0.6,3-0.6c19.6,0,39.1-0.1,58.7,0c6.5,0,11,7,10.5,14.5c-0.4,6-3.4,10.7-8.1,12.2
				c-0.9,0.3-1.8,0.3-2.7,0.3C459,344.1,449.3,344.1,439.5,344.1z"/>
			<path class="st16" d="M76.8,339.5c-16.6,0-33.3-0.1-49.9,0c-4.6,0-8.6-1.6-12-4.5c-2.9-2.5-4.7-5.7-5.6-9.5
				c-2.1-9.4,3.7-18.9,12.9-21.3c1.6-0.4,3.3-0.7,5-0.7c33.3,0,66.6-0.1,99.8,0c11.1,0,18.7,9.3,18,19.2
				c-0.6,7.9-5.7,14.2-13.8,16.2c-1.5,0.4-3,0.5-4.5,0.5C110.1,339.5,93.5,339.5,76.8,339.5z"/>
			<path class="st16" d="M311.6,273.1c-16.3,0-32.6,0-48.8,0c-5.6,0-10.5-1.4-14.4-4.6c-2-1.6-3.2-3.5-3.9-5.6
				c-1.4-3.8-0.6-7.5,2.4-10.7c3.6-3.8,8.5-5.9,15-5.9c33.4,0,66.9,0,100.3,0c3.7,0,7,0.8,10,2.3c5.3,2.7,8,6.6,7.8,11.4
				c-0.3,7-7.4,12.2-15.8,12.8c-3,0.2-6,0.2-8.9,0.3C340.7,273.2,326.2,273.1,311.6,273.1z"/>
			<path class="st16" d="M465.1,241.5c-16.6,0-33.1,0-49.7,0c-5,0-9.2-1.2-12.8-3.9c-1.8-1.4-3.2-2.9-4.2-4.7
				c-3-5.4,0-12.1,5.8-15.3c3.6-2,7.7-2.9,12-2.9c32.8,0,65.7-0.1,98.5,0c8.3,0,14.5,3.1,17.6,8.9c1.4,2.6,1.5,5.4,0.3,8.1
				c-2,4.5-5.9,7.6-12.1,9.1c-1.7,0.4-3.4,0.6-5.1,0.6C498.7,241.5,481.9,241.5,465.1,241.5z"/>
			<path class="st16" d="M674.7,429.3c-16.7,0-33.4-0.1-50.2,0c-6.6,0-14.4-4.7-16.6-12c-2.1-7-0.9-13.2,4.3-18.5
				c3.6-3.7,8-5.4,13-5.4c33.3-0.1,66.6-0.1,99.9,0c9,0,16.1,5.8,17.6,14.9c1.7,10.4-4.9,18.8-14.2,20.6c-1.2,0.2-2.4,0.4-3.7,0.4
				C708.1,429.3,691.4,429.3,674.7,429.3z"/>
			<path class="st16" d="M348.4,426.6c-16.7,0-33.4-0.1-50.2,0c-6.5,0-14.5-4.7-16.7-12.2c-2-6.9-0.8-13,4.3-18.3
				c3.7-3.7,8.2-5.4,13.2-5.4c33.2-0.1,66.3-0.1,99.5,0c9.1,0,16.3,5.7,17.9,14.9c1.8,10.3-4.8,18.8-14.1,20.6
				c-1.2,0.2-2.4,0.4-3.7,0.4C381.9,426.6,365.1,426.6,348.4,426.6z"/>
			<path class="st16" d="M371.1,182.8c8.2,0,16.5,0,24.7,0c4,0,7.8,0.5,11.2,1.8c9.7,3.6,10,10.8,2.7,14.6c-3.8,2-8.4,2.9-13.6,3
				c-16.6,0-33.3,0.1-49.9,0c-7.8,0-13.7-1.9-17.1-5.8c-3.5-4-0.9-9,5.8-11.6c3.5-1.3,7.3-1.9,11.5-1.9c4.2-0.1,8.3,0,12.5,0
				C362.9,182.8,367,182.8,371.1,182.8L371.1,182.8z"/>
			<path class="st16" d="M72.7,268.3c-4.7,0-9.5,0-14.2,0c-3.7,0-7.3-0.5-10.4-2c-5.1-2.5-8.3-5.9-8.6-10.5c-0.3-5,2.2-9,7.8-11.9
				c2.9-1.5,6.2-2.3,9.9-2.3c10.7,0,21.3,0,32,0c8.1,0,15.4,4.6,17.1,10.8c1.8,6.4-3.6,13.8-13.4,15.5c-1.6,0.3-3.3,0.5-5,0.5
				C82.7,268.3,77.7,268.3,72.7,268.3z"/>
			<path class="st16" d="M533.5,259.8c5.3,0,10.5,0,15.8,0c10.1,0,18.5,6.4,17.7,14.5c-0.6,6.1-6.8,11.1-15.1,12
				c-1.7,0.2-3.5,0.3-5.2,0.3c-9.3,0-18.5,0-27.8,0c-3.5,0-6.8-0.5-9.8-1.9c-5.5-2.5-8.7-6.1-9.1-11c-0.4-6.4,5.4-12.3,14.5-13.7
				c1.2-0.2,2.5-0.2,3.7-0.2C523.3,259.8,528.4,259.8,533.5,259.8L533.5,259.8z"/>
			<path class="st16" d="M675,228.2c5.4,0,10.8,0,16.2,0c7.6,0,15.3,4.6,17,10.7c1.7,6.4-3.6,13.8-13.3,15.5
				c-1.5,0.3-3.1,0.5-4.7,0.5c-10.2,0-20.4,0.1-30.6,0c-8.9-0.1-16.4-4.7-17.8-11c-1.5-7,3.7-13.4,13.2-15.3
				c1.3-0.3,2.6-0.4,3.9-0.4C664.2,228.2,669.6,228.2,675,228.2z"/>
			<path class="st16" d="M755.6,195c5.4,0,10.8,0,16.2,0c7.6,0,15.3,4.6,17,10.7c1.7,6.4-3.6,13.8-13.3,15.5
				c-1.5,0.3-3.1,0.5-4.7,0.5c-10.2,0-20.4,0.1-30.6,0c-8.9-0.1-16.4-4.7-17.8-11c-1.5-7,3.7-13.4,13.2-15.3
				c1.3-0.3,2.6-0.4,3.9-0.4C744.8,195,750.2,195,755.6,195z"/>
			<path class="st16" d="M176.9,283.9c-5,0-9.9,0-14.9,0c-4,0-7.8-0.8-11.1-2.6c-4.7-2.6-7.3-6.1-7.5-10.5
				c-0.3-6.4,5.5-12.1,14.9-13.5c0.8-0.1,1.7-0.1,2.6-0.1c10.6,0,21.2,0,31.7,0c3.7,0,7,0.8,10,2.3c5.1,2.6,7.6,6.3,7.7,10.7
				c0.1,6.7-5.9,12.1-14.8,13.4c-1.7,0.2-3.5,0.3-5.2,0.3C185.9,283.9,181.4,283.9,176.9,283.9z"/>
			<path class="st16" d="M502.8,427.5c-5,0-10.1,0-15.1,0c-4.6,0.1-8.8-1.4-12.2-4.4c-3.7-3.3-5.8-7.5-6-12.6
				c-0.1-3.9,0.7-7.5,3-10.7c3-4.3,7.1-7,12.4-7.8c1.8-0.3,3.6-0.4,5.4-0.4c9.1,0,18.2-0.1,27.4,0c7.9,0.1,13.9,3.4,17.3,10.8
				c2.4,5.3,2.1,10.7-0.6,15.7c-2.8,5.2-7.3,8.2-13.1,9.3c-0.6,0.1-1.3,0.1-2,0.1C513.7,427.5,508.3,427.5,502.8,427.5z"/>
			<path class="st16" d="M156.9,408.7c-5.3,0-10.7,0.1-16,0c-8.3-0.1-15-5.4-17.1-13.4c-2.6-10.2,3.5-19.4,13.4-21.9
				c1.6-0.4,3.3-0.6,5-0.6c9.8,0,19.6-0.1,29.3,0.1c7.9,0.1,13.9,3.4,17.3,10.8c2.4,5.3,2.1,10.6-0.7,15.7
				c-2.8,5.2-7.3,8.2-13.1,9.3c-0.6,0.1-1.3,0.1-2,0.1C167.7,408.7,162.3,408.7,156.9,408.7z"/>
			<path class="st16" d="M645.5,195.4c-4.8,0-9.6,0-14.4,0c-4.3,0-8.3-0.5-11.9-2c-3.9-1.5-6.1-3.6-7-6.1c-0.9-2.6,0.3-4.9,3.1-7
				c3.5-2.6,8.2-4,14.3-4c10.6,0,21.2,0,31.7,0c6.2,0,11,1.5,14.6,4.1c4.2,3.1,4,7.9-0.1,10.8c-3.1,2.2-7,3.5-12.1,4
				c-4.3,0.4-8.6,0.1-12.9,0.2C649,195.4,647.3,195.4,645.5,195.4z"/>
			<path class="st16" d="M201.9,189.1c5.2,0,10.4,0.1,15.5,0c6.7-0.1,14.6,2.5,16.7,6.4c2.1,3.7,0.9,7-4.4,9.9
				c-3.6,1.9-7.9,2.8-12.8,2.8c-10.2,0.1-20.4,0.1-30.6,0c-8.4-0.1-15.1-2.5-17.6-7c-1.8-3.4-0.3-6.4,4.1-9
				c3.7-2.2,8.4-3.1,13.8-3.1C191.8,189.1,196.8,189.1,201.9,189.1z"/>
			<path class="st16" d="M284.6,480.5c-5.2,0-10.4,0-15.5,0c-9,0-16.2-6.1-17.7-15c-0.9-5.6,0.6-10.8,4.7-15.1
				c3.9-4,8.7-5.8,14.1-5.8c9.9-0.1,19.7-0.1,29.6,0c3.9,0,7.6,1,10.9,3.4c3.8,2.7,6.2,6.3,7.2,10.8c1.8,7.9-2.2,15.3-8.3,19.2
				c-2.5,1.6-5.4,2.5-8.5,2.5C295.6,480.6,290.1,480.5,284.6,480.5z"/>
			<path class="st16" d="M39.3,469.6c-5,0-10.1,0-15.1,0c-9.1,0.1-16.5-5.9-18.1-14.9c-1-5.6,0.5-10.8,4.5-15.1
				c4-4.2,8.9-5.9,14.5-6c9.7,0,19.4-0.1,29.1,0c8.2,0.1,14.3,3.8,17.4,11.5c2.6,6.4,1,13.5-3.5,18.5c-2.8,3.1-6.1,4.9-10.1,5.7
				c-0.8,0.2-1.6,0.2-2.4,0.2C50.2,469.6,44.7,469.6,39.3,469.6z"/>
			<path class="st16" d="M639.7,321.5c-4.5,0-9,0-13.6,0c-3.2,0-6.2-0.4-9.1-1.7c-5.8-2.6-9.2-7.1-10.4-13.3
				c-0.9-5,0.2-9.4,3.1-13.4c3.4-4.8,8.1-7.5,14.1-7.5c10.7-0.1,21.3-0.1,32,0c6.1,0,10.8,2.8,14.5,7.7c4.2,5.6,4,15,0,20.3
				c-3.1,4-7,6.7-12.1,7.5c-3.7,0.6-7.4,0.2-11.1,0.4C644.5,321.6,642.1,321.5,639.7,321.5z"/>
			<path class="st16" d="M108.3,498.9c-2,0-4.1,0-6.1,0c-8.2,0-16.1-6.6-17.5-14.6c-1.1-5.9,0.3-11,4.2-15.4c3.1-3.5,7.1-5.4,11.8-6
				c4.2-0.5,8.3-0.4,12.4-0.3c5.7,0.1,10.9,1.7,14.9,6.1c2.8,3.1,4.4,6.8,4.6,11.1c0.2,4.1-0.7,7.9-3.1,11.2c-3.7,5.1-8.6,7.9-15,8
				C112.4,498.9,110.4,498.9,108.3,498.9z"/>
			<path class="st16" d="M502.6,498.9c-2,0-4.1,0-6.1,0c-8.2,0-16-6.5-17.5-14.6c-1.1-5.9,0.3-11,4.2-15.4c3.1-3.5,7.1-5.4,11.8-5.9
				c4.2-0.5,8.3-0.4,12.4-0.3c5.7,0.1,10.9,1.7,14.9,6.1c2.8,3.1,4.4,6.8,4.6,11.1c0.2,4.1-0.7,7.9-3.1,11.2
				c-3.7,5.1-8.6,7.9-15,7.9C506.7,498.9,504.7,498.9,502.6,498.9z"/>
			<path class="st16" d="M178.5,475.7c-2.1,0-4.2,0-6.4,0c-8,0.2-15.2-5.6-17.2-13.5c-2.2-8.5,2.5-17.3,9.8-20.6
				c2.6-1.2,5.3-1.9,8.2-1.8c3.7,0,7.3,0,11,0c6.1,0,11.3,2.4,15,7.2c3.2,4.1,4.4,8.8,3.3,14c-1.6,7.9-6.5,12.6-14.2,14.5
				c-0.7,0.2-1.4,0.2-2.2,0.2C183.5,475.7,181,475.7,178.5,475.7L178.5,475.7z"/>
			<path class="st16" d="M572.8,475.7c-2.1,0-4.2,0-6.4,0c-8,0.2-15.2-5.6-17.2-13.5c-2.2-8.5,2.5-17.3,9.8-20.6
				c2.6-1.2,5.3-1.9,8.2-1.9c3.6,0,7.2,0,10.7,0c6.2,0,11.4,2.3,15.3,7.2c3.2,4.1,4.4,8.8,3.4,14c-1.5,7.9-6.5,12.6-14.2,14.5
				c-0.7,0.2-1.4,0.2-2.2,0.2C577.8,475.7,575.3,475.7,572.8,475.7L572.8,475.7z"/>
			<path class="st16" d="M75.4,201.3c-2.1,0-4.2,0-6.3,0c-8.2,0-15.9-3-17.4-7.8c-1.7-5.6,4.7-10.1,14.4-11.1c1.7-0.2,3.3-0.3,5-0.2
				c4.5,0.1,9-0.2,13.5,0.2c7.7,0.7,13.8,4,14.7,8.4c1.1,5.2-5.5,9.7-15.2,10.5C81.3,201.4,78.3,201.2,75.4,201.3
				C75.4,201.2,75.4,201.3,75.4,201.3z"/>
			<path class="st16" d="M755.4,325c-2.9-0.2-5.8,0.1-8.7-0.4c-6.8-1.3-11.5-5-14-11.4c-2.2-5.7-1.5-11.3,1.9-16.2
				c3.3-4.9,8.1-7.8,14.1-7.9c4.3-0.1,8.6,0,12.9,0c8.2-0.2,15.6,5.6,17.6,13.9c2.3,9.7-4.6,20.3-14.8,21.7
				C761.4,325,758.4,324.8,755.4,325z"/>
			<path class="st16" d="M244.5,325c-2.9-0.2-5.8,0.1-8.7-0.4c-6.8-1.3-11.5-5-14-11.4c-2.2-5.7-1.5-11.3,1.9-16.2
				c3.3-4.9,8.1-7.8,14.1-7.9c4.3-0.1,8.6,0,12.9,0c8.2-0.1,15.4,5.5,17.5,13.7c2.5,9.8-4.5,20.5-14.8,21.9
				C250.5,325,247.5,324.8,244.5,325z"/>
			<path class="st16" d="M347.9,348.7c-2.1,0-4.2,0-6.3,0c-7.6,0-15-5.1-17-13.4c-1.5-6.4-0.1-12.2,4.7-17c3.7-3.7,8.2-5.2,13.1-5.4
				c3.9-0.2,7.7-0.2,11.6,0c9.1,0.5,15.8,5.4,17.6,14.4c1.5,7.6-0.6,14.7-9.2,19.4c-2.7,1.5-5.5,2.2-8.6,2.1
				C351.8,348.6,349.8,348.7,347.9,348.7z"/>
			<path class="st16" d="M682.2,365c-2.1,0-4.2,0-6.3,0c-7.6,0-15-5.1-17-13.4c-1.5-6.4-0.2-12.2,4.7-17c3.7-3.7,8.1-5.2,13.1-5.4
				c3.9-0.2,7.7-0.2,11.6,0c9.1,0.5,15.8,5.3,17.6,14.4c1.5,7.6-0.6,14.7-9.2,19.4c-2.7,1.5-5.6,2.3-8.8,2.1
				C686,365,684.1,365,682.2,365z"/>
			<path class="st16" d="M559.3,189.1c2.1,0,4.2,0,6.3,0c7.2,0,15.8,3,17.2,7.8c0.9,3.2-0.5,6.1-4.9,8.5c-2.8,1.5-6.2,2.4-10.2,2.7
				c-5.1,0.4-10.2,0.3-15.3,0.2c-8.3-0.2-14.5-3-16.6-6.6c-3-5.1,1.7-10.2,11.2-12c1.7-0.3,3.5-0.5,5.3-0.5
				C554.8,189.1,557,189.1,559.3,189.1z"/>
			<path class="st16" d="M577.6,354.7h-38c-6.6,0-12-5.4-12-12l0,0c0-6.6,5.4-12,12-12h38c6.6,0,12,5.4,12,12l0,0
				C589.6,349.3,584.2,354.7,577.6,354.7z"/>
		</g>
	</g>
</g>
<g>
	<g>
		<g>
			<g>
				<g>
					<path class="st8" d="M522.3,497.5h251.8l-6.1-21.2c-0.5-2.7-1.8-5.3-4-7.3c-6.7-6.4-14.2-2.5-17.8,0.1
						c-1.1,0.8-2.8,0.5-3.4-0.6l-13.3-25.7c-4.1-8-17.6-8.3-22.2-0.5l-17.4,29.2c-0.6,1-2.3,0.9-2.8-0.1l-5-10.3
						c-3.8-7.8-16.8-8.6-21.9-1.3l-11.2,20.7c-0.6,1.1-2.5,1-3-0.1l-17-37.5c-4.2-8-17.7-8.2-22.2-0.3l-7.7,13.3
						c-1.1,1.9-4.2,2.3-5.9,0.7l-5.3-5c-6.4-6.1-18.3-3.9-21,3.8l-3.5,22.5c-0.2,1.2-2,1.2-2.1-0.1l-0.6-9.3
						c-0.4-6-6.8-10.7-13.9-9.7c-4,0.5-7.7,2.7-9.4,6.4L522.3,497.5z"/>
					<path class="st9" d="M772.3,492.2l-4.3-16c-0.5-2.7-1.8-5.3-4-7.3c-6.7-6.4-14.2-2.5-17.8,0.1c-1.1,0.8-2.8,0.5-3.4-0.6
						l-13.3-25.7c-4.1-8-17.6-8.3-22.2-0.5l-17.4,29.2c-0.6,1-2.3,0.9-2.8-0.1l-5-10.3c-3.8-7.8-16.8-8.6-21.9-1.3l-11.2,20.7
						c-0.6,1.1-2.5,1-3-0.1l-17-37.5c-4.2-8-17.7-8.2-22.2-0.3l-7.7,13.3c-1.1,1.9-4.2,2.3-5.9,0.7l-5.3-5c-6.4-6.1-18.3-3.9-21,3.8
						l-3.5,22.5c-0.2,1-2,1-2.1-0.1l-0.6-9.4c-0.4-6-6.8-10.7-13.9-9.7c-4,0.5-7.7,2.7-9.4,6.4l-12.6,26.5"/>
					<g>
						<g>
							<path class="st0" d="M617.2,499.7V368.8c0-14.6-11.8-26.5-26.5-26.5c-14.6,0-26.5,11.9-26.5,26.5v130.9H617.2z"/>
							<path class="st1" d="M565.3,499.7V368.8c0-14,11.4-25.4,25.5-25.4s25.5,11.4,25.5,25.5v130.8h2V368.8
								c0-15.1-12.3-27.4-27.5-27.4c-15.1,0-27.5,12.3-27.5,27.5v130.8H565.3z"/>
						</g>
						<g>
							<g>
								<defs>
									<path id="SVGID_00000029760850892939892800000007598872803489960881_" d="M590.8,724.6L590.8,724.6
										c-14,0-25.5-11.4-25.5-25.5V368.8c0-14,11.4-25.5,25.5-25.5l0,0c14,0,25.5,11.4,25.5,25.5v330.4
										C616.2,713.3,604.8,724.6,590.8,724.6z"/>
								</defs>
								<clipPath id="SVGID_00000016761427917795393750000011875341055811052733_">
									<use xlink:href="#SVGID_00000029760850892939892800000007598872803489960881_"  style="overflow:visible;"/>
								</clipPath>
								<g style="clip-path:url(#SVGID_00000016761427917795393750000011875341055811052733_);">
									<g>
										<line class="st18" x1="576.3" y1="355" x2="576.3" y2="468.7"/>
										<path class="st18" d="M589.3,405.1c0.1,28,0.1,55,0,83.2"/>
										<line class="st18" x1="606.3" y1="323" x2="606.3" y2="456.6"/>
										<line class="st18" x1="587.7" y1="360.6" x2="587.7" y2="390.5"/>
										<path class="st18" d="M577.3,483c0,1.8,0,3.6,0,5.5"/>
									</g>
								</g>
							</g>
						</g>
					</g>
					<line class="st4" x1="565.3" y1="405.4" x2="616.2" y2="405.4"/>
					<g>
						<polyline class="st0" points="523.6,370.2 793.2,370.2 793.2,379.2 793.2,406.4 523.6,406.4 						"/>
						<line class="st18" x1="528.7" y1="377.5" x2="729.7" y2="377.5"/>
						<line class="st18" x1="568.8" y1="388.5" x2="770" y2="388.5"/>
						<line class="st18" x1="538.7" y1="399.5" x2="739.8" y2="399.5"/>
						<line class="st5" x1="523.6" y1="406.2" x2="793.2" y2="406.2"/>
						<line class="st5" x1="523.6" y1="370.2" x2="793.2" y2="370.2"/>
					</g>
					<g>
						<circle class="st6" cx="589.8" cy="388.6" r="4.9"/>
						<g>
							<line class="st7" x1="588.1" y1="386.9" x2="591.5" y2="390.4"/>
							<line class="st7" x1="591.4" y1="386.9" x2="588.1" y2="390.4"/>
						</g>
					</g>
				</g>
			</g>
			<g>
				<g>
					<path class="st8" d="M259.7,497.5h251.8l-6.1-21.2c-0.5-2.7-1.8-5.3-4-7.3c-6.7-6.4-14.2-2.5-17.8,0.1
						c-1.1,0.8-2.8,0.5-3.4-0.6l-13.3-25.7c-4.1-8-17.6-8.3-22.2-0.5l-17.4,29.2c-0.6,1-2.3,0.9-2.8-0.1l-5-10.3
						c-3.8-7.8-16.8-8.6-21.9-1.3l-11.2,20.7c-0.6,1.1-2.5,1-3-0.1l-17-37.5c-4.2-8-17.7-8.2-22.2-0.3l-7.7,13.3
						c-1.1,1.9-4.2,2.3-5.9,0.7l-5.3-5c-6.4-6.1-18.3-3.9-21,3.8l-3.5,22.5c-0.2,1.2-2,1.2-2.1-0.1l-0.6-9.3
						c-0.4-6-6.8-10.7-13.9-9.7c-4,0.5-7.7,2.7-9.4,6.4L259.7,497.5z"/>
					<path class="st9" d="M509.7,492.2l-4.3-16c-0.5-2.7-1.8-5.3-4-7.3c-6.7-6.4-14.2-2.5-17.8,0.1c-1.1,0.8-2.8,0.5-3.4-0.6
						l-13.3-25.7c-4.1-8-17.6-8.3-22.2-0.5l-17.4,29.2c-0.6,1-2.3,0.9-2.8-0.1l-5-10.3c-3.8-7.8-16.8-8.6-21.9-1.3l-11.2,20.7
						c-0.6,1.1-2.5,1-3-0.1l-17-37.5c-4.2-8-17.7-8.2-22.2-0.3l-7.7,13.3c-1.1,1.9-4.2,2.3-5.9,0.7l-5.3-5c-6.4-6.1-18.3-3.9-21,3.8
						l-3.5,22.5c-0.2,1-2,1-2.1-0.1l-0.6-9.4c-0.4-6-6.8-10.7-13.9-9.7c-4,0.5-7.7,2.7-9.4,6.4l-12.6,26.5"/>
					<g>
						<g>
							<path class="st0" d="M354.7,499.7V368.8c0-14.6-11.8-26.5-26.5-26.5c-14.6,0-26.5,11.9-26.5,26.5v130.9H354.7z"/>
							<path class="st1" d="M302.8,499.7V368.8c0-14,11.4-25.4,25.5-25.4s25.5,11.4,25.5,25.5v130.8h2V368.8
								c0-15.1-12.3-27.4-27.5-27.4c-15.1,0-27.5,12.3-27.5,27.5v130.8H302.8z"/>
						</g>
						<g>
							<g>
								<defs>
									<path id="SVGID_00000013892559317018933730000015697497620829940913_" d="M328.3,724.6L328.3,724.6
										c-14,0-25.5-11.4-25.5-25.5V368.8c0-14,11.4-25.5,25.5-25.5l0,0c14,0,25.5,11.4,25.5,25.5v330.4
										C353.7,713.3,342.3,724.6,328.3,724.6z"/>
								</defs>
								<clipPath id="SVGID_00000151545085861777519480000010130680840036451748_">
									<use xlink:href="#SVGID_00000013892559317018933730000015697497620829940913_"  style="overflow:visible;"/>
								</clipPath>
								<g style="clip-path:url(#SVGID_00000151545085861777519480000010130680840036451748_);">
									<g>
										<line class="st18" x1="313.7" y1="355" x2="313.7" y2="468.7"/>
										<path class="st18" d="M326.8,405.1c0.1,28,0.1,55,0,83.2"/>
										<line class="st18" x1="343.8" y1="323" x2="343.8" y2="456.6"/>
										<line class="st18" x1="325.2" y1="360.6" x2="325.2" y2="390.5"/>
										<path class="st18" d="M314.7,483c0,1.8,0,3.6,0,5.5"/>
									</g>
								</g>
							</g>
						</g>
					</g>
					<line class="st4" x1="302.8" y1="405.4" x2="353.7" y2="405.4"/>
					<g>
						<polyline class="st0" points="261,370.2 529.6,370.2 529.6,379.2 529.6,406.4 261,406.4 						"/>
						<line class="st18" x1="266.1" y1="377.5" x2="466.3" y2="377.5"/>
						<line class="st18" x1="306.2" y1="388.5" x2="506.4" y2="388.5"/>
						<line class="st18" x1="276.2" y1="399.5" x2="476.4" y2="399.5"/>
						<line class="st5" x1="261" y1="406.2" x2="529.6" y2="406.2"/>
						<line class="st5" x1="261" y1="370.2" x2="529.6" y2="370.2"/>
					</g>
					<g>
						<circle class="st6" cx="327.3" cy="388.6" r="4.9"/>
						<g>
							<line class="st7" x1="325.6" y1="386.9" x2="329" y2="390.4"/>
							<line class="st7" x1="328.9" y1="386.9" x2="325.6" y2="390.4"/>
						</g>
					</g>
				</g>
			</g>
			<g>
				<g>
					<path class="st8" d="M-2.8,497.5H249l-6.1-21.2c-0.5-2.7-1.8-5.3-4-7.3c-6.7-6.4-14.2-2.5-17.8,0.1c-1.1,0.8-2.8,0.5-3.4-0.6
						l-13.3-25.7c-4.1-8-17.6-8.3-22.2-0.5l-17.4,29.2c-0.6,1-2.3,0.9-2.8-0.1l-5-10.3c-3.8-7.8-16.8-8.6-21.9-1.3l-11.2,20.7
						c-0.6,1.1-2.5,1-3-0.1l-17-37.5c-4.2-8-17.7-8.2-22.3-0.3l-7.6,13.2c-1.1,1.9-4.2,2.3-5.9,0.7l-5.3-5c-6.4-6.1-18.3-3.9-21,3.8
						l-3.5,22.5c-0.2,1.2-2,1.2-2.1-0.1l-0.6-9.3c-0.4-6-6.8-10.7-13.9-9.7c-4,0.5-7.7,2.7-9.4,6.4L-2.8,497.5z"/>
					<path class="st9" d="M247.2,492.2l-4.3-16c-0.5-2.7-1.8-5.3-4-7.3c-6.7-6.4-14.2-2.5-17.8,0.1c-1.1,0.8-2.8,0.5-3.4-0.6
						l-13.3-25.7c-4.1-8-17.6-8.3-22.2-0.5l-17.4,29.2c-0.6,1-2.3,0.9-2.8-0.1l-5-10.3c-3.8-7.8-16.8-8.6-21.9-1.3l-11.2,20.7
						c-0.6,1.1-2.5,1-3-0.1l-17-37.5c-4.2-8-17.7-8.2-22.3-0.3l-7.6,13.3c-1.1,1.9-4.2,2.3-5.9,0.7l-5.3-5c-6.4-6.1-18.3-3.9-21,3.8
						l-3.5,22.5c-0.2,1-2,1-2.1-0.1l-0.6-9.4c-0.4-6-6.8-10.7-13.9-9.7c-4,0.5-7.7,2.7-9.4,6.4l-12.6,26.5"/>
					<g>
						<g>
							<path class="st0" d="M92.2,499.7V368.8c0-14.6-11.8-26.5-26.5-26.5c-14.6,0-26.5,11.9-26.5,26.5v130.9H92.2z"/>
							<path class="st1" d="M40.3,499.7V368.8c0-14,11.4-25.4,25.5-25.4s25.5,11.4,25.5,25.5v130.8h2V368.8
								c0-15.1-12.3-27.4-27.5-27.4c-15.1,0-27.5,12.2-27.5,27.4v130.9H40.3z"/>
						</g>
						<g>
							<g>
								<defs>
									<path id="SVGID_00000176045216736260189580000006868174312397669766_" d="M65.7,724.6L65.7,724.6
										c-14,0-25.5-11.4-25.5-25.5V368.8c0-14,11.4-25.5,25.5-25.5l0,0c14,0,25.5,11.4,25.5,25.5v330.4
										C91.2,713.3,79.8,724.6,65.7,724.6z"/>
								</defs>
								<clipPath id="SVGID_00000071550070446821430430000005140871943209927830_">
									<use xlink:href="#SVGID_00000176045216736260189580000006868174312397669766_"  style="overflow:visible;"/>
								</clipPath>
								<g style="clip-path:url(#SVGID_00000071550070446821430430000005140871943209927830_);">
									<g>
										<line class="st18" x1="51.2" y1="355" x2="51.2" y2="468.7"/>
										<path class="st18" d="M64.2,405.1c0.1,28,0.1,55,0,83.2"/>
										<line class="st18" x1="81.3" y1="323" x2="81.3" y2="456.6"/>
										<line class="st18" x1="62.6" y1="360.6" x2="62.6" y2="390.5"/>
										<path class="st18" d="M52.2,483c0,1.8,0,3.6,0,5.5"/>
									</g>
								</g>
							</g>
						</g>
					</g>
					<line class="st4" x1="40.3" y1="405.4" x2="91.2" y2="405.4"/>
					<g>
						<polyline class="st0" points="-1.5,370.2 267,370.2 267,379.2 267,406.4 -1.5,406.4 						"/>
						<line class="st18" x1="3.6" y1="377.5" x2="203.8" y2="377.5"/>
						<line class="st18" x1="43.7" y1="388.5" x2="243.9" y2="388.5"/>
						<line class="st18" x1="13.6" y1="399.5" x2="213.8" y2="399.5"/>
						<line class="st5" x1="-1.5" y1="406.2" x2="267" y2="406.2"/>
						<line class="st5" x1="-1.5" y1="370.2" x2="267" y2="370.2"/>
					</g>
					<g>
						<circle class="st6" cx="64.7" cy="388.6" r="4.9"/>
						<g>
							<line class="st7" x1="63" y1="386.9" x2="66.4" y2="390.4"/>
							<line class="st7" x1="66.3" y1="386.9" x2="63" y2="390.4"/>
						</g>
					</g>
				</g>
			</g>
		</g>
	</g>
</g>
</svg>
