<svg version="1.1" id="Layer_2_00000001647501480954407860000001023038268120092575_" xmlns="http://www.w3.org/2000/svg" xmlns:xlink="http://www.w3.org/1999/xlink" x="0" y="0" viewBox="0 0 792.4 498.3" style="enable-background:new 0 0 792.4 498.3" xml:space="preserve"><style>.st0{fill:#9b5f66}.st1{fill:#4c3035}.st3{fill:none;stroke:#b27d85;stroke-linecap:round;stroke-miterlimit:10}.st4{fill:none;stroke:#7f4f56;stroke-width:10}.st4,.st5,.st6,.st7{stroke-miterlimit:10}.st5{fill:none;stroke:#4c3035;stroke-width:2}.st6,.st7{stroke:#665d39}.st6{fill:#baba6a;stroke-width:2}.st7{fill:none;stroke-linecap:round}.st8{fill:#fc92b1}.st9{fill:none;stroke:#995b73;stroke-width:2;stroke-linecap:round;stroke-miterlimit:10}.st15{fill:#fdfaea}.st16{fill:#efead8}.st18{fill:none;stroke:#b27d85;stroke-width:2;stroke-linecap:round;stroke-miterlimit:10}</style><path class="st0" d="M688 261c-8.6 0-15.6-7-15.6-15.6V55.3c0-8.6 7-15.6 15.6-15.6s15.6 7 15.6 15.6v190.1c0 8.6-7 15.6-15.6 15.6z"/><path class="st1" d="M688 40.6c8.1 0 14.6 6.5 14.6 14.6v190.1c0 8.1-6.5 14.6-14.6 14.6s-14.6-6.5-14.6-14.6v-190c-.1-8.1 6.5-14.7 14.6-14.7m0-2c-9.2 0-16.6 7.5-16.6 16.6v190.1c0 9.2 7.5 16.6 16.6 16.6s16.6-7.5 16.6-16.6v-190c0-9.2-7.5-16.7-16.6-16.7z"/><defs><path id="SVGID_1_" d="M688 260c-8.1 0-14.6-6.5-14.6-14.6V55.3c0-8.1 6.5-14.6 14.6-14.6s14.6 6.5 14.6 14.6v190.1c0 8.1-6.5 14.6-14.6 14.6z"/></defs><clipPath id="SVGID_00000044163770805156866740000008905214000961585073_"><use xlink:href="#SVGID_1_" style="overflow:visible"/></clipPath><g style="clip-path:url(#SVGID_00000044163770805156866740000008905214000961585073_)"><path class="st3" d="M679.6 247.3v65.4M687.1 276.2v65.4M696.9 228.9v76.9M686.2 250.5v17.3M680.2 321v12.8"/><g><path class="st3" d="M679.6 147.3v65.4M687.1 176.2v65.4M696.9 128.9v76.9M686.2 150.5v17.3M680.2 221v12.8"/></g><g><path class="st3" d="M679.6 47.3v65.4M687.1 76.2v65.4M696.9 28.9v76.9M686.2 50.5v17.3M680.2 121v12.8"/></g></g><path class="st4" d="M673.3 76.3h29.3"/><path class="st0" d="M649.3 56h159.5v20.9H649.3"/><path class="st3" d="M663.7 61.2h61.6M689.5 66.6H751M670.2 71.9h106.2"/><path class="st5" d="M649.3 76.8h159.5M649.3 56h159.5"/><g><circle class="st6" cx="687.4" cy="66.7" r="2.8"/><path class="st7" d="m686.4 65.7 2 2M688.3 65.7l-1.8 2"/></g><path class="st3" d="M735.3 62.6h15.2M765.3 66.6h25.2"/><path class="st8" d="M649.3 163h139l1.6-12.2c-.3-1.5-1-3-2.3-4.2-3.8-3.7-8.2-1.4-10.2 0-.6.5-1.6.3-1.9-.4l-7.6-14.7c-2.4-4.6-10.1-4.7-12.7-.3l-10 16.7c-.3.6-1.3.5-1.6 0l-2.9-5.9c-2.2-4.5-9.7-4.9-12.6-.7l-6.4 11.9c-.3.6-1.4.6-1.7 0l-9.7-21.5c-2.4-4.6-10.2-4.7-12.8-.2l-4.4 7.6c-.6 1.1-2.4 1.3-3.4.4l-3-2.9c-3.6-3.5-10.5-2.2-12 2.2l-2 12.9c-.1.6-1.2.6-1.2 0l-.4-5.4c-.2-3.4-3.9-6.1-8-5.6-2.3.3-4.4 1.5-5.4 3.7l-8.4 18.6z"/><path class="st9" d="m787.7 157.7.9-4.8c.3-1.4.3-2.9.1-4.3-.1-.7-.4-1.4-1-2-3.8-3.7-8.2-1.4-10.2 0-.6.5-1.6.3-1.9-.4l-7.6-14.7c-2.4-4.6-10.1-4.7-12.7-.3l-10 16.7c-.4.6-1.3.6-1.6-.1l-2.9-5.9c-2.2-4.5-9.7-4.9-12.6-.7l-6.4 11.9c-.4.7-1.4.7-1.7-.1l-9.7-21.5c-2.4-4.6-10.2-4.7-12.8-.2l-4.4 7.6c-.6 1.1-2.4 1.3-3.4.4l-3-2.9c-3.6-3.5-10.5-2.2-12 2.2l-2 12.9c-.1.7-1.1.7-1.2-.1l-.4-5.4c-.2-3.4-3.9-6.1-8-5.6-2.3.3-4.4 1.5-5.4 3.7l-5.4 12.5"/><g><path class="st0" d="M558 261c-8.6 0-15.6-7-15.6-15.6V55.3c0-8.6 7-15.6 15.6-15.6s15.6 7 15.6 15.6v190.1c0 8.6-7 15.6-15.6 15.6z"/><path class="st1" d="M558 40.6c8.1 0 14.6 6.5 14.6 14.6v190.1c0 8.1-6.5 14.6-14.6 14.6s-14.6-6.5-14.6-14.6v-190c-.1-8.1 6.5-14.7 14.6-14.7m0-2c-9.2 0-16.6 7.5-16.6 16.6v190.1c0 9.2 7.5 16.6 16.6 16.6s16.6-7.5 16.6-16.6v-190c0-9.2-7.5-16.7-16.6-16.7z"/><defs><path id="SVGID_00000046338210607689758320000017307383640595596934_" d="M558 260c-8.1 0-14.6-6.5-14.6-14.6V55.3c0-8.1 6.5-14.6 14.6-14.6s14.6 6.5 14.6 14.6v190.1c0 8.1-6.5 14.6-14.6 14.6z"/></defs><clipPath id="SVGID_00000174590045468942059920000018115737981523302531_"><use xlink:href="#SVGID_00000046338210607689758320000017307383640595596934_" style="overflow:visible"/></clipPath><g style="clip-path:url(#SVGID_00000174590045468942059920000018115737981523302531_)"><path class="st3" d="M549.6 247.3v65.4M557.1 276.2v65.4M566.9 228.9v76.9M556.2 250.5v17.3M550.2 321v12.8"/><g><path class="st3" d="M549.6 147.3v65.4M557.1 176.2v65.4M566.9 128.9v76.9M556.2 150.5v17.3M550.2 221v12.8"/></g><g><path class="st3" d="M549.6 47.3v65.4M557.1 76.2v65.4M566.9 28.9v76.9M556.2 50.5v17.3M550.2 121v12.8"/></g></g><path class="st4" d="M543.3 76.3h29.3"/><path class="st0" d="M519.3 56h143v20.9h-143"/><path class="st3" d="M532.2 61.2h55.2M555.3 66.6h55.2M538 71.9h95.2"/><path class="st5" d="M519.3 76.8h143M519.3 56h143"/><g><circle class="st6" cx="557.4" cy="66.7" r="2.8"/><path class="st7" d="m556.4 65.7 2 2M558.3 65.7l-1.8 2"/></g><path class="st3" d="M605.3 62.6h15.2M635.3 66.6h25.2"/><path class="st8" d="M519.3 163h143l-2.4-12.2c-.3-1.5-1-3-2.3-4.2-3.8-3.7-8.2-1.4-10.2 0-.6.5-1.6.3-1.9-.4l-7.6-14.7c-2.4-4.6-10.1-4.7-12.7-.3l-10 16.7c-.3.6-1.3.5-1.6 0l-2.9-5.9c-2.2-4.5-9.7-4.9-12.6-.7l-6.4 11.9c-.3.6-1.4.6-1.7 0l-9.7-21.5c-2.4-4.6-10.2-4.7-12.8-.2l-4.4 7.6c-.6 1.1-2.4 1.3-3.4.4l-3-2.9c-3.6-3.5-10.5-2.2-12 2.2l-2 12.9c-.1.6-1.2.6-1.2 0l-.4-5.4c-.2-3.4-3.9-6.1-8-5.6-2.3.3-4.4 1.5-5.4 3.7l-8.4 18.6z"/><path class="st9" d="m657.7 157.7.9-4.8c.3-1.4.3-2.9.1-4.3-.1-.7-.4-1.4-1-2-3.8-3.7-8.2-1.4-10.2 0-.6.5-1.6.3-1.9-.4l-7.6-14.7c-2.4-4.6-10.1-4.7-12.7-.3l-10 16.7c-.4.6-1.3.6-1.6-.1l-2.9-5.9c-2.2-4.5-9.7-4.9-12.6-.7l-6.4 11.9c-.4.7-1.4.7-1.7-.1l-9.7-21.5c-2.4-4.6-10.2-4.7-12.8-.2l-4.4 7.6c-.6 1.1-2.4 1.3-3.4.4l-3-2.9c-3.6-3.5-10.5-2.2-12 2.2l-2 12.9c-.1.7-1.1.7-1.2-.1l-.4-5.4c-.2-3.4-3.9-6.1-8-5.6-2.3.3-4.4 1.5-5.4 3.7l-5.4 12.5"/></g><g><path class="st0" d="M428 261c-8.6 0-15.6-7-15.6-15.6V55.3c0-8.6 7-15.6 15.6-15.6s15.6 7 15.6 15.6v190.1c0 8.6-7 15.6-15.6 15.6z"/><path class="st1" d="M428 40.6c8.1 0 14.6 6.5 14.6 14.6v190.1c0 8.1-6.6 14.6-14.6 14.6s-14.6-6.5-14.6-14.6v-190c-.1-8.1 6.5-14.7 14.6-14.7m0-2c-9.2 0-16.6 7.5-16.6 16.6v190.1c0 9.2 7.5 16.6 16.6 16.6 9.2 0 16.6-7.5 16.6-16.6v-190c0-9.2-7.5-16.7-16.6-16.7z"/><defs><path id="SVGID_00000056389195779651503140000010814930366084741505_" d="M428 260c-8.1 0-14.6-6.5-14.6-14.6V55.3c0-8.1 6.5-14.6 14.6-14.6s14.6 6.5 14.6 14.6v190.1c0 8.1-6.5 14.6-14.6 14.6z"/></defs><clipPath id="SVGID_00000021113454552016373050000017038624982065306556_"><use xlink:href="#SVGID_00000056389195779651503140000010814930366084741505_" style="overflow:visible"/></clipPath><g style="clip-path:url(#SVGID_00000021113454552016373050000017038624982065306556_)"><path class="st3" d="M419.6 247.3v65.4M427.1 276.2v65.4M436.9 228.9v76.9M426.2 250.5v17.3M420.2 321v12.8"/><g><path class="st3" d="M419.6 147.3v65.4M427.1 176.2v65.4M436.9 128.9v76.9M426.2 150.5v17.3M420.2 221v12.8"/></g><g><path class="st3" d="M419.6 47.3v65.4M427.1 76.2v65.4M436.9 28.9v76.9M426.2 50.5v17.3M420.2 121v12.8"/></g></g><path class="st4" d="M413.3 76.3h29.3"/><path class="st0" d="M389.3 56h143v20.9h-143"/><path class="st3" d="M402.2 61.2h55.2M425.3 66.6h55.2M408 71.9h95.2"/><path class="st5" d="M389.3 76.8h143M389.3 56h143"/><g><circle class="st6" cx="427.4" cy="66.7" r="2.8"/><path class="st7" d="m426.4 65.7 2 2M428.3 65.7l-1.8 2"/></g><path class="st3" d="M475.3 62.6h15.2M505.3 66.6h25.2"/><path class="st8" d="M389.3 163h143l-2.4-12.2c-.3-1.5-1-3-2.3-4.2-3.8-3.7-8.2-1.4-10.2 0-.6.5-1.6.3-1.9-.4l-7.6-14.7c-2.4-4.6-10.1-4.7-12.7-.3l-10 16.7c-.3.6-1.3.5-1.6 0l-2.9-5.9c-2.2-4.5-9.7-4.9-12.6-.7l-6.4 11.9c-.3.6-1.4.6-1.7 0l-9.7-21.5c-2.4-4.6-10.2-4.7-12.8-.2l-4.4 7.6c-.6 1.1-2.4 1.3-3.4.4l-3-2.9c-3.6-3.5-10.5-2.2-12 2.2l-2 12.9c-.1.6-1.2.6-1.2 0l-.4-5.4c-.2-3.4-3.9-6.1-8-5.6-2.3.3-4.4 1.5-5.4 3.7l-8.4 18.6z"/><path class="st9" d="m527.7 157.7.9-4.8c.3-1.4.3-2.9.1-4.3-.1-.7-.4-1.4-1-2-3.8-3.7-8.2-1.4-10.2 0-.6.5-1.6.3-1.9-.4l-7.6-14.7c-2.4-4.6-10.1-4.7-12.7-.3l-10 16.7c-.4.6-1.3.6-1.6-.1l-2.9-5.9c-2.2-4.5-9.7-4.9-12.6-.7l-6.4 11.9c-.4.7-1.4.7-1.7-.1l-9.7-21.5c-2.4-4.6-10.2-4.7-12.8-.2l-4.4 7.6c-.6 1.1-2.4 1.3-3.4.4l-3-2.9c-3.6-3.5-10.5-2.2-12 2.2l-2 12.9c-.1.7-1.1.7-1.2-.1l-.4-5.4c-.2-3.4-3.9-6.1-8-5.6-2.3.3-4.4 1.5-5.4 3.7l-5.4 12.5"/></g><g><path class="st0" d="M298 261c-8.6 0-15.6-7-15.6-15.6V55.3c0-8.6 7-15.6 15.6-15.6s15.6 7 15.6 15.6v190.1c0 8.6-7 15.6-15.6 15.6z"/><path class="st1" d="M298 40.6c8.1 0 14.6 6.5 14.6 14.6v190.1c0 8.1-6.6 14.6-14.6 14.6s-14.6-6.5-14.6-14.6v-190c-.1-8.1 6.5-14.7 14.6-14.7m0-2c-9.2 0-16.6 7.5-16.6 16.6v190.1c0 9.2 7.5 16.6 16.6 16.6 9.2 0 16.6-7.5 16.6-16.6v-190c0-9.2-7.5-16.7-16.6-16.7z"/><defs><path id="SVGID_00000131327069682435003660000011256459430489925809_" d="M298 260c-8.1 0-14.6-6.5-14.6-14.6V55.3c0-8.1 6.5-14.6 14.6-14.6s14.6 6.5 14.6 14.6v190.1c0 8.1-6.5 14.6-14.6 14.6z"/></defs><clipPath id="SVGID_00000162335193348414673680000010434666060901159306_"><use xlink:href="#SVGID_00000131327069682435003660000011256459430489925809_" style="overflow:visible"/></clipPath><g style="clip-path:url(#SVGID_00000162335193348414673680000010434666060901159306_)"><path class="st3" d="M289.6 247.3v65.4M297.1 276.2v65.4M306.9 228.9v76.9M296.2 250.5v17.3M290.2 321v12.8"/><g><path class="st3" d="M289.6 147.3v65.4M297.1 176.2v65.4M306.9 128.9v76.9M296.2 150.5v17.3M290.2 221v12.8"/></g><g><path class="st3" d="M289.6 47.3v65.4M297.1 76.2v65.4M306.9 28.9v76.9M296.2 50.5v17.3M290.2 121v12.8"/></g></g><path class="st4" d="M283.3 76.3h29.3"/><path class="st0" d="M259.3 56h143v20.9h-143"/><path class="st3" d="M272.2 61.2h55.2M295.3 66.6h55.2M278 71.9h95.2"/><path class="st5" d="M259.3 76.8h143M259.3 56h143"/><g><circle class="st6" cx="297.4" cy="66.7" r="2.8"/><path class="st7" d="m296.4 65.7 2 2M298.3 65.7l-1.8 2"/></g><path class="st3" d="M345.3 62.6h15.2M375.3 66.6h25.2"/><path class="st8" d="M259.3 163h143l-2.4-12.2c-.3-1.5-1-3-2.3-4.2-3.8-3.7-8.2-1.4-10.2 0-.6.5-1.6.3-1.9-.4l-7.6-14.7c-2.4-4.6-10.1-4.7-12.7-.3l-10 16.7c-.3.6-1.3.5-1.6 0l-2.9-5.9c-2.2-4.5-9.7-4.9-12.6-.7l-6.4 11.9c-.3.6-1.4.6-1.7 0l-9.7-21.5c-2.4-4.6-10.2-4.7-12.8-.2l-4.4 7.6c-.6 1.1-2.4 1.3-3.4.4l-3-2.9c-3.6-3.5-10.5-2.2-12 2.2l-2 12.9c-.1.6-1.2.6-1.2 0l-.4-5.4c-.2-3.4-3.9-6.1-8-5.6-2.3.3-4.4 1.5-5.4 3.7l-8.4 18.6z"/><path class="st9" d="m397.7 157.7.9-4.8c.3-1.4.3-2.9.1-4.3-.1-.7-.4-1.4-1-2-3.8-3.7-8.2-1.4-10.2 0-.6.5-1.6.3-1.9-.4l-7.6-14.7c-2.4-4.6-10.1-4.7-12.7-.3l-10 16.7c-.4.6-1.3.6-1.6-.1l-2.9-5.9c-2.2-4.5-9.7-4.9-12.6-.7l-6.4 11.9c-.4.7-1.4.7-1.7-.1l-9.7-21.5c-2.4-4.6-10.2-4.7-12.8-.2l-4.4 7.6c-.6 1.1-2.4 1.3-3.4.4l-3-2.9c-3.6-3.5-10.5-2.2-12 2.2l-2 12.9c-.1.7-1.1.7-1.2-.1l-.4-5.4c-.2-3.4-3.9-6.1-8-5.6-2.3.3-4.4 1.5-5.4 3.7l-5.4 12.5"/></g><g><path class="st0" d="M168 261c-8.6 0-15.6-7-15.6-15.6V55.3c0-8.6 7-15.6 15.6-15.6s15.6 7 15.6 15.6v190.1c0 8.6-7 15.6-15.6 15.6z"/><path class="st1" d="M168 40.6c8.1 0 14.6 6.5 14.6 14.6v190.1c0 8.1-6.6 14.6-14.6 14.6s-14.6-6.5-14.6-14.6v-190c-.1-8.1 6.5-14.7 14.6-14.7m0-2c-9.2 0-16.6 7.5-16.6 16.6v190.1c0 9.2 7.5 16.6 16.6 16.6s16.6-7.5 16.6-16.6v-190c0-9.2-7.5-16.7-16.6-16.7z"/><defs><path id="SVGID_00000151518301681817335830000009975388645461579966_" d="M168 260c-8.1 0-14.6-6.5-14.6-14.6V55.3c0-8.1 6.6-14.6 14.6-14.6 8.1 0 14.6 6.5 14.6 14.6v190.1c0 8.1-6.5 14.6-14.6 14.6z"/></defs><clipPath id="SVGID_00000124862425554840131720000010864641147014633346_"><use xlink:href="#SVGID_00000151518301681817335830000009975388645461579966_" style="overflow:visible"/></clipPath><g style="clip-path:url(#SVGID_00000124862425554840131720000010864641147014633346_)"><path class="st3" d="M159.6 247.3v65.4M167.1 276.2v65.4M176.9 228.9v76.9M166.2 250.5v17.3M160.2 321v12.8"/><g><path class="st3" d="M159.6 147.3v65.4M167.1 176.2v65.4M176.9 128.9v76.9M166.2 150.5v17.3M160.2 221v12.8"/></g><g><path class="st3" d="M159.6 47.3v65.4M167.1 76.2v65.4M176.9 28.9v76.9M166.2 50.5v17.3M160.2 121v12.8"/></g></g><path class="st4" d="M153.3 76.3h29.3"/><path class="st0" d="M129.3 56h143v20.9h-143"/><path class="st3" d="M142.2 61.2h55.2M165.3 66.6h55.2M148 71.9h95.2"/><path class="st5" d="M129.3 76.8h143M129.3 56h143"/><g><circle class="st6" cx="167.4" cy="66.7" r="2.8"/><path class="st7" d="m166.4 65.7 2 2M168.3 65.7l-1.8 2"/></g><path class="st3" d="M215.3 62.6h15.2M245.3 66.6h25.2"/><path class="st8" d="M129.3 163h143l-2.4-12.2c-.3-1.5-1-3-2.3-4.2-3.8-3.7-8.2-1.4-10.2 0-.6.5-1.6.3-1.9-.4l-7.6-14.7c-2.4-4.6-10.1-4.7-12.7-.3l-10 16.7c-.3.6-1.3.5-1.6 0l-2.9-5.9c-2.2-4.5-9.7-4.9-12.6-.7l-6.4 11.9c-.3.6-1.4.6-1.7 0l-9.7-21.5c-2.4-4.6-10.2-4.7-12.8-.2l-4.4 7.6c-.6 1.1-2.4 1.3-3.4.4l-3-2.9c-3.6-3.5-10.5-2.2-12 2.2l-2 12.9c-.1.6-1.2.6-1.2 0l-.4-5.4c-.2-3.4-3.9-6.1-8-5.6-2.3.3-4.4 1.5-5.4 3.7l-8.4 18.6z"/><path class="st9" d="m267.7 157.7.9-4.8c.3-1.4.3-2.9.1-4.3-.1-.7-.4-1.4-1-2-3.8-3.7-8.2-1.4-10.2 0-.6.5-1.6.3-1.9-.4l-7.6-14.7c-2.4-4.6-10.1-4.7-12.7-.3l-10 16.7c-.4.6-1.3.6-1.6-.1l-2.9-5.9c-2.2-4.5-9.7-4.9-12.6-.7l-6.4 11.9c-.4.7-1.4.7-1.7-.1l-9.7-21.5c-2.4-4.6-10.2-4.7-12.8-.2l-4.4 7.6c-.6 1.1-2.4 1.3-3.4.4l-3-2.9c-3.6-3.5-10.5-2.2-12 2.2l-2 12.9c-.1.7-1.1.7-1.2-.1l-.4-5.4c-.2-3.4-3.9-6.1-8-5.6-2.3.3-4.4 1.5-5.4 3.7l-5.4 12.5"/></g><g><path class="st0" d="M38 261c-8.6 0-15.6-7-15.6-15.6V55.3c0-8.6 7-15.6 15.6-15.6s15.6 7 15.6 15.6v190.1c0 8.6-7 15.6-15.6 15.6z"/><path class="st1" d="M38 40.6c8.1 0 14.6 6.5 14.6 14.6v190.1c0 8.1-6.5 14.6-14.6 14.6s-14.6-6.5-14.6-14.6v-190c-.1-8.1 6.5-14.7 14.6-14.7m0-2c-9.2 0-16.6 7.5-16.6 16.6v190.1c0 9.2 7.5 16.6 16.6 16.6s16.6-7.5 16.6-16.6v-190c0-9.2-7.5-16.7-16.6-16.7z"/><defs><path id="SVGID_00000075870332100992910740000008386655278364675245_" d="M38 260c-8.1 0-14.6-6.5-14.6-14.6V55.3c0-8.1 6.5-14.6 14.6-14.6s14.6 6.5 14.6 14.6v190.1c0 8.1-6.5 14.6-14.6 14.6z"/></defs><clipPath id="SVGID_00000047040086392870488160000011080027121712784768_"><use xlink:href="#SVGID_00000075870332100992910740000008386655278364675245_" style="overflow:visible"/></clipPath><g style="clip-path:url(#SVGID_00000047040086392870488160000011080027121712784768_)"><path class="st3" d="M29.6 247.3v65.4M37.1 276.2v65.4M46.9 228.9v76.9M36.2 250.5v17.3M30.2 321v12.8"/><g><path class="st3" d="M29.6 147.3v65.4M37.1 176.2v65.4M46.9 128.9v76.9M36.2 150.5v17.3M30.2 221v12.8"/></g><g><path class="st3" d="M29.6 47.3v65.4M37.1 76.2v65.4M46.9 28.9v76.9M36.2 50.5v17.3M30.2 121v12.8"/></g></g><path class="st4" d="M23.3 76.3h29.3"/><path class="st0" d="M-.7 56h143v20.9H-.7"/><path class="st3" d="M12.2 61.2h55.2M35.3 66.6h55.2M18 71.9h95.2"/><path class="st5" d="M-.7 76.8h143M-.7 56h143"/><g><circle class="st6" cx="37.4" cy="66.7" r="2.8"/><path class="st7" d="m36.4 65.7 2 2M38.3 65.7l-1.8 2"/></g><path class="st3" d="M85.3 62.6h15.2M115.3 66.6h25.2"/><path class="st8" d="M-.7 163h143l-2.4-12.2c-.3-1.5-1-3-2.3-4.2-3.8-3.7-8.2-1.4-10.2 0-.6.5-1.6.3-1.9-.4l-7.6-14.7c-2.4-4.6-10.1-4.7-12.7-.3l-10 16.7c-.3.6-1.3.5-1.6 0l-2.9-5.9c-2.2-4.5-9.7-4.9-12.6-.7l-6.4 11.9c-.3.6-1.4.6-1.7 0l-9.7-21.5c-2.4-4.6-10.2-4.7-12.8-.2l-4.4 7.6c-.6 1.1-2.4 1.3-3.4.4l-3-2.9c-3.6-3.5-10.5-2.2-12 2.2l-2 12.9c-.1.6-1.2.6-1.2 0l-.4-5.4c-.2-3.4-3.9-6.1-8-5.6-2.3.3-4.4 1.5-5.4 3.7L-.7 163z"/><path class="st9" d="m137.7 157.7.9-4.8c.3-1.4.3-2.9.1-4.3-.1-.7-.4-1.4-1-2-3.8-3.7-8.2-1.4-10.2 0-.6.5-1.6.3-1.9-.4l-7.6-14.7c-2.4-4.6-10.1-4.7-12.7-.3l-10 16.7c-.4.6-1.3.6-1.6-.1l-2.9-5.9c-2.2-4.5-9.7-4.9-12.6-.7l-6.4 11.9c-.4.7-1.4.7-1.7-.1l-9.7-21.5c-2.4-4.6-10.2-4.7-12.8-.2l-4.4 7.6c-.6 1.1-2.4 1.3-3.4.4l-3-2.9c-3.6-3.5-10.5-2.2-12 2.2l-2 12.9c-.1.7-1.1.7-1.2-.1l-.4-5.4c-.2-3.4-3.9-6.1-8-5.6-2.3.3-4.4 1.5-5.4 3.7L2.3 157"/></g><g><path class="st15" d="M-.7 162.3h793.1v335.2H-.7z"/></g><g><path class="st16" d="M3.3 360h78.6c8.4 0 15.8 6.2 17.2 14.6 1 5.8-.3 11.2-4.8 15.7-3.1 3.1-6.6 4.8-10.9 5.4-1.8.2-3.6.3-5.4.3H3.3v-36zM439.5 344.1h-29.3c-2.7 0-5.1-1.2-7.1-3.4-1.7-1.9-2.8-4.3-3.3-7.1-1.2-7.1 2.2-14.2 7.5-16 1-.3 2-.6 3-.6 19.6 0 39.1-.1 58.7 0 6.5 0 11 7 10.5 14.5-.4 6-3.4 10.7-8.1 12.2-.9.3-1.8.3-2.7.3-9.7.1-19.4.1-29.2.1zM76.8 339.5c-16.6 0-33.3-.1-49.9 0-4.6 0-8.6-1.6-12-4.5-2.9-2.5-4.7-5.7-5.6-9.5-2.1-9.4 3.7-18.9 12.9-21.3 1.6-.4 3.3-.7 5-.7 33.3 0 66.6-.1 99.8 0 11.1 0 18.7 9.3 18 19.2-.6 7.9-5.7 14.2-13.8 16.2-1.5.4-3 .5-4.5.5-16.6.1-33.2.1-49.9.1zM311.6 273.1h-48.8c-5.6 0-10.5-1.4-14.4-4.6-2-1.6-3.2-3.5-3.9-5.6-1.4-3.8-.6-7.5 2.4-10.7 3.6-3.8 8.5-5.9 15-5.9h100.3c3.7 0 7 .8 10 2.3 5.3 2.7 8 6.6 7.8 11.4-.3 7-7.4 12.2-15.8 12.8-3 .2-6 .2-8.9.3-14.6.1-29.1 0-43.7 0zM465.1 241.5h-49.7c-5 0-9.2-1.2-12.8-3.9-1.8-1.4-3.2-2.9-4.2-4.7-3-5.4 0-12.1 5.8-15.3 3.6-2 7.7-2.9 12-2.9 32.8 0 65.7-.1 98.5 0 8.3 0 14.5 3.1 17.6 8.9 1.4 2.6 1.5 5.4.3 8.1-2 4.5-5.9 7.6-12.1 9.1-1.7.4-3.4.6-5.1.6-16.7.1-33.5.1-50.3.1zM674.7 429.3c-16.7 0-33.4-.1-50.2 0-6.6 0-14.4-4.7-16.6-12-2.1-7-.9-13.2 4.3-18.5 3.6-3.7 8-5.4 13-5.4 33.3-.1 66.6-.1 99.9 0 9 0 16.1 5.8 17.6 14.9 1.7 10.4-4.9 18.8-14.2 20.6-1.2.2-2.4.4-3.7.4h-50.1zM348.4 426.6c-16.7 0-33.4-.1-50.2 0-6.5 0-14.5-4.7-16.7-12.2-2-6.9-.8-13 4.3-18.3 3.7-3.7 8.2-5.4 13.2-5.4 33.2-.1 66.3-.1 99.5 0 9.1 0 16.3 5.7 17.9 14.9 1.8 10.3-4.8 18.8-14.1 20.6-1.2.2-2.4.4-3.7.4h-50.2zM371.1 182.8h24.7c4 0 7.8.5 11.2 1.8 9.7 3.6 10 10.8 2.7 14.6-3.8 2-8.4 2.9-13.6 3-16.6 0-33.3.1-49.9 0-7.8 0-13.7-1.9-17.1-5.8-3.5-4-.9-9 5.8-11.6 3.5-1.3 7.3-1.9 11.5-1.9 4.2-.1 8.3 0 12.5 0 4-.1 8.1-.1 12.2-.1zM72.7 268.3H58.5c-3.7 0-7.3-.5-10.4-2-5.1-2.5-8.3-5.9-8.6-10.5-.3-5 2.2-9 7.8-11.9 2.9-1.5 6.2-2.3 9.9-2.3h32c8.1 0 15.4 4.6 17.1 10.8 1.8 6.4-3.6 13.8-13.4 15.5-1.6.3-3.3.5-5 .5-5.2-.1-10.2-.1-15.2-.1zM533.5 259.8h15.8c10.1 0 18.5 6.4 17.7 14.5-.6 6.1-6.8 11.1-15.1 12-1.7.2-3.5.3-5.2.3h-27.8c-3.5 0-6.8-.5-9.8-1.9-5.5-2.5-8.7-6.1-9.1-11-.4-6.4 5.4-12.3 14.5-13.7 1.2-.2 2.5-.2 3.7-.2h15.3zM675 228.2h16.2c7.6 0 15.3 4.6 17 10.7 1.7 6.4-3.6 13.8-13.3 15.5-1.5.3-3.1.5-4.7.5-10.2 0-20.4.1-30.6 0-8.9-.1-16.4-4.7-17.8-11-1.5-7 3.7-13.4 13.2-15.3 1.3-.3 2.6-.4 3.9-.4H675zM755.6 195h16.2c7.6 0 15.3 4.6 17 10.7 1.7 6.4-3.6 13.8-13.3 15.5-1.5.3-3.1.5-4.7.5-10.2 0-20.4.1-30.6 0-8.9-.1-16.4-4.7-17.8-11-1.5-7 3.7-13.4 13.2-15.3 1.3-.3 2.6-.4 3.9-.4h16.1zM176.9 283.9H162c-4 0-7.8-.8-11.1-2.6-4.7-2.6-7.3-6.1-7.5-10.5-.3-6.4 5.5-12.1 14.9-13.5.8-.1 1.7-.1 2.6-.1h31.7c3.7 0 7 .8 10 2.3 5.1 2.6 7.6 6.3 7.7 10.7.1 6.7-5.9 12.1-14.8 13.4-1.7.2-3.5.3-5.2.3h-13.4zM502.8 427.5h-15.1c-4.6.1-8.8-1.4-12.2-4.4-3.7-3.3-5.8-7.5-6-12.6-.1-3.9.7-7.5 3-10.7 3-4.3 7.1-7 12.4-7.8 1.8-.3 3.6-.4 5.4-.4 9.1 0 18.2-.1 27.4 0 7.9.1 13.9 3.4 17.3 10.8 2.4 5.3 2.1 10.7-.6 15.7-2.8 5.2-7.3 8.2-13.1 9.3-.6.1-1.3.1-2 .1h-16.5zM156.9 408.7c-5.3 0-10.7.1-16 0-8.3-.1-15-5.4-17.1-13.4-2.6-10.2 3.5-19.4 13.4-21.9 1.6-.4 3.3-.6 5-.6 9.8 0 19.6-.1 29.3.1 7.9.1 13.9 3.4 17.3 10.8 2.4 5.3 2.1 10.6-.7 15.7-2.8 5.2-7.3 8.2-13.1 9.3-.6.1-1.3.1-2 .1-5.3-.1-10.7-.1-16.1-.1zM645.5 195.4h-14.4c-4.3 0-8.3-.5-11.9-2-3.9-1.5-6.1-3.6-7-6.1-.9-2.6.3-4.9 3.1-7 3.5-2.6 8.2-4 14.3-4h31.7c6.2 0 11 1.5 14.6 4.1 4.2 3.1 4 7.9-.1 10.8-3.1 2.2-7 3.5-12.1 4-4.3.4-8.6.1-12.9.2h-5.3zM201.9 189.1c5.2 0 10.4.1 15.5 0 6.7-.1 14.6 2.5 16.7 6.4 2.1 3.7.9 7-4.4 9.9-3.6 1.9-7.9 2.8-12.8 2.8-10.2.1-20.4.1-30.6 0-8.4-.1-15.1-2.5-17.6-7-1.8-3.4-.3-6.4 4.1-9 3.7-2.2 8.4-3.1 13.8-3.1h15.3zM284.6 480.5h-15.5c-9 0-16.2-6.1-17.7-15-.9-5.6.6-10.8 4.7-15.1 3.9-4 8.7-5.8 14.1-5.8 9.9-.1 19.7-.1 29.6 0 3.9 0 7.6 1 10.9 3.4 3.8 2.7 6.2 6.3 7.2 10.8 1.8 7.9-2.2 15.3-8.3 19.2-2.5 1.6-5.4 2.5-8.5 2.5-5.5.1-11 0-16.5 0zM39.3 469.6H24.2c-9.1.1-16.5-5.9-18.1-14.9-1-5.6.5-10.8 4.5-15.1 4-4.2 8.9-5.9 14.5-6 9.7 0 19.4-.1 29.1 0 8.2.1 14.3 3.8 17.4 11.5 2.6 6.4 1 13.5-3.5 18.5-2.8 3.1-6.1 4.9-10.1 5.7-.8.2-1.6.2-2.4.2-5.4.1-10.9.1-16.3.1zM639.7 321.5h-13.6c-3.2 0-6.2-.4-9.1-1.7-5.8-2.6-9.2-7.1-10.4-13.3-.9-5 .2-9.4 3.1-13.4 3.4-4.8 8.1-7.5 14.1-7.5 10.7-.1 21.3-.1 32 0 6.1 0 10.8 2.8 14.5 7.7 4.2 5.6 4 15 0 20.3-3.1 4-7 6.7-12.1 7.5-3.7.6-7.4.2-11.1.4-2.6.1-5 0-7.4 0zM108.3 498.9h-6.1c-8.2 0-16.1-6.6-17.5-14.6-1.1-5.9.3-11 4.2-15.4 3.1-3.5 7.1-5.4 11.8-6 4.2-.5 8.3-.4 12.4-.3 5.7.1 10.9 1.7 14.9 6.1 2.8 3.1 4.4 6.8 4.6 11.1.2 4.1-.7 7.9-3.1 11.2-3.7 5.1-8.6 7.9-15 8-2.1-.1-4.1-.1-6.2-.1zM502.6 498.9h-6.1c-8.2 0-16-6.5-17.5-14.6-1.1-5.9.3-11 4.2-15.4 3.1-3.5 7.1-5.4 11.8-5.9 4.2-.5 8.3-.4 12.4-.3 5.7.1 10.9 1.7 14.9 6.1 2.8 3.1 4.4 6.8 4.6 11.1.2 4.1-.7 7.9-3.1 11.2-3.7 5.1-8.6 7.9-15 7.9-2.1-.1-4.1-.1-6.2-.1zM178.5 475.7h-6.4c-8 .2-15.2-5.6-17.2-13.5-2.2-8.5 2.5-17.3 9.8-20.6 2.6-1.2 5.3-1.9 8.2-1.8h11c6.1 0 11.3 2.4 15 7.2 3.2 4.1 4.4 8.8 3.3 14-1.6 7.9-6.5 12.6-14.2 14.5-.7.2-1.4.2-2.2.2h-7.3zM572.8 475.7h-6.4c-8 .2-15.2-5.6-17.2-13.5-2.2-8.5 2.5-17.3 9.8-20.6 2.6-1.2 5.3-1.9 8.2-1.9h10.7c6.2 0 11.4 2.3 15.3 7.2 3.2 4.1 4.4 8.8 3.4 14-1.5 7.9-6.5 12.6-14.2 14.5-.7.2-1.4.2-2.2.2-2.4.1-4.9.1-7.4.1zM75.4 201.3h-6.3c-8.2 0-15.9-3-17.4-7.8-1.7-5.6 4.7-10.1 14.4-11.1 1.7-.2 3.3-.3 5-.2 4.5.1 9-.2 13.5.2 7.7.7 13.8 4 14.7 8.4 1.1 5.2-5.5 9.7-15.2 10.5-2.8.1-5.8-.1-8.7 0 0-.1 0 0 0 0zM755.4 325c-2.9-.2-5.8.1-8.7-.4-6.8-1.3-11.5-5-14-11.4-2.2-5.7-1.5-11.3 1.9-16.2 3.3-4.9 8.1-7.8 14.1-7.9 4.3-.1 8.6 0 12.9 0 8.2-.2 15.6 5.6 17.6 13.9 2.3 9.7-4.6 20.3-14.8 21.7-3 .3-6 .1-9 .3zM244.5 325c-2.9-.2-5.8.1-8.7-.4-6.8-1.3-11.5-5-14-11.4-2.2-5.7-1.5-11.3 1.9-16.2 3.3-4.9 8.1-7.8 14.1-7.9 4.3-.1 8.6 0 12.9 0 8.2-.1 15.4 5.5 17.5 13.7 2.5 9.8-4.5 20.5-14.8 21.9-2.9.3-5.9.1-8.9.3zM347.9 348.7h-6.3c-7.6 0-15-5.1-17-13.4-1.5-6.4-.1-12.2 4.7-17 3.7-3.7 8.2-5.2 13.1-5.4 3.9-.2 7.7-.2 11.6 0 9.1.5 15.8 5.4 17.6 14.4 1.5 7.6-.6 14.7-9.2 19.4-2.7 1.5-5.5 2.2-8.6 2.1-2-.2-4-.1-5.9-.1zM682.2 365h-6.3c-7.6 0-15-5.1-17-13.4-1.5-6.4-.2-12.2 4.7-17 3.7-3.7 8.1-5.2 13.1-5.4 3.9-.2 7.7-.2 11.6 0 9.1.5 15.8 5.3 17.6 14.4 1.5 7.6-.6 14.7-9.2 19.4-2.7 1.5-5.6 2.3-8.8 2.1-1.9-.1-3.8-.1-5.7-.1zM559.3 189.1h6.3c7.2 0 15.8 3 17.2 7.8.9 3.2-.5 6.1-4.9 8.5-2.8 1.5-6.2 2.4-10.2 2.7-5.1.4-10.2.3-15.3.2-8.3-.2-14.5-3-16.6-6.6-3-5.1 1.7-10.2 11.2-12 1.7-.3 3.5-.5 5.3-.5 2.5-.1 4.7-.1 7-.1zM577.6 354.7h-38c-6.6 0-12-5.4-12-12s5.4-12 12-12h38c6.6 0 12 5.4 12 12s-5.4 12-12 12z"/></g><g><path class="st8" d="M522 497.6h251.3l-6.1-21.2c-.5-2.7-1.8-5.3-4-7.3-6.7-6.4-14.2-2.5-17.8.1-1.1.8-2.8.5-3.4-.6L728.7 443c-4.1-8-17.6-8.3-22.2-.5l-17.4 29.1c-.6 1-2.3.9-2.8-.1l-5-10.3c-3.8-7.8-16.8-8.6-21.9-1.3l-11.2 20.7c-.6 1.1-2.5 1-3-.1l-17-37.4c-4.2-8-17.7-8.2-22.2-.3l-7.7 13.3c-1.1 1.9-4.2 2.3-5.9.7l-5.3-5c-6.4-6.1-18.3-3.9-21 3.8l-3.5 22.5c-.2 1.2-2 1.2-2.1-.1l-.6-9.3c-.4-6-6.8-10.7-13.9-9.7-4 .5-7.7 2.7-9.4 6.4L522 497.6z"/><path class="st9" d="m771.5 492.3-4.3-16c-.5-2.7-1.8-5.3-4-7.3-6.7-6.4-14.2-2.5-17.8.1-1.1.8-2.8.5-3.4-.6l-13.3-25.6c-4.1-8-17.6-8.3-22.2-.5l-17.4 29.1c-.6 1-2.3.9-2.8-.1l-5-10.3c-3.8-7.8-16.8-8.6-21.9-1.3l-11.2 20.7c-.6 1.1-2.5 1-3-.1l-17-37.4c-4.2-8-17.7-8.2-22.2-.3l-7.7 13.3c-1.1 1.9-4.2 2.3-5.9.7l-5.3-5c-6.4-6.1-18.3-3.9-21 3.8l-3.5 22.5c-.2 1-2 1-2.1-.1l-.6-9.4c-.4-6-6.8-10.7-13.9-9.7-4 .5-7.7 2.7-9.4 6.4L524 491.6"/><path class="st0" d="M616.8 498.1v-129c0-14.6-11.8-26.4-26.4-26.4S564 354.6 564 369.1v129h52.8z"/><path class="st1" d="M565 498.1v-129c0-14 11.4-25.3 25.4-25.3s25.4 11.4 25.4 25.4v128.9h2v-129c0-15.1-12.3-27.3-27.4-27.3S563 354.1 563 369.2v128.9h2z"/><defs><path id="SVGID_00000045612568223691438690000001056901220712413854_" d="M590.4 724.2c-14 0-25.4-11.4-25.4-25.4V369.1c0-14 11.4-25.4 25.4-25.4 14 0 25.4 11.4 25.4 25.4v329.7c0 14.1-11.4 25.4-25.4 25.4z"/></defs><clipPath id="SVGID_00000023272096946713735690000010548420324551701141_"><use xlink:href="#SVGID_00000045612568223691438690000001056901220712413854_" style="overflow:visible"/></clipPath><g style="clip-path:url(#SVGID_00000023272096946713735690000010548420324551701141_)"><path class="st18" d="M575.9 355.4v113.4M588.9 405.4c.1 26.9.1 54.9 0 81.5M605.9 323.4v133.4M587.3 360.9v29.9M576.9 483.1v3.7"/></g><path class="st4" d="M565 405.7h50.8"/><g><path class="st0" d="M523.3 370.5h300.2v36.2H523.3"/><path class="st18" d="M529 377.8h223.8M573.7 388.8h223.9M540.1 399.8h224"/><path class="st5" d="M523.3 406.5h300.2M523.3 370.5h300.2"/></g><g><circle class="st6" cx="589.4" cy="388.9" r="4.9"/><path class="st7" d="m587.7 387.2 3.4 3.5M591 387.2l-3.3 3.5"/></g><g><path class="st8" d="M260 497.6h251.3l-6.1-21.2c-.5-2.7-1.8-5.3-4-7.3-6.7-6.4-14.2-2.5-17.8.1-1.1.8-2.8.5-3.4-.6L466.7 443c-4.1-8-17.6-8.3-22.2-.5l-17.4 29.1c-.6 1-2.3.9-2.8-.1l-5-10.3c-3.8-7.8-16.8-8.6-21.9-1.3l-11.2 20.7c-.6 1.1-2.5 1-3-.1l-17-37.4c-4.2-8-17.7-8.2-22.2-.3l-7.7 13.3c-1.1 1.9-4.2 2.3-5.9.7l-5.3-5c-6.4-6.1-18.3-3.9-21 3.8l-3.5 22.5c-.2 1.2-2 1.2-2.1-.1l-.6-9.3c-.4-6-6.8-10.7-13.9-9.7-4 .5-7.7 2.7-9.4 6.4L260 497.6z"/><path class="st9" d="m509.5 492.3-4.3-16c-.5-2.7-1.8-5.3-4-7.3-6.7-6.4-14.2-2.5-17.8.1-1.1.8-2.8.5-3.4-.6l-13.3-25.6c-4.1-8-17.6-8.3-22.2-.5l-17.4 29.1c-.6 1-2.3.9-2.8-.1l-5-10.3c-3.8-7.8-16.8-8.6-21.9-1.3l-11.2 20.7c-.6 1.1-2.5 1-3-.1l-17-37.4c-4.2-8-17.7-8.2-22.2-.3l-7.7 13.3c-1.1 1.9-4.2 2.3-5.9.7l-5.3-5c-6.4-6.1-18.3-3.9-21 3.8l-3.5 22.5c-.2 1-2 1-2.1-.1l-.6-9.4c-.4-6-6.8-10.7-13.9-9.7-4 .5-7.7 2.7-9.4 6.4L262 491.6"/><path class="st0" d="M354.8 498.1v-129c0-14.6-11.8-26.4-26.4-26.4-14.6 0-26.4 11.9-26.4 26.4v129h52.8z"/><path class="st1" d="M303 498.1v-129c0-14 11.4-25.3 25.4-25.3s25.4 11.4 25.4 25.4v128.9h2v-129c0-15.1-12.3-27.3-27.4-27.3-15.1 0-27.4 12.3-27.4 27.4v128.9h2z"/><defs><path id="SVGID_00000071559691756741008190000005948605308482035328_" d="M328.4 724.2c-14 0-25.4-11.4-25.4-25.4V369.1c0-14 11.4-25.4 25.4-25.4 14 0 25.4 11.4 25.4 25.4v329.7c0 14.1-11.4 25.4-25.4 25.4z"/></defs><clipPath id="SVGID_00000004537169461790927800000004085860318328402326_"><use xlink:href="#SVGID_00000071559691756741008190000005948605308482035328_" style="overflow:visible"/></clipPath><g style="clip-path:url(#SVGID_00000004537169461790927800000004085860318328402326_)"><path class="st18" d="M313.9 355.4v113.4M326.9 405.4c.1 26.9.1 54.9 0 81.5M343.9 323.4v133.4M325.3 360.9v29.9M314.9 483.1v3.7"/></g><path class="st4" d="M303 405.7h50.8"/><g><path class="st0" d="M261.3 370.5h268v36.2h-268"/><path class="st18" d="M266.4 377.8h199.8M306.4 388.8h199.8M276.4 399.8h199.8"/><path class="st5" d="M261.3 406.5h268M261.3 370.5h268"/></g><g><circle class="st6" cx="327.4" cy="388.9" r="4.9"/><path class="st7" d="m325.7 387.2 3.4 3.5M329 387.2l-3.3 3.5"/></g></g><g><path class="st8" d="M-2 497.6h251.3l-6.1-21.2c-.5-2.7-1.8-5.3-4-7.3-6.7-6.4-14.2-2.5-17.8.1-1.1.8-2.8.5-3.4-.6L204.7 443c-4.1-8-17.6-8.3-22.2-.5l-17.4 29.1c-.6 1-2.3.9-2.8-.1l-5-10.3c-3.8-7.8-16.8-8.6-21.9-1.3l-11.2 20.7c-.6 1.1-2.5 1-3-.1l-17-37.4c-4.2-8-17.7-8.2-22.3-.3L74.3 456c-1.1 1.9-4.2 2.3-5.9.7l-5.3-5c-6.4-6.1-18.3-3.9-21 3.8L38.6 478c-.2 1.2-2 1.2-2.1-.1l-.6-9.3c-.4-6-6.8-10.7-13.9-9.7-4 .5-7.7 2.7-9.4 6.4L-2 497.6z"/><path class="st9" d="m247.5 492.3-4.3-16c-.5-2.7-1.8-5.3-4-7.3-6.7-6.4-14.2-2.5-17.8.1-1.1.8-2.8.5-3.4-.6l-13.3-25.6c-4.1-8-17.6-8.3-22.2-.5l-17.4 29.1c-.6 1-2.3.9-2.8-.1l-5-10.3c-3.8-7.8-16.8-8.6-21.9-1.3l-11.2 20.7c-.6 1.1-2.5 1-3-.1l-17-37.4c-4.2-8-17.7-8.2-22.3-.3L74.3 456c-1.1 1.9-4.2 2.3-5.9.7l-5.3-5c-6.4-6.1-18.3-3.9-21 3.8L38.6 478c-.2 1-2 1-2.1-.1l-.6-9.4c-.4-6-6.8-10.7-13.9-9.7-4 .5-7.7 2.7-9.4 6.4L0 491.6"/><path class="st0" d="M92.8 498.1v-129c0-14.6-11.8-26.4-26.4-26.4-14.6 0-26.4 11.9-26.4 26.4v129h52.8z"/><path class="st1" d="M41 498.1v-129c0-14 11.4-25.3 25.4-25.3s25.4 11.4 25.4 25.4v128.9h2v-129c0-15.1-12.3-27.3-27.4-27.3-15.1 0-27.4 12.2-27.4 27.3v129h2z"/><defs><path id="SVGID_00000088092889829719265560000009039990961531246473_" d="M66.4 724.2c-14 0-25.4-11.4-25.4-25.4V369.1c0-14 11.4-25.4 25.4-25.4 14 0 25.4 11.4 25.4 25.4v329.7c0 14.1-11.4 25.4-25.4 25.4z"/></defs><clipPath id="SVGID_00000088129881976270653380000001734747378942503845_"><use xlink:href="#SVGID_00000088092889829719265560000009039990961531246473_" style="overflow:visible"/></clipPath><g style="clip-path:url(#SVGID_00000088129881976270653380000001734747378942503845_)"><path class="st18" d="M51.9 355.4v113.4M64.9 405.4c.1 26.9.1 54.9 0 81.5M81.9 323.4v133.4M63.3 360.9v29.9M52.9 483.1v3.7"/></g><path class="st4" d="M41 405.7h50.8"/><g><path class="st0" d="M-.7 370.5h268v36.2H-.7"/><path class="st18" d="M4.4 377.8h199.8M44.4 388.8h199.8M14.4 399.8h199.8"/><path class="st5" d="M-.7 406.5h268M-.7 370.5h268"/></g><g><circle class="st6" cx="65.4" cy="388.9" r="4.9"/><path class="st7" d="m63.7 387.2 3.4 3.5M67 387.2l-3.3 3.5"/></g></g></g><g><path class="st0" d="M1445.3 261c-8.6 0-15.6-7-15.6-15.6V55.3c0-8.6 7-15.6 15.6-15.6s15.6 7 15.6 15.6v190.1c0 8.6-7 15.6-15.6 15.6z"/><path class="st1" d="M1445.3 40.6c8.1 0 14.6 6.5 14.6 14.6v190.1c0 8.1-6.5 14.6-14.6 14.6s-14.6-6.5-14.6-14.6v-190c-.1-8.1 6.5-14.7 14.6-14.7m0-2c-9.2 0-16.6 7.5-16.6 16.6v190.1c0 9.2 7.5 16.6 16.6 16.6 9.1 0 16.6-7.5 16.6-16.6v-190c0-9.2-7.5-16.7-16.6-16.7z"/><defs><path id="SVGID_00000182489882927831335340000009879641477016864390_" d="M1445.3 260c-8.1 0-14.6-6.5-14.6-14.6V55.3c0-8.1 6.5-14.6 14.6-14.6s14.6 6.5 14.6 14.6v190.1c0 8.1-6.5 14.6-14.6 14.6z"/></defs><clipPath id="SVGID_00000068641887132932171520000007443466020773226636_"><use xlink:href="#SVGID_00000182489882927831335340000009879641477016864390_" style="overflow:visible"/></clipPath><g style="clip-path:url(#SVGID_00000068641887132932171520000007443466020773226636_)"><path class="st3" d="M1436.9 247.3v65.4M1444.4 276.2v65.4M1454.2 228.9v76.9M1443.5 250.5v17.3M1437.5 321v12.8"/><g><path class="st3" d="M1436.9 147.3v65.4M1444.4 176.2v65.4M1454.2 128.9v76.9M1443.5 150.5v17.3M1437.5 221v12.8"/></g><g><path class="st3" d="M1436.9 47.3v65.4M1444.4 76.2v65.4M1454.2 28.9v76.9M1443.5 50.5v17.3M1437.5 121v12.8"/></g></g><path class="st4" d="M1430.6 76.3h29.3"/><path class="st0" d="M1406.6 56h159.5v20.9h-159.5"/><path class="st3" d="M1421 61.2h61.6M1446.8 66.6h61.5M1427.5 71.9h106.2"/><path class="st5" d="M1406.6 76.8h159.5M1406.6 56h159.5"/><g><circle class="st6" cx="1444.7" cy="66.7" r="2.8"/><path class="st7" d="m1443.7 65.7 2 2M1445.6 65.7l-1.8 2"/></g><path class="st3" d="M1492.6 62.6h15.2M1522.6 66.6h25.2"/><path class="st8" d="M1406.6 163h139l1.6-12.2c-.3-1.5-1-3-2.3-4.2-3.8-3.7-8.2-1.4-10.2 0-.6.5-1.6.3-1.9-.4l-7.6-14.7c-2.4-4.6-10.1-4.7-12.7-.3l-10 16.7c-.3.6-1.3.5-1.6 0l-2.9-5.9c-2.2-4.5-9.7-4.9-12.6-.7l-6.4 11.9c-.3.6-1.4.6-1.7 0l-9.7-21.5c-2.4-4.6-10.2-4.7-12.8-.2l-4.4 7.6c-.6 1.1-2.4 1.3-3.4.4l-3-2.9c-3.6-3.5-10.5-2.2-12 2.2l-2 12.9c-.1.6-1.2.6-1.2 0l-.4-5.4c-.2-3.4-3.9-6.1-8-5.6-2.3.3-4.4 1.5-5.4 3.7l-8.4 18.6z"/><path class="st9" d="m1545 157.7.9-4.8c.3-1.4.3-2.9.1-4.3-.1-.7-.4-1.4-1-2-3.8-3.7-8.2-1.4-10.2 0-.6.5-1.6.3-1.9-.4l-7.6-14.7c-2.4-4.6-10.1-4.7-12.7-.3l-10 16.7c-.4.6-1.3.6-1.6-.1l-2.9-5.9c-2.2-4.5-9.7-4.9-12.6-.7l-6.4 11.9c-.4.7-1.4.7-1.7-.1l-9.7-21.5c-2.4-4.6-10.2-4.7-12.8-.2l-4.4 7.6c-.6 1.1-2.4 1.3-3.4.4l-3-2.9c-3.6-3.5-10.5-2.2-12 2.2l-2 12.9c-.1.7-1.1.7-1.2-.1l-.4-5.4c-.2-3.4-3.9-6.1-8-5.6-2.3.3-4.4 1.5-5.4 3.7l-5.4 12.5"/><g><path class="st0" d="M1315.3 261c-8.6 0-15.6-7-15.6-15.6V55.3c0-8.6 7-15.6 15.6-15.6s15.6 7 15.6 15.6v190.1c0 8.6-7 15.6-15.6 15.6z"/><path class="st1" d="M1315.3 40.6c8.1 0 14.6 6.5 14.6 14.6v190.1c0 8.1-6.5 14.6-14.6 14.6s-14.6-6.5-14.6-14.6v-190c-.1-8.1 6.5-14.7 14.6-14.7m0-2c-9.2 0-16.6 7.5-16.6 16.6v190.1c0 9.2 7.5 16.6 16.6 16.6 9.1 0 16.6-7.5 16.6-16.6v-190c0-9.2-7.5-16.7-16.6-16.7z"/><defs><path id="SVGID_00000150796807725675783650000008918943628101343151_" d="M1315.3 260c-8.1 0-14.6-6.5-14.6-14.6V55.3c0-8.1 6.5-14.6 14.6-14.6s14.6 6.5 14.6 14.6v190.1c0 8.1-6.5 14.6-14.6 14.6z"/></defs><clipPath id="SVGID_00000125599727224469746760000009489134316699926684_"><use xlink:href="#SVGID_00000150796807725675783650000008918943628101343151_" style="overflow:visible"/></clipPath><g style="clip-path:url(#SVGID_00000125599727224469746760000009489134316699926684_)"><path class="st3" d="M1306.9 247.3v65.4M1314.4 276.2v65.4M1324.2 228.9v76.9M1313.5 250.5v17.3M1307.5 321v12.8"/><g><path class="st3" d="M1306.9 147.3v65.4M1314.4 176.2v65.4M1324.2 128.9v76.9M1313.5 150.5v17.3M1307.5 221v12.8"/></g><g><path class="st3" d="M1306.9 47.3v65.4M1314.4 76.2v65.4M1324.2 28.9v76.9M1313.5 50.5v17.3M1307.5 121v12.8"/></g></g><path class="st4" d="M1300.6 76.3h29.3"/><path class="st0" d="M1276.6 56h143v20.9h-143"/><path class="st3" d="M1289.5 61.2h55.2M1312.6 66.6h55.2M1295.3 71.9h95.2"/><path class="st5" d="M1276.6 76.8h143M1276.6 56h143"/><g><circle class="st6" cx="1314.7" cy="66.7" r="2.8"/><path class="st7" d="m1313.7 65.7 2 2M1315.6 65.7l-1.8 2"/></g><path class="st3" d="M1362.6 62.6h15.2M1392.6 66.6h25.2"/><path class="st8" d="M1276.6 163h143l-2.4-12.2c-.3-1.5-1-3-2.3-4.2-3.8-3.7-8.2-1.4-10.2 0-.6.5-1.6.3-1.9-.4l-7.6-14.7c-2.4-4.6-10.1-4.7-12.7-.3l-10 16.7c-.3.6-1.3.5-1.6 0l-2.9-5.9c-2.2-4.5-9.7-4.9-12.6-.7l-6.4 11.9c-.3.6-1.4.6-1.7 0l-9.7-21.5c-2.4-4.6-10.2-4.7-12.8-.2l-4.4 7.6c-.6 1.1-2.4 1.3-3.4.4l-3-2.9c-3.6-3.5-10.5-2.2-12 2.2l-2 12.9c-.1.6-1.2.6-1.2 0l-.4-5.4c-.2-3.4-3.9-6.1-8-5.6-2.3.3-4.4 1.5-5.4 3.7l-8.4 18.6z"/><path class="st9" d="m1415 157.7.9-4.8c.3-1.4.3-2.9.1-4.3-.1-.7-.4-1.4-1-2-3.8-3.7-8.2-1.4-10.2 0-.6.5-1.6.3-1.9-.4l-7.6-14.7c-2.4-4.6-10.1-4.7-12.7-.3l-10 16.7c-.4.6-1.3.6-1.6-.1l-2.9-5.9c-2.2-4.5-9.7-4.9-12.6-.7l-6.4 11.9c-.4.7-1.4.7-1.7-.1l-9.7-21.5c-2.4-4.6-10.2-4.7-12.8-.2l-4.4 7.6c-.6 1.1-2.4 1.3-3.4.4l-3-2.9c-3.6-3.5-10.5-2.2-12 2.2l-2 12.9c-.1.7-1.1.7-1.2-.1l-.4-5.4c-.2-3.4-3.9-6.1-8-5.6-2.3.3-4.4 1.5-5.4 3.7l-5.4 12.5"/></g><g><path class="st0" d="M1185.3 261c-8.6 0-15.6-7-15.6-15.6V55.3c0-8.6 7-15.6 15.6-15.6s15.6 7 15.6 15.6v190.1c0 8.6-7 15.6-15.6 15.6z"/><path class="st1" d="M1185.3 40.6c8.1 0 14.6 6.5 14.6 14.6v190.1c0 8.1-6.6 14.6-14.6 14.6s-14.6-6.5-14.6-14.6v-190c-.1-8.1 6.5-14.7 14.6-14.7m0-2c-9.2 0-16.6 7.5-16.6 16.6v190.1c0 9.2 7.5 16.6 16.6 16.6 9.2 0 16.6-7.5 16.6-16.6v-190c0-9.2-7.5-16.7-16.6-16.7z"/><defs><path id="SVGID_00000096772827406007652490000009934385809753305742_" d="M1185.3 260c-8.1 0-14.6-6.5-14.6-14.6V55.3c0-8.1 6.5-14.6 14.6-14.6s14.6 6.5 14.6 14.6v190.1c0 8.1-6.5 14.6-14.6 14.6z"/></defs><clipPath id="SVGID_00000101818441598519578320000017939380131376319129_"><use xlink:href="#SVGID_00000096772827406007652490000009934385809753305742_" style="overflow:visible"/></clipPath><g style="clip-path:url(#SVGID_00000101818441598519578320000017939380131376319129_)"><path class="st3" d="M1176.9 247.3v65.4M1184.4 276.2v65.4M1194.2 228.9v76.9M1183.5 250.5v17.3M1177.5 321v12.8"/><g><path class="st3" d="M1176.9 147.3v65.4M1184.4 176.2v65.4M1194.2 128.9v76.9M1183.5 150.5v17.3M1177.5 221v12.8"/></g><g><path class="st3" d="M1176.9 47.3v65.4M1184.4 76.2v65.4M1194.2 28.9v76.9M1183.5 50.5v17.3M1177.5 121v12.8"/></g></g><path class="st4" d="M1170.6 76.3h29.3"/><path class="st0" d="M1146.6 56h143v20.9h-143"/><path class="st3" d="M1159.5 61.2h55.2M1182.6 66.6h55.2M1165.3 71.9h95.2"/><path class="st5" d="M1146.6 76.8h143M1146.6 56h143"/><g><circle class="st6" cx="1184.7" cy="66.7" r="2.8"/><path class="st7" d="m1183.7 65.7 2 2M1185.6 65.7l-1.8 2"/></g><path class="st3" d="M1232.6 62.6h15.2M1262.6 66.6h25.2"/><path class="st8" d="M1146.6 163h143l-2.4-12.2c-.3-1.5-1-3-2.3-4.2-3.8-3.7-8.2-1.4-10.2 0-.6.5-1.6.3-1.9-.4l-7.6-14.7c-2.4-4.6-10.1-4.7-12.7-.3l-10 16.7c-.3.6-1.3.5-1.6 0l-2.9-5.9c-2.2-4.5-9.7-4.9-12.6-.7l-6.4 11.9c-.3.6-1.4.6-1.7 0l-9.7-21.5c-2.4-4.6-10.2-4.7-12.8-.2l-4.4 7.6c-.6 1.1-2.4 1.3-3.4.4l-3-2.9c-3.6-3.5-10.5-2.2-12 2.2l-2 12.9c-.1.6-1.2.6-1.2 0l-.4-5.4c-.2-3.4-3.9-6.1-8-5.6-2.3.3-4.4 1.5-5.4 3.7l-8.4 18.6z"/><path class="st9" d="m1285 157.7.9-4.8c.3-1.4.3-2.9.1-4.3-.1-.7-.4-1.4-1-2-3.8-3.7-8.2-1.4-10.2 0-.6.5-1.6.3-1.9-.4l-7.6-14.7c-2.4-4.6-10.1-4.7-12.7-.3l-10 16.7c-.4.6-1.3.6-1.6-.1l-2.9-5.9c-2.2-4.5-9.7-4.9-12.6-.7l-6.4 11.9c-.4.7-1.4.7-1.7-.1l-9.7-21.5c-2.4-4.6-10.2-4.7-12.8-.2l-4.4 7.6c-.6 1.1-2.4 1.3-3.4.4l-3-2.9c-3.6-3.5-10.5-2.2-12 2.2l-2 12.9c-.1.7-1.1.7-1.2-.1l-.4-5.4c-.2-3.4-3.9-6.1-8-5.6-2.3.3-4.4 1.5-5.4 3.7l-5.4 12.5"/></g><g><path class="st0" d="M1055.3 261c-8.6 0-15.6-7-15.6-15.6V55.3c0-8.6 7-15.6 15.6-15.6s15.6 7 15.6 15.6v190.1c0 8.6-7 15.6-15.6 15.6z"/><path class="st1" d="M1055.3 40.6c8.1 0 14.6 6.5 14.6 14.6v190.1c0 8.1-6.6 14.6-14.6 14.6s-14.6-6.5-14.6-14.6v-190c-.1-8.1 6.5-14.7 14.6-14.7m0-2c-9.2 0-16.6 7.5-16.6 16.6v190.1c0 9.2 7.5 16.6 16.6 16.6 9.2 0 16.6-7.5 16.6-16.6v-190c0-9.2-7.5-16.7-16.6-16.7z"/><defs><path id="SVGID_00000180356767464613073020000013016488337538318761_" d="M1055.3 260c-8.1 0-14.6-6.5-14.6-14.6V55.3c0-8.1 6.5-14.6 14.6-14.6s14.6 6.5 14.6 14.6v190.1c0 8.1-6.5 14.6-14.6 14.6z"/></defs><clipPath id="SVGID_00000132779978769786209460000008909547463620941217_"><use xlink:href="#SVGID_00000180356767464613073020000013016488337538318761_" style="overflow:visible"/></clipPath><g style="clip-path:url(#SVGID_00000132779978769786209460000008909547463620941217_)"><path class="st3" d="M1046.9 247.3v65.4M1054.4 276.2v65.4M1064.2 228.9v76.9M1053.5 250.5v17.3M1047.5 321v12.8"/><g><path class="st3" d="M1046.9 147.3v65.4M1054.4 176.2v65.4M1064.2 128.9v76.9M1053.5 150.5v17.3M1047.5 221v12.8"/></g><g><path class="st3" d="M1046.9 47.3v65.4M1054.4 76.2v65.4M1064.2 28.9v76.9M1053.5 50.5v17.3M1047.5 121v12.8"/></g></g><path class="st4" d="M1040.6 76.3h29.3"/><path class="st0" d="M1016.6 56h143v20.9h-143"/><path class="st3" d="M1029.5 61.2h55.2M1052.6 66.6h55.2M1035.3 71.9h95.2"/><path class="st5" d="M1016.6 76.8h143M1016.6 56h143"/><g><circle class="st6" cx="1054.7" cy="66.7" r="2.8"/><path class="st7" d="m1053.7 65.7 2 2M1055.6 65.7l-1.8 2"/></g><path class="st3" d="M1102.6 62.6h15.2M1132.6 66.6h25.2"/><path class="st8" d="M1016.6 163h143l-2.4-12.2c-.3-1.5-1-3-2.3-4.2-3.8-3.7-8.2-1.4-10.2 0-.6.5-1.6.3-1.9-.4l-7.6-14.7c-2.4-4.6-10.1-4.7-12.7-.3l-10 16.7c-.3.6-1.3.5-1.6 0l-2.9-5.9c-2.2-4.5-9.7-4.9-12.6-.7l-6.4 11.9c-.3.6-1.4.6-1.7 0l-9.7-21.5c-2.4-4.6-10.2-4.7-12.8-.2l-4.4 7.6c-.6 1.1-2.4 1.3-3.4.4l-3-2.9c-3.6-3.5-10.5-2.2-12 2.2l-2 12.9c-.1.6-1.2.6-1.2 0l-.4-5.4c-.2-3.4-3.9-6.1-8-5.6-2.3.3-4.4 1.5-5.4 3.7l-8.4 18.6z"/><path class="st9" d="m1155 157.7.9-4.8c.3-1.4.3-2.9.1-4.3-.1-.7-.4-1.4-1-2-3.8-3.7-8.2-1.4-10.2 0-.6.5-1.6.3-1.9-.4l-7.6-14.7c-2.4-4.6-10.1-4.7-12.7-.3l-10 16.7c-.4.6-1.3.6-1.6-.1l-2.9-5.9c-2.2-4.5-9.7-4.9-12.6-.7l-6.4 11.9c-.4.7-1.4.7-1.7-.1l-9.7-21.5c-2.4-4.6-10.2-4.7-12.8-.2l-4.4 7.6c-.6 1.1-2.4 1.3-3.4.4l-3-2.9c-3.6-3.5-10.5-2.2-12 2.2l-2 12.9c-.1.7-1.1.7-1.2-.1l-.4-5.4c-.2-3.4-3.9-6.1-8-5.6-2.3.3-4.4 1.5-5.4 3.7l-5.4 12.5"/></g><g><path class="st0" d="M925.3 261c-8.6 0-15.6-7-15.6-15.6V55.3c0-8.6 7-15.6 15.6-15.6s15.6 7 15.6 15.6v190.1c0 8.6-7 15.6-15.6 15.6z"/><path class="st1" d="M925.3 40.6c8.1 0 14.6 6.5 14.6 14.6v190.1c0 8.1-6.6 14.6-14.6 14.6s-14.6-6.5-14.6-14.6v-190c-.1-8.1 6.5-14.7 14.6-14.7m0-2c-9.2 0-16.6 7.5-16.6 16.6v190.1c0 9.2 7.5 16.6 16.6 16.6s16.6-7.5 16.6-16.6v-190c0-9.2-7.5-16.7-16.6-16.7z"/><defs><path id="SVGID_00000023249059974017658000000004388489149765236116_" d="M925.3 260c-8.1 0-14.6-6.5-14.6-14.6V55.3c0-8.1 6.6-14.6 14.6-14.6 8.1 0 14.6 6.5 14.6 14.6v190.1c0 8.1-6.5 14.6-14.6 14.6z"/></defs><clipPath id="SVGID_00000102508455083404248480000014727021486681239454_"><use xlink:href="#SVGID_00000023249059974017658000000004388489149765236116_" style="overflow:visible"/></clipPath><g style="clip-path:url(#SVGID_00000102508455083404248480000014727021486681239454_)"><path class="st3" d="M916.9 247.3v65.4M924.4 276.2v65.4M934.2 228.9v76.9M923.5 250.5v17.3M917.5 321v12.8"/><g><path class="st3" d="M916.9 147.3v65.4M924.4 176.2v65.4M934.2 128.9v76.9M923.5 150.5v17.3M917.5 221v12.8"/></g><g><path class="st3" d="M916.9 47.3v65.4M924.4 76.2v65.4M934.2 28.9v76.9M923.5 50.5v17.3M917.5 121v12.8"/></g></g><path class="st4" d="M910.6 76.3h29.3"/><path class="st0" d="M886.6 56h143v20.9h-143"/><path class="st3" d="M899.5 61.2h55.2M922.6 66.6h55.2M905.3 71.9h95.2"/><path class="st5" d="M886.6 76.8h143M886.6 56h143"/><g><circle class="st6" cx="924.7" cy="66.7" r="2.8"/><path class="st7" d="m923.7 65.7 2 2M925.6 65.7l-1.8 2"/></g><path class="st3" d="M972.6 62.6h15.2M1002.6 66.6h25.2"/><path class="st8" d="M886.6 163h143l-2.4-12.2c-.3-1.5-1-3-2.3-4.2-3.8-3.7-8.2-1.4-10.2 0-.6.5-1.6.3-1.9-.4l-7.6-14.7c-2.4-4.6-10.1-4.7-12.7-.3l-10 16.7c-.3.6-1.3.5-1.6 0L978 142c-2.2-4.5-9.7-4.9-12.6-.7l-6.4 11.9c-.3.6-1.4.6-1.7 0l-9.7-21.5c-2.4-4.6-10.2-4.7-12.8-.2l-4.4 7.6c-.6 1.1-2.4 1.3-3.4.4l-3-2.9c-3.6-3.5-10.5-2.2-12 2.2l-2 12.9c-.1.6-1.2.6-1.2 0l-.4-5.4c-.2-3.4-3.9-6.1-8-5.6-2.3.3-4.4 1.5-5.4 3.7l-8.4 18.6z"/><path class="st9" d="m1025 157.7.9-4.8c.3-1.4.3-2.9.1-4.3-.1-.7-.4-1.4-1-2-3.8-3.7-8.2-1.4-10.2 0-.6.5-1.6.3-1.9-.4l-7.6-14.7c-2.4-4.6-10.1-4.7-12.7-.3l-10 16.7c-.4.6-1.3.6-1.6-.1l-2.9-5.9c-2.2-4.5-9.7-4.9-12.6-.7l-6.4 11.9c-.4.7-1.4.7-1.7-.1l-9.7-21.5c-2.4-4.6-10.2-4.7-12.8-.2l-4.4 7.6c-.6 1.1-2.4 1.3-3.4.4l-3-2.9c-3.6-3.5-10.5-2.2-12 2.2l-2 12.9c-.1.7-1.1.7-1.2-.1l-.4-5.4c-.2-3.4-3.9-6.1-8-5.6-2.3.3-4.4 1.5-5.4 3.7l-5.4 12.5"/></g><g><path class="st0" d="M795.3 261c-8.6 0-15.6-7-15.6-15.6V55.3c0-8.6 7-15.6 15.6-15.6s15.6 7 15.6 15.6v190.1c0 8.6-7 15.6-15.6 15.6z"/><path class="st1" d="M795.3 40.6c8.1 0 14.6 6.5 14.6 14.6v190.1c0 8.1-6.5 14.6-14.6 14.6s-14.6-6.5-14.6-14.6v-190c-.1-8.1 6.5-14.7 14.6-14.7m0-2c-9.2 0-16.6 7.5-16.6 16.6v190.1c0 9.2 7.5 16.6 16.6 16.6s16.6-7.5 16.6-16.6v-190c0-9.2-7.5-16.7-16.6-16.7z"/><defs><path id="SVGID_00000152957042192290564250000006722142905286208901_" d="M795.3 260c-8.1 0-14.6-6.5-14.6-14.6V55.3c0-8.1 6.5-14.6 14.6-14.6s14.6 6.5 14.6 14.6v190.1c0 8.1-6.5 14.6-14.6 14.6z"/></defs><clipPath id="SVGID_00000050624526809985360870000013227939124457648260_"><use xlink:href="#SVGID_00000152957042192290564250000006722142905286208901_" style="overflow:visible"/></clipPath><g style="clip-path:url(#SVGID_00000050624526809985360870000013227939124457648260_)"><path class="st3" d="M786.9 247.3v65.4M794.4 276.2v65.4M804.2 228.9v76.9M793.5 250.5v17.3M787.5 321v12.8"/><g><path class="st3" d="M786.9 147.3v65.4M794.4 176.2v65.4M804.2 128.9v76.9M793.5 150.5v17.3M787.5 221v12.8"/></g><g><path class="st3" d="M786.9 47.3v65.4M794.4 76.2v65.4M804.2 28.9v76.9M793.5 50.5v17.3M787.5 121v12.8"/></g></g><path class="st4" d="M780.6 76.3h29.3"/><path class="st0" d="M756.6 56h143v20.9h-143"/><path class="st3" d="M769.5 61.2h55.2M792.6 66.6h55.2M775.3 71.9h95.2"/><path class="st5" d="M756.6 76.8h143M756.6 56h143"/><g><circle class="st6" cx="794.7" cy="66.7" r="2.8"/><path class="st7" d="m793.7 65.7 2 2M795.6 65.7l-1.8 2"/></g><path class="st3" d="M842.6 62.6h15.2M872.6 66.6h25.2"/><path class="st8" d="M756.6 163h143l-2.4-12.2c-.3-1.5-1-3-2.3-4.2-3.8-3.7-8.2-1.4-10.2 0-.6.5-1.6.3-1.9-.4l-7.6-14.7c-2.4-4.6-10.1-4.7-12.7-.3l-10 16.7c-.3.6-1.3.5-1.6 0L848 142c-2.2-4.5-9.7-4.9-12.6-.7l-6.4 11.9c-.3.6-1.4.6-1.7 0l-9.7-21.5c-2.4-4.6-10.2-4.7-12.8-.2l-4.4 7.6c-.6 1.1-2.4 1.3-3.4.4l-3-2.9c-3.6-3.5-10.5-2.2-12 2.2l-2 12.9c-.1.6-1.2.6-1.2 0l-.4-5.4c-.2-3.4-3.9-6.1-8-5.6-2.3.3-4.4 1.5-5.4 3.7l-8.4 18.6z"/><path class="st9" d="m895 157.7.9-4.8c.3-1.4.3-2.9.1-4.3-.1-.7-.4-1.4-1-2-3.8-3.7-8.2-1.4-10.2 0-.6.5-1.6.3-1.9-.4l-7.6-14.7c-2.4-4.6-10.1-4.7-12.7-.3l-10 16.7c-.4.6-1.3.6-1.6-.1l-2.9-5.9c-2.2-4.5-9.7-4.9-12.6-.7l-6.4 11.9c-.4.7-1.4.7-1.7-.1l-9.7-21.5c-2.4-4.6-10.2-4.7-12.8-.2l-4.4 7.6c-.6 1.1-2.4 1.3-3.4.4l-3-2.9c-3.6-3.5-10.5-2.2-12 2.2l-2 12.9c-.1.7-1.1.7-1.2-.1l-.4-5.4c-.2-3.4-3.9-6.1-8-5.6-2.3.3-4.4 1.5-5.4 3.7l-5.5 12.9"/></g><g><path class="st15" d="M756.6 162.3h793.1v335.2H756.6z"/></g><g><path class="st16" d="M760.6 360h78.6c8.4 0 15.8 6.2 17.2 14.6 1 5.8-.3 11.2-4.8 15.7-3.1 3.1-6.6 4.8-10.9 5.4-1.8.2-3.6.3-5.4.3h-74.7v-36zM1196.8 344.1h-29.3c-2.7 0-5.1-1.2-7.1-3.4-1.7-1.9-2.8-4.3-3.3-7.1-1.2-7.1 2.2-14.2 7.5-16 1-.3 2-.6 3-.6 19.6 0 39.1-.1 58.7 0 6.5 0 11 7 10.5 14.5-.4 6-3.4 10.7-8.1 12.2-.9.3-1.8.3-2.7.3-9.7.1-19.4.1-29.2.1zM834.1 339.5c-16.6 0-33.3-.1-49.9 0-4.6 0-8.6-1.6-12-4.5-2.9-2.5-4.7-5.7-5.6-9.5-2.1-9.4 3.7-18.9 12.9-21.3 1.6-.4 3.3-.7 5-.7 33.3 0 66.6-.1 99.8 0 11.1 0 18.7 9.3 18 19.2-.6 7.9-5.7 14.2-13.8 16.2-1.5.4-3 .5-4.5.5-16.6.1-33.2.1-49.9.1zM1068.9 273.1h-48.8c-5.6 0-10.5-1.4-14.4-4.6-2-1.6-3.2-3.5-3.9-5.6-1.4-3.8-.6-7.5 2.4-10.7 3.6-3.8 8.5-5.9 15-5.9h100.3c3.7 0 7 .8 10 2.3 5.3 2.7 8 6.6 7.8 11.4-.3 7-7.4 12.2-15.8 12.8-3 .2-6 .2-8.9.3-14.6.1-29.1 0-43.7 0zM1222.4 241.5h-49.7c-5 0-9.2-1.2-12.8-3.9-1.8-1.4-3.2-2.9-4.2-4.7-3-5.4 0-12.1 5.8-15.3 3.6-2 7.7-2.9 12-2.9 32.8 0 65.7-.1 98.5 0 8.3 0 14.5 3.1 17.6 8.9 1.4 2.6 1.5 5.4.3 8.1-2 4.5-5.9 7.6-12.1 9.1-1.7.4-3.4.6-5.1.6-16.7.1-33.5.1-50.3.1zM1432 429.3c-16.7 0-33.4-.1-50.2 0-6.6 0-14.4-4.7-16.6-12-2.1-7-.9-13.2 4.3-18.5 3.6-3.7 8-5.4 13-5.4 33.3-.1 66.6-.1 99.9 0 9 0 16.1 5.8 17.6 14.9 1.7 10.4-4.9 18.8-14.2 20.6-1.2.2-2.4.4-3.7.4H1432zM1105.7 426.6c-16.7 0-33.4-.1-50.2 0-6.5 0-14.5-4.7-16.7-12.2-2-6.9-.8-13 4.3-18.3 3.7-3.7 8.2-5.4 13.2-5.4 33.2-.1 66.3-.1 99.5 0 9.1 0 16.3 5.7 17.9 14.9 1.8 10.3-4.8 18.8-14.1 20.6-1.2.2-2.4.4-3.7.4h-50.2zM1128.4 182.8h24.7c4 0 7.8.5 11.2 1.8 9.7 3.6 10 10.8 2.7 14.6-3.8 2-8.4 2.9-13.6 3-16.6 0-33.3.1-49.9 0-7.8 0-13.7-1.9-17.1-5.8-3.5-4-.9-9 5.8-11.6 3.5-1.3 7.3-1.9 11.5-1.9 4.2-.1 8.3 0 12.5 0 4-.1 8.1-.1 12.2-.1zM830 268.3h-14.2c-3.7 0-7.3-.5-10.4-2-5.1-2.5-8.3-5.9-8.6-10.5-.3-5 2.2-9 7.8-11.9 2.9-1.5 6.2-2.3 9.9-2.3h32c8.1 0 15.4 4.6 17.1 10.8 1.8 6.4-3.6 13.8-13.4 15.5-1.6.3-3.3.5-5 .5-5.2-.1-10.2-.1-15.2-.1zM1290.8 259.8h15.8c10.1 0 18.5 6.4 17.7 14.5-.6 6.1-6.8 11.1-15.1 12-1.7.2-3.5.3-5.2.3h-27.8c-3.5 0-6.8-.5-9.8-1.9-5.5-2.5-8.7-6.1-9.1-11-.4-6.4 5.4-12.3 14.5-13.7 1.2-.2 2.5-.2 3.7-.2h15.3zM1432.3 228.2h16.2c7.6 0 15.3 4.6 17 10.7 1.7 6.4-3.6 13.8-13.3 15.5-1.5.3-3.1.5-4.7.5-10.2 0-20.4.1-30.6 0-8.9-.1-16.4-4.7-17.8-11-1.5-7 3.7-13.4 13.2-15.3 1.3-.3 2.6-.4 3.9-.4h16.1zM1512.9 195h16.2c7.6 0 15.3 4.6 17 10.7 1.7 6.4-3.6 13.8-13.3 15.5-1.5.3-3.1.5-4.7.5-10.2 0-20.4.1-30.6 0-8.9-.1-16.4-4.7-17.8-11-1.5-7 3.7-13.4 13.2-15.3 1.3-.3 2.6-.4 3.9-.4h16.1zM934.2 283.9h-14.9c-4 0-7.8-.8-11.1-2.6-4.7-2.6-7.3-6.1-7.5-10.5-.3-6.4 5.5-12.1 14.9-13.5.8-.1 1.7-.1 2.6-.1h31.7c3.7 0 7 .8 10 2.3 5.1 2.6 7.6 6.3 7.7 10.7.1 6.7-5.9 12.1-14.8 13.4-1.7.2-3.5.3-5.2.3h-13.4zM1260.1 427.5H1245c-4.6.1-8.8-1.4-12.2-4.4-3.7-3.3-5.8-7.5-6-12.6-.1-3.9.7-7.5 3-10.7 3-4.3 7.1-7 12.4-7.8 1.8-.3 3.6-.4 5.4-.4 9.1 0 18.2-.1 27.4 0 7.9.1 13.9 3.4 17.3 10.8 2.4 5.3 2.1 10.7-.6 15.7-2.8 5.2-7.3 8.2-13.1 9.3-.6.1-1.3.1-2 .1h-16.5zM914.2 408.7c-5.3 0-10.7.1-16 0-8.3-.1-15-5.4-17.1-13.4-2.6-10.2 3.5-19.4 13.4-21.9 1.6-.4 3.3-.6 5-.6 9.8 0 19.6-.1 29.3.1 7.9.1 13.9 3.4 17.3 10.8 2.4 5.3 2.1 10.6-.7 15.7-2.8 5.2-7.3 8.2-13.1 9.3-.6.1-1.3.1-2 .1-5.3-.1-10.7-.1-16.1-.1zM1402.8 195.4h-14.4c-4.3 0-8.3-.5-11.9-2-3.9-1.5-6.1-3.6-7-6.1-.9-2.6.3-4.9 3.1-7 3.5-2.6 8.2-4 14.3-4h31.7c6.2 0 11 1.5 14.6 4.1 4.2 3.1 4 7.9-.1 10.8-3.1 2.2-7 3.5-12.1 4-4.3.4-8.6.1-12.9.2h-5.3zM959.2 189.1c5.2 0 10.4.1 15.5 0 6.7-.1 14.6 2.5 16.7 6.4 2.1 3.7.9 7-4.4 9.9-3.6 1.9-7.9 2.8-12.8 2.8-10.2.1-20.4.1-30.6 0-8.4-.1-15.1-2.5-17.6-7-1.8-3.4-.3-6.4 4.1-9 3.7-2.2 8.4-3.1 13.8-3.1h15.3zM1041.9 480.5h-15.5c-9 0-16.2-6.1-17.7-15-.9-5.6.6-10.8 4.7-15.1 3.9-4 8.7-5.8 14.1-5.8 9.9-.1 19.7-.1 29.6 0 3.9 0 7.6 1 10.9 3.4 3.8 2.7 6.2 6.3 7.2 10.8 1.8 7.9-2.2 15.3-8.3 19.2-2.5 1.6-5.4 2.5-8.5 2.5-5.5.1-11 0-16.5 0zM796.6 469.6h-15.1c-9.1.1-16.5-5.9-18.1-14.9-1-5.6.5-10.8 4.5-15.1 4-4.2 8.9-5.9 14.5-6 9.7 0 19.4-.1 29.1 0 8.2.1 14.3 3.8 17.4 11.5 2.6 6.4 1 13.5-3.5 18.5-2.8 3.1-6.1 4.9-10.1 5.7-.8.2-1.6.2-2.4.2-5.4.1-10.9.1-16.3.1zM1397 321.5h-13.6c-3.2 0-6.2-.4-9.1-1.7-5.8-2.6-9.2-7.1-10.4-13.3-.9-5 .2-9.4 3.1-13.4 3.4-4.8 8.1-7.5 14.1-7.5 10.7-.1 21.3-.1 32 0 6.1 0 10.8 2.8 14.5 7.7 4.2 5.6 4 15 0 20.3-3.1 4-7 6.7-12.1 7.5-3.7.6-7.4.2-11.1.4-2.6.1-5 0-7.4 0zM865.6 498.9h-6.1c-8.2 0-16.1-6.6-17.5-14.6-1.1-5.9.3-11 4.2-15.4 3.1-3.5 7.1-5.4 11.8-6 4.2-.5 8.3-.4 12.4-.3 5.7.1 10.9 1.7 14.9 6.1 2.8 3.1 4.4 6.8 4.6 11.1.2 4.1-.7 7.9-3.1 11.2-3.7 5.1-8.6 7.9-15 8-2.1-.1-4.1-.1-6.2-.1zM1259.9 498.9h-6.1c-8.2 0-16-6.5-17.5-14.6-1.1-5.9.3-11 4.2-15.4 3.1-3.5 7.1-5.4 11.8-5.9 4.2-.5 8.3-.4 12.4-.3 5.7.1 10.9 1.7 14.9 6.1 2.8 3.1 4.4 6.8 4.6 11.1.2 4.1-.7 7.9-3.1 11.2-3.7 5.1-8.6 7.9-15 7.9-2.1-.1-4.1-.1-6.2-.1zM935.8 475.7h-6.4c-8 .2-15.2-5.6-17.2-13.5-2.2-8.5 2.5-17.3 9.8-20.6 2.6-1.2 5.3-1.9 8.2-1.8h11c6.1 0 11.3 2.4 15 7.2 3.2 4.1 4.4 8.8 3.3 14-1.6 7.9-6.5 12.6-14.2 14.5-.7.2-1.4.2-2.2.2h-7.3zM1330.1 475.7h-6.4c-8 .2-15.2-5.6-17.2-13.5-2.2-8.5 2.5-17.3 9.8-20.6 2.6-1.2 5.3-1.9 8.2-1.9h10.7c6.2 0 11.4 2.3 15.3 7.2 3.2 4.1 4.4 8.8 3.4 14-1.5 7.9-6.5 12.6-14.2 14.5-.7.2-1.4.2-2.2.2-2.4.1-4.9.1-7.4.1zM832.7 201.3h-6.3c-8.2 0-15.9-3-17.4-7.8-1.7-5.6 4.7-10.1 14.4-11.1 1.7-.2 3.3-.3 5-.2 4.5.1 9-.2 13.5.2 7.7.7 13.8 4 14.7 8.4 1.1 5.2-5.5 9.7-15.2 10.5-2.8.1-5.8-.1-8.7 0 0-.1 0 0 0 0zM1512.7 325c-2.9-.2-5.8.1-8.7-.4-6.8-1.3-11.5-5-14-11.4-2.2-5.7-1.5-11.3 1.9-16.2 3.3-4.9 8.1-7.8 14.1-7.9 4.3-.1 8.6 0 12.9 0 8.2-.2 15.6 5.6 17.6 13.9 2.3 9.7-4.6 20.3-14.8 21.7-3 .3-6 .1-9 .3zM1001.8 325c-2.9-.2-5.8.1-8.7-.4-6.8-1.3-11.5-5-14-11.4-2.2-5.7-1.5-11.3 1.9-16.2 3.3-4.9 8.1-7.8 14.1-7.9 4.3-.1 8.6 0 12.9 0 8.2-.1 15.4 5.5 17.5 13.7 2.5 9.8-4.5 20.5-14.8 21.9-2.9.3-5.9.1-8.9.3zM1105.2 348.7h-6.3c-7.6 0-15-5.1-17-13.4-1.5-6.4-.1-12.2 4.7-17 3.7-3.7 8.2-5.2 13.1-5.4 3.9-.2 7.7-.2 11.6 0 9.1.5 15.8 5.4 17.6 14.4 1.5 7.6-.6 14.7-9.2 19.4-2.7 1.5-5.5 2.2-8.6 2.1-2-.2-4-.1-5.9-.1zM1439.5 365h-6.3c-7.6 0-15-5.1-17-13.4-1.5-6.4-.2-12.2 4.7-17 3.7-3.7 8.1-5.2 13.1-5.4 3.9-.2 7.7-.2 11.6 0 9.1.5 15.8 5.3 17.6 14.4 1.5 7.6-.6 14.7-9.2 19.4-2.7 1.5-5.6 2.3-8.8 2.1-1.9-.1-3.8-.1-5.7-.1zM1316.6 189.1h6.3c7.2 0 15.8 3 17.2 7.8.9 3.2-.5 6.1-4.9 8.5-2.8 1.5-6.2 2.4-10.2 2.7-5.1.4-10.2.3-15.3.2-8.3-.2-14.5-3-16.6-6.6-3-5.1 1.7-10.2 11.2-12 1.7-.3 3.5-.5 5.3-.5 2.5-.1 4.7-.1 7-.1zM1334.9 354.7h-38c-6.6 0-12-5.4-12-12s5.4-12 12-12h38c6.6 0 12 5.4 12 12s-5.4 12-12 12z"/></g><g><path class="st8" d="M1279.3 497.6h251.3l-6.1-21.2c-.5-2.7-1.8-5.3-4-7.3-6.7-6.4-14.2-2.5-17.8.1-1.1.8-2.8.5-3.4-.6L1486 443c-4.1-8-17.6-8.3-22.2-.5l-17.4 29.1c-.6 1-2.3.9-2.8-.1l-5-10.3c-3.8-7.8-16.8-8.6-21.9-1.3l-11.2 20.7c-.6 1.1-2.5 1-3-.1l-17-37.4c-4.2-8-17.7-8.2-22.2-.3l-7.7 13.3c-1.1 1.9-4.2 2.3-5.9.7l-5.3-5c-6.4-6.1-18.3-3.9-21 3.8l-3.5 22.5c-.2 1.2-2 1.2-2.1-.1l-.6-9.3c-.4-6-6.8-10.7-13.9-9.7-4 .5-7.7 2.7-9.4 6.4l-14.6 32.2z"/><path class="st9" d="m1528.8 492.3-4.3-16c-.5-2.7-1.8-5.3-4-7.3-6.7-6.4-14.2-2.5-17.8.1-1.1.8-2.8.5-3.4-.6l-13.3-25.6c-4.1-8-17.6-8.3-22.2-.5l-17.4 29.1c-.6 1-2.3.9-2.8-.1l-5-10.3c-3.8-7.8-16.8-8.6-21.9-1.3l-11.2 20.7c-.6 1.1-2.5 1-3-.1l-17-37.4c-4.2-8-17.7-8.2-22.2-.3l-7.7 13.3c-1.1 1.9-4.2 2.3-5.9.7l-5.3-5c-6.4-6.1-18.3-3.9-21 3.8l-3.5 22.5c-.2 1-2 1-2.1-.1l-.6-9.4c-.4-6-6.8-10.7-13.9-9.7-4 .5-7.7 2.7-9.4 6.4l-12.6 26.4"/><path class="st0" d="M1374.1 498.1v-129c0-14.6-11.8-26.4-26.4-26.4-14.6 0-26.4 11.9-26.4 26.4v129h52.8z"/><path class="st1" d="M1322.3 498.1v-129c0-14 11.4-25.3 25.4-25.3s25.4 11.4 25.4 25.4v128.9h2v-129c0-15.1-12.3-27.3-27.4-27.3-15.1 0-27.4 12.3-27.4 27.4v128.9h2z"/><defs><path id="SVGID_00000051375244331730512310000011223406184052348862_" d="M1347.7 724.2c-14 0-25.4-11.4-25.4-25.4V369.1c0-14 11.4-25.4 25.4-25.4 14 0 25.4 11.4 25.4 25.4v329.7c0 14.1-11.4 25.4-25.4 25.4z"/></defs><clipPath id="SVGID_00000079449252319824008340000009670463786213675930_"><use xlink:href="#SVGID_00000051375244331730512310000011223406184052348862_" style="overflow:visible"/></clipPath><g style="clip-path:url(#SVGID_00000079449252319824008340000009670463786213675930_)"><path class="st18" d="M1333.2 355.4v113.4M1346.2 405.4c.1 26.9.1 54.9 0 81.5M1363.2 323.4v133.4M1344.6 360.9v29.9M1334.2 483.1v3.7"/></g><path class="st4" d="M1322.3 405.7h50.8"/><g><path class="st0" d="M1280.6 370.5h300.2v36.2h-300.2"/><path class="st18" d="M1286.3 377.8h223.8M1331 388.8h223.9M1297.4 399.8h224"/><path class="st5" d="M1280.6 406.5h300.2M1280.6 370.5h300.2"/></g><g><circle class="st6" cx="1346.7" cy="388.9" r="4.9"/><path class="st7" d="m1345 387.2 3.4 3.5M1348.3 387.2l-3.3 3.5"/></g><g><path class="st8" d="M1017.3 497.6h251.3l-6.1-21.2c-.5-2.7-1.8-5.3-4-7.3-6.7-6.4-14.2-2.5-17.8.1-1.1.8-2.8.5-3.4-.6L1224 443c-4.1-8-17.6-8.3-22.2-.5l-17.4 29.1c-.6 1-2.3.9-2.8-.1l-5-10.3c-3.8-7.8-16.8-8.6-21.9-1.3l-11.2 20.7c-.6 1.1-2.5 1-3-.1l-17-37.4c-4.2-8-17.7-8.2-22.2-.3l-7.7 13.3c-1.1 1.9-4.2 2.3-5.9.7l-5.3-5c-6.4-6.1-18.3-3.9-21 3.8l-3.5 22.5c-.2 1.2-2 1.2-2.1-.1l-.6-9.3c-.4-6-6.8-10.7-13.9-9.7-4 .5-7.7 2.7-9.4 6.4l-14.6 32.2z"/><path class="st9" d="m1266.8 492.3-4.3-16c-.5-2.7-1.8-5.3-4-7.3-6.7-6.4-14.2-2.5-17.8.1-1.1.8-2.8.5-3.4-.6l-13.3-25.6c-4.1-8-17.6-8.3-22.2-.5l-17.4 29.1c-.6 1-2.3.9-2.8-.1l-5-10.3c-3.8-7.8-16.8-8.6-21.9-1.3l-11.2 20.7c-.6 1.1-2.5 1-3-.1l-17-37.4c-4.2-8-17.7-8.2-22.2-.3l-7.7 13.3c-1.1 1.9-4.2 2.3-5.9.7l-5.3-5c-6.4-6.1-18.3-3.9-21 3.8l-3.5 22.5c-.2 1-2 1-2.1-.1l-.6-9.4c-.4-6-6.8-10.7-13.9-9.7-4 .5-7.7 2.7-9.4 6.4l-12.6 26.4"/><path class="st0" d="M1112.1 498.1v-129c0-14.6-11.8-26.4-26.4-26.4-14.6 0-26.4 11.9-26.4 26.4v129h52.8z"/><path class="st1" d="M1060.3 498.1v-129c0-14 11.4-25.3 25.4-25.3s25.4 11.4 25.4 25.4v128.9h2v-129c0-15.1-12.3-27.3-27.4-27.3-15.1 0-27.4 12.3-27.4 27.4v128.9h2z"/><defs><path id="SVGID_00000114785165497353789810000011202502146848309902_" d="M1085.7 724.2c-14 0-25.4-11.4-25.4-25.4V369.1c0-14 11.4-25.4 25.4-25.4 14 0 25.4 11.4 25.4 25.4v329.7c0 14.1-11.4 25.4-25.4 25.4z"/></defs><clipPath id="SVGID_00000116213742495433044180000011764348114601505707_"><use xlink:href="#SVGID_00000114785165497353789810000011202502146848309902_" style="overflow:visible"/></clipPath><g style="clip-path:url(#SVGID_00000116213742495433044180000011764348114601505707_)"><path class="st18" d="M1071.2 355.4v113.4M1084.2 405.4c.1 26.9.1 54.9 0 81.5M1101.2 323.4v133.4M1082.6 360.9v29.9M1072.2 483.1v3.7"/></g><path class="st4" d="M1060.3 405.7h50.8"/><g><path class="st0" d="M1018.6 370.5h268v36.2h-268"/><path class="st18" d="M1023.7 377.8h199.8M1063.7 388.8h199.8M1033.7 399.8h199.8"/><path class="st5" d="M1018.6 406.5h268M1018.6 370.5h268"/></g><g><circle class="st6" cx="1084.7" cy="388.9" r="4.9"/><path class="st7" d="m1083 387.2 3.4 3.5M1086.3 387.2l-3.3 3.5"/></g></g><g><path class="st8" d="M755.3 497.6h251.3l-6.1-21.2c-.5-2.7-1.8-5.3-4-7.3-6.7-6.4-14.2-2.5-17.8.1-1.1.8-2.8.5-3.4-.6L962 443c-4.1-8-17.6-8.3-22.2-.5l-17.4 29.1c-.6 1-2.3.9-2.8-.1l-5-10.3c-3.8-7.8-16.8-8.6-21.9-1.3l-11.2 20.7c-.6 1.1-2.5 1-3-.1l-17-37.4c-4.2-8-17.7-8.2-22.3-.3l-7.6 13.2c-1.1 1.9-4.2 2.3-5.9.7l-5.3-5c-6.4-6.1-18.3-3.9-21 3.8l-3.5 22.5c-.2 1.2-2 1.2-2.1-.1l-.6-9.3c-.4-6-6.8-10.7-13.9-9.7-4 .5-7.7 2.7-9.4 6.4l-14.6 32.3z"/><path class="st9" d="m1004.8 492.3-4.3-16c-.5-2.7-1.8-5.3-4-7.3-6.7-6.4-14.2-2.5-17.8.1-1.1.8-2.8.5-3.4-.6L962 442.9c-4.1-8-17.6-8.3-22.2-.5l-17.4 29.1c-.6 1-2.3.9-2.8-.1l-5-10.3c-3.8-7.8-16.8-8.6-21.9-1.3l-11.2 20.7c-.6 1.1-2.5 1-3-.1l-17-37.4c-4.2-8-17.7-8.2-22.3-.3l-7.6 13.3c-1.1 1.9-4.2 2.3-5.9.7l-5.3-5c-6.4-6.1-18.3-3.9-21 3.8l-3.5 22.5c-.2 1-2 1-2.1-.1l-.6-9.4c-.4-6-6.8-10.7-13.9-9.7-4 .5-7.7 2.7-9.4 6.4l-12.6 26.4"/><path class="st0" d="M850.1 498.1v-129c0-14.6-11.8-26.4-26.4-26.4-14.6 0-26.4 11.9-26.4 26.4v129h52.8z"/><path class="st1" d="M798.3 498.1v-129c0-14 11.4-25.3 25.4-25.3s25.4 11.4 25.4 25.4v128.9h2v-129c0-15.1-12.3-27.3-27.4-27.3-15.1 0-27.4 12.2-27.4 27.3v129h2z"/><defs><path id="SVGID_00000134244311216757728810000010952433461592948115_" d="M823.7 724.2c-14 0-25.4-11.4-25.4-25.4V369.1c0-14 11.4-25.4 25.4-25.4 14 0 25.4 11.4 25.4 25.4v329.7c0 14.1-11.4 25.4-25.4 25.4z"/></defs><clipPath id="SVGID_00000114780197802035742780000014284188448941233322_"><use xlink:href="#SVGID_00000134244311216757728810000010952433461592948115_" style="overflow:visible"/></clipPath><g style="clip-path:url(#SVGID_00000114780197802035742780000014284188448941233322_)"><path class="st18" d="M809.2 355.4v113.4M822.2 405.4c.1 26.9.1 54.9 0 81.5M839.2 323.4v133.4M820.6 360.9v29.9M810.2 483.1v3.7"/></g><path class="st4" d="M798.3 405.7h50.8"/><g><path class="st0" d="M756.6 370.5h268v36.2h-268"/><path class="st18" d="M761.7 377.8h199.8M801.7 388.8h199.8M771.7 399.8h199.8"/><path class="st5" d="M756.6 406.5h268M756.6 370.5h268"/></g><g><circle class="st6" cx="822.7" cy="388.9" r="4.9"/><path class="st7" d="m821 387.2 3.4 3.5M824.3 387.2l-3.3 3.5"/></g></g></g></g></svg>