<?xml version="1.0" encoding="utf-8"?>
<!-- Generator: Adobe Illustrator 26.2.1, SVG Export Plug-In . SVG Version: 6.00 Build 0)  -->
<svg version="1.1" id="Layer_2_00000001647501480954407860000001023038268120092575_"
	 xmlns="http://www.w3.org/2000/svg" xmlns:xlink="http://www.w3.org/1999/xlink" x="0px" y="0px" viewBox="0 0 793 498.3"
	 style="enable-background:new 0 0 793 498.3;" xml:space="preserve">
<style type="text/css">
	.st0{fill:#9B5F66;}
	.st1{fill:#4C3035;}
	.st2{clip-path:url(#SVGID_00000057131790187572574510000007139769899222045366_);}
	.st3{fill:none;stroke:#B27D85;stroke-linecap:round;stroke-miterlimit:10;}
	.st4{fill:none;stroke:#7F4F56;stroke-width:10;stroke-miterlimit:10;}
	.st5{fill:none;stroke:#4C3035;stroke-width:2;stroke-miterlimit:10;}
	.st6{fill:#BABA6A;stroke:#665D39;stroke-width:2;stroke-miterlimit:10;}
	.st7{fill:none;stroke:#665D39;stroke-linecap:round;stroke-miterlimit:10;}
	.st8{fill:#FC92B1;}
	.st9{fill:none;stroke:#995B73;stroke-width:2;stroke-linecap:round;stroke-miterlimit:10;}
	.st10{clip-path:url(#SVGID_00000008118203980969271530000013743852088505580683_);}
	.st11{clip-path:url(#SVGID_00000024686187201385493030000001362468078306296471_);}
	.st12{clip-path:url(#SVGID_00000183238868813712296260000012468032703274976190_);}
	.st13{clip-path:url(#SVGID_00000121975446686083474200000005320581071028962438_);}
	.st14{clip-path:url(#SVGID_00000005980844590042731390000009910408716712857532_);}
	.st15{fill:#FDFAEA;}
	.st16{fill:#EFEAD8;}
	.st17{clip-path:url(#SVGID_00000005253950268967836800000017685398799226084749_);}
	.st18{fill:none;stroke:#B27D85;stroke-width:2;stroke-linecap:round;stroke-miterlimit:10;}
	.st19{clip-path:url(#SVGID_00000112593072744498681190000015655470143846845070_);}
	.st20{fill:#D12861;}
	.st21{clip-path:url(#SVGID_00000039818533743983427270000008640279851901622413_);}
</style>
<g>
	<g>
		<g>
			<g>
				<g>
					<path class="st0" d="M688.3,261c-8.6,0-15.6-7-15.6-15.6V55.3c0-8.6,7-15.6,15.6-15.6s15.6,7,15.6,15.6v190.1
						C703.9,254,696.9,261,688.3,261z"/>
					<path class="st1" d="M688.3,40.6c8.1,0,14.6,6.5,14.6,14.6v190.1c0,8.1-6.5,14.6-14.6,14.6s-14.6-6.5-14.6-14.6v-190
						C673.6,47.2,680.2,40.6,688.3,40.6 M688.3,38.6c-9.2,0-16.6,7.5-16.6,16.6v190.1c0,9.2,7.5,16.6,16.6,16.6s16.6-7.5,16.6-16.6
						v-190C704.9,46.1,697.4,38.6,688.3,38.6L688.3,38.6z"/>
				</g>
				<g>
					<g>
						<defs>
							<path id="SVGID_1_" d="M688.3,260L688.3,260c-8.1,0-14.6-6.5-14.6-14.6V55.3c0-8.1,6.5-14.6,14.6-14.6l0,0
								c8.1,0,14.6,6.5,14.6,14.6v190.1C702.9,253.5,696.4,260,688.3,260z"/>
						</defs>
						<clipPath id="SVGID_00000052075888976063056070000009959961774028401584_">
							<use xlink:href="#SVGID_1_"  style="overflow:visible;"/>
						</clipPath>
						<g style="clip-path:url(#SVGID_00000052075888976063056070000009959961774028401584_);">
							<g>
								<line class="st3" x1="679.9" y1="247.3" x2="679.9" y2="312.7"/>
								<line class="st3" x1="687.4" y1="276.2" x2="687.4" y2="341.6"/>
								<line class="st3" x1="697.2" y1="228.9" x2="697.2" y2="305.8"/>
								<line class="st3" x1="686.5" y1="250.5" x2="686.5" y2="267.8"/>
								<line class="st3" x1="680.5" y1="321" x2="680.5" y2="333.8"/>
							</g>
							<g>
								<line class="st3" x1="679.9" y1="147.3" x2="679.9" y2="212.7"/>
								<line class="st3" x1="687.4" y1="176.2" x2="687.4" y2="241.6"/>
								<line class="st3" x1="697.2" y1="128.9" x2="697.2" y2="205.8"/>
								<line class="st3" x1="686.5" y1="150.5" x2="686.5" y2="167.8"/>
								<line class="st3" x1="680.5" y1="221" x2="680.5" y2="233.8"/>
							</g>
							<g>
								<line class="st3" x1="679.9" y1="47.3" x2="679.9" y2="112.7"/>
								<line class="st3" x1="687.4" y1="76.2" x2="687.4" y2="141.6"/>
								<line class="st3" x1="697.2" y1="28.9" x2="697.2" y2="105.8"/>
								<line class="st3" x1="686.5" y1="50.5" x2="686.5" y2="67.8"/>
								<line class="st3" x1="680.5" y1="121" x2="680.5" y2="133.8"/>
							</g>
						</g>
					</g>
				</g>
			</g>
			<line class="st4" x1="673.6" y1="76.3" x2="702.9" y2="76.3"/>
			<g>
				<polyline class="st0" points="649.6,56 793,56 793,61.2 793,76.9 649.6,76.9 				"/>
				<line class="st3" x1="662.5" y1="61.2" x2="717.7" y2="61.2"/>
				<line class="st3" x1="685.6" y1="66.6" x2="740.8" y2="66.6"/>
				<line class="st3" x1="668.3" y1="71.9" x2="763.5" y2="71.9"/>
				<line class="st5" x1="649.6" y1="76.8" x2="793" y2="76.9"/>
				<line class="st5" x1="649.6" y1="56" x2="793" y2="56"/>
			</g>
			<g>
				<circle class="st6" cx="687.7" cy="66.7" r="2.8"/>
				<g>
					<line class="st7" x1="686.7" y1="65.7" x2="688.7" y2="67.7"/>
					<line class="st7" x1="688.6" y1="65.7" x2="686.8" y2="67.7"/>
				</g>
			</g>
			<line class="st3" x1="735.6" y1="62.6" x2="750.8" y2="62.6"/>
			<line class="st3" x1="765.6" y1="66.6" x2="790.8" y2="66.6"/>
			<path class="st8" d="M649.6,163h139l1.6-12.2c-0.3-1.5-1-3-2.3-4.2c-3.8-3.7-8.2-1.4-10.2,0c-0.6,0.5-1.6,0.3-1.9-0.4l-7.6-14.7
				c-2.4-4.6-10.1-4.7-12.7-0.3l-10,16.7c-0.3,0.6-1.3,0.5-1.6,0L741,142c-2.2-4.5-9.7-4.9-12.6-0.7l-6.4,11.9
				c-0.3,0.6-1.4,0.6-1.7,0l-9.7-21.5c-2.4-4.6-10.2-4.7-12.8-0.2l-4.4,7.6c-0.6,1.1-2.4,1.3-3.4,0.4l-3-2.9
				c-3.6-3.5-10.5-2.2-12,2.2l-2,12.9c-0.1,0.6-1.2,0.6-1.2,0l-0.4-5.4c-0.2-3.4-3.9-6.1-8-5.6c-2.3,0.3-4.4,1.5-5.4,3.7L649.6,163z
				"/>
			<path class="st9" d="M788,157.7l0.9-4.8c0.3-1.4,0.3-2.9,0.1-4.3c-0.1-0.7-0.4-1.4-1-2c-3.8-3.7-8.2-1.4-10.2,0
				c-0.6,0.5-1.6,0.3-1.9-0.4l-7.6-14.7c-2.4-4.6-10.1-4.7-12.7-0.3l-10,16.7c-0.4,0.6-1.3,0.6-1.6-0.1l-2.9-5.9
				c-2.2-4.5-9.7-4.9-12.6-0.7l-6.4,11.9c-0.4,0.7-1.4,0.7-1.7-0.1l-9.7-21.5c-2.4-4.6-10.2-4.7-12.8-0.2l-4.4,7.6
				c-0.6,1.1-2.4,1.3-3.4,0.4l-3-2.9c-3.6-3.5-10.5-2.2-12,2.2l-2,12.9c-0.1,0.7-1.1,0.7-1.2-0.1l-0.4-5.4c-0.2-3.4-3.9-6.1-8-5.6
				c-2.3,0.3-4.4,1.5-5.4,3.7l-5.4,12.5"/>
		</g>
	</g>
	<g>
		<g>
			<g>
				<g>
					<path class="st0" d="M558.3,261c-8.6,0-15.6-7-15.6-15.6V55.3c0-8.6,7-15.6,15.6-15.6s15.6,7,15.6,15.6v190.1
						C573.9,254,566.9,261,558.3,261z"/>
					<path class="st1" d="M558.3,40.6c8.1,0,14.6,6.5,14.6,14.6v190.1c0,8.1-6.5,14.6-14.6,14.6s-14.6-6.5-14.6-14.6v-190
						C543.6,47.2,550.2,40.6,558.3,40.6 M558.3,38.6c-9.2,0-16.6,7.5-16.6,16.6v190.1c0,9.2,7.5,16.6,16.6,16.6s16.6-7.5,16.6-16.6
						v-190C574.9,46.1,567.4,38.6,558.3,38.6L558.3,38.6z"/>
				</g>
				<g>
					<g>
						<defs>
							<path id="SVGID_00000052807619267852688610000008979944455380564649_" d="M558.3,260L558.3,260c-8.1,0-14.6-6.5-14.6-14.6
								V55.3c0-8.1,6.5-14.6,14.6-14.6l0,0c8.1,0,14.6,6.5,14.6,14.6v190.1C572.9,253.5,566.4,260,558.3,260z"/>
						</defs>
						<clipPath id="SVGID_00000041293400810827679020000003906721477634543780_">
							<use xlink:href="#SVGID_00000052807619267852688610000008979944455380564649_"  style="overflow:visible;"/>
						</clipPath>
						<g style="clip-path:url(#SVGID_00000041293400810827679020000003906721477634543780_);">
							<g>
								<line class="st3" x1="549.9" y1="247.3" x2="549.9" y2="312.7"/>
								<line class="st3" x1="557.4" y1="276.2" x2="557.4" y2="341.6"/>
								<line class="st3" x1="567.2" y1="228.9" x2="567.2" y2="305.8"/>
								<line class="st3" x1="556.5" y1="250.5" x2="556.5" y2="267.8"/>
								<line class="st3" x1="550.5" y1="321" x2="550.5" y2="333.8"/>
							</g>
							<g>
								<line class="st3" x1="549.9" y1="147.3" x2="549.9" y2="212.7"/>
								<line class="st3" x1="557.4" y1="176.2" x2="557.4" y2="241.6"/>
								<line class="st3" x1="567.2" y1="128.9" x2="567.2" y2="205.8"/>
								<line class="st3" x1="556.5" y1="150.5" x2="556.5" y2="167.8"/>
								<line class="st3" x1="550.5" y1="221" x2="550.5" y2="233.8"/>
							</g>
							<g>
								<line class="st3" x1="549.9" y1="47.3" x2="549.9" y2="112.7"/>
								<line class="st3" x1="557.4" y1="76.2" x2="557.4" y2="141.6"/>
								<line class="st3" x1="567.2" y1="28.9" x2="567.2" y2="105.8"/>
								<line class="st3" x1="556.5" y1="50.5" x2="556.5" y2="67.8"/>
								<line class="st3" x1="550.5" y1="121" x2="550.5" y2="133.8"/>
							</g>
						</g>
					</g>
				</g>
			</g>
			<line class="st4" x1="543.6" y1="76.3" x2="572.9" y2="76.3"/>
			<g>
				<polyline class="st0" points="519.6,56 662.6,56 662.6,61.2 662.6,76.9 519.6,76.9 				"/>
				<line class="st3" x1="532.5" y1="61.2" x2="587.7" y2="61.2"/>
				<line class="st3" x1="555.6" y1="66.6" x2="610.8" y2="66.6"/>
				<line class="st3" x1="538.3" y1="71.9" x2="633.5" y2="71.9"/>
				<line class="st5" x1="519.6" y1="76.8" x2="662.6" y2="76.8"/>
				<line class="st5" x1="519.6" y1="56" x2="662.6" y2="56"/>
			</g>
			<g>
				<circle class="st6" cx="557.7" cy="66.7" r="2.8"/>
				<g>
					<line class="st7" x1="556.7" y1="65.7" x2="558.7" y2="67.7"/>
					<line class="st7" x1="558.6" y1="65.7" x2="556.8" y2="67.7"/>
				</g>
			</g>
			<line class="st3" x1="605.6" y1="62.6" x2="620.8" y2="62.6"/>
			<line class="st3" x1="635.6" y1="66.6" x2="660.8" y2="66.6"/>
			<path class="st8" d="M519.6,163h143l-2.4-12.2c-0.3-1.5-1-3-2.3-4.2c-3.8-3.7-8.2-1.4-10.2,0c-0.6,0.5-1.6,0.3-1.9-0.4l-7.6-14.7
				c-2.4-4.6-10.1-4.7-12.7-0.3l-10,16.7c-0.3,0.6-1.3,0.5-1.6,0L611,142c-2.2-4.5-9.7-4.9-12.6-0.7l-6.4,11.9
				c-0.3,0.6-1.4,0.6-1.7,0l-9.7-21.5c-2.4-4.6-10.2-4.7-12.8-0.2l-4.4,7.6c-0.6,1.1-2.4,1.3-3.4,0.4l-3-2.9
				c-3.6-3.5-10.5-2.2-12,2.2l-2,12.9c-0.1,0.6-1.2,0.6-1.2,0l-0.4-5.4c-0.2-3.4-3.9-6.1-8-5.6c-2.3,0.3-4.4,1.5-5.4,3.7L519.6,163z
				"/>
			<path class="st9" d="M658,157.7l0.9-4.8c0.3-1.4,0.3-2.9,0.1-4.3c-0.1-0.7-0.4-1.4-1-2c-3.8-3.7-8.2-1.4-10.2,0
				c-0.6,0.5-1.6,0.3-1.9-0.4l-7.6-14.7c-2.4-4.6-10.1-4.7-12.7-0.3l-10,16.7c-0.4,0.6-1.3,0.6-1.6-0.1l-2.9-5.9
				c-2.2-4.5-9.7-4.9-12.6-0.7l-6.4,11.9c-0.4,0.7-1.4,0.7-1.7-0.1l-9.7-21.5c-2.4-4.6-10.2-4.7-12.8-0.2l-4.4,7.6
				c-0.6,1.1-2.4,1.3-3.4,0.4l-3-2.9c-3.6-3.5-10.5-2.2-12,2.2l-2,12.9c-0.1,0.7-1.1,0.7-1.2-0.1l-0.4-5.4c-0.2-3.4-3.9-6.1-8-5.6
				c-2.3,0.3-4.4,1.5-5.4,3.7l-5.4,12.5"/>
		</g>
	</g>
	<g>
		<g>
			<g>
				<g>
					<path class="st0" d="M428.3,261c-8.6,0-15.6-7-15.6-15.6V55.3c0-8.6,7-15.6,15.6-15.6s15.6,7,15.6,15.6v190.1
						C443.9,254,436.9,261,428.3,261z"/>
					<path class="st1" d="M428.3,40.6c8.1,0,14.6,6.5,14.6,14.6v190.1c0,8.1-6.6,14.6-14.6,14.6s-14.6-6.5-14.6-14.6v-190
						C413.6,47.2,420.2,40.6,428.3,40.6 M428.3,38.6c-9.2,0-16.6,7.5-16.6,16.6v190.1c0,9.2,7.5,16.6,16.6,16.6
						c9.2,0,16.6-7.5,16.6-16.6v-190C444.9,46.1,437.4,38.6,428.3,38.6L428.3,38.6z"/>
				</g>
				<g>
					<g>
						<defs>
							<path id="SVGID_00000183209798167722774590000008262876615223647388_" d="M428.3,260L428.3,260c-8.1,0-14.6-6.5-14.6-14.6
								V55.3c0-8.1,6.5-14.6,14.6-14.6l0,0c8.1,0,14.6,6.5,14.6,14.6v190.1C442.9,253.5,436.4,260,428.3,260z"/>
						</defs>
						<clipPath id="SVGID_00000096742803989317002460000014168680948502303130_">
							<use xlink:href="#SVGID_00000183209798167722774590000008262876615223647388_"  style="overflow:visible;"/>
						</clipPath>
						<g style="clip-path:url(#SVGID_00000096742803989317002460000014168680948502303130_);">
							<g>
								<line class="st3" x1="419.9" y1="247.3" x2="419.9" y2="312.7"/>
								<line class="st3" x1="427.4" y1="276.2" x2="427.4" y2="341.6"/>
								<line class="st3" x1="437.2" y1="228.9" x2="437.2" y2="305.8"/>
								<line class="st3" x1="426.5" y1="250.5" x2="426.5" y2="267.8"/>
								<line class="st3" x1="420.5" y1="321" x2="420.5" y2="333.8"/>
							</g>
							<g>
								<line class="st3" x1="419.9" y1="147.3" x2="419.9" y2="212.7"/>
								<line class="st3" x1="427.4" y1="176.2" x2="427.4" y2="241.6"/>
								<line class="st3" x1="437.2" y1="128.9" x2="437.2" y2="205.8"/>
								<line class="st3" x1="426.5" y1="150.5" x2="426.5" y2="167.8"/>
								<line class="st3" x1="420.5" y1="221" x2="420.5" y2="233.8"/>
							</g>
							<g>
								<line class="st3" x1="419.9" y1="47.3" x2="419.9" y2="112.7"/>
								<line class="st3" x1="427.4" y1="76.2" x2="427.4" y2="141.6"/>
								<line class="st3" x1="437.2" y1="28.9" x2="437.2" y2="105.8"/>
								<line class="st3" x1="426.5" y1="50.5" x2="426.5" y2="67.8"/>
								<line class="st3" x1="420.5" y1="121" x2="420.5" y2="133.8"/>
							</g>
						</g>
					</g>
				</g>
			</g>
			<line class="st4" x1="413.6" y1="76.3" x2="442.9" y2="76.3"/>
			<g>
				<polyline class="st0" points="389.6,56 532.6,56 532.6,61.2 532.6,76.9 389.6,76.9 				"/>
				<line class="st3" x1="402.5" y1="61.2" x2="457.7" y2="61.2"/>
				<line class="st3" x1="425.6" y1="66.6" x2="480.8" y2="66.6"/>
				<line class="st3" x1="408.3" y1="71.9" x2="503.5" y2="71.9"/>
				<line class="st5" x1="389.6" y1="76.8" x2="532.6" y2="76.8"/>
				<line class="st5" x1="389.6" y1="56" x2="532.6" y2="56"/>
			</g>
			<g>
				<circle class="st6" cx="427.7" cy="66.7" r="2.8"/>
				<g>
					<line class="st7" x1="426.7" y1="65.7" x2="428.7" y2="67.7"/>
					<line class="st7" x1="428.6" y1="65.7" x2="426.8" y2="67.7"/>
				</g>
			</g>
			<line class="st3" x1="475.6" y1="62.6" x2="490.8" y2="62.6"/>
			<line class="st3" x1="505.6" y1="66.6" x2="530.8" y2="66.6"/>
			<path class="st8" d="M389.6,163h143l-2.4-12.2c-0.3-1.5-1-3-2.3-4.2c-3.8-3.7-8.2-1.4-10.2,0c-0.6,0.5-1.6,0.3-1.9-0.4l-7.6-14.7
				c-2.4-4.6-10.1-4.7-12.7-0.3l-10,16.7c-0.3,0.6-1.3,0.5-1.6,0L481,142c-2.2-4.5-9.7-4.9-12.6-0.7l-6.4,11.9
				c-0.3,0.6-1.4,0.6-1.7,0l-9.7-21.5c-2.4-4.6-10.2-4.7-12.8-0.2l-4.4,7.6c-0.6,1.1-2.4,1.3-3.4,0.4l-3-2.9
				c-3.6-3.5-10.5-2.2-12,2.2l-2,12.9c-0.1,0.6-1.2,0.6-1.2,0l-0.4-5.4c-0.2-3.4-3.9-6.1-8-5.6c-2.3,0.3-4.4,1.5-5.4,3.7L389.6,163z
				"/>
			<path class="st9" d="M528,157.7l0.9-4.8c0.3-1.4,0.3-2.9,0.1-4.3c-0.1-0.7-0.4-1.4-1-2c-3.8-3.7-8.2-1.4-10.2,0
				c-0.6,0.5-1.6,0.3-1.9-0.4l-7.6-14.7c-2.4-4.6-10.1-4.7-12.7-0.3l-10,16.7c-0.4,0.6-1.3,0.6-1.6-0.1l-2.9-5.9
				c-2.2-4.5-9.7-4.9-12.6-0.7l-6.4,11.9c-0.4,0.7-1.4,0.7-1.7-0.1l-9.7-21.5c-2.4-4.6-10.2-4.7-12.8-0.2l-4.4,7.6
				c-0.6,1.1-2.4,1.3-3.4,0.4l-3-2.9c-3.6-3.5-10.5-2.2-12,2.2l-2,12.9c-0.1,0.7-1.1,0.7-1.2-0.1l-0.4-5.4c-0.2-3.4-3.9-6.1-8-5.6
				c-2.3,0.3-4.4,1.5-5.4,3.7l-5.4,12.5"/>
		</g>
	</g>
	<g>
		<g>
			<g>
				<g>
					<path class="st0" d="M298.3,261c-8.6,0-15.6-7-15.6-15.6V55.3c0-8.6,7-15.6,15.6-15.6s15.6,7,15.6,15.6v190.1
						C313.9,254,306.9,261,298.3,261z"/>
					<path class="st1" d="M298.3,40.6c8.1,0,14.6,6.5,14.6,14.6v190.1c0,8.1-6.6,14.6-14.6,14.6s-14.6-6.5-14.6-14.6v-190
						C283.6,47.2,290.2,40.6,298.3,40.6 M298.3,38.6c-9.2,0-16.6,7.5-16.6,16.6v190.1c0,9.2,7.5,16.6,16.6,16.6
						c9.2,0,16.6-7.5,16.6-16.6v-190C314.9,46.1,307.4,38.6,298.3,38.6L298.3,38.6z"/>
				</g>
				<g>
					<g>
						<defs>
							<path id="SVGID_00000103958695277755262050000010880720501250289810_" d="M298.3,260L298.3,260c-8.1,0-14.6-6.5-14.6-14.6
								V55.3c0-8.1,6.5-14.6,14.6-14.6l0,0c8.1,0,14.6,6.5,14.6,14.6v190.1C312.9,253.5,306.4,260,298.3,260z"/>
						</defs>
						<clipPath id="SVGID_00000170993374233311548380000007238743391942748824_">
							<use xlink:href="#SVGID_00000103958695277755262050000010880720501250289810_"  style="overflow:visible;"/>
						</clipPath>
						<g style="clip-path:url(#SVGID_00000170993374233311548380000007238743391942748824_);">
							<g>
								<line class="st3" x1="289.9" y1="247.3" x2="289.9" y2="312.7"/>
								<line class="st3" x1="297.4" y1="276.2" x2="297.4" y2="341.6"/>
								<line class="st3" x1="307.2" y1="228.9" x2="307.2" y2="305.8"/>
								<line class="st3" x1="296.5" y1="250.5" x2="296.5" y2="267.8"/>
								<line class="st3" x1="290.5" y1="321" x2="290.5" y2="333.8"/>
							</g>
							<g>
								<line class="st3" x1="289.9" y1="147.3" x2="289.9" y2="212.7"/>
								<line class="st3" x1="297.4" y1="176.2" x2="297.4" y2="241.6"/>
								<line class="st3" x1="307.2" y1="128.9" x2="307.2" y2="205.8"/>
								<line class="st3" x1="296.5" y1="150.5" x2="296.5" y2="167.8"/>
								<line class="st3" x1="290.5" y1="221" x2="290.5" y2="233.8"/>
							</g>
							<g>
								<line class="st3" x1="289.9" y1="47.3" x2="289.9" y2="112.7"/>
								<line class="st3" x1="297.4" y1="76.2" x2="297.4" y2="141.6"/>
								<line class="st3" x1="307.2" y1="28.9" x2="307.2" y2="105.8"/>
								<line class="st3" x1="296.5" y1="50.5" x2="296.5" y2="67.8"/>
								<line class="st3" x1="290.5" y1="121" x2="290.5" y2="133.8"/>
							</g>
						</g>
					</g>
				</g>
			</g>
			<line class="st4" x1="283.6" y1="76.3" x2="312.9" y2="76.3"/>
			<g>
				<polyline class="st0" points="259.6,56 402.6,56 402.6,61.2 402.6,76.9 259.6,76.9 				"/>
				<line class="st3" x1="272.5" y1="61.2" x2="327.7" y2="61.2"/>
				<line class="st3" x1="295.6" y1="66.6" x2="350.8" y2="66.6"/>
				<line class="st3" x1="278.3" y1="71.9" x2="373.5" y2="71.9"/>
				<line class="st5" x1="259.6" y1="76.8" x2="402.6" y2="76.8"/>
				<line class="st5" x1="259.6" y1="56" x2="402.6" y2="56"/>
			</g>
			<g>
				<circle class="st6" cx="297.7" cy="66.7" r="2.8"/>
				<g>
					<line class="st7" x1="296.7" y1="65.7" x2="298.7" y2="67.7"/>
					<line class="st7" x1="298.6" y1="65.7" x2="296.8" y2="67.7"/>
				</g>
			</g>
			<line class="st3" x1="345.6" y1="62.6" x2="360.8" y2="62.6"/>
			<line class="st3" x1="375.6" y1="66.6" x2="400.8" y2="66.6"/>
			<path class="st8" d="M259.6,163h143l-2.4-12.2c-0.3-1.5-1-3-2.3-4.2c-3.8-3.7-8.2-1.4-10.2,0c-0.6,0.5-1.6,0.3-1.9-0.4l-7.6-14.7
				c-2.4-4.6-10.1-4.7-12.7-0.3l-10,16.7c-0.3,0.6-1.3,0.5-1.6,0L351,142c-2.2-4.5-9.7-4.9-12.6-0.7l-6.4,11.9
				c-0.3,0.6-1.4,0.6-1.7,0l-9.7-21.5c-2.4-4.6-10.2-4.7-12.8-0.2l-4.4,7.6c-0.6,1.1-2.4,1.3-3.4,0.4l-3-2.9
				c-3.6-3.5-10.5-2.2-12,2.2l-2,12.9c-0.1,0.6-1.2,0.6-1.2,0l-0.4-5.4c-0.2-3.4-3.9-6.1-8-5.6c-2.3,0.3-4.4,1.5-5.4,3.7L259.6,163z
				"/>
			<path class="st9" d="M398,157.7l0.9-4.8c0.3-1.4,0.3-2.9,0.1-4.3c-0.1-0.7-0.4-1.4-1-2c-3.8-3.7-8.2-1.4-10.2,0
				c-0.6,0.5-1.6,0.3-1.9-0.4l-7.6-14.7c-2.4-4.6-10.1-4.7-12.7-0.3l-10,16.7c-0.4,0.6-1.3,0.6-1.6-0.1l-2.9-5.9
				c-2.2-4.5-9.7-4.9-12.6-0.7l-6.4,11.9c-0.4,0.7-1.4,0.7-1.7-0.1l-9.7-21.5c-2.4-4.6-10.2-4.7-12.8-0.2l-4.4,7.6
				c-0.6,1.1-2.4,1.3-3.4,0.4l-3-2.9c-3.6-3.5-10.5-2.2-12,2.2l-2,12.9c-0.1,0.7-1.1,0.7-1.2-0.1l-0.4-5.4c-0.2-3.4-3.9-6.1-8-5.6
				c-2.3,0.3-4.4,1.5-5.4,3.7l-5.4,12.5"/>
		</g>
	</g>
	<g>
		<g>
			<g>
				<g>
					<path class="st0" d="M168.3,261c-8.6,0-15.6-7-15.6-15.6V55.3c0-8.6,7-15.6,15.6-15.6s15.6,7,15.6,15.6v190.1
						C183.9,254,176.9,261,168.3,261z"/>
					<path class="st1" d="M168.3,40.6c8.1,0,14.6,6.5,14.6,14.6v190.1c0,8.1-6.6,14.6-14.6,14.6s-14.6-6.5-14.6-14.6v-190
						C153.6,47.2,160.2,40.6,168.3,40.6 M168.3,38.6c-9.2,0-16.6,7.5-16.6,16.6v190.1c0,9.2,7.5,16.6,16.6,16.6s16.6-7.5,16.6-16.6
						v-190C184.9,46.1,177.4,38.6,168.3,38.6L168.3,38.6z"/>
				</g>
				<g>
					<g>
						<defs>
							<path id="SVGID_00000039831336799712439270000007515364633426555012_" d="M168.3,260L168.3,260c-8.1,0-14.6-6.5-14.6-14.6
								V55.3c0-8.1,6.6-14.6,14.6-14.6l0,0c8.1,0,14.6,6.5,14.6,14.6v190.1C182.9,253.5,176.4,260,168.3,260z"/>
						</defs>
						<clipPath id="SVGID_00000071536917495743387750000012545798365159329934_">
							<use xlink:href="#SVGID_00000039831336799712439270000007515364633426555012_"  style="overflow:visible;"/>
						</clipPath>
						<g style="clip-path:url(#SVGID_00000071536917495743387750000012545798365159329934_);">
							<g>
								<line class="st3" x1="159.9" y1="247.3" x2="159.9" y2="312.7"/>
								<line class="st3" x1="167.4" y1="276.2" x2="167.4" y2="341.6"/>
								<line class="st3" x1="177.2" y1="228.9" x2="177.2" y2="305.8"/>
								<line class="st3" x1="166.5" y1="250.5" x2="166.5" y2="267.8"/>
								<line class="st3" x1="160.5" y1="321" x2="160.5" y2="333.8"/>
							</g>
							<g>
								<line class="st3" x1="159.9" y1="147.3" x2="159.9" y2="212.7"/>
								<line class="st3" x1="167.4" y1="176.2" x2="167.4" y2="241.6"/>
								<line class="st3" x1="177.2" y1="128.9" x2="177.2" y2="205.8"/>
								<line class="st3" x1="166.5" y1="150.5" x2="166.5" y2="167.8"/>
								<line class="st3" x1="160.5" y1="221" x2="160.5" y2="233.8"/>
							</g>
							<g>
								<line class="st3" x1="159.9" y1="47.3" x2="159.9" y2="112.7"/>
								<line class="st3" x1="167.4" y1="76.2" x2="167.4" y2="141.6"/>
								<line class="st3" x1="177.2" y1="28.9" x2="177.2" y2="105.8"/>
								<line class="st3" x1="166.5" y1="50.5" x2="166.5" y2="67.8"/>
								<line class="st3" x1="160.5" y1="121" x2="160.5" y2="133.8"/>
							</g>
						</g>
					</g>
				</g>
			</g>
			<line class="st4" x1="153.6" y1="76.3" x2="182.9" y2="76.3"/>
			<g>
				<polyline class="st0" points="129.6,56 272.6,56 272.6,61.2 272.6,76.9 129.6,76.9 				"/>
				<line class="st3" x1="142.5" y1="61.2" x2="197.7" y2="61.2"/>
				<line class="st3" x1="165.6" y1="66.6" x2="220.8" y2="66.6"/>
				<line class="st3" x1="148.3" y1="71.9" x2="243.5" y2="71.9"/>
				<line class="st5" x1="129.6" y1="76.8" x2="272.6" y2="76.8"/>
				<line class="st5" x1="129.6" y1="56" x2="272.6" y2="56"/>
			</g>
			<g>
				<circle class="st6" cx="167.7" cy="66.7" r="2.8"/>
				<g>
					<line class="st7" x1="166.7" y1="65.7" x2="168.7" y2="67.7"/>
					<line class="st7" x1="168.6" y1="65.7" x2="166.8" y2="67.7"/>
				</g>
			</g>
			<line class="st3" x1="215.6" y1="62.6" x2="230.8" y2="62.6"/>
			<line class="st3" x1="245.6" y1="66.6" x2="270.8" y2="66.6"/>
			<path class="st8" d="M129.6,163h143l-2.4-12.2c-0.3-1.5-1-3-2.3-4.2c-3.8-3.7-8.2-1.4-10.2,0c-0.6,0.5-1.6,0.3-1.9-0.4l-7.6-14.7
				c-2.4-4.6-10.1-4.7-12.7-0.3l-10,16.7c-0.3,0.6-1.3,0.5-1.6,0L221,142c-2.2-4.5-9.7-4.9-12.6-0.7l-6.4,11.9
				c-0.3,0.6-1.4,0.6-1.7,0l-9.7-21.5c-2.4-4.6-10.2-4.7-12.8-0.2l-4.4,7.6c-0.6,1.1-2.4,1.3-3.4,0.4l-3-2.9
				c-3.6-3.5-10.5-2.2-12,2.2l-2,12.9c-0.1,0.6-1.2,0.6-1.2,0l-0.4-5.4c-0.2-3.4-3.9-6.1-8-5.6c-2.3,0.3-4.4,1.5-5.4,3.7L129.6,163z
				"/>
			<path class="st9" d="M268,157.7l0.9-4.8c0.3-1.4,0.3-2.9,0.1-4.3c-0.1-0.7-0.4-1.4-1-2c-3.8-3.7-8.2-1.4-10.2,0
				c-0.6,0.5-1.6,0.3-1.9-0.4l-7.6-14.7c-2.4-4.6-10.1-4.7-12.7-0.3l-10,16.7c-0.4,0.6-1.3,0.6-1.6-0.1l-2.9-5.9
				c-2.2-4.5-9.7-4.9-12.6-0.7l-6.4,11.9c-0.4,0.7-1.4,0.7-1.7-0.1l-9.7-21.5c-2.4-4.6-10.2-4.7-12.8-0.2l-4.4,7.6
				c-0.6,1.1-2.4,1.3-3.4,0.4l-3-2.9c-3.6-3.5-10.5-2.2-12,2.2l-2,12.9c-0.1,0.7-1.1,0.7-1.2-0.1l-0.4-5.4c-0.2-3.4-3.9-6.1-8-5.6
				c-2.3,0.3-4.4,1.5-5.4,3.7l-5.4,12.5"/>
		</g>
	</g>
	<g>
		<g>
			<g>
				<g>
					<path class="st0" d="M38.3,261c-8.6,0-15.6-7-15.6-15.6V55.3c0-8.6,7-15.6,15.6-15.6s15.6,7,15.6,15.6v190.1
						C53.9,254,46.9,261,38.3,261z"/>
					<path class="st1" d="M38.3,40.6c8.1,0,14.6,6.5,14.6,14.6v190.1c0,8.1-6.5,14.6-14.6,14.6s-14.6-6.5-14.6-14.6v-190
						C23.6,47.2,30.2,40.6,38.3,40.6 M38.3,38.6c-9.2,0-16.6,7.5-16.6,16.6v190.1c0,9.2,7.5,16.6,16.6,16.6s16.6-7.5,16.6-16.6v-190
						C54.9,46.1,47.4,38.6,38.3,38.6L38.3,38.6z"/>
				</g>
				<g>
					<g>
						<defs>
							<path id="SVGID_00000067224170830807167000000012459028489504562332_" d="M38.3,260L38.3,260c-8.1,0-14.6-6.5-14.6-14.6V55.3
								c0-8.1,6.5-14.6,14.6-14.6l0,0c8.1,0,14.6,6.5,14.6,14.6v190.1C52.9,253.5,46.4,260,38.3,260z"/>
						</defs>
						<clipPath id="SVGID_00000034801130101407432460000015870246358612774562_">
							<use xlink:href="#SVGID_00000067224170830807167000000012459028489504562332_"  style="overflow:visible;"/>
						</clipPath>
						<g style="clip-path:url(#SVGID_00000034801130101407432460000015870246358612774562_);">
							<g>
								<line class="st3" x1="29.9" y1="247.3" x2="29.9" y2="312.7"/>
								<line class="st3" x1="37.4" y1="276.2" x2="37.4" y2="341.6"/>
								<line class="st3" x1="47.2" y1="228.9" x2="47.2" y2="305.8"/>
								<line class="st3" x1="36.5" y1="250.5" x2="36.5" y2="267.8"/>
								<line class="st3" x1="30.5" y1="321" x2="30.5" y2="333.8"/>
							</g>
							<g>
								<line class="st3" x1="29.9" y1="147.3" x2="29.9" y2="212.7"/>
								<line class="st3" x1="37.4" y1="176.2" x2="37.4" y2="241.6"/>
								<line class="st3" x1="47.2" y1="128.9" x2="47.2" y2="205.8"/>
								<line class="st3" x1="36.5" y1="150.5" x2="36.5" y2="167.8"/>
								<line class="st3" x1="30.5" y1="221" x2="30.5" y2="233.8"/>
							</g>
							<g>
								<line class="st3" x1="29.9" y1="47.3" x2="29.9" y2="112.7"/>
								<line class="st3" x1="37.4" y1="76.2" x2="37.4" y2="141.6"/>
								<line class="st3" x1="47.2" y1="28.9" x2="47.2" y2="105.8"/>
								<line class="st3" x1="36.5" y1="50.5" x2="36.5" y2="67.8"/>
								<line class="st3" x1="30.5" y1="121" x2="30.5" y2="133.8"/>
							</g>
						</g>
					</g>
				</g>
			</g>
			<line class="st4" x1="23.6" y1="76.3" x2="52.9" y2="76.3"/>
			<g>
				<polyline class="st0" points="-0.4,56 142.6,56 142.6,61.2 142.6,76.9 -0.4,76.9 				"/>
				<line class="st3" x1="12.5" y1="61.2" x2="67.7" y2="61.2"/>
				<line class="st3" x1="35.6" y1="66.6" x2="90.8" y2="66.6"/>
				<line class="st3" x1="18.3" y1="71.9" x2="113.5" y2="71.9"/>
				<line class="st5" x1="-0.4" y1="76.8" x2="142.6" y2="76.8"/>
				<line class="st5" x1="-0.4" y1="56" x2="142.6" y2="56"/>
			</g>
			<g>
				<circle class="st6" cx="37.7" cy="66.7" r="2.8"/>
				<g>
					<line class="st7" x1="36.7" y1="65.7" x2="38.7" y2="67.7"/>
					<line class="st7" x1="38.6" y1="65.7" x2="36.8" y2="67.7"/>
				</g>
			</g>
			<line class="st3" x1="85.6" y1="62.6" x2="100.8" y2="62.6"/>
			<line class="st3" x1="115.6" y1="66.6" x2="140.8" y2="66.6"/>
			<path class="st8" d="M0.6,163h142l-2.4-12.2c-0.3-1.5-1-3-2.3-4.2c-3.8-3.7-8.2-1.4-10.2,0c-0.6,0.5-1.6,0.3-1.9-0.4l-7.6-14.7
				c-2.4-4.6-10.1-4.7-12.7-0.3l-10,16.7c-0.3,0.6-1.3,0.5-1.6,0L91,142c-2.2-4.5-9.7-4.9-12.6-0.7L72,153.2c-0.3,0.6-1.4,0.6-1.7,0
				l-9.7-21.5c-2.4-4.6-10.2-4.7-12.8-0.2l-4.4,7.6c-0.6,1.1-2.4,1.3-3.4,0.4l-3-2.9c-3.6-3.5-10.5-2.2-12,2.2l-2,12.9
				c-0.1,0.6-1.2,0.6-1.2,0l-0.4-5.4c-0.2-3.4-3.9-6.1-8-5.6c-2.3,0.3-4.4,1.5-5.4,3.7L0.6,163z"/>
			<path class="st9" d="M138,157.7l0.9-4.8c0.3-1.4,0.3-2.9,0.1-4.3c-0.1-0.7-0.4-1.4-1-2c-3.8-3.7-8.2-1.4-10.2,0
				c-0.6,0.5-1.6,0.3-1.9-0.4l-7.6-14.7c-2.4-4.6-10.1-4.7-12.7-0.3l-10,16.7c-0.4,0.6-1.3,0.6-1.6-0.1l-2.9-5.9
				c-2.2-4.5-9.7-4.9-12.6-0.7l-6.4,11.9c-0.4,0.7-1.4,0.7-1.7-0.1l-9.7-21.5c-2.4-4.6-10.2-4.7-12.8-0.2l-4.4,7.6
				c-0.6,1.1-2.4,1.3-3.4,0.4l-3-2.9c-3.6-3.5-10.5-2.2-12,2.2l-2,12.9c-0.1,0.7-1.1,0.7-1.2-0.1l-0.4-5.4c-0.2-3.4-3.9-6.1-8-5.6
				c-2.3,0.3-4.4,1.5-5.4,3.7L2.6,157"/>
		</g>
	</g>
</g>
<g>
	<rect y="162.3" class="st15" width="793" height="335.2"/>
</g>
<g>
	<g>
		<g>
			<path class="st16" d="M3.7,360c26.2,0,52.4,0,78.6,0c8.4,0,15.8,6.2,17.2,14.6c1,5.8-0.3,11.2-4.8,15.7
				c-3.1,3.1-6.6,4.8-10.9,5.4c-1.8,0.2-3.6,0.3-5.4,0.3c-24.9,0-49.8,0-74.7,0C3.7,384,3.7,372,3.7,360z"/>
			<path class="st16" d="M439.8,344.1c-9.8,0-19.6,0-29.3,0c-2.7,0-5.1-1.2-7.1-3.4c-1.7-1.9-2.8-4.3-3.3-7.1
				c-1.2-7.1,2.2-14.2,7.5-16c1-0.3,2-0.6,3-0.6c19.6,0,39.1-0.1,58.7,0c6.5,0,11,7,10.5,14.5c-0.4,6-3.4,10.7-8.1,12.2
				c-0.9,0.3-1.8,0.3-2.7,0.3C459.3,344.1,449.6,344.1,439.8,344.1z"/>
			<path class="st16" d="M77.2,339.5c-16.6,0-33.3-0.1-49.9,0c-4.6,0-8.6-1.6-12-4.5c-2.9-2.5-4.7-5.7-5.6-9.5
				c-2.1-9.4,3.7-18.9,12.9-21.3c1.6-0.4,3.3-0.7,5-0.7c33.3,0,66.6-0.1,99.8,0c11.1,0,18.7,9.3,18,19.2
				c-0.6,7.9-5.7,14.2-13.8,16.2c-1.5,0.4-3,0.5-4.5,0.5C110.5,339.5,93.9,339.5,77.2,339.5z"/>
			<path class="st16" d="M311.9,273.1c-16.3,0-32.6,0-48.8,0c-5.6,0-10.5-1.4-14.4-4.6c-2-1.6-3.2-3.5-3.9-5.6
				c-1.4-3.8-0.6-7.5,2.4-10.7c3.6-3.8,8.5-5.9,15-5.9c33.4,0,66.9,0,100.3,0c3.7,0,7,0.8,10,2.3c5.3,2.7,8,6.6,7.8,11.4
				c-0.3,7-7.4,12.2-15.8,12.8c-3,0.2-6,0.2-8.9,0.3C341,273.2,326.5,273.1,311.9,273.1z"/>
			<path class="st16" d="M465.4,241.5c-16.6,0-33.1,0-49.7,0c-5,0-9.2-1.2-12.8-3.9c-1.8-1.4-3.2-2.9-4.2-4.7
				c-3-5.4,0-12.1,5.8-15.3c3.6-2,7.7-2.9,12-2.9c32.8,0,65.7-0.1,98.5,0c8.3,0,14.5,3.1,17.6,8.9c1.4,2.6,1.5,5.4,0.3,8.1
				c-2,4.5-5.9,7.6-12.1,9.1c-1.7,0.4-3.4,0.6-5.1,0.6C499,241.5,482.2,241.5,465.4,241.5z"/>
			<path class="st16" d="M674.9,429.3c-16.7,0-33.4-0.1-50.2,0c-6.6,0-14.4-4.7-16.6-12c-2.1-7-0.9-13.2,4.3-18.5
				c3.6-3.7,8-5.4,13-5.4c33.3-0.1,66.6-0.1,99.9,0c9,0,16.1,5.8,17.6,14.9c1.7,10.4-4.9,18.8-14.2,20.6c-1.2,0.2-2.4,0.4-3.7,0.4
				C708.3,429.3,691.6,429.3,674.9,429.3z"/>
			<path class="st16" d="M348.7,426.6c-16.7,0-33.4-0.1-50.2,0c-6.5,0-14.5-4.7-16.7-12.2c-2-6.9-0.8-13,4.3-18.3
				c3.7-3.7,8.2-5.4,13.2-5.4c33.2-0.1,66.3-0.1,99.5,0c9.1,0,16.3,5.7,17.9,14.9c1.8,10.3-4.8,18.8-14.1,20.6
				c-1.2,0.2-2.4,0.4-3.7,0.4C382.2,426.6,365.4,426.6,348.7,426.6z"/>
			<path class="st16" d="M371.4,182.8c8.2,0,16.5,0,24.7,0c4,0,7.8,0.5,11.2,1.8c9.7,3.6,10,10.8,2.7,14.6c-3.8,2-8.4,2.9-13.6,3
				c-16.6,0-33.3,0.1-49.9,0c-7.8,0-13.7-1.9-17.1-5.8c-3.5-4-0.9-9,5.8-11.6c3.5-1.3,7.3-1.9,11.5-1.9c4.2-0.1,8.3,0,12.5,0
				C363.2,182.8,367.3,182.8,371.4,182.8L371.4,182.8z"/>
			<path class="st16" d="M73.1,268.3c-4.7,0-9.5,0-14.2,0c-3.7,0-7.3-0.5-10.4-2c-5.1-2.5-8.3-5.9-8.6-10.5c-0.3-5,2.2-9,7.8-11.9
				c2.9-1.5,6.2-2.3,9.9-2.3c10.7,0,21.3,0,32,0c8.1,0,15.4,4.6,17.1,10.8c1.8,6.4-3.6,13.8-13.4,15.5c-1.6,0.3-3.3,0.5-5,0.5
				C83.1,268.3,78.1,268.3,73.1,268.3z"/>
			<path class="st16" d="M533.8,259.8c5.3,0,10.5,0,15.8,0c10.1,0,18.5,6.4,17.7,14.5c-0.6,6.1-6.8,11.1-15.1,12
				c-1.7,0.2-3.5,0.3-5.2,0.3c-9.3,0-18.5,0-27.8,0c-3.5,0-6.8-0.5-9.8-1.9c-5.5-2.5-8.7-6.1-9.1-11c-0.4-6.4,5.4-12.3,14.5-13.7
				c1.2-0.2,2.5-0.2,3.7-0.2C523.6,259.8,528.7,259.8,533.8,259.8L533.8,259.8z"/>
			<path class="st16" d="M675.2,228.2c5.4,0,10.8,0,16.2,0c7.6,0,15.3,4.6,17,10.7c1.7,6.4-3.6,13.8-13.3,15.5
				c-1.5,0.3-3.1,0.5-4.7,0.5c-10.2,0-20.4,0.1-30.6,0c-8.9-0.1-16.4-4.7-17.8-11c-1.5-7,3.7-13.4,13.2-15.3
				c1.3-0.3,2.6-0.4,3.9-0.4C664.4,228.2,669.8,228.2,675.2,228.2z"/>
			<path class="st16" d="M755.8,195c5.4,0,10.8,0,16.2,0c7.6,0,15.3,4.6,17,10.7c1.7,6.4-3.6,13.8-13.3,15.5
				c-1.5,0.3-3.1,0.5-4.7,0.5c-10.2,0-20.4,0.1-30.6,0c-8.9-0.1-16.4-4.7-17.8-11c-1.5-7,3.7-13.4,13.2-15.3
				c1.3-0.3,2.6-0.4,3.9-0.4C745,195,750.4,195,755.8,195z"/>
			<path class="st16" d="M177.3,283.9c-5,0-9.9,0-14.9,0c-4,0-7.8-0.8-11.1-2.6c-4.7-2.6-7.3-6.1-7.5-10.5
				c-0.3-6.4,5.5-12.1,14.9-13.5c0.8-0.1,1.7-0.1,2.6-0.1c10.6,0,21.2,0,31.7,0c3.7,0,7,0.8,10,2.3c5.1,2.6,7.6,6.3,7.7,10.7
				c0.1,6.7-5.9,12.1-14.8,13.4c-1.7,0.2-3.5,0.3-5.2,0.3C186.3,283.9,181.8,283.9,177.3,283.9z"/>
			<path class="st16" d="M503.1,427.5c-5,0-10.1,0-15.1,0c-4.6,0.1-8.8-1.4-12.2-4.4c-3.7-3.3-5.8-7.5-6-12.6
				c-0.1-3.9,0.7-7.5,3-10.7c3-4.3,7.1-7,12.4-7.8c1.8-0.3,3.6-0.4,5.4-0.4c9.1,0,18.2-0.1,27.4,0c7.9,0.1,13.9,3.4,17.3,10.8
				c2.4,5.3,2.1,10.7-0.6,15.7c-2.8,5.2-7.3,8.2-13.1,9.3c-0.6,0.1-1.3,0.1-2,0.1C514,427.5,508.6,427.5,503.1,427.5z"/>
			<path class="st16" d="M157.3,408.7c-5.3,0-10.7,0.1-16,0c-8.3-0.1-15-5.4-17.1-13.4c-2.6-10.2,3.5-19.4,13.4-21.9
				c1.6-0.4,3.3-0.6,5-0.6c9.8,0,19.6-0.1,29.3,0.1c7.9,0.1,13.9,3.4,17.3,10.8c2.4,5.3,2.1,10.6-0.7,15.7
				c-2.8,5.2-7.3,8.2-13.1,9.3c-0.6,0.1-1.3,0.1-2,0.1C168.1,408.7,162.7,408.7,157.3,408.7z"/>
			<path class="st16" d="M645.7,195.4c-4.8,0-9.6,0-14.4,0c-4.3,0-8.3-0.5-11.9-2c-3.9-1.5-6.1-3.6-7-6.1c-0.9-2.6,0.3-4.9,3.1-7
				c3.5-2.6,8.2-4,14.3-4c10.6,0,21.2,0,31.7,0c6.2,0,11,1.5,14.6,4.1c4.2,3.1,4,7.9-0.1,10.8c-3.1,2.2-7,3.5-12.1,4
				c-4.3,0.4-8.6,0.1-12.9,0.2C649.2,195.4,647.5,195.4,645.7,195.4z"/>
			<path class="st16" d="M202.2,189.1c5.2,0,10.4,0.1,15.5,0c6.7-0.1,14.6,2.5,16.7,6.4c2.1,3.7,0.9,7-4.4,9.9
				c-3.6,1.9-7.9,2.8-12.8,2.8c-10.2,0.1-20.4,0.1-30.6,0c-8.4-0.1-15.1-2.5-17.6-7c-1.8-3.4-0.3-6.4,4.1-9
				c3.7-2.2,8.4-3.1,13.8-3.1C192.2,189.1,197.2,189.1,202.2,189.1z"/>
			<path class="st16" d="M284.9,480.4c-5.2,0-10.4,0-15.5,0c-9,0-16.2-6.1-17.7-15c-0.9-5.6,0.6-10.8,4.7-15.1
				c3.9-4,8.7-5.8,14.1-5.8c9.9-0.1,19.7-0.1,29.6,0c3.9,0,7.6,1,10.9,3.4c3.8,2.7,6.2,6.3,7.2,10.8c1.8,7.9-2.2,15.3-8.3,19.2
				c-2.5,1.6-5.4,2.5-8.5,2.5C295.9,480.5,290.4,480.4,284.9,480.4z"/>
			<path class="st16" d="M39.7,469.5c-5,0-10.1,0-15.1,0c-9.1,0.1-16.5-5.9-18.1-14.9c-1-5.6,0.5-10.8,4.5-15.1
				c4-4.2,8.9-5.9,14.5-6c9.7,0,19.4-0.1,29.1,0c8.2,0.1,14.3,3.8,17.4,11.5c2.6,6.4,1,13.5-3.5,18.5c-2.8,3.1-6.1,4.9-10.1,5.7
				c-0.8,0.2-1.6,0.2-2.4,0.2C50.6,469.5,45.1,469.5,39.7,469.5z"/>
			<path class="st16" d="M639.9,321.5c-4.5,0-9,0-13.6,0c-3.2,0-6.2-0.4-9.1-1.7c-5.8-2.6-9.2-7.1-10.4-13.3
				c-0.9-5,0.2-9.4,3.1-13.4c3.4-4.8,8.1-7.5,14.1-7.5c10.7-0.1,21.3-0.1,32,0c6.1,0,10.8,2.8,14.5,7.7c4.2,5.6,4,15,0,20.3
				c-3.1,4-7,6.7-12.1,7.5c-3.7,0.6-7.4,0.2-11.1,0.4C644.7,321.6,642.3,321.5,639.9,321.5z"/>
			<path class="st16" d="M108.7,498.8c-2,0-4.1,0-6.1,0c-8.2,0-16.1-6.6-17.5-14.6c-1.1-5.9,0.3-11,4.2-15.4c3.1-3.5,7.1-5.4,11.8-6
				c4.2-0.5,8.3-0.4,12.4-0.3c5.7,0.1,10.9,1.7,14.9,6.1c2.8,3.1,4.4,6.8,4.6,11.1c0.2,4.1-0.7,7.9-3.1,11.2c-3.7,5.1-8.6,7.9-15,8
				C112.8,498.8,110.8,498.8,108.7,498.8z"/>
			<path class="st16" d="M502.9,498.8c-2,0-4.1,0-6.1,0c-8.2,0-16-6.5-17.5-14.6c-1.1-5.9,0.3-11,4.2-15.4c3.1-3.5,7.1-5.4,11.8-5.9
				c4.2-0.5,8.3-0.4,12.4-0.3c5.7,0.1,10.9,1.7,14.9,6.1c2.8,3.1,4.4,6.8,4.6,11.1c0.2,4.1-0.7,7.9-3.1,11.2
				c-3.7,5.1-8.6,7.9-15,7.9C507,498.8,505,498.8,502.9,498.8z"/>
			<path class="st16" d="M178.9,475.6c-2.1,0-4.2,0-6.4,0c-8,0.2-15.2-5.6-17.2-13.5c-2.2-8.5,2.5-17.3,9.8-20.6
				c2.6-1.2,5.3-1.9,8.2-1.8c3.7,0,7.3,0,11,0c6.1,0,11.3,2.4,15,7.2c3.2,4.1,4.4,8.8,3.3,14c-1.6,7.9-6.5,12.6-14.2,14.5
				c-0.7,0.2-1.4,0.2-2.2,0.2C183.9,475.6,181.4,475.6,178.9,475.6L178.9,475.6z"/>
			<path class="st16" d="M573.1,475.6c-2.1,0-4.2,0-6.4,0c-8,0.2-15.2-5.6-17.2-13.5c-2.2-8.5,2.5-17.3,9.8-20.6
				c2.6-1.2,5.3-1.9,8.2-1.9c3.6,0,7.2,0,10.7,0c6.2,0,11.4,2.3,15.3,7.2c3.2,4.1,4.4,8.8,3.4,14c-1.5,7.9-6.5,12.6-14.2,14.5
				c-0.7,0.2-1.4,0.2-2.2,0.2C578.1,475.6,575.6,475.6,573.1,475.6L573.1,475.6z"/>
			<path class="st16" d="M75.8,201.3c-2.1,0-4.2,0-6.3,0c-8.2,0-15.9-3-17.4-7.8c-1.7-5.6,4.7-10.1,14.4-11.1c1.7-0.2,3.3-0.3,5-0.2
				c4.5,0.1,9-0.2,13.5,0.2c7.7,0.7,13.8,4,14.7,8.4c1.1,5.2-5.5,9.7-15.2,10.5C81.7,201.4,78.7,201.2,75.8,201.3
				C75.8,201.2,75.8,201.3,75.8,201.3z"/>
			<path class="st16" d="M755.6,325c-2.9-0.2-5.8,0.1-8.7-0.4c-6.8-1.3-11.5-5-14-11.4c-2.2-5.7-1.5-11.3,1.9-16.2
				c3.3-4.9,8.1-7.8,14.1-7.9c4.3-0.1,8.6,0,12.9,0c8.2-0.2,15.6,5.6,17.6,13.9c2.3,9.7-4.6,20.3-14.8,21.7
				C761.6,325,758.6,324.8,755.6,325z"/>
			<path class="st16" d="M244.8,325c-2.9-0.2-5.8,0.1-8.7-0.4c-6.8-1.3-11.5-5-14-11.4c-2.2-5.7-1.5-11.3,1.9-16.2
				c3.3-4.9,8.1-7.8,14.1-7.9c4.3-0.1,8.6,0,12.9,0c8.2-0.1,15.4,5.5,17.5,13.7c2.5,9.8-4.5,20.5-14.8,21.9
				C250.8,325,247.8,324.8,244.8,325z"/>
			<path class="st16" d="M348.2,348.7c-2.1,0-4.2,0-6.3,0c-7.6,0-15-5.1-17-13.4c-1.5-6.4-0.1-12.2,4.7-17c3.7-3.7,8.2-5.2,13.1-5.4
				c3.9-0.2,7.7-0.2,11.6,0c9.1,0.5,15.8,5.4,17.6,14.4c1.5,7.6-0.6,14.7-9.2,19.4c-2.7,1.5-5.5,2.2-8.6,2.1
				C352.1,348.6,350.1,348.7,348.2,348.7z"/>
			<path class="st16" d="M682.4,365c-2.1,0-4.2,0-6.3,0c-7.6,0-15-5.1-17-13.4c-1.5-6.4-0.2-12.2,4.7-17c3.7-3.7,8.1-5.2,13.1-5.4
				c3.9-0.2,7.7-0.2,11.6,0c9.1,0.5,15.8,5.3,17.6,14.4c1.5,7.6-0.6,14.7-9.2,19.4c-2.7,1.5-5.6,2.3-8.8,2.1
				C686.2,365,684.3,365,682.4,365z"/>
			<path class="st16" d="M559.6,189.1c2.1,0,4.2,0,6.3,0c7.2,0,15.8,3,17.2,7.8c0.9,3.2-0.5,6.1-4.9,8.5c-2.8,1.5-6.2,2.4-10.2,2.7
				c-5.1,0.4-10.2,0.3-15.3,0.2c-8.3-0.2-14.5-3-16.6-6.6c-3-5.1,1.7-10.2,11.2-12c1.7-0.3,3.5-0.5,5.3-0.5
				C555.1,189.1,557.3,189.1,559.6,189.1z"/>
			<path class="st16" d="M577.9,354.7h-38c-6.6,0-12-5.4-12-12l0,0c0-6.6,5.4-12,12-12h38c6.6,0,12,5.4,12,12l0,0
				C589.9,349.3,584.5,354.7,577.9,354.7z"/>
		</g>
	</g>
</g>
<g>
	<g>
		<g>
			<g>
				<g>
					<path class="st8" d="M523.2,498.3h251.2l-6.1-21.2c-0.5-2.7-1.8-5.3-4-7.3c-6.7-6.4-14.2-2.5-17.8,0.1
						c-1.1,0.8-2.8,0.5-3.4-0.6l-13.3-25.6c-4.1-8-17.6-8.3-22.2-0.5l-17.4,29.1c-0.6,1-2.3,0.9-2.8-0.1l-5-10.3
						c-3.8-7.8-16.8-8.6-21.9-1.3l-11.2,20.7c-0.6,1.1-2.5,1-3-0.1l-17-37.4c-4.2-8-17.7-8.2-22.2-0.3l-7.7,13.3
						c-1.1,1.9-4.2,2.3-5.9,0.7l-5.3-5c-6.4-6.1-18.3-3.9-21,3.8l-3.5,22.5c-0.2,1.2-2,1.2-2.1-0.1l-0.6-9.3
						c-0.4-6-6.8-10.7-13.9-9.7c-4,0.5-7.7,2.7-9.4,6.4L523.2,498.3z"/>
					<path class="st9" d="M772.6,492.2l-4.3-16c-0.5-2.7-1.8-5.3-4-7.3c-6.7-6.4-14.2-2.5-17.8,0.1c-1.1,0.8-2.8,0.5-3.4-0.6
						l-13.3-25.6c-4.1-8-17.6-8.3-22.2-0.5l-17.4,29.1c-0.6,1-2.3,0.9-2.8-0.1l-5-10.3c-3.8-7.8-16.8-8.6-21.9-1.3l-11.2,20.7
						c-0.6,1.1-2.5,1-3-0.1l-17-37.4c-4.2-8-17.7-8.2-22.2-0.3l-7.7,13.3c-1.1,1.9-4.2,2.3-5.9,0.7l-5.3-5c-6.4-6.1-18.3-3.9-21,3.8
						l-3.5,22.5c-0.2,1-2,1-2.1-0.1l-0.6-9.4c-0.4-6-6.8-10.7-13.9-9.7c-4,0.5-7.7,2.7-9.4,6.4l-12.6,26.4"/>
					<g>
						<g>
							<path class="st0" d="M618,498.1v-129c0-14.6-11.8-26.4-26.4-26.4c-14.6,0-26.4,11.9-26.4,26.4v129H618z"/>
							<path class="st1" d="M566.2,498.1v-129c0-14,11.4-25.3,25.4-25.3s25.4,11.4,25.4,25.4v128.9h2v-129
								c0-15.1-12.3-27.3-27.4-27.3s-27.4,12.3-27.4,27.4v128.9H566.2z"/>
						</g>
						<g>
							<g>
								<defs>
									<path id="SVGID_00000018226107195852841100000000723957690743893692_" d="M591.6,724L591.6,724c-14,0-25.4-11.4-25.4-25.4
										V369.1c0-14,11.4-25.4,25.4-25.4l0,0c14,0,25.4,11.4,25.4,25.4v329.5C617,712.7,605.6,724,591.6,724z"/>
								</defs>
								<clipPath id="SVGID_00000139993338902318741690000012616565870965502898_">
									<use xlink:href="#SVGID_00000018226107195852841100000000723957690743893692_"  style="overflow:visible;"/>
								</clipPath>
								<g style="clip-path:url(#SVGID_00000139993338902318741690000012616565870965502898_);">
									<g>
										<line class="st18" x1="577.1" y1="355.4" x2="577.1" y2="468.7"/>
										<path class="st18" d="M590.1,405.4c0.2,26.9,0.2,53.9,0,81.4"/>
										<line class="st18" x1="607.1" y1="323.4" x2="607.1" y2="456.7"/>
										<line class="st18" x1="588.5" y1="360.9" x2="588.5" y2="390.8"/>
										<path class="st18" d="M578.1,483c0,1.3,0,2.7,0,4"/>
									</g>
								</g>
							</g>
						</g>
					</g>
					<line class="st4" x1="566.2" y1="405.7" x2="617" y2="405.7"/>
					<g>
						<polyline class="st0" points="524.5,370.5 793,370.5 793,379.5 793,406.6 524.5,406.6 						"/>
						<line class="st18" x1="529.6" y1="377.8" x2="730.1" y2="377.8"/>
						<line class="st18" x1="569.7" y1="388.8" x2="770.3" y2="388.8"/>
						<line class="st18" x1="539.6" y1="399.8" x2="740.2" y2="399.8"/>
						<line class="st5" x1="524.5" y1="406.4" x2="793" y2="406.6"/>
						<line class="st5" x1="524.5" y1="370.5" x2="793" y2="370.5"/>
					</g>
					<g>
						<circle class="st6" cx="590.6" cy="388.9" r="4.9"/>
						<g>
							<line class="st7" x1="588.9" y1="387.2" x2="592.3" y2="390.7"/>
							<line class="st7" x1="592.2" y1="387.2" x2="588.9" y2="390.7"/>
						</g>
					</g>
				</g>
			</g>
			<g>
				<g>
					<path class="st8" d="M261.4,498.3h251.2l-6.1-21.2c-0.5-2.7-1.8-5.3-4-7.3c-6.7-6.4-14.2-2.5-17.8,0.1
						c-1.1,0.8-2.8,0.5-3.4-0.6L468,443.7c-4.1-8-17.6-8.3-22.2-0.5l-17.4,29.1c-0.6,1-2.3,0.9-2.8-0.1l-5-10.3
						c-3.8-7.8-16.8-8.6-21.9-1.3l-11.2,20.7c-0.6,1.1-2.5,1-3-0.1l-17-37.4c-4.2-8-17.7-8.2-22.2-0.3l-7.7,13.3
						c-1.1,1.9-4.2,2.3-5.9,0.7l-5.3-5c-6.4-6.1-18.3-3.9-21,3.8l-3.5,22.5c-0.2,1.2-2,1.2-2.1-0.1l-0.6-9.3
						c-0.4-6-6.8-10.7-13.9-9.7c-4,0.5-7.7,2.7-9.4,6.4L261.4,498.3z"/>
					<path class="st9" d="M510.7,492.2l-4.3-16c-0.5-2.7-1.8-5.3-4-7.3c-6.7-6.4-14.2-2.5-17.8,0.1c-1.1,0.8-2.8,0.5-3.4-0.6
						L468,442.8c-4.1-8-17.6-8.3-22.2-0.5l-17.4,29.1c-0.6,1-2.3,0.9-2.8-0.1l-5-10.3c-3.8-7.8-16.8-8.6-21.9-1.3l-11.2,20.7
						c-0.6,1.1-2.5,1-3-0.1l-17-37.4c-4.2-8-17.7-8.2-22.2-0.3l-7.7,13.3c-1.1,1.9-4.2,2.3-5.9,0.7l-5.3-5c-6.4-6.1-18.3-3.9-21,3.8
						l-3.5,22.5c-0.2,1-2,1-2.1-0.1l-0.6-9.4c-0.4-6-6.8-10.7-13.9-9.7c-4,0.5-7.7,2.7-9.4,6.4l-12.6,26.4"/>
					<g>
						<g>
							<path class="st0" d="M356.1,498.1v-129c0-14.6-11.8-26.4-26.4-26.4s-26.4,11.9-26.4,26.4v129H356.1z"/>
							<path class="st1" d="M304.3,498.1v-129c0-14,11.4-25.3,25.4-25.3c14,0,25.4,11.4,25.4,25.4v128.9h2v-129
								c0-15.1-12.3-27.3-27.4-27.3s-27.4,12.3-27.4,27.4v128.9H304.3z"/>
						</g>
						<g>
							<g>
								<defs>
									<path id="SVGID_00000005964289112598695900000015791420081012520585_" d="M329.7,724L329.7,724c-14,0-25.4-11.4-25.4-25.4
										V369.1c0-14,11.4-25.4,25.4-25.4l0,0c14,0,25.4,11.4,25.4,25.4v329.5C355.1,712.7,343.7,724,329.7,724z"/>
								</defs>
								<clipPath id="SVGID_00000001621466272975853290000000124745449857409439_">
									<use xlink:href="#SVGID_00000005964289112598695900000015791420081012520585_"  style="overflow:visible;"/>
								</clipPath>
								<g style="clip-path:url(#SVGID_00000001621466272975853290000000124745449857409439_);">
									<g>
										<line class="st18" x1="315.2" y1="355.4" x2="315.2" y2="468.7"/>
										<path class="st18" d="M328.2,405.4c0.1,26.9,0.1,53.9,0,81.4"/>
										<line class="st18" x1="345.2" y1="323.4" x2="345.2" y2="456.7"/>
										<line class="st18" x1="326.6" y1="360.9" x2="326.6" y2="390.8"/>
										<path class="st18" d="M316.2,483c0,1.3,0,2.7,0,4"/>
									</g>
								</g>
							</g>
						</g>
					</g>
					<line class="st4" x1="304.3" y1="405.7" x2="355.1" y2="405.7"/>
					<g>
						<polyline class="st0" points="262.7,370.5 530.5,370.5 530.5,379.5 530.5,406.6 262.7,406.6 						"/>
						<line class="st18" x1="267.8" y1="377.8" x2="467.5" y2="377.8"/>
						<line class="st18" x1="307.7" y1="388.8" x2="507.4" y2="388.8"/>
						<line class="st18" x1="277.8" y1="399.8" x2="477.5" y2="399.8"/>
						<line class="st5" x1="262.7" y1="406.4" x2="530.5" y2="406.4"/>
						<line class="st5" x1="262.7" y1="370.5" x2="530.5" y2="370.5"/>
					</g>
					<g>
						<circle class="st6" cx="328.7" cy="388.9" r="4.9"/>
						<g>
							<line class="st7" x1="327" y1="387.2" x2="330.4" y2="390.7"/>
							<line class="st7" x1="330.3" y1="387.2" x2="327" y2="390.7"/>
						</g>
					</g>
				</g>
			</g>
			<g>
				<g>
					<path class="st20" d="M-0.5,498.3h251.2l-6.1-21.2c-0.5-2.7-1.8-5.3-4-7.3c-6.7-6.4-14.2-2.5-17.8,0.1
						c-1.1,0.8-2.8,0.5-3.4-0.6l-13.3-25.6c-4.1-8-17.6-8.3-22.2-0.5l-17.4,29.1c-0.6,1-2.3,0.9-2.8-0.1l-5-10.3
						c-3.8-7.8-16.8-8.6-21.9-1.3l-11.2,20.7c-0.6,1.1-2.5,1-3-0.1l-17-37.4c-4.2-8-17.7-8.2-22.3-0.3l-7.6,13.2
						c-1.1,1.9-4.2,2.3-5.9,0.7l-5.3-5c-6.4-6.1-18.3-3.9-21,3.8l-3.5,22.5c-0.2,1.2-2,1.2-2.1-0.1l-0.6-9.3
						c-0.4-6-6.8-10.7-13.9-9.7c-4,0.5-7.7,2.7-9.4,6.4L-0.5,498.3z"/>
					<path class="st9" d="M248.9,492.2l-4.3-16c-0.5-2.7-1.8-5.3-4-7.3c-6.7-6.4-14.2-2.5-17.8,0.1c-1.1,0.8-2.8,0.5-3.4-0.6
						l-13.3-25.6c-4.1-8-17.6-8.3-22.2-0.5l-17.4,29.1c-0.6,1-2.3,0.9-2.8-0.1l-5-10.3c-3.8-7.8-16.8-8.6-21.9-1.3l-11.2,20.7
						c-0.6,1.1-2.5,1-3-0.1l-17-37.4c-4.2-8-17.7-8.2-22.3-0.3l-7.6,13.3c-1.1,1.9-4.2,2.3-5.9,0.7l-5.3-5c-6.4-6.1-18.3-3.9-21,3.8
						l-3.5,22.5c-0.2,1-2,1-2.1-0.1l-0.6-9.4c-0.4-6-6.8-10.7-13.9-9.7c-4,0.5-7.7,2.7-9.4,6.4L1.5,491.5"/>
					<g>
						<g>
							<path class="st0" d="M94.3,498.1v-129c0-14.6-11.8-26.4-26.4-26.4s-26.4,11.9-26.4,26.4v129H94.3z"/>
							<path class="st1" d="M42.5,498.1v-129c0-14,11.4-25.3,25.4-25.3c14,0,25.4,11.4,25.4,25.4v128.9h2v-129
								c0-15.1-12.3-27.3-27.4-27.3S40.5,354,40.5,369.1v129H42.5z"/>
						</g>
						<g>
							<g>
								<defs>
									<path id="SVGID_00000147901035755696509380000018155045916517287305_" d="M67.9,724L67.9,724c-14,0-25.4-11.4-25.4-25.4
										V369.1c0-14,11.4-25.4,25.4-25.4l0,0c14,0,25.4,11.4,25.4,25.4v329.5C93.3,712.7,81.9,724,67.9,724z"/>
								</defs>
								<clipPath id="SVGID_00000165200491543987055610000001951856322011949970_">
									<use xlink:href="#SVGID_00000147901035755696509380000018155045916517287305_"  style="overflow:visible;"/>
								</clipPath>
								<g style="clip-path:url(#SVGID_00000165200491543987055610000001951856322011949970_);">
									<g>
										<line class="st18" x1="53.4" y1="355.4" x2="53.4" y2="468.7"/>
										<path class="st18" d="M66.4,405.4c-0.1,26.9-0.1,53.9,0,81.4"/>
										<line class="st18" x1="83.4" y1="323.4" x2="83.4" y2="456.7"/>
										<line class="st18" x1="64.8" y1="360.9" x2="64.8" y2="390.8"/>
										<path class="st18" d="M54.4,483c0,1.3,0,2.7,0,4"/>
									</g>
								</g>
							</g>
						</g>
					</g>
					<line class="st4" x1="42.5" y1="405.7" x2="93.3" y2="405.7"/>
					<g>
						<polyline class="st0" points="0,370.5 268.7,370.5 268.7,379.5 268.7,406.6 0,406.6 						"/>
						<line class="st18" x1="5.9" y1="377.8" x2="205.6" y2="377.8"/>
						<line class="st18" x1="45.9" y1="388.8" x2="245.6" y2="388.8"/>
						<line class="st18" x1="15.9" y1="399.8" x2="215.6" y2="399.8"/>
						<line class="st5" x1="-0.2" y1="406.4" x2="268.7" y2="406.4"/>
						<line class="st5" x1="-0.2" y1="370.5" x2="268.7" y2="370.5"/>
					</g>
					<g>
						<circle class="st6" cx="66.9" cy="388.9" r="4.9"/>
						<g>
							<line class="st7" x1="65.2" y1="387.2" x2="68.6" y2="390.7"/>
							<line class="st7" x1="68.5" y1="387.2" x2="65.2" y2="390.7"/>
						</g>
					</g>
				</g>
			</g>
		</g>
	</g>
</g>
</svg>
