<?xml version="1.0" encoding="utf-8"?>
<!-- Generator: Adobe Illustrator 26.2.1, SVG Export Plug-In . SVG Version: 6.00 Build 0)  -->
<svg version="1.1" id="Layer_1" xmlns="http://www.w3.org/2000/svg" xmlns:xlink="http://www.w3.org/1999/xlink" x="0px" y="0px"
	 viewBox="0 0 793 498" style="enable-background:new 0 0 793 498;" xml:space="preserve">
<style type="text/css">
	.st0{fill:#9B5F66;}
	.st1{fill:#4C3035;}
	.st2{clip-path:url(#SVGID_00000046313186179278852250000001508862543964306327_);}
	.st3{fill:none;stroke:#B27D85;stroke-linecap:round;stroke-miterlimit:10;}
	.st4{fill:none;stroke:#7F4F56;stroke-width:10;stroke-miterlimit:10;}
	.st5{fill:none;stroke:#4C3035;stroke-width:2;stroke-miterlimit:10;}
	.st6{fill:#BABA6A;stroke:#665D39;stroke-width:2;stroke-miterlimit:10;}
	.st7{fill:none;stroke:#665D39;stroke-linecap:round;stroke-miterlimit:10;}
	.st8{fill:#FC92B1;}
	.st9{fill:none;stroke:#995B73;stroke-width:2;stroke-linecap:round;stroke-miterlimit:10;}
	.st10{clip-path:url(#SVGID_00000075854608956742547710000016465766999750244005_);}
	.st11{clip-path:url(#SVGID_00000157297940090559995520000010410705640389145788_);}
	.st12{clip-path:url(#SVGID_00000031924128059945816540000013447678421718602906_);}
	.st13{clip-path:url(#SVGID_00000098214020208394919310000008408459312696801685_);}
	.st14{clip-path:url(#SVGID_00000157267555101647955860000005164850353633317558_);}
	.st15{fill:#FDFAEA;}
	.st16{fill:#EFEAD8;}
	.st17{fill:#995B73;}
	.st18{clip-path:url(#SVGID_00000026158464263906232250000011479144132097220274_);}
	.st19{fill:#B27D85;}
	.st20{fill:#7F4F56;}
	.st21{fill:#BABA6A;}
	.st22{fill:#665D39;}
	.st23{clip-path:url(#SVGID_00000137111390979451726410000002896478850657280162_);}
	.st24{clip-path:url(#SVGID_00000114065392073282281730000013606740723375445918_);}
</style>
<path class="st0" d="M688.4,261c-8.6,0-15.6-7-15.6-15.6V55.3c0-8.6,7-15.6,15.6-15.6s15.6,7,15.6,15.6v190.1
	C703.9,254,696.9,261,688.4,261z"/>
<path class="st1" d="M688.4,40.6c8.1,0,14.6,6.5,14.6,14.6v190.1c0,8.1-6.5,14.6-14.6,14.6s-14.6-6.5-14.6-14.6v-190
	C673.7,47.2,680.3,40.6,688.4,40.6 M688.4,38.6c-9.2,0-16.6,7.5-16.6,16.6v190.1c0,9.2,7.5,16.6,16.6,16.6s16.6-7.5,16.6-16.6v-190
	C704.9,46.1,697.4,38.6,688.4,38.6z"/>
<g>
	<defs>
		<path id="SVGID_1_" d="M688.4,260c-8.1,0-14.6-6.5-14.6-14.6V55.3c0-8.1,6.5-14.6,14.6-14.6S703,47.2,703,55.3v190.1
			C702.9,253.5,696.4,260,688.4,260z"/>
	</defs>
	<clipPath id="SVGID_00000045611643627115032040000004485054632848833958_">
		<use xlink:href="#SVGID_1_"  style="overflow:visible;"/>
	</clipPath>
	<g style="clip-path:url(#SVGID_00000045611643627115032040000004485054632848833958_);">
		<path class="st3" d="M680,247.3v65.4 M687.5,276.2v65.4 M697.2,228.9v76.9 M686.6,250.5v17.3 M680.6,321v12.8"/>
		<g>
			<path class="st3" d="M680,147.3v65.4 M687.5,176.2v65.4 M697.2,128.9v76.9 M686.6,150.5v17.3 M680.6,221v12.8"/>
		</g>
		<g>
			<path class="st3" d="M680,47.3v65.4 M687.5,76.2v65.4 M697.2,28.9v76.9 M686.6,50.5v17.3 M680.6,121v12.8"/>
		</g>
	</g>
</g>
<path class="st4" d="M673.7,76.3h29.2"/>
<path class="st0" d="M649.7,56H793v20.9H649.7"/>
<path class="st3" d="M662.6,61.2h55.1 M685.7,66.6h55.1 M668.4,71.9h95.1"/>
<path class="st5" d="M649.7,76.8L793,76.9 M649.7,56H793"/>
<circle class="st6" cx="687.8" cy="66.7" r="2.8"/>
<path class="st7" d="M686.8,65.7l2,2 M688.7,65.7l-1.8,2"/>
<path class="st3" d="M735.6,62.6h15.2 M765.6,66.6h25.2"/>
<path class="st8" d="M649.7,163h138.9l1.6-12.2c-0.3-1.5-1-3-2.3-4.2c-3.8-3.7-8.2-1.4-10.2,0c-0.6,0.5-1.6,0.3-1.9-0.4l-7.6-14.7
	c-2.4-4.6-10.1-4.7-12.7-0.3l-10,16.7c-0.3,0.6-1.3,0.5-1.6,0L741,142c-2.2-4.5-9.7-4.9-12.6-0.7l-6.4,11.9c-0.3,0.6-1.4,0.6-1.7,0
	l-9.7-21.5c-2.4-4.6-10.2-4.7-12.8-0.2l-4.4,7.6c-0.6,1.1-2.4,1.3-3.4,0.4l-3-2.9c-3.6-3.5-10.5-2.2-12,2.2l-2,12.9
	c-0.1,0.6-1.2,0.6-1.2,0l-0.4-5.4c-0.2-3.4-3.9-6.1-8-5.6c-2.3,0.3-4.4,1.5-5.4,3.7L649.7,163L649.7,163z"/>
<path class="st9" d="M788,157.7l0.9-4.8c0.3-1.4,0.3-2.9,0.1-4.3c-0.1-0.7-0.4-1.4-1-2c-3.8-3.7-8.2-1.4-10.2,0
	c-0.6,0.5-1.6,0.3-1.9-0.4l-7.6-14.7c-2.4-4.6-10.1-4.7-12.7-0.3l-10,16.7c-0.4,0.6-1.3,0.6-1.6-0.1l-2.9-5.9
	c-2.2-4.5-9.7-4.9-12.6-0.7l-6.4,11.9c-0.4,0.7-1.4,0.7-1.7-0.1l-9.7-21.5c-2.4-4.6-10.2-4.7-12.8-0.2l-4.4,7.6
	c-0.6,1.1-2.4,1.3-3.4,0.4l-3-2.9c-3.6-3.5-10.5-2.2-12,2.2l-2,12.9c-0.1,0.7-1.1,0.7-1.2-0.1l-0.4-5.4c-0.2-3.4-3.9-6.1-8-5.6
	c-2.3,0.3-4.4,1.5-5.4,3.7l-5.4,12.5"/>
<g>
	<path class="st0" d="M558.4,261c-8.6,0-15.6-7-15.6-15.6V55.3c0-8.6,7-15.6,15.6-15.6s15.6,7,15.6,15.6v190.1
		C574,254,567,261,558.4,261z"/>
	<path class="st1" d="M558.4,40.6c8.1,0,14.6,6.5,14.6,14.6v190.1c0,8.1-6.5,14.6-14.6,14.6s-14.6-6.5-14.6-14.6v-190
		C543.7,47.2,550.3,40.6,558.4,40.6 M558.4,38.6c-9.2,0-16.6,7.5-16.6,16.6v190.1c0,9.2,7.5,16.6,16.6,16.6s16.6-7.5,16.6-16.6v-190
		C575,46.1,567.5,38.6,558.4,38.6z"/>
	<g>
		<defs>
			<path id="SVGID_00000026124337255132068120000008480209400213055927_" d="M558.4,260c-8.1,0-14.6-6.5-14.6-14.6V55.3
				c0-8.1,6.5-14.6,14.6-14.6S573,47.2,573,55.3v190.1C573,253.5,566.5,260,558.4,260z"/>
		</defs>
		<clipPath id="SVGID_00000077285052632784713540000008270216897370444931_">
			<use xlink:href="#SVGID_00000026124337255132068120000008480209400213055927_"  style="overflow:visible;"/>
		</clipPath>
		<g style="clip-path:url(#SVGID_00000077285052632784713540000008270216897370444931_);">
			<path class="st3" d="M550,247.3v65.4 M557.5,276.2v65.4 M567.3,228.9v76.9 M556.6,250.5v17.3 M550.6,321v12.8"/>
			<g>
				<path class="st3" d="M550,147.3v65.4 M557.5,176.2v65.4 M567.3,128.9v76.9 M556.6,150.5v17.3 M550.6,221v12.8"/>
			</g>
			<g>
				<path class="st3" d="M550,47.3v65.4 M557.5,76.2v65.4 M567.3,28.9v76.9 M556.6,50.5v17.3 M550.6,121v12.8"/>
			</g>
		</g>
	</g>
	<path class="st4" d="M543.7,76.3H573"/>
	<path class="st0" d="M519.7,56h143v20.9h-143"/>
	<path class="st3" d="M532.6,61.2h55.2 M555.7,66.6h55.2 M538.4,71.9h95.2"/>
	<path class="st5" d="M519.7,76.8h143 M519.7,56h143"/>
	<g>
		<circle class="st6" cx="557.8" cy="66.7" r="2.8"/>
		<path class="st7" d="M556.8,65.7l2,2 M558.7,65.7l-1.8,2"/>
	</g>
	<path class="st3" d="M605.7,62.6h15.2 M635.7,66.6h25.2"/>
	<path class="st8" d="M519.7,163h142.9l-2.4-12.2c-0.3-1.5-1-3-2.3-4.2c-3.8-3.7-8.2-1.4-10.2,0c-0.6,0.5-1.6,0.3-1.9-0.4l-7.6-14.7
		c-2.4-4.6-10.1-4.7-12.7-0.3l-10,16.7c-0.3,0.6-1.3,0.5-1.6,0L611,142c-2.2-4.5-9.7-4.9-12.6-0.7l-6.4,11.9c-0.3,0.6-1.4,0.6-1.7,0
		l-9.7-21.5c-2.4-4.6-10.2-4.7-12.8-0.2l-4.4,7.6c-0.6,1.1-2.4,1.3-3.4,0.4l-3-2.9c-3.6-3.5-10.5-2.2-12,2.2l-2,12.9
		c-0.1,0.6-1.2,0.6-1.2,0l-0.4-5.4c-0.2-3.4-3.9-6.1-8-5.6c-2.3,0.3-4.4,1.5-5.4,3.7L519.7,163L519.7,163z"/>
	<path class="st9" d="M658.1,157.7l0.9-4.8c0.3-1.4,0.3-2.9,0.1-4.3c-0.1-0.7-0.4-1.4-1-2c-3.8-3.7-8.2-1.4-10.2,0
		c-0.6,0.5-1.6,0.3-1.9-0.4l-7.6-14.7c-2.4-4.6-10.1-4.7-12.7-0.3l-10,16.7c-0.4,0.6-1.3,0.6-1.6-0.1l-2.9-5.9
		c-2.2-4.5-9.7-4.9-12.6-0.7l-6.4,11.9c-0.4,0.7-1.4,0.7-1.7-0.1l-9.7-21.5c-2.4-4.6-10.2-4.7-12.8-0.2l-4.4,7.6
		c-0.6,1.1-2.4,1.3-3.4,0.4l-3-2.9c-3.6-3.5-10.5-2.2-12,2.2l-2,12.9c-0.1,0.7-1.1,0.7-1.2-0.1l-0.4-5.4c-0.2-3.4-3.9-6.1-8-5.6
		c-2.3,0.3-4.4,1.5-5.4,3.7l-5.4,12.5"/>
</g>
<g>
	<path class="st0" d="M428.5,261c-8.6,0-15.6-7-15.6-15.6V55.3c0-8.6,7-15.6,15.6-15.6s15.6,7,15.6,15.6v190.1
		C444.1,254,437.1,261,428.5,261z"/>
	<path class="st1" d="M428.5,40.6c8.1,0,14.6,6.5,14.6,14.6v190.1c0,8.1-6.6,14.6-14.6,14.6s-14.6-6.5-14.6-14.6v-190
		C413.8,47.2,420.4,40.6,428.5,40.6 M428.5,38.6c-9.2,0-16.6,7.5-16.6,16.6v190.1c0,9.2,7.5,16.6,16.6,16.6
		c9.2,0,16.6-7.5,16.6-16.6v-190C445.1,46.1,437.6,38.6,428.5,38.6z"/>
	<g>
		<defs>
			<path id="SVGID_00000100347848286821587980000015617390334984828555_" d="M428.5,260c-8.1,0-14.6-6.5-14.6-14.6V55.3
				c0-8.1,6.5-14.6,14.6-14.6s14.6,6.5,14.6,14.6v190.1C443.1,253.5,436.6,260,428.5,260z"/>
		</defs>
		<clipPath id="SVGID_00000152252560040063675230000017440079775361726127_">
			<use xlink:href="#SVGID_00000100347848286821587980000015617390334984828555_"  style="overflow:visible;"/>
		</clipPath>
		<g style="clip-path:url(#SVGID_00000152252560040063675230000017440079775361726127_);">
			<path class="st3" d="M420.1,247.3v65.4 M427.6,276.2v65.4 M437.4,228.9v76.9 M426.7,250.5v17.3 M420.7,321v12.8"/>
			<g>
				<path class="st3" d="M420.1,147.3v65.4 M427.6,176.2v65.4 M437.4,128.9v76.9 M426.7,150.5v17.3 M420.7,221v12.8"/>
			</g>
			<g>
				<path class="st3" d="M420.1,47.3v65.4 M427.6,76.2v65.4 M437.4,28.9v76.9 M426.7,50.5v17.3 M420.7,121v12.8"/>
			</g>
		</g>
	</g>
	<path class="st4" d="M413.8,76.3h29.3"/>
	<path class="st0" d="M389.8,56h142.9v20.9H389.8"/>
	<path class="st3" d="M402.7,61.2h55.2 M425.8,66.6H481 M408.5,71.9h95.1"/>
	<path class="st5" d="M389.8,76.8h142.9 M389.8,56h142.9"/>
	<g>
		<circle class="st6" cx="427.9" cy="66.7" r="2.8"/>
		<path class="st7" d="M426.9,65.7l2,2 M428.8,65.7l-1.8,2"/>
	</g>
	<path class="st3" d="M475.8,62.6H491 M505.7,66.6h25.2"/>
	<path class="st8" d="M389.8,163h142.9l-2.4-12.2c-0.3-1.5-1-3-2.3-4.2c-3.8-3.7-8.2-1.4-10.2,0c-0.6,0.5-1.6,0.3-1.9-0.4l-7.6-14.7
		c-2.4-4.6-10.1-4.7-12.7-0.3l-10,16.7c-0.3,0.6-1.3,0.5-1.6,0l-2.9-5.9c-2.2-4.5-9.7-4.9-12.6-0.7l-6.4,11.9
		c-0.3,0.6-1.4,0.6-1.7,0l-9.7-21.5c-2.4-4.6-10.2-4.7-12.8-0.2l-4.4,7.6c-0.6,1.1-2.4,1.3-3.4,0.4l-3-2.9c-3.6-3.5-10.5-2.2-12,2.2
		l-2,12.9c-0.1,0.6-1.2,0.6-1.2,0l-0.4-5.4c-0.2-3.4-3.9-6.1-8-5.6c-2.3,0.3-4.4,1.5-5.4,3.7L389.8,163L389.8,163z"/>
	<path class="st9" d="M528.1,157.7l0.9-4.8c0.3-1.4,0.3-2.9,0.1-4.3c-0.1-0.7-0.4-1.4-1-2c-3.8-3.7-8.2-1.4-10.2,0
		c-0.6,0.5-1.6,0.3-1.9-0.4l-7.6-14.7c-2.4-4.6-10.1-4.7-12.7-0.3l-10,16.7c-0.4,0.6-1.3,0.6-1.6-0.1l-2.9-5.9
		c-2.2-4.5-9.7-4.9-12.6-0.7l-6.4,11.9c-0.4,0.7-1.4,0.7-1.7-0.1l-9.7-21.5c-2.4-4.6-10.2-4.7-12.8-0.2l-4.4,7.6
		c-0.6,1.1-2.4,1.3-3.4,0.4l-3-2.9c-3.6-3.5-10.5-2.2-12,2.2l-2,12.9c-0.1,0.7-1.1,0.7-1.2-0.1l-0.4-5.4c-0.2-3.4-3.9-6.1-8-5.6
		c-2.3,0.3-4.4,1.5-5.4,3.7l-5.4,12.5"/>
</g>
<g>
	<path class="st0" d="M298.5,261c-8.6,0-15.6-7-15.6-15.6V55.3c0-8.6,7-15.6,15.6-15.6s15.6,7,15.6,15.6v190.1
		C314.1,254,307.1,261,298.5,261z"/>
	<path class="st1" d="M298.5,40.6c8.1,0,14.6,6.5,14.6,14.6v190.1c0,8.1-6.6,14.6-14.6,14.6s-14.6-6.5-14.6-14.6v-190
		C283.9,47.2,290.5,40.6,298.5,40.6 M298.5,38.6c-9.2,0-16.6,7.5-16.6,16.6v190.1c0,9.2,7.5,16.6,16.6,16.6
		c9.2,0,16.6-7.5,16.6-16.6v-190C315.1,46.1,307.6,38.6,298.5,38.6z"/>
	<g>
		<defs>
			<path id="SVGID_00000064317328077200953700000013589157990170998419_" d="M298.5,260c-8.1,0-14.6-6.5-14.6-14.6V55.3
				c0-8.1,6.5-14.6,14.6-14.6s14.6,6.5,14.6,14.6v190.1C313.1,253.5,306.6,260,298.5,260z"/>
		</defs>
		<clipPath id="SVGID_00000046339232815176067730000010732091219220767403_">
			<use xlink:href="#SVGID_00000064317328077200953700000013589157990170998419_"  style="overflow:visible;"/>
		</clipPath>
		<g style="clip-path:url(#SVGID_00000046339232815176067730000010732091219220767403_);">
			<path class="st3" d="M290.2,247.3v65.4 M297.6,276.2v65.4 M307.4,228.9v76.9 M296.8,250.5v17.3 M290.8,321v12.8"/>
			<g>
				<path class="st3" d="M290.2,147.3v65.4 M297.6,176.2v65.4 M307.4,128.9v76.9 M296.8,150.5v17.3 M290.8,221v12.8"/>
			</g>
			<g>
				<path class="st3" d="M290.2,47.3v65.4 M297.6,76.2v65.4 M307.4,28.9v76.9 M296.8,50.5v17.3 M290.8,121v12.8"/>
			</g>
		</g>
	</g>
	<path class="st4" d="M283.9,76.3h29.2"/>
	<path class="st0" d="M259.9,56h142.9v20.9H259.9"/>
	<path class="st3" d="M272.8,61.2h55.1 M295.9,66.6H351 M278.6,71.9h95.1"/>
	<path class="st5" d="M259.9,76.8h142.9 M259.9,56h142.9"/>
	<g>
		<circle class="st6" cx="297.9" cy="66.7" r="2.8"/>
		<path class="st7" d="M297,65.7l1.9,2 M298.8,65.7l-1.7,2"/>
	</g>
	<path class="st3" d="M345.8,62.6H361 M375.8,66.6H401"/>
	<path class="st8" d="M259.9,163h142.9l-2.4-12.2c-0.3-1.5-1-3-2.3-4.2c-3.8-3.7-8.2-1.4-10.2,0c-0.6,0.5-1.6,0.3-1.9-0.4l-7.6-14.7
		c-2.4-4.6-10.1-4.7-12.7-0.3l-10,16.7c-0.3,0.6-1.3,0.5-1.6,0l-2.9-5.9c-2.2-4.5-9.7-4.9-12.6-0.7l-6.4,11.9
		c-0.3,0.6-1.4,0.6-1.7,0l-9.7-21.5c-2.4-4.6-10.2-4.7-12.8-0.2l-4.4,7.6c-0.6,1.1-2.4,1.3-3.4,0.4l-3-2.9c-3.6-3.5-10.5-2.2-12,2.2
		l-2,12.9c-0.1,0.6-1.2,0.6-1.2,0l-0.4-5.4c-0.2-3.4-3.9-6.1-8-5.6c-2.3,0.3-4.4,1.5-5.4,3.7L259.9,163L259.9,163z"/>
	<path class="st9" d="M398.2,157.7l0.9-4.8c0.3-1.4,0.3-2.9,0.1-4.3c-0.1-0.7-0.4-1.4-1-2c-3.8-3.7-8.2-1.4-10.2,0
		c-0.6,0.5-1.6,0.3-1.9-0.4l-7.6-14.7c-2.4-4.6-10.1-4.7-12.7-0.3l-10,16.7c-0.4,0.6-1.3,0.6-1.6-0.1l-2.9-5.9
		c-2.2-4.5-9.7-4.9-12.6-0.7l-6.4,11.9c-0.4,0.7-1.4,0.7-1.7-0.1l-9.7-21.5c-2.4-4.6-10.2-4.7-12.8-0.2l-4.4,7.6
		c-0.6,1.1-2.4,1.3-3.4,0.4l-3-2.9c-3.6-3.5-10.5-2.2-12,2.2l-2,12.9c-0.1,0.7-1.1,0.7-1.2-0.1l-0.4-5.4c-0.2-3.4-3.9-6.1-8-5.6
		c-2.3,0.3-4.4,1.5-5.4,3.7l-5.4,12.5"/>
</g>
<g>
	<path class="st0" d="M168.6,261c-8.6,0-15.6-7-15.6-15.6V55.3c0-8.6,7-15.6,15.6-15.6s15.6,7,15.6,15.6v190.1
		C184.2,254,177.2,261,168.6,261z"/>
	<path class="st1" d="M168.6,40.6c8.1,0,14.6,6.5,14.6,14.6v190.1c0,8.1-6.6,14.6-14.6,14.6s-14.6-6.5-14.6-14.6v-190
		C153.9,47.2,160.5,40.6,168.6,40.6 M168.6,38.6c-9.2,0-16.6,7.5-16.6,16.6v190.1c0,9.2,7.5,16.6,16.6,16.6s16.6-7.5,16.6-16.6v-190
		C185.2,46.1,177.7,38.6,168.6,38.6z"/>
	<g>
		<defs>
			<path id="SVGID_00000118361340770338369840000011316324589964442807_" d="M168.6,260c-8.1,0-14.6-6.5-14.6-14.6V55.3
				c0-8.1,6.6-14.6,14.6-14.6c8.1,0,14.6,6.5,14.6,14.6v190.1C183.2,253.5,176.7,260,168.6,260z"/>
		</defs>
		<clipPath id="SVGID_00000016046606721787150480000014552962276940870042_">
			<use xlink:href="#SVGID_00000118361340770338369840000011316324589964442807_"  style="overflow:visible;"/>
		</clipPath>
		<g style="clip-path:url(#SVGID_00000016046606721787150480000014552962276940870042_);">
			<path class="st3" d="M160.2,247.3v65.4 M167.7,276.2v65.4 M177.5,228.9v76.9 M166.8,250.5v17.3 M160.8,321v12.8"/>
			<g>
				<path class="st3" d="M160.2,147.3v65.4 M167.7,176.2v65.4 M177.5,128.9v76.9 M166.8,150.5v17.3 M160.8,221v12.8"/>
			</g>
			<g>
				<path class="st3" d="M160.2,47.3v65.4 M167.7,76.2v65.4 M177.5,28.9v76.9 M166.8,50.5v17.3 M160.8,121v12.8"/>
			</g>
		</g>
	</g>
	<path class="st4" d="M153.9,76.3h29.3"/>
	<path class="st0" d="M129.9,56h143v20.9h-143"/>
	<path class="st3" d="M142.8,61.2H198 M165.9,66.6h55.2 M148.6,71.9h95.2"/>
	<path class="st5" d="M129.9,76.8h143 M129.9,56h143"/>
	<g>
		<circle class="st6" cx="168" cy="66.7" r="2.8"/>
		<path class="st7" d="M167,65.7l2,2 M168.9,65.7l-1.8,2"/>
	</g>
	<path class="st3" d="M215.9,62.6h15.2 M245.9,66.6h25.2"/>
	<path class="st8" d="M129.9,163h142.9l-2.4-12.2c-0.3-1.5-1-3-2.3-4.2c-3.8-3.7-8.2-1.4-10.2,0c-0.6,0.5-1.6,0.3-1.9-0.4l-7.6-14.7
		c-2.4-4.6-10.1-4.7-12.7-0.3l-10,16.7c-0.3,0.6-1.3,0.5-1.6,0l-2.9-5.9c-2.2-4.5-9.7-4.9-12.6-0.7l-6.4,11.9
		c-0.3,0.6-1.4,0.6-1.7,0l-9.7-21.5c-2.4-4.6-10.2-4.7-12.8-0.2l-4.4,7.6c-0.6,1.1-2.4,1.3-3.4,0.4l-3-2.9c-3.6-3.5-10.5-2.2-12,2.2
		l-2,12.9c-0.1,0.6-1.2,0.6-1.2,0l-0.4-5.4c-0.2-3.4-3.9-6.1-8-5.6c-2.3,0.3-4.4,1.5-5.4,3.7L129.9,163L129.9,163z"/>
	<path class="st9" d="M268.3,157.7l0.9-4.8c0.3-1.4,0.3-2.9,0.1-4.3c-0.1-0.7-0.4-1.4-1-2c-3.8-3.7-8.2-1.4-10.2,0
		c-0.6,0.5-1.6,0.3-1.9-0.4l-7.6-14.7c-2.4-4.6-10.1-4.7-12.7-0.3l-10,16.7c-0.4,0.6-1.3,0.6-1.6-0.1l-2.9-5.9
		c-2.2-4.5-9.7-4.9-12.6-0.7l-6.4,11.9c-0.4,0.7-1.4,0.7-1.7-0.1l-9.7-21.5c-2.4-4.6-10.2-4.7-12.8-0.2l-4.4,7.6
		c-0.6,1.1-2.4,1.3-3.4,0.4l-3-2.9c-3.6-3.5-10.5-2.2-12,2.2l-2,12.9c-0.1,0.7-1.1,0.7-1.2-0.1l-0.4-5.4c-0.2-3.4-3.9-6.1-8-5.6
		c-2.3,0.3-4.4,1.5-5.4,3.7l-5.4,12.5"/>
</g>
<g>
	<path class="st0" d="M38.7,261c-8.6,0-15.6-7-15.6-15.6V55.3c0-8.6,7-15.6,15.6-15.6s15.6,7,15.6,15.6v190.1
		C54.3,254,47.3,261,38.7,261z"/>
	<path class="st1" d="M38.7,40.6c8.1,0,14.6,6.5,14.6,14.6v190.1c0,8.1-6.5,14.6-14.6,14.6s-14.6-6.5-14.6-14.6v-190
		C24,47.2,30.6,40.6,38.7,40.6 M38.7,38.6c-9.2,0-16.6,7.5-16.6,16.6v190.1c0,9.2,7.5,16.6,16.6,16.6s16.6-7.5,16.6-16.6v-190
		C55.3,46.1,47.8,38.6,38.7,38.6z"/>
	<g>
		<defs>
			<path id="SVGID_00000121975442122526184950000010953959821316875140_" d="M38.7,260c-8.1,0-14.6-6.5-14.6-14.6V55.3
				c0-8.1,6.5-14.6,14.6-14.6s14.6,6.5,14.6,14.6v190.1C53.3,253.5,46.8,260,38.7,260z"/>
		</defs>
		<clipPath id="SVGID_00000079443686222489363650000004833415686233499276_">
			<use xlink:href="#SVGID_00000121975442122526184950000010953959821316875140_"  style="overflow:visible;"/>
		</clipPath>
		<g style="clip-path:url(#SVGID_00000079443686222489363650000004833415686233499276_);">
			<path class="st3" d="M30.3,247.3v65.4 M37.8,276.2v65.4 M47.6,228.9v76.9 M36.9,250.5v17.3 M30.9,321v12.8"/>
			<g>
				<path class="st3" d="M30.3,147.3v65.4 M37.8,176.2v65.4 M47.6,128.9v76.9 M36.9,150.5v17.3 M30.9,221v12.8"/>
			</g>
			<g>
				<path class="st3" d="M30.3,47.3v65.4 M37.8,76.2v65.4 M47.6,28.9v76.9 M36.9,50.5v17.3 M30.9,121v12.8"/>
			</g>
		</g>
	</g>
	<path class="st4" d="M24,76.3h29.3"/>
	<path class="st0" d="M0,56h142.9v20.9H0"/>
	<path class="st3" d="M12.9,61.2h55.2 M36,66.6h55.2 M18.7,71.9h95.1"/>
	<path class="st5" d="M0,76.8h142.9 M0,56h142.9"/>
	<g>
		<circle class="st6" cx="38.1" cy="66.7" r="2.8"/>
		<path class="st7" d="M37.1,65.7l2,2 M39,65.7l-1.8,2"/>
	</g>
	<path class="st3" d="M86,62.6h15.1 M115.9,66.6h25.2"/>
	<path class="st8" d="M1,163h141.9l-2.4-12.2c-0.3-1.5-1-3-2.3-4.2c-3.8-3.7-8.2-1.4-10.2,0c-0.6,0.5-1.6,0.3-1.9-0.4l-7.6-14.7
		c-2.4-4.6-10.1-4.7-12.7-0.3l-10,16.7c-0.3,0.6-1.3,0.5-1.6,0l-2.9-5.9c-2.2-4.5-9.7-4.9-12.6-0.7l-6.4,11.9
		c-0.3,0.6-1.4,0.6-1.7,0L61,131.7c-2.4-4.6-10.2-4.7-12.8-0.2l-4.4,7.6c-0.6,1.1-2.4,1.3-3.4,0.4l-3-2.9c-3.6-3.5-10.5-2.2-12,2.2
		l-2,12.9c-0.1,0.6-1.2,0.6-1.2,0l-0.4-5.4c-0.2-3.4-3.9-6.1-8-5.6c-2.3,0.3-4.4,1.5-5.4,3.7L1,163z"/>
	<path class="st9" d="M138.3,157.7l0.9-4.8c0.3-1.4,0.3-2.9,0.1-4.3c-0.1-0.7-0.4-1.4-1-2c-3.8-3.7-8.2-1.4-10.2,0
		c-0.6,0.5-1.6,0.3-1.9-0.4l-7.6-14.7c-2.4-4.6-10.1-4.7-12.7-0.3l-10,16.7c-0.4,0.6-1.3,0.6-1.6-0.1l-2.9-5.9
		c-2.2-4.5-9.7-4.9-12.6-0.7l-6.4,11.9c-0.4,0.7-1.4,0.7-1.7-0.1L61,131.5c-2.4-4.6-10.2-4.7-12.8-0.2l-4.4,7.6
		c-0.6,1.1-2.4,1.3-3.4,0.4l-3-2.9c-3.6-3.5-10.5-2.2-12,2.2l-2,12.9c-0.1,0.7-1.1,0.7-1.2-0.1l-0.4-5.4c-0.2-3.4-3.9-6.1-8-5.6
		c-2.3,0.3-4.4,1.5-5.4,3.7L3,157"/>
</g>
<path class="st15" d="M0,163h793v335H0V163z"/>
<g>
	<path class="st16" d="M3.6,359h78.6c8.4,0,15.8,6.2,17.2,14.6c1,5.8-0.3,11.2-4.8,15.7c-3.1,3.1-6.6,4.8-10.9,5.4
		c-1.8,0.2-3.6,0.3-5.4,0.3H3.6V359z M439.7,343.1h-29.3c-2.7,0-5.1-1.2-7.1-3.4c-1.7-1.9-2.8-4.3-3.3-7.1c-1.2-7.1,2.2-14.2,7.5-16
		c1-0.3,2-0.6,3-0.6c19.6,0,39.1-0.1,58.7,0c6.5,0,11,7,10.5,14.5c-0.4,6-3.4,10.7-8.1,12.2c-0.9,0.3-1.8,0.3-2.7,0.3
		C459.2,343.1,449.5,343.1,439.7,343.1z M77,338.5c-16.6,0-33.3-0.1-49.9,0c-4.6,0-8.6-1.6-12-4.5c-2.9-2.5-4.7-5.7-5.6-9.5
		c-2.1-9.4,3.7-18.9,12.9-21.3c1.6-0.4,3.3-0.7,5-0.7c33.3,0,66.6-0.1,99.8,0c11.1,0,18.7,9.3,18,19.2c-0.6,7.9-5.7,14.2-13.8,16.2
		c-1.5,0.4-3,0.5-4.5,0.5C110.3,338.5,93.7,338.5,77,338.5L77,338.5z M311.8,272.2H263c-5.6,0-10.5-1.4-14.4-4.6
		c-2-1.6-3.2-3.5-3.9-5.6c-1.4-3.8-0.6-7.5,2.4-10.7c3.6-3.8,8.5-5.9,15-5.9h100.3c3.7,0,7,0.8,10,2.3c5.3,2.7,8,6.6,7.8,11.4
		c-0.3,7-7.4,12.2-15.8,12.8c-3,0.2-6,0.2-8.9,0.3C340.9,272.3,326.4,272.2,311.8,272.2L311.8,272.2z M465.2,240.6h-49.7
		c-5,0-9.2-1.2-12.8-3.9c-1.8-1.4-3.2-2.9-4.2-4.7c-3-5.4,0-12.1,5.8-15.3c3.6-2,7.7-2.9,12-2.9c32.8,0,65.7-0.1,98.5,0
		c8.3,0,14.5,3.1,17.6,8.9c1.4,2.6,1.5,5.4,0.3,8.1c-2,4.5-5.9,7.6-12.1,9.1c-1.7,0.4-3.4,0.6-5.1,0.6
		C498.8,240.6,482,240.6,465.2,240.6L465.2,240.6z M674.8,428.3c-16.7,0-33.4-0.1-50.2,0c-6.6,0-14.4-4.7-16.6-12
		c-2.1-7-0.9-13.2,4.3-18.5c3.6-3.7,8-5.4,13-5.4c33.3-0.1,66.6-0.1,99.9,0c9,0,16.1,5.8,17.6,14.9c1.7,10.4-4.9,18.8-14.2,20.6
		c-1.2,0.2-2.4,0.4-3.7,0.4H674.8z M348.6,425.6c-16.7,0-33.4-0.1-50.2,0c-6.5,0-14.5-4.7-16.7-12.2c-2-6.9-0.8-13,4.3-18.3
		c3.7-3.7,8.2-5.4,13.2-5.4c33.2-0.1,66.3-0.1,99.5,0c9.1,0,16.3,5.7,17.9,14.9c1.8,10.3-4.8,18.8-14.1,20.6
		c-1.2,0.2-2.4,0.4-3.7,0.4H348.6L348.6,425.6z M371.3,181.9H396c4,0,7.8,0.5,11.2,1.8c9.7,3.6,10,10.8,2.7,14.6
		c-3.8,2-8.4,2.9-13.6,3c-16.6,0-33.3,0.1-49.9,0c-7.8,0-13.7-1.9-17.1-5.8c-3.5-4-0.9-9,5.8-11.6c3.5-1.3,7.3-1.9,11.5-1.9
		c4.2-0.1,8.3,0,12.5,0C363.1,181.9,367.2,181.9,371.3,181.9L371.3,181.9z M72.9,267.4H58.7c-3.7,0-7.3-0.5-10.4-2
		c-5.1-2.5-8.3-5.9-8.6-10.5c-0.3-5,2.2-9,7.8-11.9c2.9-1.5,6.2-2.3,9.9-2.3h32c8.1,0,15.4,4.6,17.1,10.8
		c1.8,6.4-3.6,13.8-13.4,15.5c-1.6,0.3-3.3,0.5-5,0.5C82.9,267.4,77.9,267.4,72.9,267.4z M533.6,258.9h15.8
		c10.1,0,18.5,6.4,17.7,14.5c-0.6,6.1-6.8,11.1-15.1,12c-1.7,0.2-3.5,0.3-5.2,0.3H519c-3.5,0-6.8-0.5-9.8-1.9
		c-5.5-2.5-8.7-6.1-9.1-11c-0.4-6.4,5.4-12.3,14.5-13.7c1.2-0.2,2.5-0.2,3.7-0.2L533.6,258.9L533.6,258.9z M675.1,227.3h16.2
		c7.6,0,15.3,4.6,17,10.7c1.7,6.4-3.6,13.8-13.3,15.5c-1.5,0.3-3.1,0.5-4.7,0.5c-10.2,0-20.4,0.1-30.6,0c-8.9-0.1-16.4-4.7-17.8-11
		c-1.5-7,3.7-13.4,13.2-15.3c1.3-0.3,2.6-0.4,3.9-0.4H675.1L675.1,227.3z M755.7,194.1h16.2c7.6,0,15.3,4.6,17,10.7
		c1.7,6.4-3.6,13.8-13.3,15.5c-1.5,0.3-3.1,0.5-4.7,0.5c-10.2,0-20.4,0.1-30.6,0c-8.9-0.1-16.4-4.7-17.8-11
		c-1.5-7,3.7-13.4,13.2-15.3c1.3-0.3,2.6-0.4,3.9-0.4H755.7L755.7,194.1z M177.1,283h-14.9c-4,0-7.8-0.8-11.1-2.6
		c-4.7-2.6-7.3-6.1-7.5-10.5c-0.3-6.4,5.5-12.1,14.9-13.5c0.8-0.1,1.7-0.1,2.6-0.1h31.7c3.7,0,7,0.8,10,2.3
		c5.1,2.6,7.6,6.3,7.7,10.7c0.1,6.7-5.9,12.1-14.8,13.4c-1.7,0.2-3.5,0.3-5.2,0.3L177.1,283L177.1,283z M502.9,426.5h-15.1
		c-4.6,0.1-8.8-1.4-12.2-4.4c-3.7-3.3-5.8-7.5-6-12.6c-0.1-3.9,0.7-7.5,3-10.7c3-4.3,7.1-7,12.4-7.8c1.8-0.3,3.6-0.4,5.4-0.4
		c9.1,0,18.2-0.1,27.4,0c7.9,0.1,13.9,3.4,17.3,10.8c2.4,5.3,2.1,10.7-0.6,15.7c-2.8,5.2-7.3,8.2-13.1,9.3c-0.6,0.1-1.3,0.1-2,0.1
		H502.9L502.9,426.5z M157.1,407.7c-5.3,0-10.7,0.1-16,0c-8.3-0.1-15-5.4-17.1-13.4c-2.6-10.2,3.5-19.4,13.4-21.9
		c1.6-0.4,3.3-0.6,5-0.6c9.8,0,19.6-0.1,29.3,0.1c7.9,0.1,13.9,3.4,17.3,10.8c2.4,5.3,2.1,10.6-0.7,15.7c-2.8,5.2-7.3,8.2-13.1,9.3
		c-0.6,0.1-1.3,0.1-2,0.1C167.9,407.7,162.5,407.7,157.1,407.7z M645.6,194.5h-14.4c-4.3,0-8.3-0.5-11.9-2c-3.9-1.5-6.1-3.6-7-6.1
		c-0.9-2.6,0.3-4.9,3.1-7c3.5-2.6,8.2-4,14.3-4h31.7c6.2,0,11,1.5,14.6,4.1c4.2,3.1,4,7.9-0.1,10.8c-3.1,2.2-7,3.5-12.1,4
		c-4.3,0.4-8.6,0.1-12.9,0.2H645.6L645.6,194.5z M202.1,188.2c5.2,0,10.4,0.1,15.5,0c6.7-0.1,14.6,2.5,16.7,6.4
		c2.1,3.7,0.9,7-4.4,9.9c-3.6,1.9-7.9,2.8-12.8,2.8c-10.2,0.1-20.4,0.1-30.6,0c-8.4-0.1-15.1-2.5-17.6-7c-1.8-3.4-0.3-6.4,4.1-9
		c3.7-2.2,8.4-3.1,13.8-3.1L202.1,188.2L202.1,188.2z M284.8,479.5h-15.5c-9,0-16.2-6.1-17.7-15c-0.9-5.6,0.6-10.8,4.7-15.1
		c3.9-4,8.7-5.8,14.1-5.8c9.9-0.1,19.7-0.1,29.6,0c3.9,0,7.6,1,10.9,3.4c3.8,2.7,6.2,6.3,7.2,10.8c1.8,7.9-2.2,15.3-8.3,19.2
		c-2.5,1.6-5.4,2.5-8.5,2.5C295.8,479.6,290.3,479.5,284.8,479.5L284.8,479.5z M39.6,468.6H24.5c-9.1,0.1-16.5-5.9-18.1-14.9
		c-1-5.6,0.5-10.8,4.5-15.1c4-4.2,8.9-5.9,14.5-6c9.7,0,19.4-0.1,29.1,0c8.2,0.1,14.3,3.8,17.4,11.5c2.6,6.4,1,13.5-3.5,18.5
		c-2.8,3.1-6.1,4.9-10.1,5.7c-0.8,0.2-1.6,0.2-2.4,0.2C50.5,468.6,45,468.6,39.6,468.6L39.6,468.6z M639.8,320.5h-13.6
		c-3.2,0-6.2-0.4-9.1-1.7c-5.8-2.6-9.2-7.1-10.4-13.3c-0.9-5,0.2-9.4,3.1-13.4c3.4-4.8,8.1-7.5,14.1-7.5c10.7-0.1,21.3-0.1,32,0
		c6.1,0,10.8,2.8,14.5,7.7c4.2,5.6,4,15,0,20.3c-3.1,4-7,6.7-12.1,7.5c-3.7,0.6-7.4,0.2-11.1,0.4
		C644.6,320.6,642.2,320.5,639.8,320.5z M108.5,497.9h-6.1c-8.2,0-16.1-6.6-17.5-14.6c-1.1-5.9,0.3-11,4.2-15.4
		c3.1-3.5,7.1-5.4,11.8-6c4.2-0.5,8.3-0.4,12.4-0.3c5.7,0.1,10.9,1.7,14.9,6.1c2.8,3.1,4.4,6.8,4.6,11.1c0.2,4.1-0.7,7.9-3.1,11.2
		c-3.7,5.1-8.6,7.9-15,8C112.6,497.9,110.6,497.9,108.5,497.9L108.5,497.9z M502.7,497.9h-6.1c-8.2,0-16-6.5-17.5-14.6
		c-1.1-5.9,0.3-11,4.2-15.4c3.1-3.5,7.1-5.4,11.8-5.9c4.2-0.5,8.3-0.4,12.4-0.3c5.7,0.1,10.9,1.7,14.9,6.1c2.8,3.1,4.4,6.8,4.6,11.1
		c0.2,4.1-0.7,7.9-3.1,11.2c-3.7,5.1-8.6,7.9-15,7.9C506.8,497.9,504.8,497.9,502.7,497.9L502.7,497.9z M178.7,474.7h-6.4
		c-8,0.2-15.2-5.6-17.2-13.5c-2.2-8.5,2.5-17.3,9.8-20.6c2.6-1.2,5.3-1.9,8.2-1.8h11c6.1,0,11.3,2.4,15,7.2c3.2,4.1,4.4,8.8,3.3,14
		c-1.6,7.9-6.5,12.6-14.2,14.5c-0.7,0.2-1.4,0.2-2.2,0.2L178.7,474.7L178.7,474.7z M572.9,474.7h-6.4c-8,0.2-15.2-5.6-17.2-13.5
		c-2.2-8.5,2.5-17.3,9.8-20.6c2.6-1.2,5.3-1.9,8.2-1.9H578c6.2,0,11.4,2.3,15.3,7.2c3.2,4.1,4.4,8.8,3.4,14
		c-1.5,7.9-6.5,12.6-14.2,14.5c-0.7,0.2-1.4,0.2-2.2,0.2C577.9,474.7,575.4,474.7,572.9,474.7L572.9,474.7z M75.6,200.4h-6.3
		c-8.2,0-15.9-3-17.4-7.8c-1.7-5.6,4.7-10.1,14.4-11.1c1.7-0.2,3.3-0.3,5-0.2c4.5,0.1,9-0.2,13.5,0.2c7.7,0.7,13.8,4,14.7,8.4
		c1.1,5.2-5.5,9.7-15.2,10.5C81.5,200.5,78.5,200.3,75.6,200.4C75.6,200.3,75.6,200.4,75.6,200.4L75.6,200.4z M755.5,324
		c-2.9-0.2-5.8,0.1-8.7-0.4c-6.8-1.3-11.5-5-14-11.4c-2.2-5.7-1.5-11.3,1.9-16.2c3.3-4.9,8.1-7.8,14.1-7.9c4.3-0.1,8.6,0,12.9,0
		c8.2-0.2,15.6,5.6,17.6,13.9c2.3,9.7-4.6,20.3-14.8,21.7C761.5,324,758.5,323.8,755.5,324z M244.7,324c-2.9-0.2-5.8,0.1-8.7-0.4
		c-6.8-1.3-11.5-5-14-11.4c-2.2-5.7-1.5-11.3,1.9-16.2c3.3-4.9,8.1-7.8,14.1-7.9c4.3-0.1,8.6,0,12.9,0c8.2-0.1,15.4,5.5,17.5,13.7
		c2.5,9.8-4.5,20.5-14.8,21.9C250.7,324,247.7,323.8,244.7,324z M348.1,347.7h-6.3c-7.6,0-15-5.1-17-13.4c-1.5-6.4-0.1-12.2,4.7-17
		c3.7-3.7,8.2-5.2,13.1-5.4c3.9-0.2,7.7-0.2,11.6,0c9.1,0.5,15.8,5.4,17.6,14.4c1.5,7.6-0.6,14.7-9.2,19.4c-2.7,1.5-5.5,2.2-8.6,2.1
		C352,347.6,350,347.7,348.1,347.7L348.1,347.7z M682.3,364H676c-7.6,0-15-5.1-17-13.4c-1.5-6.4-0.2-12.2,4.7-17
		c3.7-3.7,8.1-5.2,13.1-5.4c3.9-0.2,7.7-0.2,11.6,0c9.1,0.5,15.8,5.3,17.6,14.4c1.5,7.6-0.6,14.7-9.2,19.4c-2.7,1.5-5.6,2.3-8.8,2.1
		C686.1,364,684.2,364,682.3,364L682.3,364z M559.4,188.2h6.3c7.2,0,15.8,3,17.2,7.8c0.9,3.2-0.5,6.1-4.9,8.5
		c-2.8,1.5-6.2,2.4-10.2,2.7c-5.1,0.4-10.2,0.3-15.3,0.2c-8.3-0.2-14.5-3-16.6-6.6c-3-5.1,1.7-10.2,11.2-12c1.7-0.3,3.5-0.5,5.3-0.5
		C554.9,188.2,557.1,188.2,559.4,188.2L559.4,188.2z M577.7,353.7h-38c-6.6,0-12-5.4-12-12s5.4-12,12-12h38c6.6,0,12,5.4,12,12
		S584.3,353.7,577.7,353.7z"/>
</g>
<g>
	<path class="st8" d="M523.5,498h250.9l-6.1-21.1c-0.5-2.7-1.8-5.3-4-7.3c-6.7-6.4-14.2-2.5-17.8,0.1c-1.1,0.8-2.8,0.5-3.4-0.6
		l-13.3-25.4c-4.1-7.9-17.6-8.2-22.2-0.5l-17.4,28.9c-0.6,1-2.3,0.9-2.8-0.1l-5-10.2c-3.8-7.8-16.8-8.5-21.9-1.3l-11.2,20.6
		c-0.6,1.1-2.5,1-3-0.1l-17-37.2c-4.2-7.9-17.7-8.1-22.2-0.3l-7.7,13.2c-1.1,1.9-4.2,2.3-5.9,0.7l-5.3-5c-6.4-6.1-18.3-3.9-21,3.8
		l-3.5,22.4c-0.2,1.2-2,1.2-2.1-0.1l-0.6-9.2c-0.4-6-6.8-10.6-13.9-9.6c-4,0.5-7.7,2.7-9.4,6.4L523.5,498z"/>
	<path class="st17" d="M772.6,492.9c-0.4,0-0.8-0.3-1-0.7l-4.3-15.9c-0.5-2.7-1.8-5-3.7-6.8c-6.1-5.8-13-2.4-16.5,0.2
		c-0.8,0.6-1.8,0.8-2.8,0.6c-0.9-0.2-1.6-0.7-2.1-1.5L729,443.3c-1.7-3.3-5.5-5.5-9.9-5.6c-4.5-0.2-8.5,1.8-10.5,5.1l-17.4,28.9
		c-0.5,0.8-1.3,1.2-2.3,1.2s-1.8-0.6-2.2-1.3l-5-10.2c-1.6-3.2-5.1-5.4-9.3-5.7c-4.4-0.3-8.5,1.4-10.8,4.5l-11.2,20.5
		c-0.5,0.8-1.4,1.3-2.4,1.3c-1.1,0-2-0.6-2.3-1.5l-17-37.2c-1.7-3.3-5.6-5.4-10-5.5c-4.5,0-8.4,1.9-10.4,5.3l-7.7,13.2
		c-0.7,1.1-1.9,1.9-3.3,2.1c-1.5,0.2-3.1-0.2-4.1-1.2l-5.3-5c-2.9-2.8-7.4-3.9-11.7-2.8c-3.7,0.9-6.5,3.2-7.6,6.1l-3.5,22.3
		c-0.2,1-1.1,1.6-2.2,1.6c-1-0.1-1.8-0.8-1.9-1.7l-0.6-9.4c-0.2-2.4-1.4-4.6-3.4-6.2c-2.5-2-5.9-2.9-9.3-2.5c-4,0.5-7.2,2.7-8.6,5.8
		l-12.6,26.2c-0.2,0.5-0.8,0.7-1.3,0.5s-0.7-0.8-0.5-1.3l12.6-26.2c1.7-3.8,5.5-6.3,10.2-6.9c3.9-0.6,7.9,0.5,10.8,2.9
		c2.5,2,4,4.7,4.2,7.7l0.6,9.2h0.1l3.5-22.4c1.3-3.7,4.7-6.5,9-7.5c5-1.2,10.2,0.1,13.6,3.3l5.3,5c0.6,0.6,1.5,0.8,2.4,0.7
		c0.8-0.1,1.5-0.6,1.9-1.2l7.7-13.2c2.3-4,7-6.3,12.1-6.3c5.2,0.1,9.7,2.6,11.8,6.6l17,37.2c0.1,0.2,0.3,0.3,0.6,0.3
		c0.2,0,0.5-0.1,0.6-0.3l11.2-20.7c2.6-3.7,7.4-5.8,12.6-5.4c5,0.4,9.1,2.9,11,6.8l5,10.2c0.1,0.1,0.3,0.2,0.5,0.2s0.4,0,0.5-0.2
		l17.4-28.9c2.3-3.9,7-6.3,12.3-6.1c5.1,0.2,9.6,2.7,11.6,6.7l13.3,25.4c0.1,0.2,0.4,0.4,0.7,0.5c0.4,0.1,0.9,0,1.2-0.2
		c9.8-7,16.6-2.4,19.1,0c2.2,2,3.7,4.7,4.3,7.8l4.3,15.8c0.1,0.5-0.2,1.1-0.7,1.2C772.8,492.9,772.7,492.9,772.6,492.9L772.6,492.9z
		"/>
	<path class="st0" d="M618.2,497.8V369.5c0-14.5-11.8-26.2-26.4-26.2c-14.6,0-26.4,11.8-26.4,26.2v128.3H618.2L618.2,497.8z"/>
	<path class="st1" d="M566.5,497.8V369.5c0-13.9,11.4-25.1,25.4-25.1s25.4,11.3,25.4,25.2v128.2h2V369.5c0-15-12.3-27.1-27.4-27.1
		s-27.4,12.2-27.4,27.2v128.2H566.5z"/>
	<g>
		<defs>
			<path id="SVGID_00000141437947230214439280000012983170542326894746_" d="M566.5,487.1V369.5c0-13.9,11.4-25.2,25.4-25.2
				s25.4,11.3,25.4,25.2v117.6"/>
		</defs>
		<clipPath id="SVGID_00000069370498572698395860000018004579587508679064_">
			<use xlink:href="#SVGID_00000141437947230214439280000012983170542326894746_"  style="overflow:visible;"/>
		</clipPath>
		<g style="clip-path:url(#SVGID_00000069370498572698395860000018004579587508679064_);">
			<path class="st19" d="M577.3,469.6c-0.6,0-1-0.4-1-1V355.9c0-0.6,0.4-1,1-1s1,0.4,1,1v112.7C578.3,469.1,577.9,469.6,577.3,469.6
				L577.3,469.6z M590.3,487.6c-0.6,0-1-0.5-1-1c0.2-27.5,0.2-54,0-81c0-0.6,0.4-1,1-1s1,0.4,1,1c0.2,27,0.2,53.5,0,81
				C591.3,487.1,590.9,487.6,590.3,487.6z M607.3,457.7c-0.6,0-1-0.4-1-1V324.1c0-0.6,0.4-1,1-1s1,0.4,1,1v132.6
				C608.3,457.2,607.8,457.7,607.3,457.7z M588.7,392.1c-0.6,0-1-0.4-1-1v-29.7c0-0.6,0.4-1,1-1s1,0.4,1,1v29.7
				C589.7,391.6,589.3,392.1,588.7,392.1z M578.3,487.8c-0.6,0-1-0.4-1-1v-4c0-0.6,0.4-1,1-1s1,0.4,1,1v4
				C579.3,487.3,578.9,487.8,578.3,487.8z"/>
		</g>
	</g>
	<g>
		<path class="st20" d="M566.5,400.9h50.7v10h-50.7V400.9z"/>
	</g>
	<g>
		<path class="st0" d="M524.8,370.9H793v36H524.8"/>
		<path class="st19" d="M730.2,379.2H529.9c-0.6,0-1-0.4-1-1s0.4-1,1-1h200.3c0.6,0,1,0.4,1,1S730.8,379.2,730.2,379.2z
			 M770.3,390.1H570c-0.6,0-1-0.4-1-1s0.4-1,1-1h200.4c0.6,0,1,0.4,1,1S770.9,390.1,770.3,390.1L770.3,390.1z M740.3,401H539.9
			c-0.6,0-1-0.4-1-1s0.4-1,1-1h200.4c0.6,0,1,0.4,1,1S740.8,401,740.3,401L740.3,401z"/>
		<path class="st1" d="M524.8,405.8H793v2H524.8V405.8z M524.8,369.9H793v2H524.8V369.9z"/>
	</g>
	<g>
		<circle class="st21" cx="590.8" cy="389.2" r="4.9"/>
		<path class="st22" d="M590.8,395.1c-3.3,0-5.9-2.6-5.9-5.9s2.6-5.9,5.9-5.9s5.9,2.6,5.9,5.9S594.1,395.1,590.8,395.1z
			 M590.8,385.3c-2.1,0-3.9,1.7-3.9,3.9s1.7,3.9,3.9,3.9c2.1,0,3.9-1.7,3.9-3.9S593,385.3,590.8,385.3z"/>
		<g>
			<path class="st22" d="M592.5,391.5c-0.1,0-0.3-0.1-0.4-0.2l-3.4-3.5c-0.2-0.2-0.2-0.5,0-0.7s0.5-0.2,0.7,0l3.4,3.5
				c0.2,0.2,0.2,0.5,0,0.7C592.8,391.4,592.6,391.5,592.5,391.5z"/>
			<path class="st22" d="M589.1,391.5c-0.1,0-0.2,0-0.3-0.1c-0.2-0.2-0.2-0.5,0-0.7l3.3-3.5c0.2-0.2,0.5-0.2,0.7,0s0.2,0.5,0,0.7
				l-3.3,3.5C589.4,391.4,589.3,391.5,589.1,391.5z"/>
		</g>
	</g>
	<g>
		<path class="st8" d="M261.9,498h250.9l-6.1-21.1c-0.5-2.7-1.8-5.3-4-7.3c-6.7-6.4-14.2-2.5-17.8,0.1c-1.1,0.8-2.8,0.5-3.4-0.6
			l-13.3-25.4c-4.1-7.9-17.6-8.2-22.2-0.5l-17.4,28.9c-0.6,1-2.3,0.9-2.8-0.1l-5-10.2c-3.8-7.8-16.8-8.5-21.9-1.3l-11.2,20.6
			c-0.6,1.1-2.5,1-3-0.1l-17-37.2c-4.2-7.9-17.7-8.1-22.2-0.3l-7.7,13.2c-1.1,1.9-4.2,2.3-5.9,0.7l-5.3-5c-6.4-6.1-18.3-3.9-21,3.8
			l-3.5,22.4c-0.2,1.2-2,1.2-2.1-0.1l-0.6-9.2c-0.4-6-6.8-10.6-13.9-9.6c-4,0.5-7.7,2.7-9.4,6.4L261.9,498z"/>
		<path class="st17" d="M511,492.9c-0.4,0-0.8-0.3-1-0.7l-4.3-15.9c-0.5-2.7-1.8-5-3.7-6.8c-6.1-5.8-13-2.4-16.5,0.2
			c-0.8,0.6-1.8,0.8-2.8,0.6c-0.9-0.2-1.6-0.7-2.1-1.5l-13.3-25.5c-1.7-3.3-5.5-5.5-9.9-5.6c-4.5-0.2-8.5,1.8-10.5,5.1l-17.4,28.9
			c-0.5,0.8-1.3,1.2-2.3,1.2s-1.8-0.6-2.2-1.3l-5-10.2c-1.6-3.2-5.1-5.4-9.3-5.7c-4.4-0.3-8.5,1.4-10.8,4.5l-11.2,20.5
			c-0.5,0.8-1.4,1.3-2.4,1.3c-1.1,0-2-0.6-2.3-1.5l-17-37.2c-1.7-3.3-5.6-5.4-10-5.5h-0.2c-4.4,0-8.2,2-10.1,5.3l-7.7,13.2
			c-0.7,1.1-1.9,1.9-3.3,2.1c-1.5,0.2-3.1-0.2-4.1-1.2l-5.3-5c-2.9-2.8-7.4-3.9-11.7-2.8c-3.7,0.9-6.5,3.2-7.6,6.1l-3.5,22.3
			c-0.2,1-1.1,1.6-2.2,1.6c-1-0.1-1.8-0.8-1.9-1.7l-0.6-9.4c-0.2-2.4-1.4-4.6-3.4-6.2c-2.5-2-5.9-2.9-9.3-2.5
			c-4,0.5-7.2,2.7-8.6,5.8l-12.6,26.2c-0.2,0.5-0.8,0.7-1.3,0.5s-0.7-0.8-0.5-1.3l12.6-26.2c1.7-3.8,5.5-6.3,10.2-6.9
			c3.9-0.6,7.9,0.5,10.8,2.9c2.5,2,4,4.7,4.2,7.7l0.6,9.2h0.1L305,455c1.3-3.7,4.7-6.5,9-7.5c5-1.2,10.2,0.1,13.6,3.3l5.3,5
			c0.6,0.6,1.5,0.8,2.4,0.7c0.8-0.1,1.5-0.6,1.9-1.2l7.7-13.2c2.3-4,6.9-6.3,12.1-6.3c5.2,0.1,9.7,2.6,11.8,6.6l17,37.2
			c0.1,0.2,0.3,0.3,0.6,0.3c0.2,0,0.5-0.1,0.6-0.2l11.2-20.7c2.6-3.7,7.4-5.8,12.6-5.4c5,0.4,9.1,2.9,11,6.8l5,10.2
			c0.1,0.1,0.3,0.2,0.5,0.2s0.4,0,0.5-0.2l17.4-28.9c2.3-3.9,7.1-6.3,12.3-6.1c5.1,0.2,9.6,2.7,11.6,6.7l13.3,25.4
			c0.1,0.2,0.4,0.4,0.7,0.5c0.4,0.1,0.9,0,1.2-0.2c9.8-7,16.6-2.4,19.1,0c2.2,2,3.7,4.7,4.3,7.8l4.3,15.8c0.1,0.5-0.2,1.1-0.7,1.2
			C511.2,492.9,511.1,492.9,511,492.9L511,492.9z"/>
		<path class="st0" d="M356.6,497.8V369.5c0-14.5-11.8-26.2-26.4-26.2s-26.4,11.8-26.4,26.2v128.3H356.6z"/>
		<path class="st1" d="M304.9,497.8V369.5c0-13.9,11.4-25.1,25.4-25.1s25.4,11.3,25.4,25.2v128.2h2V369.5c0-15-12.3-27.1-27.4-27.1
			s-27.4,12.2-27.4,27.2v128.2H304.9z"/>
		<g>
			<defs>
				<path id="SVGID_00000057141624965597730580000014285209483415494298_" d="M304.9,487.1V369.5c0-13.9,11.4-25.2,25.4-25.2
					s25.4,11.3,25.4,25.2v117.6"/>
			</defs>
			<clipPath id="SVGID_00000093159443817138317620000017215993281705039243_">
				<use xlink:href="#SVGID_00000057141624965597730580000014285209483415494298_"  style="overflow:visible;"/>
			</clipPath>
			<g style="clip-path:url(#SVGID_00000093159443817138317620000017215993281705039243_);">
				<path class="st19" d="M315.8,469.6c-0.6,0-1-0.4-1-1V355.9c0-0.6,0.4-1,1-1s1,0.4,1,1v112.7
					C316.8,469.1,316.3,469.6,315.8,469.6L315.8,469.6z M328.7,487.6c-0.6,0-1-0.5-1-1c0.1-27.5,0.1-54,0-81c0-0.6,0.4-1,1-1
					s1,0.4,1,1c0.1,27,0.1,53.5,0,81C329.7,487.1,329.3,487.6,328.7,487.6z M345.7,457.7c-0.6,0-1-0.4-1-1V324.1c0-0.6,0.4-1,1-1
					s1,0.4,1,1v132.6C346.7,457.2,346.3,457.7,345.7,457.7z M327.1,392.1c-0.6,0-1-0.4-1-1v-29.7c0-0.6,0.4-1,1-1s1,0.4,1,1v29.7
					C328.1,391.6,327.7,392.1,327.1,392.1z M316.7,487.8c-0.6,0-1-0.4-1-1v-4c0-0.6,0.4-1,1-1s1,0.4,1,1v4
					C317.8,487.3,317.3,487.8,316.7,487.8z"/>
			</g>
		</g>
		<g>
			<path class="st20" d="M304.9,400.9h50.7v10h-50.7V400.9z"/>
		</g>
		<g>
			<path class="st0" d="M263.2,370.9h267.6v36H263.2"/>
			<path class="st19" d="M467.8,379.2H268.3c-0.6,0-1-0.4-1-1s0.4-1,1-1h199.5c0.6,0,1,0.4,1,1S468.4,379.2,467.8,379.2z
				 M507.7,390.1H308.3c-0.6,0-1-0.4-1-1s0.4-1,1-1h199.5c0.6,0,1,0.4,1,1S508.3,390.1,507.7,390.1L507.7,390.1z M477.8,401H278.3
				c-0.6,0-1-0.4-1-1s0.4-1,1-1h199.5c0.6,0,1,0.4,1,1S478.4,401,477.8,401z"/>
			<path class="st1" d="M263.2,405.7h267.6v2H263.2V405.7z M263.2,369.9h267.6v2H263.2V369.9z"/>
		</g>
		<g>
			<circle class="st21" cx="329.2" cy="389.2" r="4.9"/>
			<path class="st22" d="M329.2,395.1c-3.3,0-5.9-2.6-5.9-5.9s2.6-5.9,5.9-5.9s5.9,2.6,5.9,5.9S332.5,395.1,329.2,395.1z
				 M329.2,385.3c-2.1,0-3.9,1.7-3.9,3.9s1.7,3.9,3.9,3.9c2.1,0,3.9-1.7,3.9-3.9S331.4,385.3,329.2,385.3z"/>
			<g>
				<path class="st22" d="M330.9,391.5c-0.1,0-0.3-0.1-0.4-0.2l-3.4-3.5c-0.2-0.2-0.2-0.5,0-0.7s0.5-0.2,0.7,0l3.4,3.5
					c0.2,0.2,0.2,0.5,0,0.7C331.2,391.4,331.1,391.5,330.9,391.5L330.9,391.5z"/>
				<path class="st22" d="M327.5,391.5c-0.1,0-0.2,0-0.3-0.1c-0.2-0.2-0.2-0.5,0-0.7l3.3-3.5c0.2-0.2,0.5-0.2,0.7,0s0.2,0.5,0,0.7
					l-3.3,3.5C327.8,391.4,327.7,391.5,327.5,391.5L327.5,391.5z"/>
			</g>
		</g>
	</g>
	<g>
		<path class="st8" d="M0.3,498h250.9l-6.1-21.1c-0.5-2.7-1.8-5.3-4-7.3c-6.7-6.4-14.2-2.5-17.8,0.1c-1.1,0.8-2.8,0.5-3.4-0.6
			l-13.3-25.4c-4.1-7.9-17.6-8.2-22.2-0.5L167,472.1c-0.6,1-2.3,0.9-2.8-0.1l-5-10.2c-3.8-7.8-16.8-8.5-21.9-1.3l-11.2,20.6
			c-0.6,1.1-2.5,1-3-0.1l-17-37.2c-4.2-7.9-17.7-8.1-22.3-0.3l-7.6,13.1c-1.1,1.9-4.2,2.3-5.9,0.7l-5.3-5c-6.4-6.1-18.3-3.9-21,3.8
			l-3.5,22.4c-0.2,1.2-2,1.2-2.1-0.1l-0.6-9.2c-0.4-6-6.8-10.6-13.9-9.6c-4,0.5-7.7,2.7-9.4,6.4L0.3,498z"/>
		<path class="st17" d="M249.5,492.9c-0.4,0-0.8-0.3-1-0.7l-4.3-15.9c-0.5-2.7-1.8-5-3.7-6.8c-6.1-5.8-13-2.4-16.5,0.2
			c-0.8,0.6-1.8,0.8-2.8,0.6c-0.9-0.2-1.6-0.7-2.1-1.5l-13.3-25.5c-1.7-3.3-5.5-5.5-9.9-5.6c-4.5-0.2-8.5,1.8-10.5,5.1l-17.4,29
			c-0.5,0.8-1.3,1.2-2.3,1.2s-1.8-0.6-2.2-1.3l-5-10.2c-1.6-3.2-5.1-5.4-9.3-5.7c-4.4-0.3-8.5,1.4-10.8,4.5l-11.2,20.5
			c-0.5,0.8-1.4,1.3-2.4,1.3c-1.1,0-2-0.6-2.3-1.5l-17-37.2c-1.7-3.3-5.6-5.4-10-5.5c-4.5-0.1-8.6,1.9-10.5,5.3l-7.6,13.2
			c-0.7,1.1-1.9,1.9-3.3,2.1c-1.5,0.2-3.1-0.2-4.1-1.2l-5.3-5c-2.9-2.8-7.4-3.9-11.7-2.8c-3.7,0.9-6.5,3.2-7.6,6.1l-3.5,22.3
			c-0.2,1-1.1,1.6-2.2,1.6c-1-0.1-1.8-0.8-1.9-1.7l-0.6-9.4c-0.2-2.4-1.4-4.6-3.4-6.2c-2.5-2-5.9-2.9-9.3-2.5
			c-4,0.5-7.2,2.7-8.6,5.8L3.2,491.7c-0.2,0.5-0.8,0.7-1.3,0.5s-0.7-0.8-0.5-1.3L14,464.6c1.7-3.8,5.5-6.3,10.2-6.9
			c3.9-0.6,7.9,0.5,10.8,2.9c2.5,2,4,4.7,4.2,7.7l0.6,9.2h0.1l3.5-22.4c1.3-3.7,4.7-6.5,9-7.5c5-1.2,10.2,0.1,13.6,3.3l5.3,5
			c0.6,0.6,1.5,0.8,2.4,0.7c0.8-0.1,1.5-0.6,1.9-1.2l7.6-13.2c2.3-4,7.1-6.4,12.3-6.3c5.1,0.1,9.6,2.6,11.7,6.6l17,37.2
			c0.1,0.2,0.3,0.3,0.6,0.3c0.2,0,0.5-0.1,0.6-0.2l11.2-20.7c2.6-3.7,7.4-5.8,12.6-5.4c5,0.4,9.1,2.9,11,6.8l5,10.2
			c0.1,0.1,0.3,0.2,0.5,0.2s0.4,0,0.5-0.2l17.4-28.9c2.3-3.9,7-6.3,12.3-6.1c5.1,0.2,9.6,2.7,11.6,6.7l13.3,25.4
			c0.1,0.2,0.4,0.4,0.7,0.5c0.4,0.1,0.9,0,1.2-0.2c9.8-7,16.6-2.4,19.1,0c2.2,2,3.7,4.7,4.3,7.8l4.3,15.8c0.1,0.5-0.2,1.1-0.7,1.2
			H249.5L249.5,492.9z"/>
		<path class="st0" d="M95,497.8V369.5c0-14.5-11.8-26.2-26.4-26.2s-26.4,11.8-26.4,26.2v128.3H95z"/>
		<path class="st1" d="M43.3,497.8V369.5c0-13.9,11.4-25.1,25.4-25.1s25.4,11.3,25.4,25.2v128.2h2V369.5c0-15-12.3-27.1-27.4-27.1
			s-27.4,12.1-27.4,27.1v128.3C41.3,497.8,43.3,497.8,43.3,497.8z"/>
		<g>
			<defs>
				<path id="SVGID_00000167378475702418514060000016218767308155075770_" d="M43.3,497.1V369.5c0-13.9,11.4-25.2,25.4-25.2
					s25.4,11.3,25.4,25.2v127.6"/>
			</defs>
			<clipPath id="SVGID_00000067231371690750783630000000797562381172038052_">
				<use xlink:href="#SVGID_00000167378475702418514060000016218767308155075770_"  style="overflow:visible;"/>
			</clipPath>
			<g style="clip-path:url(#SVGID_00000067231371690750783630000000797562381172038052_);">
				<path class="st19" d="M54.2,469.6c-0.6,0-1-0.4-1-1V355.9c0-0.6,0.4-1,1-1s1,0.4,1,1v112.7C55.2,469.1,54.7,469.6,54.2,469.6
					L54.2,469.6z M67.1,487.6c-0.6,0-1-0.4-1-1c-0.1-27.5-0.1-54,0-81c0-0.6,0.5-1,1-1c0.6,0,1,0.5,1,1c-0.1,27-0.1,53.5,0,81
					C68.1,487.1,67.7,487.6,67.1,487.6z M84.1,457.7c-0.6,0-1-0.4-1-1V324.1c0-0.6,0.4-1,1-1s1,0.4,1,1v132.6
					C85.1,457.2,84.7,457.7,84.1,457.7z M65.5,392.1c-0.6,0-1-0.4-1-1v-29.7c0-0.6,0.4-1,1-1s1,0.4,1,1v29.7
					C66.5,391.6,66.1,392.1,65.5,392.1z M55.2,487.8c-0.6,0-1-0.4-1-1v-4c0-0.6,0.4-1,1-1s1,0.4,1,1v4
					C56.2,487.3,55.7,487.8,55.2,487.8z"/>
			</g>
		</g>
		<g>
			<path class="st20" d="M43.3,400.9H94v10H43.3V400.9z"/>
		</g>
		<g>
			<path class="st0" d="M0,370.9h268.4v36H0"/>
			<path class="st19" d="M206.2,379.2H6.7c-0.6,0-1-0.4-1-1s0.4-1,1-1h199.5c0.6,0,1,0.4,1,1S206.8,379.2,206.2,379.2z M246.2,390.1
				H46.7c-0.6,0-1-0.4-1-1s0.4-1,1-1h199.5c0.6,0,1,0.4,1,1S246.7,390.1,246.2,390.1z M216.2,401H16.7c-0.6,0-1-0.4-1-1s0.4-1,1-1
				h199.5c0.6,0,1,0.4,1,1S216.8,401,216.2,401z"/>
			<path class="st1" d="M0,405.7h268.6v2H0V405.7z M0,369.9h268.6v2H0V369.9z"/>
		</g>
		<g>
			<circle class="st21" cx="67.6" cy="389.2" r="4.9"/>
			<path class="st22" d="M67.6,395.1c-3.3,0-5.9-2.6-5.9-5.9s2.6-5.9,5.9-5.9s5.9,2.6,5.9,5.9S70.9,395.1,67.6,395.1z M67.6,385.3
				c-2.1,0-3.9,1.7-3.9,3.9s1.7,3.9,3.9,3.9c2.1,0,3.9-1.7,3.9-3.9S69.8,385.3,67.6,385.3z"/>
			<g>
				<path class="st22" d="M69.3,391.5c-0.1,0-0.3-0.1-0.4-0.2l-3.4-3.5c-0.2-0.2-0.2-0.5,0-0.7s0.5-0.2,0.7,0l3.4,3.5
					c0.2,0.2,0.2,0.5,0,0.7C69.6,391.4,69.5,391.5,69.3,391.5z"/>
				<path class="st22" d="M65.9,391.5c-0.1,0-0.2,0-0.3-0.1c-0.2-0.2-0.2-0.5,0-0.7l3.3-3.5c0.2-0.2,0.5-0.2,0.7,0s0.2,0.5,0,0.7
					l-3.3,3.5C66.2,391.4,66.1,391.5,65.9,391.5z"/>
			</g>
		</g>
	</g>
</g>
</svg>
