<?xml version="1.0" encoding="utf-8"?>
<!-- Generator: Adobe Illustrator 26.2.1, SVG Export Plug-In . SVG Version: 6.00 Build 0)  -->
<svg version="1.1" id="Layer_1" xmlns="http://www.w3.org/2000/svg" xmlns:xlink="http://www.w3.org/1999/xlink" x="0px" y="0px"
	 viewBox="0 0 770 498" style="enable-background:new 0 0 770 498;" xml:space="preserve">
<style type="text/css">
	.st0{fill:#9B5F66;}
	.st1{fill:#4C3035;}
	.st2{clip-path:url(#SVGID_00000042705179466774639720000016606211198376518834_);}
	.st3{fill:none;stroke:#B27D85;stroke-linecap:round;stroke-miterlimit:10;}
	.st4{fill:none;stroke:#7F4F56;stroke-width:10;stroke-miterlimit:10;}
	.st5{fill:none;stroke:#4C3035;stroke-width:2;stroke-miterlimit:10;}
	.st6{fill:#BABA6A;stroke:#665D39;stroke-width:2;stroke-miterlimit:10;}
	.st7{fill:none;stroke:#665D39;stroke-linecap:round;stroke-miterlimit:10;}
	.st8{fill:#FC92B1;}
	.st9{fill:none;stroke:#995B73;stroke-width:2;stroke-linecap:round;stroke-miterlimit:10;}
	.st10{clip-path:url(#SVGID_00000085224042582579697750000015475757862578368659_);}
	.st11{clip-path:url(#SVGID_00000148652434263625296930000004195761079021285276_);}
	.st12{clip-path:url(#SVGID_00000102530348541149364390000009557105218241904305_);}
	.st13{clip-path:url(#SVGID_00000181782157020748627230000008043758527228018824_);}
	.st14{clip-path:url(#SVGID_00000138566569702193598570000018269794459316217473_);}
	.st15{fill:#FDFAEA;}
	.st16{fill:#EFEAD8;}
	.st17{fill:#995B73;}
	.st18{clip-path:url(#SVGID_00000160170218174752312240000010390864348495004570_);}
	.st19{fill:#B27D85;}
	.st20{fill:#7F4F56;}
	.st21{fill:#BABA6A;}
	.st22{fill:#665D39;}
	.st23{clip-path:url(#SVGID_00000079473546386417282000000015840510572696513411_);}
	.st24{clip-path:url(#SVGID_00000057858847504065869860000014563563492678108069_);}
</style>
<path class="st0" d="M676.9,261c-8.6,0-15.6-7-15.6-15.6V55.3c0-8.6,7-15.6,15.6-15.6s15.6,7,15.6,15.6v190.1
	C692.4,254,685.4,261,676.9,261z"/>
<path class="st1" d="M676.9,40.6c8.1,0,14.6,6.5,14.6,14.6v190.1c0,8.1-6.5,14.6-14.6,14.6s-14.6-6.5-14.6-14.6v-190
	C662.2,47.2,668.8,40.6,676.9,40.6 M676.9,38.6c-9.2,0-16.6,7.5-16.6,16.6v190.1c0,9.2,7.5,16.6,16.6,16.6s16.6-7.5,16.6-16.6v-190
	C693.4,46.1,685.9,38.6,676.9,38.6z"/>
<g>
	<defs>
		<path id="SVGID_1_" d="M676.9,260c-8.1,0-14.6-6.5-14.6-14.6V55.3c0-8.1,6.5-14.6,14.6-14.6s14.6,6.5,14.6,14.6v190.1
			C691.4,253.5,684.9,260,676.9,260z"/>
	</defs>
	<clipPath id="SVGID_00000100368060720357108730000014023237852469768888_">
		<use xlink:href="#SVGID_1_"  style="overflow:visible;"/>
	</clipPath>
	<g style="clip-path:url(#SVGID_00000100368060720357108730000014023237852469768888_);">
		<path class="st3" d="M668.5,247.3v65.4 M676,276.2v65.4 M685.7,228.9v76.9 M675.1,250.5v17.3 M669.1,321v12.8"/>
		<g>
			<path class="st3" d="M668.5,147.3v65.4 M676,176.2v65.4 M685.7,128.9v76.9 M675.1,150.5v17.3 M669.1,221v12.8"/>
		</g>
		<g>
			<path class="st3" d="M668.5,47.3v65.4 M676,76.2v65.4 M685.7,28.9v76.9 M675.1,50.5v17.3 M669.1,121v12.8"/>
		</g>
	</g>
</g>
<path class="st4" d="M662.2,76.3h29.2"/>
<path class="st0" d="M638.2,56h143.3v20.9H638.2"/>
<path class="st3" d="M651.1,61.2h55.1 M674.2,66.6h55.1 M656.9,71.9H752"/>
<path class="st5" d="M638.2,76.8l143.3,0.1 M638.2,56h143.3"/>
<circle class="st6" cx="676.3" cy="66.7" r="2.8"/>
<path class="st7" d="M675.3,65.7l2,2 M677.2,65.7l-1.8,2"/>
<path class="st3" d="M724.1,62.6h15.2 M754.1,66.6h25.2"/>
<path class="st8" d="M638.2,163h138.9l1.6-12.2c-0.3-1.5-1-3-2.3-4.2c-3.8-3.7-8.2-1.4-10.2,0c-0.6,0.5-1.6,0.3-1.9-0.4l-7.6-14.7
	c-2.4-4.6-10.1-4.7-12.7-0.3l-10,16.7c-0.3,0.6-1.3,0.5-1.6,0l-2.9-5.9c-2.2-4.5-9.7-4.9-12.6-0.7l-6.4,11.9c-0.3,0.6-1.4,0.6-1.7,0
	l-9.7-21.5c-2.4-4.6-10.2-4.7-12.8-0.2l-4.4,7.6c-0.6,1.1-2.4,1.3-3.4,0.4l-3-2.9c-3.6-3.5-10.5-2.2-12,2.2l-2,12.9
	c-0.1,0.6-1.2,0.6-1.2,0l-0.4-5.4c-0.2-3.4-3.9-6.1-8-5.6c-2.3,0.3-4.4,1.5-5.4,3.7L638.2,163L638.2,163z"/>
<path class="st9" d="M776.5,157.7l0.9-4.8c0.3-1.4,0.3-2.9,0.1-4.3c-0.1-0.7-0.4-1.4-1-2c-3.8-3.7-8.2-1.4-10.2,0
	c-0.6,0.5-1.6,0.3-1.9-0.4l-7.6-14.7c-2.4-4.6-10.1-4.7-12.7-0.3l-10,16.7c-0.4,0.6-1.3,0.6-1.6-0.1l-2.9-5.9
	c-2.2-4.5-9.7-4.9-12.6-0.7l-6.4,11.9c-0.4,0.7-1.4,0.7-1.7-0.1l-9.7-21.5c-2.4-4.6-10.2-4.7-12.8-0.2l-4.4,7.6
	c-0.6,1.1-2.4,1.3-3.4,0.4l-3-2.9c-3.6-3.5-10.5-2.2-12,2.2l-2,12.9c-0.1,0.7-1.1,0.7-1.2-0.1L660,146c-0.2-3.4-3.9-6.1-8-5.6
	c-2.3,0.3-4.4,1.5-5.4,3.7l-5.4,12.5"/>
<g>
	<path class="st0" d="M546.9,261c-8.6,0-15.6-7-15.6-15.6V55.3c0-8.6,7-15.6,15.6-15.6s15.6,7,15.6,15.6v190.1
		C562.5,254,555.5,261,546.9,261z"/>
	<path class="st1" d="M546.9,40.6c8.1,0,14.6,6.5,14.6,14.6v190.1c0,8.1-6.5,14.6-14.6,14.6s-14.6-6.5-14.6-14.6v-190
		C532.2,47.2,538.8,40.6,546.9,40.6 M546.9,38.6c-9.2,0-16.6,7.5-16.6,16.6v190.1c0,9.2,7.5,16.6,16.6,16.6s16.6-7.5,16.6-16.6v-190
		C563.5,46.1,556,38.6,546.9,38.6z"/>
	<g>
		<defs>
			<path id="SVGID_00000010289008603429262080000017146757203302859682_" d="M546.9,260c-8.1,0-14.6-6.5-14.6-14.6V55.3
				c0-8.1,6.5-14.6,14.6-14.6s14.6,6.5,14.6,14.6v190.1C561.5,253.5,555,260,546.9,260z"/>
		</defs>
		<clipPath id="SVGID_00000081625927827411177390000016393514280826751646_">
			<use xlink:href="#SVGID_00000010289008603429262080000017146757203302859682_"  style="overflow:visible;"/>
		</clipPath>
		<g style="clip-path:url(#SVGID_00000081625927827411177390000016393514280826751646_);">
			<path class="st3" d="M538.5,247.3v65.4 M546,276.2v65.4 M555.8,228.9v76.9 M545.1,250.5v17.3 M539.1,321v12.8"/>
			<g>
				<path class="st3" d="M538.5,147.3v65.4 M546,176.2v65.4 M555.8,128.9v76.9 M545.1,150.5v17.3 M539.1,221v12.8"/>
			</g>
			<g>
				<path class="st3" d="M538.5,47.3v65.4 M546,76.2v65.4 M555.8,28.9v76.9 M545.1,50.5v17.3 M539.1,121v12.8"/>
			</g>
		</g>
	</g>
	<path class="st4" d="M532.2,76.3h29.3"/>
	<path class="st0" d="M508.2,56h143v20.9h-143"/>
	<path class="st3" d="M521.1,61.2h55.2 M544.2,66.6h55.2 M526.9,71.9h95.2"/>
	<path class="st5" d="M508.2,76.8h143 M508.2,56h143"/>
	<g>
		<circle class="st6" cx="546.3" cy="66.7" r="2.8"/>
		<path class="st7" d="M545.3,65.7l2,2 M547.2,65.7l-1.8,2"/>
	</g>
	<path class="st3" d="M594.2,62.6h15.2 M624.2,66.6h25.2"/>
	<path class="st8" d="M508.2,163h142.9l-2.4-12.2c-0.3-1.5-1-3-2.3-4.2c-3.8-3.7-8.2-1.4-10.2,0c-0.6,0.5-1.6,0.3-1.9-0.4l-7.6-14.7
		c-2.4-4.6-10.1-4.7-12.7-0.3l-10,16.7c-0.3,0.6-1.3,0.5-1.6,0l-2.9-5.9c-2.2-4.5-9.7-4.9-12.6-0.7l-6.4,11.9
		c-0.3,0.6-1.4,0.6-1.7,0l-9.7-21.5c-2.4-4.6-10.2-4.7-12.8-0.2l-4.4,7.6c-0.6,1.1-2.4,1.3-3.4,0.4l-3-2.9c-3.6-3.5-10.5-2.2-12,2.2
		l-2,12.9c-0.1,0.6-1.2,0.6-1.2,0l-0.4-5.4c-0.2-3.4-3.9-6.1-8-5.6c-2.3,0.3-4.4,1.5-5.4,3.7L508.2,163L508.2,163z"/>
	<path class="st9" d="M646.6,157.7l0.9-4.8c0.3-1.4,0.3-2.9,0.1-4.3c-0.1-0.7-0.4-1.4-1-2c-3.8-3.7-8.2-1.4-10.2,0
		c-0.6,0.5-1.6,0.3-1.9-0.4l-7.6-14.7c-2.4-4.6-10.1-4.7-12.7-0.3l-10,16.7c-0.4,0.6-1.3,0.6-1.6-0.1l-2.9-5.9
		c-2.2-4.5-9.7-4.9-12.6-0.7l-6.4,11.9c-0.4,0.7-1.4,0.7-1.7-0.1l-9.7-21.5c-2.4-4.6-10.2-4.7-12.8-0.2l-4.4,7.6
		c-0.6,1.1-2.4,1.3-3.4,0.4l-3-2.9c-3.6-3.5-10.5-2.2-12,2.2l-2,12.9c-0.1,0.7-1.1,0.7-1.2-0.1l-0.4-5.4c-0.2-3.4-3.9-6.1-8-5.6
		c-2.3,0.3-4.4,1.5-5.4,3.7l-5.4,12.5"/>
</g>
<g>
	<path class="st0" d="M417,261c-8.6,0-15.6-7-15.6-15.6V55.3c0-8.6,7-15.6,15.6-15.6s15.6,7,15.6,15.6v190.1
		C432.6,254,425.6,261,417,261z"/>
	<path class="st1" d="M417,40.6c8.1,0,14.6,6.5,14.6,14.6v190.1c0,8.1-6.6,14.6-14.6,14.6s-14.6-6.5-14.6-14.6v-190
		C402.3,47.2,408.9,40.6,417,40.6 M417,38.6c-9.2,0-16.6,7.5-16.6,16.6v190.1c0,9.2,7.5,16.6,16.6,16.6c9.2,0,16.6-7.5,16.6-16.6
		v-190C433.6,46.1,426.1,38.6,417,38.6z"/>
	<g>
		<defs>
			<path id="SVGID_00000137842461862232599510000015230408956662081181_" d="M417,260c-8.1,0-14.6-6.5-14.6-14.6V55.3
				c0-8.1,6.5-14.6,14.6-14.6s14.6,6.5,14.6,14.6v190.1C431.6,253.5,425.1,260,417,260z"/>
		</defs>
		<clipPath id="SVGID_00000157292985068661802870000014240693044395288506_">
			<use xlink:href="#SVGID_00000137842461862232599510000015230408956662081181_"  style="overflow:visible;"/>
		</clipPath>
		<g style="clip-path:url(#SVGID_00000157292985068661802870000014240693044395288506_);">
			<path class="st3" d="M408.6,247.3v65.4 M416.1,276.2v65.4 M425.9,228.9v76.9 M415.2,250.5v17.3 M409.2,321v12.8"/>
			<g>
				<path class="st3" d="M408.6,147.3v65.4 M416.1,176.2v65.4 M425.9,128.9v76.9 M415.2,150.5v17.3 M409.2,221v12.8"/>
			</g>
			<g>
				<path class="st3" d="M408.6,47.3v65.4 M416.1,76.2v65.4 M425.9,28.9v76.9 M415.2,50.5v17.3 M409.2,121v12.8"/>
			</g>
		</g>
	</g>
	<path class="st4" d="M402.3,76.3h29.3"/>
	<path class="st0" d="M378.3,56h142.9v20.9H378.3"/>
	<path class="st3" d="M391.2,61.2h55.2 M414.3,66.6h55.2 M397,71.9h95.1"/>
	<path class="st5" d="M378.3,76.8h142.9 M378.3,56h142.9"/>
	<g>
		<circle class="st6" cx="416.4" cy="66.7" r="2.8"/>
		<path class="st7" d="M415.4,65.7l2,2 M417.3,65.7l-1.8,2"/>
	</g>
	<path class="st3" d="M464.3,62.6h15.2 M494.2,66.6h25.2"/>
	<path class="st8" d="M378.3,163h142.9l-2.4-12.2c-0.3-1.5-1-3-2.3-4.2c-3.8-3.7-8.2-1.4-10.2,0c-0.6,0.5-1.6,0.3-1.9-0.4l-7.6-14.7
		c-2.4-4.6-10.1-4.7-12.7-0.3l-10,16.7c-0.3,0.6-1.3,0.5-1.6,0l-2.9-5.9c-2.2-4.5-9.7-4.9-12.6-0.7l-6.4,11.9
		c-0.3,0.6-1.4,0.6-1.7,0l-9.7-21.5c-2.4-4.6-10.2-4.7-12.8-0.2l-4.4,7.6c-0.6,1.1-2.4,1.3-3.4,0.4l-3-2.9c-3.6-3.5-10.5-2.2-12,2.2
		l-2,12.9c-0.1,0.6-1.2,0.6-1.2,0l-0.4-5.4c-0.2-3.4-3.9-6.1-8-5.6c-2.3,0.3-4.4,1.5-5.4,3.7L378.3,163L378.3,163z"/>
	<path class="st9" d="M516.6,157.7l0.9-4.8c0.3-1.4,0.3-2.9,0.1-4.3c-0.1-0.7-0.4-1.4-1-2c-3.8-3.7-8.2-1.4-10.2,0
		c-0.6,0.5-1.6,0.3-1.9-0.4l-7.6-14.7c-2.4-4.6-10.1-4.7-12.7-0.3l-10,16.7c-0.4,0.6-1.3,0.6-1.6-0.1l-2.9-5.9
		c-2.2-4.5-9.7-4.9-12.6-0.7l-6.4,11.9c-0.4,0.7-1.4,0.7-1.7-0.1l-9.7-21.5c-2.4-4.6-10.2-4.7-12.8-0.2l-4.4,7.6
		c-0.6,1.1-2.4,1.3-3.4,0.4l-3-2.9c-3.6-3.5-10.5-2.2-12,2.2l-2,12.9c-0.1,0.7-1.1,0.7-1.2-0.1l-0.4-5.4c-0.2-3.4-3.9-6.1-8-5.6
		c-2.3,0.3-4.4,1.5-5.4,3.7l-5.4,12.5"/>
</g>
<g>
	<path class="st0" d="M287,261c-8.6,0-15.6-7-15.6-15.6V55.3c0-8.6,7-15.6,15.6-15.6s15.6,7,15.6,15.6v190.1
		C302.6,254,295.6,261,287,261z"/>
	<path class="st1" d="M287,40.6c8.1,0,14.6,6.5,14.6,14.6v190.1c0,8.1-6.6,14.6-14.6,14.6s-14.6-6.5-14.6-14.6v-190
		C272.4,47.2,279,40.6,287,40.6 M287,38.6c-9.2,0-16.6,7.5-16.6,16.6v190.1c0,9.2,7.5,16.6,16.6,16.6c9.2,0,16.6-7.5,16.6-16.6v-190
		C303.6,46.1,296.1,38.6,287,38.6z"/>
	<g>
		<defs>
			<path id="SVGID_00000116201283856937290870000002778722884017113523_" d="M287,260c-8.1,0-14.6-6.5-14.6-14.6V55.3
				c0-8.1,6.5-14.6,14.6-14.6s14.6,6.5,14.6,14.6v190.1C301.6,253.5,295.1,260,287,260z"/>
		</defs>
		<clipPath id="SVGID_00000183933872421270389720000016035473442168973241_">
			<use xlink:href="#SVGID_00000116201283856937290870000002778722884017113523_"  style="overflow:visible;"/>
		</clipPath>
		<g style="clip-path:url(#SVGID_00000183933872421270389720000016035473442168973241_);">
			<path class="st3" d="M278.7,247.3v65.4 M286.1,276.2v65.4 M295.9,228.9v76.9 M285.3,250.5v17.3 M279.3,321v12.8"/>
			<g>
				<path class="st3" d="M278.7,147.3v65.4 M286.1,176.2v65.4 M295.9,128.9v76.9 M285.3,150.5v17.3 M279.3,221v12.8"/>
			</g>
			<g>
				<path class="st3" d="M278.7,47.3v65.4 M286.1,76.2v65.4 M295.9,28.9v76.9 M285.3,50.5v17.3 M279.3,121v12.8"/>
			</g>
		</g>
	</g>
	<path class="st4" d="M272.4,76.3h29.2"/>
	<path class="st0" d="M248.4,56h142.9v20.9H248.4"/>
	<path class="st3" d="M261.3,61.2h55.1 M284.4,66.6h55.1 M267.1,71.9h95.1"/>
	<path class="st5" d="M248.4,76.8h142.9 M248.4,56h142.9"/>
	<g>
		<circle class="st6" cx="286.4" cy="66.7" r="2.8"/>
		<path class="st7" d="M285.5,65.7l1.9,2 M287.3,65.7l-1.7,2"/>
	</g>
	<path class="st3" d="M334.3,62.6h15.2 M364.3,66.6h25.2"/>
	<path class="st8" d="M248.4,163h142.9l-2.4-12.2c-0.3-1.5-1-3-2.3-4.2c-3.8-3.7-8.2-1.4-10.2,0c-0.6,0.5-1.6,0.3-1.9-0.4l-7.6-14.7
		c-2.4-4.6-10.1-4.7-12.7-0.3l-10,16.7c-0.3,0.6-1.3,0.5-1.6,0l-2.9-5.9c-2.2-4.5-9.7-4.9-12.6-0.7l-6.4,11.9
		c-0.3,0.6-1.4,0.6-1.7,0l-9.7-21.5c-2.4-4.6-10.2-4.7-12.8-0.2l-4.4,7.6c-0.6,1.1-2.4,1.3-3.4,0.4l-3-2.9c-3.6-3.5-10.5-2.2-12,2.2
		l-2,12.9c-0.1,0.6-1.2,0.6-1.2,0l-0.4-5.4c-0.2-3.4-3.9-6.1-8-5.6c-2.3,0.3-4.4,1.5-5.4,3.7L248.4,163L248.4,163z"/>
	<path class="st9" d="M386.7,157.7l0.9-4.8c0.3-1.4,0.3-2.9,0.1-4.3c-0.1-0.7-0.4-1.4-1-2c-3.8-3.7-8.2-1.4-10.2,0
		c-0.6,0.5-1.6,0.3-1.9-0.4l-7.6-14.7c-2.4-4.6-10.1-4.7-12.7-0.3l-10,16.7c-0.4,0.6-1.3,0.6-1.6-0.1l-2.9-5.9
		c-2.2-4.5-9.7-4.9-12.6-0.7l-6.4,11.9c-0.4,0.7-1.4,0.7-1.7-0.1l-9.7-21.5c-2.4-4.6-10.2-4.7-12.8-0.2l-4.4,7.6
		c-0.6,1.1-2.4,1.3-3.4,0.4l-3-2.9c-3.6-3.5-10.5-2.2-12,2.2l-2,12.9c-0.1,0.7-1.1,0.7-1.2-0.1l-0.4-5.4c-0.2-3.4-3.9-6.1-8-5.6
		c-2.3,0.3-4.4,1.5-5.4,3.7l-5.4,12.5"/>
</g>
<g>
	<path class="st0" d="M157.1,261c-8.6,0-15.6-7-15.6-15.6V55.3c0-8.6,7-15.6,15.6-15.6s15.6,7,15.6,15.6v190.1
		C172.7,254,165.7,261,157.1,261z"/>
	<path class="st1" d="M157.1,40.6c8.1,0,14.6,6.5,14.6,14.6v190.1c0,8.1-6.6,14.6-14.6,14.6s-14.6-6.5-14.6-14.6v-190
		C142.4,47.2,149,40.6,157.1,40.6 M157.1,38.6c-9.2,0-16.6,7.5-16.6,16.6v190.1c0,9.2,7.5,16.6,16.6,16.6s16.6-7.5,16.6-16.6v-190
		C173.7,46.1,166.2,38.6,157.1,38.6z"/>
	<g>
		<defs>
			<path id="SVGID_00000003793854623007937090000012693264282430962838_" d="M157.1,260c-8.1,0-14.6-6.5-14.6-14.6V55.3
				c0-8.1,6.6-14.6,14.6-14.6c8.1,0,14.6,6.5,14.6,14.6v190.1C171.7,253.5,165.2,260,157.1,260z"/>
		</defs>
		<clipPath id="SVGID_00000026856788196714039860000018396833500504589189_">
			<use xlink:href="#SVGID_00000003793854623007937090000012693264282430962838_"  style="overflow:visible;"/>
		</clipPath>
		<g style="clip-path:url(#SVGID_00000026856788196714039860000018396833500504589189_);">
			<path class="st3" d="M148.7,247.3v65.4 M156.2,276.2v65.4 M166,228.9v76.9 M155.3,250.5v17.3 M149.3,321v12.8"/>
			<g>
				<path class="st3" d="M148.7,147.3v65.4 M156.2,176.2v65.4 M166,128.9v76.9 M155.3,150.5v17.3 M149.3,221v12.8"/>
			</g>
			<g>
				<path class="st3" d="M148.7,47.3v65.4 M156.2,76.2v65.4 M166,28.9v76.9 M155.3,50.5v17.3 M149.3,121v12.8"/>
			</g>
		</g>
	</g>
	<path class="st4" d="M142.4,76.3h29.3"/>
	<path class="st0" d="M118.4,56h143v20.9h-143"/>
	<path class="st3" d="M131.3,61.2h55.2 M154.4,66.6h55.2 M137.1,71.9h95.2"/>
	<path class="st5" d="M118.4,76.8h143 M118.4,56h143"/>
	<g>
		<circle class="st6" cx="156.5" cy="66.7" r="2.8"/>
		<path class="st7" d="M155.5,65.7l2,2 M157.4,65.7l-1.8,2"/>
	</g>
	<path class="st3" d="M204.4,62.6h15.2 M234.4,66.6h25.2"/>
	<path class="st8" d="M118.4,163h142.9l-2.4-12.2c-0.3-1.5-1-3-2.3-4.2c-3.8-3.7-8.2-1.4-10.2,0c-0.6,0.5-1.6,0.3-1.9-0.4l-7.6-14.7
		c-2.4-4.6-10.1-4.7-12.7-0.3l-10,16.7c-0.3,0.6-1.3,0.5-1.6,0l-2.9-5.9c-2.2-4.5-9.7-4.9-12.6-0.7l-6.4,11.9
		c-0.3,0.6-1.4,0.6-1.7,0l-9.7-21.5c-2.4-4.6-10.2-4.7-12.8-0.2l-4.4,7.6c-0.6,1.1-2.4,1.3-3.4,0.4l-3-2.9c-3.6-3.5-10.5-2.2-12,2.2
		l-2,12.9c-0.1,0.6-1.2,0.6-1.2,0l-0.4-5.4c-0.2-3.4-3.9-6.1-8-5.6c-2.3,0.3-4.4,1.5-5.4,3.7L118.4,163L118.4,163z"/>
	<path class="st9" d="M256.8,157.7l0.9-4.8c0.3-1.4,0.3-2.9,0.1-4.3c-0.1-0.7-0.4-1.4-1-2c-3.8-3.7-8.2-1.4-10.2,0
		c-0.6,0.5-1.6,0.3-1.9-0.4l-7.6-14.7c-2.4-4.6-10.1-4.7-12.7-0.3l-10,16.7c-0.4,0.6-1.3,0.6-1.6-0.1l-2.9-5.9
		c-2.2-4.5-9.7-4.9-12.6-0.7l-6.4,11.9c-0.4,0.7-1.4,0.7-1.7-0.1l-9.7-21.5c-2.4-4.6-10.2-4.7-12.8-0.2l-4.4,7.6
		c-0.6,1.1-2.4,1.3-3.4,0.4l-3-2.9c-3.6-3.5-10.5-2.2-12,2.2l-2,12.9c-0.1,0.7-1.1,0.7-1.2-0.1l-0.4-5.4c-0.2-3.4-3.9-6.1-8-5.6
		c-2.3,0.3-4.4,1.5-5.4,3.7l-5.4,12.5"/>
</g>
<g>
	<path class="st0" d="M27.2,261c-8.6,0-15.6-7-15.6-15.6V55.3c0-8.6,7-15.6,15.6-15.6s15.6,7,15.6,15.6v190.1
		C42.8,254,35.8,261,27.2,261z"/>
	<path class="st1" d="M27.2,40.6c8.1,0,14.6,6.5,14.6,14.6v190.1c0,8.1-6.5,14.6-14.6,14.6s-14.6-6.5-14.6-14.6v-190
		C12.5,47.2,19.1,40.6,27.2,40.6 M27.2,38.6c-9.2,0-16.6,7.5-16.6,16.6v190.1c0,9.2,7.5,16.6,16.6,16.6s16.6-7.5,16.6-16.6v-190
		C43.8,46.1,36.3,38.6,27.2,38.6z"/>
	<g>
		<defs>
			<path id="SVGID_00000083049310244729016680000007721924624159385013_" d="M27.2,260c-8.1,0-14.6-6.5-14.6-14.6V55.3
				c0-8.1,6.5-14.6,14.6-14.6s14.6,6.5,14.6,14.6v190.1C41.8,253.5,35.3,260,27.2,260z"/>
		</defs>
		<clipPath id="SVGID_00000042737228703637266060000003484386584619243444_">
			<use xlink:href="#SVGID_00000083049310244729016680000007721924624159385013_"  style="overflow:visible;"/>
		</clipPath>
		<g style="clip-path:url(#SVGID_00000042737228703637266060000003484386584619243444_);">
			<path class="st3" d="M18.8,247.3v65.4 M26.3,276.2v65.4 M36.1,228.9v76.9 M25.4,250.5v17.3 M19.4,321v12.8"/>
			<g>
				<path class="st3" d="M18.8,147.3v65.4 M26.3,176.2v65.4 M36.1,128.9v76.9 M25.4,150.5v17.3 M19.4,221v12.8"/>
			</g>
			<g>
				<path class="st3" d="M18.8,47.3v65.4 M26.3,76.2v65.4 M36.1,28.9v76.9 M25.4,50.5v17.3 M19.4,121v12.8"/>
			</g>
		</g>
	</g>
	<path class="st4" d="M12.5,76.3h29.3"/>
	<path class="st0" d="M-11.5,56h142.9v20.9H-11.5"/>
	<path class="st3" d="M1.4,61.2h55.2 M24.5,66.6h55.2 M7.2,71.9h95.1"/>
	<path class="st5" d="M-11.5,76.8h142.9 M-11.5,56h142.9"/>
	<g>
		<circle class="st6" cx="26.6" cy="66.7" r="2.8"/>
		<path class="st7" d="M25.6,65.7l2,2 M27.5,65.7l-1.8,2"/>
	</g>
	<path class="st3" d="M74.5,62.6h15.1 M104.4,66.6h25.2"/>
	<path class="st8" d="M-10.5,163h141.9l-2.4-12.2c-0.3-1.5-1-3-2.3-4.2c-3.8-3.7-8.2-1.4-10.2,0c-0.6,0.5-1.6,0.3-1.9-0.4l-7.6-14.7
		c-2.4-4.6-10.1-4.7-12.7-0.3l-10,16.7c-0.3,0.6-1.3,0.5-1.6,0l-2.9-5.9c-2.2-4.5-9.7-4.9-12.6-0.7l-6.4,11.9
		c-0.3,0.6-1.4,0.6-1.7,0l-9.6-21.5c-2.4-4.6-10.2-4.7-12.8-0.2l-4.4,7.6c-0.6,1.1-2.4,1.3-3.4,0.4l-3-2.9c-3.6-3.5-10.5-2.2-12,2.2
		l-2,12.9c-0.1,0.6-1.2,0.6-1.2,0l-0.4-5.4c-0.2-3.4-3.9-6.1-8-5.6c-2.3,0.3-4.4,1.5-5.4,3.7L-10.5,163z"/>
	<path class="st9" d="M126.8,157.7l0.9-4.8c0.3-1.4,0.3-2.9,0.1-4.3c-0.1-0.7-0.4-1.4-1-2c-3.8-3.7-8.2-1.4-10.2,0
		c-0.6,0.5-1.6,0.3-1.9-0.4l-7.6-14.7c-2.4-4.6-10.1-4.7-12.7-0.3l-10,16.7c-0.4,0.6-1.3,0.6-1.6-0.1l-2.9-5.9
		c-2.2-4.5-9.7-4.9-12.6-0.7l-6.4,11.9c-0.4,0.7-1.4,0.7-1.7-0.1l-9.7-21.5c-2.4-4.6-10.2-4.7-12.8-0.2l-4.4,7.6
		c-0.6,1.1-2.4,1.3-3.4,0.4l-3-2.9c-3.6-3.5-10.5-2.2-12,2.2l-2,12.9c-0.1,0.7-1.1,0.7-1.2-0.1l-0.4-5.4c-0.2-3.4-3.9-6.1-8-5.6
		c-2.3,0.3-4.4,1.5-5.4,3.7L-8.5,157"/>
</g>
<path class="st15" d="M-11.5,163h793v335h-793V163z"/>
<g>
	<path class="st16" d="M-7.9,359h78.6c8.4,0,15.8,6.2,17.2,14.6c1,5.8-0.3,11.2-4.8,15.7c-3.1,3.1-6.6,4.8-10.9,5.4
		c-1.8,0.2-3.6,0.3-5.4,0.3H-7.9V359z M428.2,343.1h-29.3c-2.7,0-5.1-1.2-7.1-3.4c-1.7-1.9-2.8-4.3-3.3-7.1
		c-1.2-7.1,2.2-14.2,7.5-16c1-0.3,2-0.6,3-0.6c19.6,0,39.1-0.1,58.7,0c6.5,0,11,7,10.5,14.5c-0.4,6-3.4,10.7-8.1,12.2
		c-0.9,0.3-1.8,0.3-2.7,0.3C447.7,343.1,438,343.1,428.2,343.1z M65.5,338.5c-16.6,0-33.3-0.1-49.9,0c-4.6,0-8.6-1.6-12-4.5
		c-2.9-2.5-4.7-5.7-5.6-9.5c-2.1-9.4,3.7-18.9,12.9-21.3c1.6-0.4,3.3-0.7,5-0.7c33.3,0,66.6-0.1,99.8,0c11.1,0,18.7,9.3,18,19.2
		c-0.6,7.9-5.7,14.2-13.8,16.2c-1.5,0.4-3,0.5-4.5,0.5C98.8,338.5,82.2,338.5,65.5,338.5L65.5,338.5z M300.3,272.2h-48.8
		c-5.6,0-10.5-1.4-14.4-4.6c-2-1.6-3.2-3.5-3.9-5.6c-1.4-3.8-0.6-7.5,2.4-10.7c3.6-3.8,8.5-5.9,15-5.9h100.3c3.7,0,7,0.8,10,2.3
		c5.3,2.7,8,6.6,7.8,11.4c-0.3,7-7.4,12.2-15.8,12.8c-3,0.2-6,0.2-8.9,0.3C329.4,272.3,314.9,272.2,300.3,272.2L300.3,272.2z
		 M453.7,240.6H404c-5,0-9.2-1.2-12.8-3.9c-1.8-1.4-3.2-2.9-4.2-4.7c-3-5.4,0-12.1,5.8-15.3c3.6-2,7.7-2.9,12-2.9
		c32.8,0,65.7-0.1,98.5,0c8.3,0,14.5,3.1,17.6,8.9c1.4,2.6,1.5,5.4,0.3,8.1c-2,4.5-5.9,7.6-12.1,9.1c-1.7,0.4-3.4,0.6-5.1,0.6
		C487.3,240.6,470.5,240.6,453.7,240.6L453.7,240.6z M663.3,428.3c-16.7,0-33.4-0.1-50.2,0c-6.6,0-14.4-4.7-16.6-12
		c-2.1-7-0.9-13.2,4.3-18.5c3.6-3.7,8-5.4,13-5.4c33.3-0.1,66.6-0.1,99.9,0c9,0,16.1,5.8,17.6,14.9c1.7,10.4-4.9,18.8-14.2,20.6
		c-1.2,0.2-2.4,0.4-3.7,0.4H663.3z M337.1,425.6c-16.7,0-33.4-0.1-50.2,0c-6.5,0-14.5-4.7-16.7-12.2c-2-6.9-0.8-13,4.3-18.3
		c3.7-3.7,8.2-5.4,13.2-5.4c33.2-0.1,66.3-0.1,99.5,0c9.1,0,16.3,5.7,17.9,14.9c1.8,10.3-4.8,18.8-14.1,20.6
		c-1.2,0.2-2.4,0.4-3.7,0.4H337.1L337.1,425.6z M359.8,181.9h24.7c4,0,7.8,0.5,11.2,1.8c9.7,3.6,10,10.8,2.7,14.6
		c-3.8,2-8.4,2.9-13.6,3c-16.6,0-33.3,0.1-49.9,0c-7.8,0-13.7-1.9-17.1-5.8c-3.5-4-0.9-9,5.8-11.6c3.5-1.3,7.3-1.9,11.5-1.9
		c4.2-0.1,8.3,0,12.5,0C351.6,181.9,355.7,181.9,359.8,181.9L359.8,181.9z M61.4,267.4H47.2c-3.7,0-7.3-0.5-10.4-2
		c-5.1-2.5-8.3-5.9-8.6-10.5c-0.3-5,2.2-9,7.8-11.9c2.9-1.5,6.2-2.3,9.9-2.3h32c8.1,0,15.4,4.6,17.1,10.8
		c1.8,6.4-3.6,13.8-13.4,15.5c-1.6,0.3-3.3,0.5-5,0.5C71.4,267.4,66.4,267.4,61.4,267.4z M522.1,258.9h15.8
		c10.1,0,18.5,6.4,17.7,14.5c-0.6,6.1-6.8,11.1-15.1,12c-1.7,0.2-3.5,0.3-5.2,0.3h-27.8c-3.5,0-6.8-0.5-9.8-1.9
		c-5.5-2.5-8.7-6.1-9.1-11c-0.4-6.4,5.4-12.3,14.5-13.7c1.2-0.2,2.5-0.2,3.7-0.2L522.1,258.9L522.1,258.9z M663.6,227.3h16.2
		c7.6,0,15.3,4.6,17,10.7c1.7,6.4-3.6,13.8-13.3,15.5c-1.5,0.3-3.1,0.5-4.7,0.5c-10.2,0-20.4,0.1-30.6,0c-8.9-0.1-16.4-4.7-17.8-11
		c-1.5-7,3.7-13.4,13.2-15.3c1.3-0.3,2.6-0.4,3.9-0.4H663.6L663.6,227.3z M728.2,194.1h16.2c7.6,0,15.3,4.6,17,10.7
		c1.7,6.4-3.6,13.8-13.3,15.5c-1.5,0.3-3.1,0.5-4.7,0.5c-10.2,0-20.4,0.1-30.6,0c-8.9-0.1-16.4-4.7-17.8-11
		c-1.5-7,3.7-13.4,13.2-15.3c1.3-0.3,2.6-0.4,3.9-0.4H728.2L728.2,194.1z M165.6,283h-14.9c-4,0-7.8-0.8-11.1-2.6
		c-4.7-2.6-7.3-6.1-7.5-10.5c-0.3-6.4,5.5-12.1,14.9-13.5c0.8-0.1,1.7-0.1,2.6-0.1h31.7c3.7,0,7,0.8,10,2.3
		c5.1,2.6,7.6,6.3,7.7,10.7c0.1,6.7-5.9,12.1-14.8,13.4c-1.7,0.2-3.5,0.3-5.2,0.3L165.6,283L165.6,283z M491.4,426.5h-15.1
		c-4.6,0.1-8.8-1.4-12.2-4.4c-3.7-3.3-5.8-7.5-6-12.6c-0.1-3.9,0.7-7.5,3-10.7c3-4.3,7.1-7,12.4-7.8c1.8-0.3,3.6-0.4,5.4-0.4
		c9.1,0,18.2-0.1,27.4,0c7.9,0.1,13.9,3.4,17.3,10.8c2.4,5.3,2.1,10.7-0.6,15.7c-2.8,5.2-7.3,8.2-13.1,9.3c-0.6,0.1-1.3,0.1-2,0.1
		H491.4L491.4,426.5z M145.6,407.7c-5.3,0-10.7,0.1-16,0c-8.3-0.1-15-5.4-17.1-13.4c-2.6-10.2,3.5-19.4,13.4-21.9
		c1.6-0.4,3.3-0.6,5-0.6c9.8,0,19.6-0.1,29.3,0.1c7.9,0.1,13.9,3.4,17.3,10.8c2.4,5.3,2.1,10.6-0.7,15.7c-2.8,5.2-7.3,8.2-13.1,9.3
		c-0.6,0.1-1.3,0.1-2,0.1C156.4,407.7,151,407.7,145.6,407.7z M634.1,194.5h-14.4c-4.3,0-8.3-0.5-11.9-2c-3.9-1.5-6.1-3.6-7-6.1
		c-0.9-2.6,0.3-4.9,3.1-7c3.5-2.6,8.2-4,14.3-4h31.7c6.2,0,11,1.5,14.6,4.1c4.2,3.1,4,7.9-0.1,10.8c-3.1,2.2-7,3.5-12.1,4
		c-4.3,0.4-8.6,0.1-12.9,0.2H634.1L634.1,194.5z M190.6,188.2c5.2,0,10.4,0.1,15.5,0c6.7-0.1,14.6,2.5,16.7,6.4
		c2.1,3.7,0.9,7-4.4,9.9c-3.6,1.9-7.9,2.8-12.8,2.8c-10.2,0.1-20.4,0.1-30.6,0c-8.4-0.1-15.1-2.5-17.6-7c-1.8-3.4-0.3-6.4,4.1-9
		c3.7-2.2,8.4-3.1,13.8-3.1L190.6,188.2L190.6,188.2z M273.3,479.5h-15.5c-9,0-16.2-6.1-17.7-15c-0.9-5.6,0.6-10.8,4.7-15.1
		c3.9-4,8.7-5.8,14.1-5.8c9.9-0.1,19.7-0.1,29.6,0c3.9,0,7.6,1,10.9,3.4c3.8,2.7,6.2,6.3,7.2,10.8c1.8,7.9-2.2,15.3-8.3,19.2
		c-2.5,1.6-5.4,2.5-8.5,2.5C284.3,479.6,278.8,479.5,273.3,479.5L273.3,479.5z M28.1,468.6H13c-9.1,0.1-16.5-5.9-18.1-14.9
		c-1-5.6,0.5-10.8,4.5-15.1c4-4.2,8.9-5.9,14.5-6c9.7,0,19.4-0.1,29.1,0c8.2,0.1,14.3,3.8,17.4,11.5c2.6,6.4,1,13.5-3.5,18.5
		c-2.8,3.1-6.1,4.9-10.1,5.7c-0.8,0.2-1.6,0.2-2.4,0.2C39,468.6,33.5,468.6,28.1,468.6L28.1,468.6z M628.3,320.5h-13.6
		c-3.2,0-6.2-0.4-9.1-1.7c-5.8-2.6-9.2-7.1-10.4-13.3c-0.9-5,0.2-9.4,3.1-13.4c3.4-4.8,8.1-7.5,14.1-7.5c10.7-0.1,21.3-0.1,32,0
		c6.1,0,10.8,2.8,14.5,7.7c4.2,5.6,4,15,0,20.3c-3.1,4-7,6.7-12.1,7.5c-3.7,0.6-7.4,0.2-11.1,0.4
		C633.1,320.6,630.7,320.5,628.3,320.5z M97,497.9h-6.1c-8.2,0-16.1-6.6-17.5-14.6c-1.1-5.9,0.3-11,4.2-15.4c3.1-3.5,7.1-5.4,11.8-6
		c4.2-0.5,8.3-0.4,12.4-0.3c5.7,0.1,10.9,1.7,14.9,6.1c2.8,3.1,4.4,6.8,4.6,11.1c0.2,4.1-0.7,7.9-3.1,11.2c-3.7,5.1-8.6,7.9-15,8
		C101.1,497.9,99.1,497.9,97,497.9L97,497.9z M491.2,497.9h-6.1c-8.2,0-16-6.5-17.5-14.6c-1.1-5.9,0.3-11,4.2-15.4
		c3.1-3.5,7.1-5.4,11.8-5.9c4.2-0.5,8.3-0.4,12.4-0.3c5.7,0.1,10.9,1.7,14.9,6.1c2.8,3.1,4.4,6.8,4.6,11.1c0.2,4.1-0.7,7.9-3.1,11.2
		c-3.7,5.1-8.6,7.9-15,7.9C495.3,497.9,493.3,497.9,491.2,497.9L491.2,497.9z M167.2,474.7h-6.4c-8,0.2-15.2-5.6-17.2-13.5
		c-2.2-8.5,2.5-17.3,9.8-20.6c2.6-1.2,5.3-1.9,8.2-1.8h11c6.1,0,11.3,2.4,15,7.2c3.2,4.1,4.4,8.8,3.3,14
		c-1.6,7.9-6.5,12.6-14.2,14.5c-0.7,0.2-1.4,0.2-2.2,0.2L167.2,474.7L167.2,474.7z M561.4,474.7H555c-8,0.2-15.2-5.6-17.2-13.5
		c-2.2-8.5,2.5-17.3,9.8-20.6c2.6-1.2,5.3-1.9,8.2-1.9h10.7c6.2,0,11.4,2.3,15.3,7.2c3.2,4.1,4.4,8.8,3.4,14
		c-1.5,7.9-6.5,12.6-14.2,14.5c-0.7,0.2-1.4,0.2-2.2,0.2C566.4,474.7,563.9,474.7,561.4,474.7L561.4,474.7z M64.1,200.4h-6.3
		c-8.2,0-15.9-3-17.4-7.8c-1.7-5.6,4.7-10.1,14.4-11.1c1.7-0.2,3.3-0.3,5-0.2c4.5,0.1,9-0.2,13.5,0.2c7.7,0.7,13.8,4,14.7,8.4
		c1.1,5.2-5.5,9.7-15.2,10.5C70,200.5,67,200.3,64.1,200.4C64.1,200.3,64.1,200.4,64.1,200.4L64.1,200.4z M740,324
		c-2.9-0.2-5.8,0.1-8.7-0.4c-6.8-1.3-11.5-5-14-11.4c-2.2-5.7-1.5-11.3,1.9-16.2c3.3-4.9,8.1-7.8,14.1-7.9c4.3-0.1,8.6,0,12.9,0
		c8.2-0.2,15.6,5.6,17.6,13.9c2.3,9.7-4.6,20.3-14.8,21.7C746,324,743,323.8,740,324z M233.2,324c-2.9-0.2-5.8,0.1-8.7-0.4
		c-6.8-1.3-11.5-5-14-11.4c-2.2-5.7-1.5-11.3,1.9-16.2c3.3-4.9,8.1-7.8,14.1-7.9c4.3-0.1,8.6,0,12.9,0c8.2-0.1,15.4,5.5,17.5,13.7
		c2.5,9.8-4.5,20.5-14.8,21.9C239.2,324,236.2,323.8,233.2,324z M336.6,347.7h-6.3c-7.6,0-15-5.1-17-13.4c-1.5-6.4-0.1-12.2,4.7-17
		c3.7-3.7,8.2-5.2,13.1-5.4c3.9-0.2,7.7-0.2,11.6,0c9.1,0.5,15.8,5.4,17.6,14.4c1.5,7.6-0.6,14.7-9.2,19.4c-2.7,1.5-5.5,2.2-8.6,2.1
		C340.5,347.6,338.5,347.7,336.6,347.7L336.6,347.7z M670.8,364h-6.3c-7.6,0-15-5.1-17-13.4c-1.5-6.4-0.2-12.2,4.7-17
		c3.7-3.7,8.1-5.2,13.1-5.4c3.9-0.2,7.7-0.2,11.6,0c9.1,0.5,15.8,5.3,17.6,14.4c1.5,7.6-0.6,14.7-9.2,19.4c-2.7,1.5-5.6,2.3-8.8,2.1
		C674.6,364,672.7,364,670.8,364L670.8,364z M547.9,188.2h6.3c7.2,0,15.8,3,17.2,7.8c0.9,3.2-0.5,6.1-4.9,8.5
		c-2.8,1.5-6.2,2.4-10.2,2.7c-5.1,0.4-10.2,0.3-15.3,0.2c-8.3-0.2-14.5-3-16.6-6.6c-3-5.1,1.7-10.2,11.2-12c1.7-0.3,3.5-0.5,5.3-0.5
		C543.4,188.2,545.6,188.2,547.9,188.2L547.9,188.2z M566.2,353.7h-38c-6.6,0-12-5.4-12-12s5.4-12,12-12h38c6.6,0,12,5.4,12,12
		S572.8,353.7,566.2,353.7z"/>
</g>
<g>
	<path class="st8" d="M512,498h250.9l-6.1-21.1c-0.5-2.7-1.8-5.3-4-7.3c-6.7-6.4-14.2-2.5-17.8,0.1c-1.1,0.8-2.8,0.5-3.4-0.6
		l-13.3-25.4c-4.1-7.9-17.6-8.2-22.2-0.5l-17.4,28.9c-0.6,1-2.3,0.9-2.8-0.1l-5-10.2c-3.8-7.8-16.8-8.5-21.9-1.3l-11.2,20.6
		c-0.6,1.1-2.5,1-3-0.1l-17-37.2c-4.2-7.9-17.7-8.1-22.2-0.3l-7.7,13.2c-1.1,1.9-4.2,2.3-5.9,0.7l-5.3-5c-6.4-6.1-18.3-3.9-21,3.8
		l-3.5,22.4c-0.2,1.2-2,1.2-2.1-0.1l-0.6-9.2c-0.4-6-6.8-10.6-13.9-9.6c-4,0.5-7.7,2.7-9.4,6.4L512,498z"/>
	<path class="st17" d="M761.1,492.9c-0.4,0-0.8-0.3-1-0.7l-4.3-15.9c-0.5-2.7-1.8-5-3.7-6.8c-6.1-5.8-13-2.4-16.5,0.2
		c-0.8,0.6-1.8,0.8-2.8,0.6c-0.9-0.2-1.6-0.7-2.1-1.5l-13.2-25.5c-1.7-3.3-5.5-5.5-9.9-5.6c-4.5-0.2-8.5,1.8-10.5,5.1l-17.4,28.9
		c-0.5,0.8-1.3,1.2-2.3,1.2s-1.8-0.6-2.2-1.3l-5-10.2c-1.6-3.2-5.1-5.4-9.3-5.7c-4.4-0.3-8.5,1.4-10.8,4.5l-11.2,20.5
		c-0.5,0.8-1.4,1.3-2.4,1.3c-1.1,0-2-0.6-2.3-1.5l-17-37.2c-1.7-3.3-5.6-5.4-10-5.5c-4.5,0-8.4,1.9-10.4,5.3l-7.7,13.2
		c-0.7,1.1-1.9,1.9-3.3,2.1c-1.5,0.2-3.1-0.2-4.1-1.2l-5.3-5c-2.9-2.8-7.4-3.9-11.7-2.8c-3.7,0.9-6.5,3.2-7.6,6.1l-3.5,22.3
		c-0.2,1-1.1,1.6-2.2,1.6c-1-0.1-1.8-0.8-1.9-1.7l-0.6-9.4c-0.2-2.4-1.4-4.6-3.4-6.2c-2.5-2-5.9-2.9-9.3-2.5c-4,0.5-7.2,2.7-8.6,5.8
		L515,491.6c-0.2,0.5-0.8,0.7-1.3,0.5s-0.7-0.8-0.5-1.3l12.6-26.2c1.7-3.8,5.5-6.3,10.2-6.9c3.9-0.6,7.9,0.5,10.8,2.9
		c2.5,2,4,4.7,4.2,7.7l0.6,9.2h0.1l3.5-22.4c1.3-3.7,4.7-6.5,9-7.5c5-1.2,10.2,0.1,13.6,3.3l5.3,5c0.6,0.6,1.5,0.8,2.4,0.7
		c0.8-0.1,1.5-0.6,1.9-1.2l7.7-13.2c2.3-4,7-6.3,12.1-6.3c5.2,0.1,9.7,2.6,11.8,6.6l17,37.2c0.1,0.2,0.3,0.3,0.6,0.3
		c0.2,0,0.5-0.1,0.6-0.3l11.2-20.7c2.6-3.7,7.4-5.8,12.6-5.4c5,0.4,9.1,2.9,11,6.8l5,10.2c0.1,0.1,0.3,0.2,0.5,0.2s0.4,0,0.5-0.2
		l17.4-28.9c2.3-3.9,7-6.3,12.3-6.1c5.1,0.2,9.6,2.7,11.6,6.7l13.3,25.4c0.1,0.2,0.4,0.4,0.7,0.5c0.4,0.1,0.9,0,1.2-0.2
		c9.8-7,16.6-2.4,19.1,0c2.2,2,3.7,4.7,4.3,7.8l4.3,15.8c0.1,0.5-0.2,1.1-0.7,1.2C761.3,492.9,761.2,492.9,761.1,492.9L761.1,492.9z
		"/>
	<path class="st0" d="M606.7,497.8V369.5c0-14.5-11.8-26.2-26.4-26.2c-14.6,0-26.4,11.8-26.4,26.2v128.3H606.7L606.7,497.8z"/>
	<path class="st1" d="M555,497.8V369.5c0-13.9,11.4-25.1,25.4-25.1s25.4,11.3,25.4,25.2v128.2h2V369.5c0-15-12.3-27.1-27.4-27.1
		S553,354.6,553,369.6v128.2H555z"/>
	<g>
		<defs>
			<path id="SVGID_00000047025101984067393640000002028770260685784737_" d="M555,487.1V369.5c0-13.9,11.4-25.2,25.4-25.2
				s25.4,11.3,25.4,25.2v117.6"/>
		</defs>
		<clipPath id="SVGID_00000137853194000868290420000002821553751208201898_">
			<use xlink:href="#SVGID_00000047025101984067393640000002028770260685784737_"  style="overflow:visible;"/>
		</clipPath>
		<g style="clip-path:url(#SVGID_00000137853194000868290420000002821553751208201898_);">
			<path class="st19" d="M565.8,469.6c-0.6,0-1-0.4-1-1V355.9c0-0.6,0.4-1,1-1s1,0.4,1,1v112.7C566.8,469.1,566.4,469.6,565.8,469.6
				L565.8,469.6z M578.8,487.6c-0.6,0-1-0.5-1-1c0.2-27.5,0.2-54,0-81c0-0.6,0.4-1,1-1s1,0.4,1,1c0.2,27,0.2,53.5,0,81
				C579.8,487.1,579.4,487.6,578.8,487.6z M595.8,457.7c-0.6,0-1-0.4-1-1V324.1c0-0.6,0.4-1,1-1s1,0.4,1,1v132.6
				C596.8,457.2,596.3,457.7,595.8,457.7z M577.2,392.1c-0.6,0-1-0.4-1-1v-29.7c0-0.6,0.4-1,1-1s1,0.4,1,1v29.7
				C578.2,391.6,577.8,392.1,577.2,392.1z M566.8,487.8c-0.6,0-1-0.4-1-1v-4c0-0.6,0.4-1,1-1s1,0.4,1,1v4
				C567.8,487.3,567.4,487.8,566.8,487.8z"/>
		</g>
	</g>
	<g>
		<path class="st20" d="M555,400.9h50.7v10H555V400.9z"/>
	</g>
	<g>
		<path class="st0" d="M513.3,370.9h268.2v36H513.3"/>
		<path class="st19" d="M718.7,379.2H518.4c-0.6,0-1-0.4-1-1s0.4-1,1-1h200.3c0.6,0,1,0.4,1,1S719.3,379.2,718.7,379.2z
			 M758.8,390.1H558.5c-0.6,0-1-0.4-1-1s0.4-1,1-1h200.4c0.6,0,1,0.4,1,1S759.4,390.1,758.8,390.1L758.8,390.1z M728.8,401H528.4
			c-0.6,0-1-0.4-1-1s0.4-1,1-1h200.4c0.6,0,1,0.4,1,1S729.3,401,728.8,401L728.8,401z"/>
		<path class="st1" d="M513.3,405.8h268.2v2H513.3V405.8z M513.3,369.9h268.2v2H513.3V369.9z"/>
	</g>
	<g>
		<circle class="st21" cx="579.3" cy="389.2" r="4.9"/>
		<path class="st22" d="M579.3,395.1c-3.3,0-5.9-2.6-5.9-5.9s2.6-5.9,5.9-5.9s5.9,2.6,5.9,5.9S582.6,395.1,579.3,395.1z
			 M579.3,385.3c-2.1,0-3.9,1.7-3.9,3.9s1.7,3.9,3.9,3.9c2.1,0,3.9-1.7,3.9-3.9S581.5,385.3,579.3,385.3z"/>
		<g>
			<path class="st22" d="M581,391.5c-0.1,0-0.3-0.1-0.4-0.2l-3.4-3.5c-0.2-0.2-0.2-0.5,0-0.7s0.5-0.2,0.7,0l3.4,3.5
				c0.2,0.2,0.2,0.5,0,0.7C581.3,391.4,581.1,391.5,581,391.5z"/>
			<path class="st22" d="M577.6,391.5c-0.1,0-0.2,0-0.3-0.1c-0.2-0.2-0.2-0.5,0-0.7l3.3-3.5c0.2-0.2,0.5-0.2,0.7,0s0.2,0.5,0,0.7
				l-3.3,3.5C577.9,391.4,577.8,391.5,577.6,391.5z"/>
		</g>
	</g>
	<g>
		<path class="st8" d="M250.4,498h250.9l-6.1-21.1c-0.5-2.7-1.8-5.3-4-7.3c-6.7-6.4-14.2-2.5-17.8,0.1c-1.1,0.8-2.8,0.5-3.4-0.6
			l-13.3-25.4c-4.1-7.9-17.6-8.2-22.2-0.5l-17.4,28.9c-0.6,1-2.3,0.9-2.8-0.1l-5-10.2c-3.8-7.8-16.8-8.5-21.9-1.3l-11.2,20.6
			c-0.6,1.1-2.5,1-3-0.1l-17-37.2c-4.2-7.9-17.7-8.1-22.2-0.3l-7.7,13.2c-1.1,1.9-4.2,2.3-5.9,0.7l-5.3-5c-6.4-6.1-18.3-3.9-21,3.8
			l-3.5,22.4c-0.2,1.2-2,1.2-2.1-0.1l-0.6-9.2c-0.4-6-6.8-10.6-13.9-9.6c-4,0.5-7.7,2.7-9.4,6.4L250.4,498z"/>
		<path class="st17" d="M499.5,492.9c-0.4,0-0.8-0.3-1-0.7l-4.3-15.9c-0.5-2.7-1.8-5-3.7-6.8c-6.1-5.8-13-2.4-16.5,0.2
			c-0.8,0.6-1.8,0.8-2.8,0.6c-0.9-0.2-1.6-0.7-2.1-1.5l-13.3-25.5c-1.7-3.3-5.5-5.5-9.9-5.6c-4.5-0.2-8.5,1.8-10.5,5.1L418,471.7
			c-0.5,0.8-1.3,1.2-2.3,1.2s-1.8-0.6-2.2-1.3l-5-10.2c-1.6-3.2-5.1-5.4-9.3-5.7c-4.4-0.3-8.5,1.4-10.8,4.5l-11.2,20.5
			c-0.5,0.8-1.4,1.3-2.4,1.3c-1.1,0-2-0.6-2.3-1.5l-17-37.2c-1.7-3.3-5.6-5.4-10-5.5h-0.2c-4.4,0-8.2,2-10.1,5.3l-7.7,13.2
			c-0.7,1.1-1.9,1.9-3.3,2.1c-1.5,0.2-3.1-0.2-4.1-1.2l-5.3-5c-2.9-2.8-7.4-3.9-11.7-2.8c-3.7,0.9-6.5,3.2-7.6,6.1l-3.5,22.3
			c-0.2,1-1.1,1.6-2.2,1.6c-1-0.1-1.8-0.8-1.9-1.7l-0.6-9.4c-0.2-2.4-1.4-4.6-3.4-6.2c-2.5-2-5.9-2.9-9.3-2.5
			c-4,0.5-7.2,2.7-8.6,5.8l-12.6,26.2c-0.2,0.5-0.8,0.7-1.3,0.5s-0.7-0.8-0.5-1.3l12.6-26.2c1.7-3.8,5.5-6.3,10.2-6.9
			c3.9-0.6,7.9,0.5,10.8,2.9c2.5,2,4,4.7,4.2,7.7l0.6,9.2h0.1l3.4-22.5c1.3-3.7,4.7-6.5,9-7.5c5-1.2,10.2,0.1,13.6,3.3l5.3,5
			c0.6,0.6,1.5,0.8,2.4,0.7c0.8-0.1,1.5-0.6,1.9-1.2l7.7-13.2c2.3-4,6.9-6.3,12.1-6.3c5.2,0.1,9.7,2.6,11.8,6.6l17,37.2
			c0.1,0.2,0.3,0.3,0.6,0.3c0.2,0,0.5-0.1,0.6-0.2l11.2-20.7c2.6-3.7,7.4-5.8,12.6-5.4c5,0.4,9.1,2.9,11,6.8l5,10.2
			c0.1,0.1,0.3,0.2,0.5,0.2s0.4,0,0.5-0.2l17.4-28.9c2.3-3.9,7.1-6.3,12.3-6.1c5.1,0.2,9.6,2.7,11.6,6.7l13.3,25.4
			c0.1,0.2,0.4,0.4,0.7,0.5c0.4,0.1,0.9,0,1.2-0.2c9.8-7,16.6-2.4,19.1,0c2.2,2,3.7,4.7,4.3,7.8l4.3,15.8c0.1,0.5-0.2,1.1-0.7,1.2
			C499.7,492.9,499.6,492.9,499.5,492.9L499.5,492.9z"/>
		<path class="st0" d="M345.1,497.8V369.5c0-14.5-11.8-26.2-26.4-26.2s-26.4,11.8-26.4,26.2v128.3H345.1z"/>
		<path class="st1" d="M293.4,497.8V369.5c0-13.9,11.4-25.1,25.4-25.1s25.4,11.3,25.4,25.2v128.2h2V369.5c0-15-12.3-27.1-27.4-27.1
			s-27.4,12.2-27.4,27.2v128.2H293.4z"/>
		<g>
			<defs>
				<path id="SVGID_00000099657702762291935820000016155200052655833265_" d="M293.4,487.1V369.5c0-13.9,11.4-25.2,25.4-25.2
					s25.4,11.3,25.4,25.2v117.6"/>
			</defs>
			<clipPath id="SVGID_00000116949340716115551490000014131515145145473183_">
				<use xlink:href="#SVGID_00000099657702762291935820000016155200052655833265_"  style="overflow:visible;"/>
			</clipPath>
			<g style="clip-path:url(#SVGID_00000116949340716115551490000014131515145145473183_);">
				<path class="st19" d="M304.3,469.6c-0.6,0-1-0.4-1-1V355.9c0-0.6,0.4-1,1-1s1,0.4,1,1v112.7
					C305.3,469.1,304.8,469.6,304.3,469.6L304.3,469.6z M317.2,487.6c-0.6,0-1-0.5-1-1c0.1-27.5,0.1-54,0-81c0-0.6,0.4-1,1-1
					s1,0.4,1,1c0.1,27,0.1,53.5,0,81C318.2,487.1,317.8,487.6,317.2,487.6z M334.2,457.7c-0.6,0-1-0.4-1-1V324.1c0-0.6,0.4-1,1-1
					s1,0.4,1,1v132.6C335.2,457.2,334.8,457.7,334.2,457.7z M315.6,392.1c-0.6,0-1-0.4-1-1v-29.7c0-0.6,0.4-1,1-1s1,0.4,1,1v29.7
					C316.6,391.6,316.2,392.1,315.6,392.1z M305.2,487.8c-0.6,0-1-0.4-1-1v-4c0-0.6,0.4-1,1-1s1,0.4,1,1v4
					C306.3,487.3,305.8,487.8,305.2,487.8z"/>
			</g>
		</g>
		<g>
			<path class="st20" d="M293.4,400.9h50.7v10h-50.7V400.9z"/>
		</g>
		<g>
			<path class="st0" d="M251.7,370.9h267.6v36H251.7"/>
			<path class="st19" d="M456.3,379.2H256.8c-0.6,0-1-0.4-1-1s0.4-1,1-1h199.5c0.6,0,1,0.4,1,1S456.9,379.2,456.3,379.2z
				 M496.2,390.1H296.8c-0.6,0-1-0.4-1-1s0.4-1,1-1h199.5c0.6,0,1,0.4,1,1S496.8,390.1,496.2,390.1L496.2,390.1z M466.3,401H266.8
				c-0.6,0-1-0.4-1-1s0.4-1,1-1h199.5c0.6,0,1,0.4,1,1S466.9,401,466.3,401z"/>
			<path class="st1" d="M251.7,405.7h267.6v2H251.7V405.7z M251.7,369.9h267.6v2H251.7V369.9z"/>
		</g>
		<g>
			<circle class="st21" cx="317.7" cy="389.2" r="4.9"/>
			<path class="st22" d="M317.7,395.1c-3.3,0-5.9-2.6-5.9-5.9s2.6-5.9,5.9-5.9s5.9,2.6,5.9,5.9S321,395.1,317.7,395.1z M317.7,385.3
				c-2.1,0-3.9,1.7-3.9,3.9s1.7,3.9,3.9,3.9c2.1,0,3.9-1.7,3.9-3.9S319.9,385.3,317.7,385.3z"/>
			<g>
				<path class="st22" d="M319.4,391.5c-0.1,0-0.3-0.1-0.4-0.2l-3.4-3.5c-0.2-0.2-0.2-0.5,0-0.7s0.5-0.2,0.7,0l3.4,3.5
					c0.2,0.2,0.2,0.5,0,0.7C319.7,391.4,319.6,391.5,319.4,391.5L319.4,391.5z"/>
				<path class="st22" d="M316,391.5c-0.1,0-0.2,0-0.3-0.1c-0.2-0.2-0.2-0.5,0-0.7l3.3-3.5c0.2-0.2,0.5-0.2,0.7,0s0.2,0.5,0,0.7
					l-3.3,3.5C316.3,391.4,316.2,391.5,316,391.5L316,391.5z"/>
			</g>
		</g>
	</g>
	<g>
		<path class="st8" d="M-11.2,498h250.9l-6.1-21.1c-0.5-2.7-1.8-5.3-4-7.3c-6.7-6.4-14.2-2.5-17.8,0.1c-1.1,0.8-2.8,0.5-3.4-0.6
			l-13.3-25.4c-4.1-7.9-17.6-8.2-22.2-0.5l-17.4,28.9c-0.6,1-2.3,0.9-2.8-0.1l-5-10.2c-3.8-7.8-16.8-8.5-21.9-1.3l-11.2,20.6
			c-0.6,1.1-2.5,1-3-0.1l-17-37.2c-4.2-7.9-17.7-8.1-22.3-0.3l-7.6,13.1c-1.1,1.9-4.2,2.3-5.9,0.7l-5.3-5c-6.4-6.1-18.3-3.9-21,3.8
			L29,478.5c-0.2,1.2-2,1.2-2.1-0.1l-0.6-9.2c-0.4-6-6.8-10.6-13.9-9.6c-4,0.5-7.7,2.7-9.4,6.4L-11.2,498z"/>
		<path class="st17" d="M238,492.9c-0.4,0-0.8-0.3-1-0.7l-4.3-15.9c-0.5-2.7-1.8-5-3.7-6.8c-6.1-5.8-13-2.4-16.5,0.2
			c-0.8,0.6-1.8,0.8-2.8,0.6c-0.9-0.2-1.6-0.7-2.1-1.5l-13.3-25.5c-1.7-3.3-5.5-5.5-9.9-5.6c-4.5-0.2-8.5,1.8-10.5,5.1l-17.4,29
			c-0.5,0.8-1.3,1.2-2.3,1.2s-1.8-0.6-2.2-1.3l-5-10.2c-1.6-3.2-5.1-5.4-9.3-5.7c-4.4-0.3-8.5,1.4-10.8,4.5l-11.2,20.5
			c-0.5,0.8-1.4,1.3-2.4,1.3c-1.1,0-2-0.6-2.3-1.5l-17-37.2c-1.7-3.3-5.6-5.4-10-5.5c-4.5-0.1-8.6,1.9-10.5,5.3l-7.6,13.2
			c-0.7,1.1-1.9,1.9-3.3,2.1c-1.5,0.2-3.1-0.2-4.1-1.2l-5.3-5c-2.9-2.8-7.4-3.9-11.7-2.8c-3.7,0.9-6.5,3.2-7.6,6.1l-3.5,22.3
			c-0.2,1-1.1,1.6-2.2,1.6c-1-0.1-1.8-0.8-1.9-1.7l-0.6-9.4c-0.2-2.4-1.4-4.6-3.4-6.2c-2.5-2-5.9-2.9-9.3-2.5
			c-4,0.5-7.2,2.7-8.6,5.8l-12.7,26.2c-0.2,0.5-0.8,0.7-1.3,0.5s-0.7-0.8-0.5-1.3l12.6-26.3c1.7-3.8,5.5-6.3,10.2-6.9
			c3.9-0.6,7.9,0.5,10.8,2.9c2.5,2,4,4.7,4.2,7.7l0.6,9.2h0.1l3.5-22.4c1.3-3.7,4.7-6.5,9-7.5c5-1.2,10.2,0.1,13.6,3.3l5.3,5
			c0.6,0.6,1.5,0.8,2.4,0.7c0.8-0.1,1.5-0.6,1.9-1.2l7.6-13.2c2.3-4,7.1-6.4,12.3-6.3c5.1,0.1,9.6,2.6,11.7,6.6l17,37.2
			c0.1,0.2,0.3,0.3,0.6,0.3c0.2,0,0.5-0.1,0.6-0.2l11.2-20.7c2.6-3.7,7.4-5.8,12.6-5.4c5,0.4,9.1,2.9,11,6.8l5,10.2
			c0.1,0.1,0.3,0.2,0.5,0.2s0.4,0,0.5-0.2l17.4-28.9c2.3-3.9,7-6.3,12.3-6.1c5.1,0.2,9.6,2.7,11.6,6.7l13.3,25.4
			c0.1,0.2,0.4,0.4,0.7,0.5c0.4,0.1,0.9,0,1.2-0.2c9.8-7,16.6-2.4,19.1,0c2.2,2,3.7,4.7,4.3,7.8l4.3,15.8c0.1,0.5-0.2,1.1-0.7,1.2
			H238L238,492.9z"/>
		<path class="st0" d="M83.5,497.8V369.5c0-14.5-11.8-26.2-26.4-26.2s-26.4,11.8-26.4,26.2v128.3H83.5z"/>
		<path class="st1" d="M31.8,497.8V369.5c0-13.9,11.4-25.1,25.4-25.1s25.4,11.3,25.4,25.2v128.2h2V369.5c0-15-12.3-27.1-27.4-27.1
			s-27.4,12.1-27.4,27.1v128.3C29.8,497.8,31.8,497.8,31.8,497.8z"/>
		<g>
			<defs>
				<path id="SVGID_00000126289109096286016130000014214510289267594888_" d="M31.8,497.1V369.5c0-13.9,11.4-25.2,25.4-25.2
					s25.4,11.3,25.4,25.2v127.6"/>
			</defs>
			<clipPath id="SVGID_00000082333806782035947080000000618513138732263587_">
				<use xlink:href="#SVGID_00000126289109096286016130000014214510289267594888_"  style="overflow:visible;"/>
			</clipPath>
			<g style="clip-path:url(#SVGID_00000082333806782035947080000000618513138732263587_);">
				<path class="st19" d="M42.7,469.6c-0.6,0-1-0.4-1-1V355.9c0-0.6,0.4-1,1-1s1,0.4,1,1v112.7C43.7,469.1,43.2,469.6,42.7,469.6
					L42.7,469.6z M55.6,487.6c-0.6,0-1-0.4-1-1c-0.1-27.5-0.1-54,0-81c0-0.6,0.5-1,1-1c0.6,0,1,0.5,1,1c-0.1,27-0.1,53.5,0,81
					C56.6,487.1,56.2,487.6,55.6,487.6z M72.6,457.7c-0.6,0-1-0.4-1-1V324.1c0-0.6,0.4-1,1-1s1,0.4,1,1v132.6
					C73.6,457.2,73.2,457.7,72.6,457.7z M54,392.1c-0.6,0-1-0.4-1-1v-29.7c0-0.6,0.4-1,1-1s1,0.4,1,1v29.7
					C55,391.6,54.6,392.1,54,392.1z M43.7,487.8c-0.6,0-1-0.4-1-1v-4c0-0.6,0.4-1,1-1s1,0.4,1,1v4C44.7,487.3,44.2,487.8,43.7,487.8
					z"/>
			</g>
		</g>
		<g>
			<path class="st20" d="M31.8,400.9h50.7v10H31.8V400.9z"/>
		</g>
		<g>
			<path class="st0" d="M-11.5,370.9h268.4v36H-11.5"/>
			<path class="st19" d="M194.7,379.2H-4.8c-0.6,0-1-0.4-1-1s0.4-1,1-1h199.5c0.6,0,1,0.4,1,1S195.3,379.2,194.7,379.2z
				 M234.7,390.1H35.2c-0.6,0-1-0.4-1-1s0.4-1,1-1h199.5c0.6,0,1,0.4,1,1S235.2,390.1,234.7,390.1z M204.7,401H5.2c-0.6,0-1-0.4-1-1
				s0.4-1,1-1h199.5c0.6,0,1,0.4,1,1S205.3,401,204.7,401z"/>
			<path class="st1" d="M-11.5,405.7h268.6v2H-11.5V405.7z M-11.5,369.9h268.6v2H-11.5V369.9z"/>
		</g>
		<g>
			<circle class="st21" cx="56.1" cy="389.2" r="4.9"/>
			<path class="st22" d="M56.1,395.1c-3.3,0-5.9-2.6-5.9-5.9s2.6-5.9,5.9-5.9s5.9,2.6,5.9,5.9S59.4,395.1,56.1,395.1z M56.1,385.3
				c-2.1,0-3.9,1.7-3.9,3.9s1.7,3.9,3.9,3.9c2.1,0,3.9-1.7,3.9-3.9S58.3,385.3,56.1,385.3z"/>
			<g>
				<path class="st22" d="M57.8,391.5c-0.1,0-0.3-0.1-0.4-0.2l-3.4-3.5c-0.2-0.2-0.2-0.5,0-0.7s0.5-0.2,0.7,0l3.4,3.5
					c0.2,0.2,0.2,0.5,0,0.7C58.1,391.4,58,391.5,57.8,391.5z"/>
				<path class="st22" d="M54.4,391.5c-0.1,0-0.2,0-0.3-0.1c-0.2-0.2-0.2-0.5,0-0.7l3.3-3.5c0.2-0.2,0.5-0.2,0.7,0s0.2,0.5,0,0.7
					l-3.3,3.5C54.7,391.4,54.6,391.5,54.4,391.5z"/>
			</g>
		</g>
	</g>
</g>
</svg>
