<svg version="1.1" id="Layer_1" xmlns="http://www.w3.org/2000/svg" xmlns:xlink="http://www.w3.org/1999/xlink" x="0" y="0" viewBox="0 0 793 498" style="enable-background:new 0 0 793 498" xml:space="preserve"><style>.st0{fill:#9b5f66}.st1{fill:#4c3035}.st3{fill:none;stroke:#b27d85;stroke-linecap:round;stroke-miterlimit:10}.st4{fill:none;stroke:#7f4f56;stroke-width:10}.st4,.st5,.st6,.st7{stroke-miterlimit:10}.st5{fill:none;stroke:#4c3035;stroke-width:2}.st6,.st7{stroke:#665d39}.st6{fill:#baba6a;stroke-width:2}.st7{fill:none;stroke-linecap:round}.st8{fill:#fc92b1}.st9{fill:none;stroke:#995b73;stroke-width:2;stroke-linecap:round;stroke-miterlimit:10}.st16{fill:#efead8}.st17{fill:#995b73}.st19{fill:#b27d85}.st20{fill:#7f4f56}.st21{fill:#baba6a}.st22{fill:#665d39}</style><path class="st0" d="M688.4 261c-8.6 0-15.6-7-15.6-15.6V55.3c0-8.6 7-15.6 15.6-15.6s15.6 7 15.6 15.6v190.1c-.1 8.6-7.1 15.6-15.6 15.6z"/><path class="st1" d="M688.4 40.6c8.1 0 14.6 6.5 14.6 14.6v190.1c0 8.1-6.5 14.6-14.6 14.6s-14.6-6.5-14.6-14.6v-190c-.1-8.1 6.5-14.7 14.6-14.7m0-2c-9.2 0-16.6 7.5-16.6 16.6v190.1c0 9.2 7.5 16.6 16.6 16.6s16.6-7.5 16.6-16.6v-190c-.1-9.2-7.6-16.7-16.6-16.7z"/><defs><path id="SVGID_1_" d="M688.4 260c-8.1 0-14.6-6.5-14.6-14.6V55.3c0-8.1 6.5-14.6 14.6-14.6S703 47.2 703 55.3v190.1c-.1 8.1-6.6 14.6-14.6 14.6z"/></defs><clipPath id="SVGID_00000076604373414550588350000016966936104609716632_"><use xlink:href="#SVGID_1_" style="overflow:visible"/></clipPath><g style="clip-path:url(#SVGID_00000076604373414550588350000016966936104609716632_)"><path class="st3" d="M680 247.3v65.4M687.5 276.2v65.4M697.2 228.9v76.9M686.6 250.5v17.3M680.6 321v12.8"/><g><path class="st3" d="M680 147.3v65.4M687.5 176.2v65.4M697.2 128.9v76.9M686.6 150.5v17.3M680.6 221v12.8"/></g><g><path class="st3" d="M680 47.3v65.4M687.5 76.2v65.4M697.2 28.9v76.9M686.6 50.5v17.3M680.6 121v12.8"/></g></g><path class="st4" d="M673.7 76.3h29.2"/><path class="st0" d="M649.7 56H793v20.9H649.7"/><path class="st3" d="M662.6 61.2h55.1M685.7 66.6h55.1M668.4 71.9h95.1"/><path class="st5" d="m649.7 76.8 143.3.1M649.7 56H793"/><circle class="st6" cx="687.8" cy="66.7" r="2.8"/><path class="st7" d="m686.8 65.7 2 2M688.7 65.7l-1.8 2"/><path class="st3" d="M735.6 62.6h15.2M765.6 66.6h25.2"/><path class="st8" d="M649.7 163h138.9l1.6-12.2c-.3-1.5-1-3-2.3-4.2-3.8-3.7-8.2-1.4-10.2 0-.6.5-1.6.3-1.9-.4l-7.6-14.7c-2.4-4.6-10.1-4.7-12.7-.3l-10 16.7c-.3.6-1.3.5-1.6 0L741 142c-2.2-4.5-9.7-4.9-12.6-.7l-6.4 11.9c-.3.6-1.4.6-1.7 0l-9.7-21.5c-2.4-4.6-10.2-4.7-12.8-.2l-4.4 7.6c-.6 1.1-2.4 1.3-3.4.4l-3-2.9c-3.6-3.5-10.5-2.2-12 2.2l-2 12.9c-.1.6-1.2.6-1.2 0l-.4-5.4c-.2-3.4-3.9-6.1-8-5.6-2.3.3-4.4 1.5-5.4 3.7l-8.3 18.6z"/><path class="st9" d="m788 157.7.9-4.8c.3-1.4.3-2.9.1-4.3-.1-.7-.4-1.4-1-2-3.8-3.7-8.2-1.4-10.2 0-.6.5-1.6.3-1.9-.4l-7.6-14.7c-2.4-4.6-10.1-4.7-12.7-.3l-10 16.7c-.4.6-1.3.6-1.6-.1l-2.9-5.9c-2.2-4.5-9.7-4.9-12.6-.7l-6.4 11.9c-.4.7-1.4.7-1.7-.1l-9.7-21.5c-2.4-4.6-10.2-4.7-12.8-.2l-4.4 7.6c-.6 1.1-2.4 1.3-3.4.4l-3-2.9c-3.6-3.5-10.5-2.2-12 2.2l-2 12.9c-.1.7-1.1.7-1.2-.1l-.4-5.4c-.2-3.4-3.9-6.1-8-5.6-2.3.3-4.4 1.5-5.4 3.7l-5.4 12.5"/><g><path class="st0" d="M558.4 261c-8.6 0-15.6-7-15.6-15.6V55.3c0-8.6 7-15.6 15.6-15.6s15.6 7 15.6 15.6v190.1c0 8.6-7 15.6-15.6 15.6z"/><path class="st1" d="M558.4 40.6c8.1 0 14.6 6.5 14.6 14.6v190.1c0 8.1-6.5 14.6-14.6 14.6s-14.6-6.5-14.6-14.6v-190c-.1-8.1 6.5-14.7 14.6-14.7m0-2c-9.2 0-16.6 7.5-16.6 16.6v190.1c0 9.2 7.5 16.6 16.6 16.6s16.6-7.5 16.6-16.6v-190c0-9.2-7.5-16.7-16.6-16.7z"/><defs><path id="SVGID_00000134227706318685029930000013809846376965195946_" d="M558.4 260c-8.1 0-14.6-6.5-14.6-14.6V55.3c0-8.1 6.5-14.6 14.6-14.6S573 47.2 573 55.3v190.1c0 8.1-6.5 14.6-14.6 14.6z"/></defs><clipPath id="SVGID_00000093861095022962460230000009786081273261547651_"><use xlink:href="#SVGID_00000134227706318685029930000013809846376965195946_" style="overflow:visible"/></clipPath><g style="clip-path:url(#SVGID_00000093861095022962460230000009786081273261547651_)"><path class="st3" d="M550 247.3v65.4M557.5 276.2v65.4M567.3 228.9v76.9M556.6 250.5v17.3M550.6 321v12.8"/><g><path class="st3" d="M550 147.3v65.4M557.5 176.2v65.4M567.3 128.9v76.9M556.6 150.5v17.3M550.6 221v12.8"/></g><g><path class="st3" d="M550 47.3v65.4M557.5 76.2v65.4M567.3 28.9v76.9M556.6 50.5v17.3M550.6 121v12.8"/></g></g><path class="st4" d="M543.7 76.3H573"/><path class="st0" d="M519.7 56h143v20.9h-143"/><path class="st3" d="M532.6 61.2h55.2M555.7 66.6h55.2M538.4 71.9h95.2"/><path class="st5" d="M519.7 76.8h143M519.7 56h143"/><g><circle class="st6" cx="557.8" cy="66.7" r="2.8"/><path class="st7" d="m556.8 65.7 2 2M558.7 65.7l-1.8 2"/></g><path class="st3" d="M605.7 62.6h15.2M635.7 66.6h25.2"/><path class="st8" d="M519.7 163h142.9l-2.4-12.2c-.3-1.5-1-3-2.3-4.2-3.8-3.7-8.2-1.4-10.2 0-.6.5-1.6.3-1.9-.4l-7.6-14.7c-2.4-4.6-10.1-4.7-12.7-.3l-10 16.7c-.3.6-1.3.5-1.6 0L611 142c-2.2-4.5-9.7-4.9-12.6-.7l-6.4 11.9c-.3.6-1.4.6-1.7 0l-9.7-21.5c-2.4-4.6-10.2-4.7-12.8-.2l-4.4 7.6c-.6 1.1-2.4 1.3-3.4.4l-3-2.9c-3.6-3.5-10.5-2.2-12 2.2l-2 12.9c-.1.6-1.2.6-1.2 0l-.4-5.4c-.2-3.4-3.9-6.1-8-5.6-2.3.3-4.4 1.5-5.4 3.7l-8.3 18.6z"/><path class="st9" d="m658.1 157.7.9-4.8c.3-1.4.3-2.9.1-4.3-.1-.7-.4-1.4-1-2-3.8-3.7-8.2-1.4-10.2 0-.6.5-1.6.3-1.9-.4l-7.6-14.7c-2.4-4.6-10.1-4.7-12.7-.3l-10 16.7c-.4.6-1.3.6-1.6-.1l-2.9-5.9c-2.2-4.5-9.7-4.9-12.6-.7l-6.4 11.9c-.4.7-1.4.7-1.7-.1l-9.7-21.5c-2.4-4.6-10.2-4.7-12.8-.2l-4.4 7.6c-.6 1.1-2.4 1.3-3.4.4l-3-2.9c-3.6-3.5-10.5-2.2-12 2.2l-2 12.9c-.1.7-1.1.7-1.2-.1l-.4-5.4c-.2-3.4-3.9-6.1-8-5.6-2.3.3-4.4 1.5-5.4 3.7l-5.4 12.5"/></g><g><path class="st0" d="M428.5 261c-8.6 0-15.6-7-15.6-15.6V55.3c0-8.6 7-15.6 15.6-15.6s15.6 7 15.6 15.6v190.1c0 8.6-7 15.6-15.6 15.6z"/><path class="st1" d="M428.5 40.6c8.1 0 14.6 6.5 14.6 14.6v190.1c0 8.1-6.6 14.6-14.6 14.6s-14.6-6.5-14.6-14.6v-190c-.1-8.1 6.5-14.7 14.6-14.7m0-2c-9.2 0-16.6 7.5-16.6 16.6v190.1c0 9.2 7.5 16.6 16.6 16.6 9.2 0 16.6-7.5 16.6-16.6v-190c0-9.2-7.5-16.7-16.6-16.7z"/><defs><path id="SVGID_00000149359565419428549480000000747208898462253228_" d="M428.5 260c-8.1 0-14.6-6.5-14.6-14.6V55.3c0-8.1 6.5-14.6 14.6-14.6s14.6 6.5 14.6 14.6v190.1c0 8.1-6.5 14.6-14.6 14.6z"/></defs><clipPath id="SVGID_00000102517194601473733590000000659668180969932958_"><use xlink:href="#SVGID_00000149359565419428549480000000747208898462253228_" style="overflow:visible"/></clipPath><g style="clip-path:url(#SVGID_00000102517194601473733590000000659668180969932958_)"><path class="st3" d="M420.1 247.3v65.4M427.6 276.2v65.4M437.4 228.9v76.9M426.7 250.5v17.3M420.7 321v12.8"/><g><path class="st3" d="M420.1 147.3v65.4M427.6 176.2v65.4M437.4 128.9v76.9M426.7 150.5v17.3M420.7 221v12.8"/></g><g><path class="st3" d="M420.1 47.3v65.4M427.6 76.2v65.4M437.4 28.9v76.9M426.7 50.5v17.3M420.7 121v12.8"/></g></g><path class="st4" d="M413.8 76.3h29.3"/><path class="st0" d="M389.8 56h142.9v20.9H389.8"/><path class="st3" d="M402.7 61.2h55.2M425.8 66.6H481M408.5 71.9h95.1"/><path class="st5" d="M389.8 76.8h142.9M389.8 56h142.9"/><g><circle class="st6" cx="427.9" cy="66.7" r="2.8"/><path class="st7" d="m426.9 65.7 2 2M428.8 65.7l-1.8 2"/></g><path class="st3" d="M475.8 62.6H491M505.7 66.6h25.2"/><path class="st8" d="M389.8 163h142.9l-2.4-12.2c-.3-1.5-1-3-2.3-4.2-3.8-3.7-8.2-1.4-10.2 0-.6.5-1.6.3-1.9-.4l-7.6-14.7c-2.4-4.6-10.1-4.7-12.7-.3l-10 16.7c-.3.6-1.3.5-1.6 0l-2.9-5.9c-2.2-4.5-9.7-4.9-12.6-.7l-6.4 11.9c-.3.6-1.4.6-1.7 0l-9.7-21.5c-2.4-4.6-10.2-4.7-12.8-.2l-4.4 7.6c-.6 1.1-2.4 1.3-3.4.4l-3-2.9c-3.6-3.5-10.5-2.2-12 2.2l-2 12.9c-.1.6-1.2.6-1.2 0l-.4-5.4c-.2-3.4-3.9-6.1-8-5.6-2.3.3-4.4 1.5-5.4 3.7l-8.3 18.6z"/><path class="st9" d="m528.1 157.7.9-4.8c.3-1.4.3-2.9.1-4.3-.1-.7-.4-1.4-1-2-3.8-3.7-8.2-1.4-10.2 0-.6.5-1.6.3-1.9-.4l-7.6-14.7c-2.4-4.6-10.1-4.7-12.7-.3l-10 16.7c-.4.6-1.3.6-1.6-.1l-2.9-5.9c-2.2-4.5-9.7-4.9-12.6-.7l-6.4 11.9c-.4.7-1.4.7-1.7-.1l-9.7-21.5c-2.4-4.6-10.2-4.7-12.8-.2l-4.4 7.6c-.6 1.1-2.4 1.3-3.4.4l-3-2.9c-3.6-3.5-10.5-2.2-12 2.2l-2 12.9c-.1.7-1.1.7-1.2-.1l-.4-5.4c-.2-3.4-3.9-6.1-8-5.6-2.3.3-4.4 1.5-5.4 3.7l-5.4 12.5"/></g><g><path class="st0" d="M298.5 261c-8.6 0-15.6-7-15.6-15.6V55.3c0-8.6 7-15.6 15.6-15.6s15.6 7 15.6 15.6v190.1c0 8.6-7 15.6-15.6 15.6z"/><path class="st1" d="M298.5 40.6c8.1 0 14.6 6.5 14.6 14.6v190.1c0 8.1-6.6 14.6-14.6 14.6s-14.6-6.5-14.6-14.6v-190c0-8.1 6.6-14.7 14.6-14.7m0-2c-9.2 0-16.6 7.5-16.6 16.6v190.1c0 9.2 7.5 16.6 16.6 16.6 9.2 0 16.6-7.5 16.6-16.6v-190c0-9.2-7.5-16.7-16.6-16.7z"/><defs><path id="SVGID_00000085939975578821545310000000692473530246002065_" d="M298.5 260c-8.1 0-14.6-6.5-14.6-14.6V55.3c0-8.1 6.5-14.6 14.6-14.6s14.6 6.5 14.6 14.6v190.1c0 8.1-6.5 14.6-14.6 14.6z"/></defs><clipPath id="SVGID_00000161627374690409187980000003507447130440685453_"><use xlink:href="#SVGID_00000085939975578821545310000000692473530246002065_" style="overflow:visible"/></clipPath><g style="clip-path:url(#SVGID_00000161627374690409187980000003507447130440685453_)"><path class="st3" d="M290.2 247.3v65.4M297.6 276.2v65.4M307.4 228.9v76.9M296.8 250.5v17.3M290.8 321v12.8"/><g><path class="st3" d="M290.2 147.3v65.4M297.6 176.2v65.4M307.4 128.9v76.9M296.8 150.5v17.3M290.8 221v12.8"/></g><g><path class="st3" d="M290.2 47.3v65.4M297.6 76.2v65.4M307.4 28.9v76.9M296.8 50.5v17.3M290.8 121v12.8"/></g></g><path class="st4" d="M283.9 76.3h29.2"/><path class="st0" d="M259.9 56h142.9v20.9H259.9"/><path class="st3" d="M272.8 61.2h55.1M295.9 66.6H351M278.6 71.9h95.1"/><path class="st5" d="M259.9 76.8h142.9M259.9 56h142.9"/><g><circle class="st6" cx="297.9" cy="66.7" r="2.8"/><path class="st7" d="m297 65.7 1.9 2M298.8 65.7l-1.7 2"/></g><path class="st3" d="M345.8 62.6H361M375.8 66.6H401"/><path class="st8" d="M259.9 163h142.9l-2.4-12.2c-.3-1.5-1-3-2.3-4.2-3.8-3.7-8.2-1.4-10.2 0-.6.5-1.6.3-1.9-.4l-7.6-14.7c-2.4-4.6-10.1-4.7-12.7-.3l-10 16.7c-.3.6-1.3.5-1.6 0l-2.9-5.9c-2.2-4.5-9.7-4.9-12.6-.7l-6.4 11.9c-.3.6-1.4.6-1.7 0l-9.7-21.5c-2.4-4.6-10.2-4.7-12.8-.2l-4.4 7.6c-.6 1.1-2.4 1.3-3.4.4l-3-2.9c-3.6-3.5-10.5-2.2-12 2.2l-2 12.9c-.1.6-1.2.6-1.2 0l-.4-5.4c-.2-3.4-3.9-6.1-8-5.6-2.3.3-4.4 1.5-5.4 3.7l-8.3 18.6z"/><path class="st9" d="m398.2 157.7.9-4.8c.3-1.4.3-2.9.1-4.3-.1-.7-.4-1.4-1-2-3.8-3.7-8.2-1.4-10.2 0-.6.5-1.6.3-1.9-.4l-7.6-14.7c-2.4-4.6-10.1-4.7-12.7-.3l-10 16.7c-.4.6-1.3.6-1.6-.1l-2.9-5.9c-2.2-4.5-9.7-4.9-12.6-.7l-6.4 11.9c-.4.7-1.4.7-1.7-.1l-9.7-21.5c-2.4-4.6-10.2-4.7-12.8-.2l-4.4 7.6c-.6 1.1-2.4 1.3-3.4.4l-3-2.9c-3.6-3.5-10.5-2.2-12 2.2l-2 12.9c-.1.7-1.1.7-1.2-.1l-.4-5.4c-.2-3.4-3.9-6.1-8-5.6-2.3.3-4.4 1.5-5.4 3.7l-5.4 12.5"/></g><g><path class="st0" d="M168.6 261c-8.6 0-15.6-7-15.6-15.6V55.3c0-8.6 7-15.6 15.6-15.6s15.6 7 15.6 15.6v190.1c0 8.6-7 15.6-15.6 15.6z"/><path class="st1" d="M168.6 40.6c8.1 0 14.6 6.5 14.6 14.6v190.1c0 8.1-6.6 14.6-14.6 14.6s-14.6-6.5-14.6-14.6v-190c-.1-8.1 6.5-14.7 14.6-14.7m0-2c-9.2 0-16.6 7.5-16.6 16.6v190.1c0 9.2 7.5 16.6 16.6 16.6 9.1 0 16.6-7.5 16.6-16.6v-190c0-9.2-7.5-16.7-16.6-16.7z"/><defs><path id="SVGID_00000142157653306075312120000000490427143652629664_" d="M168.6 260c-8.1 0-14.6-6.5-14.6-14.6V55.3c0-8.1 6.6-14.6 14.6-14.6 8.1 0 14.6 6.5 14.6 14.6v190.1c0 8.1-6.5 14.6-14.6 14.6z"/></defs><clipPath id="SVGID_00000015348120401997809520000007933833113180684715_"><use xlink:href="#SVGID_00000142157653306075312120000000490427143652629664_" style="overflow:visible"/></clipPath><g style="clip-path:url(#SVGID_00000015348120401997809520000007933833113180684715_)"><path class="st3" d="M160.2 247.3v65.4M167.7 276.2v65.4M177.5 228.9v76.9M166.8 250.5v17.3M160.8 321v12.8"/><g><path class="st3" d="M160.2 147.3v65.4M167.7 176.2v65.4M177.5 128.9v76.9M166.8 150.5v17.3M160.8 221v12.8"/></g><g><path class="st3" d="M160.2 47.3v65.4M167.7 76.2v65.4M177.5 28.9v76.9M166.8 50.5v17.3M160.8 121v12.8"/></g></g><path class="st4" d="M153.9 76.3h29.3"/><path class="st0" d="M129.9 56h143v20.9h-143"/><path class="st3" d="M142.8 61.2H198M165.9 66.6h55.2M148.6 71.9h95.2"/><path class="st5" d="M129.9 76.8h143M129.9 56h143"/><g><circle class="st6" cx="168" cy="66.7" r="2.8"/><path class="st7" d="m167 65.7 2 2M168.9 65.7l-1.8 2"/></g><path class="st3" d="M215.9 62.6h15.2M245.9 66.6h25.2"/><path class="st8" d="M129.9 163h142.9l-2.4-12.2c-.3-1.5-1-3-2.3-4.2-3.8-3.7-8.2-1.4-10.2 0-.6.5-1.6.3-1.9-.4l-7.6-14.7c-2.4-4.6-10.1-4.7-12.7-.3l-10 16.7c-.3.6-1.3.5-1.6 0l-2.9-5.9c-2.2-4.5-9.7-4.9-12.6-.7l-6.4 11.9c-.3.6-1.4.6-1.7 0l-9.7-21.5c-2.4-4.6-10.2-4.7-12.8-.2l-4.4 7.6c-.6 1.1-2.4 1.3-3.4.4l-3-2.9c-3.6-3.5-10.5-2.2-12 2.2l-2 12.9c-.1.6-1.2.6-1.2 0l-.4-5.4c-.2-3.4-3.9-6.1-8-5.6-2.3.3-4.4 1.5-5.4 3.7l-8.3 18.6z"/><path class="st9" d="m268.3 157.7.9-4.8c.3-1.4.3-2.9.1-4.3-.1-.7-.4-1.4-1-2-3.8-3.7-8.2-1.4-10.2 0-.6.5-1.6.3-1.9-.4l-7.6-14.7c-2.4-4.6-10.1-4.7-12.7-.3l-10 16.7c-.4.6-1.3.6-1.6-.1l-2.9-5.9c-2.2-4.5-9.7-4.9-12.6-.7l-6.4 11.9c-.4.7-1.4.7-1.7-.1l-9.7-21.5c-2.4-4.6-10.2-4.7-12.8-.2l-4.4 7.6c-.6 1.1-2.4 1.3-3.4.4l-3-2.9c-3.6-3.5-10.5-2.2-12 2.2l-2 12.9c-.1.7-1.1.7-1.2-.1l-.4-5.4c-.2-3.4-3.9-6.1-8-5.6-2.3.3-4.4 1.5-5.4 3.7l-5.4 12.5"/></g><g><path class="st0" d="M38.7 261c-8.6 0-15.6-7-15.6-15.6V55.3c0-8.6 7-15.6 15.6-15.6s15.6 7 15.6 15.6v190.1c0 8.6-7 15.6-15.6 15.6z"/><path class="st1" d="M38.7 40.6c8.1 0 14.6 6.5 14.6 14.6v190.1c0 8.1-6.5 14.6-14.6 14.6s-14.6-6.5-14.6-14.6v-190c-.1-8.1 6.5-14.7 14.6-14.7m0-2c-9.2 0-16.6 7.5-16.6 16.6v190.1c0 9.2 7.5 16.6 16.6 16.6s16.6-7.5 16.6-16.6v-190c0-9.2-7.5-16.7-16.6-16.7z"/><defs><path id="SVGID_00000023277461381161462690000012853984253381178042_" d="M38.7 260c-8.1 0-14.6-6.5-14.6-14.6V55.3c0-8.1 6.5-14.6 14.6-14.6s14.6 6.5 14.6 14.6v190.1c0 8.1-6.5 14.6-14.6 14.6z"/></defs><clipPath id="SVGID_00000090272707654980580790000000688055433857738388_"><use xlink:href="#SVGID_00000023277461381161462690000012853984253381178042_" style="overflow:visible"/></clipPath><g style="clip-path:url(#SVGID_00000090272707654980580790000000688055433857738388_)"><path class="st3" d="M30.3 247.3v65.4M37.8 276.2v65.4M47.6 228.9v76.9M36.9 250.5v17.3M30.9 321v12.8"/><g><path class="st3" d="M30.3 147.3v65.4M37.8 176.2v65.4M47.6 128.9v76.9M36.9 150.5v17.3M30.9 221v12.8"/></g><g><path class="st3" d="M30.3 47.3v65.4M37.8 76.2v65.4M47.6 28.9v76.9M36.9 50.5v17.3M30.9 121v12.8"/></g></g><path class="st4" d="M24 76.3h29.3"/><path class="st0" d="M0 56h142.9v20.9H0"/><path class="st3" d="M12.9 61.2h55.2M36 66.6h55.2M18.7 71.9h95.1"/><path class="st5" d="M0 76.8h142.9M0 56h142.9"/><g><circle class="st6" cx="38.1" cy="66.7" r="2.8"/><path class="st7" d="m37.1 65.7 2 2M39 65.7l-1.8 2"/></g><path class="st3" d="M86 62.6h15.1M115.9 66.6h25.2"/><path class="st8" d="M1 163h141.9l-2.4-12.2c-.3-1.5-1-3-2.3-4.2-3.8-3.7-8.2-1.4-10.2 0-.6.5-1.6.3-1.9-.4l-7.6-14.7c-2.4-4.6-10.1-4.7-12.7-.3l-10 16.7c-.3.6-1.3.5-1.6 0l-2.9-5.9c-2.2-4.5-9.7-4.9-12.6-.7l-6.4 11.9c-.3.6-1.4.6-1.7 0L61 131.7c-2.4-4.6-10.2-4.7-12.8-.2l-4.4 7.6c-.6 1.1-2.4 1.3-3.4.4l-3-2.9c-3.6-3.5-10.5-2.2-12 2.2l-2 12.9c-.1.6-1.2.6-1.2 0l-.4-5.4c-.2-3.4-3.9-6.1-8-5.6-2.3.3-4.4 1.5-5.4 3.7L1 163z"/><path class="st9" d="m138.3 157.7.9-4.8c.3-1.4.3-2.9.1-4.3-.1-.7-.4-1.4-1-2-3.8-3.7-8.2-1.4-10.2 0-.6.5-1.6.3-1.9-.4l-7.6-14.7c-2.4-4.6-10.1-4.7-12.7-.3l-10 16.7c-.4.6-1.3.6-1.6-.1l-2.9-5.9c-2.2-4.5-9.7-4.9-12.6-.7l-6.4 11.9c-.4.7-1.4.7-1.7-.1L61 131.5c-2.4-4.6-10.2-4.7-12.8-.2l-4.4 7.6c-.6 1.1-2.4 1.3-3.4.4l-3-2.9c-3.6-3.5-10.5-2.2-12 2.2l-2 12.9c-.1.7-1.1.7-1.2-.1l-.4-5.4c-.2-3.4-3.9-6.1-8-5.6-2.3.3-4.4 1.5-5.4 3.7L3 157"/></g><path style="fill:#fdfaea" d="M0 163h793v335H0z"/><g><path class="st16" d="M3.6 359h78.6c8.4 0 15.8 6.2 17.2 14.6 1 5.8-.3 11.2-4.8 15.7-3.1 3.1-6.6 4.8-10.9 5.4-1.8.2-3.6.3-5.4.3H3.6v-36zM439.7 343.1h-29.3c-2.7 0-5.1-1.2-7.1-3.4-1.7-1.9-2.8-4.3-3.3-7.1-1.2-7.1 2.2-14.2 7.5-16 1-.3 2-.6 3-.6 19.6 0 39.1-.1 58.7 0 6.5 0 11 7 10.5 14.5-.4 6-3.4 10.7-8.1 12.2-.9.3-1.8.3-2.7.3-9.7.1-19.4.1-29.2.1zM77 338.5c-16.6 0-33.3-.1-49.9 0-4.6 0-8.6-1.6-12-4.5-2.9-2.5-4.7-5.7-5.6-9.5-2.1-9.4 3.7-18.9 12.9-21.3 1.6-.4 3.3-.7 5-.7 33.3 0 66.6-.1 99.8 0 11.1 0 18.7 9.3 18 19.2-.6 7.9-5.7 14.2-13.8 16.2-1.5.4-3 .5-4.5.5-16.6.1-33.2.1-49.9.1zM311.8 272.2H263c-5.6 0-10.5-1.4-14.4-4.6-2-1.6-3.2-3.5-3.9-5.6-1.4-3.8-.6-7.5 2.4-10.7 3.6-3.8 8.5-5.9 15-5.9h100.3c3.7 0 7 .8 10 2.3 5.3 2.7 8 6.6 7.8 11.4-.3 7-7.4 12.2-15.8 12.8-3 .2-6 .2-8.9.3-14.6.1-29.1 0-43.7 0zM465.2 240.6h-49.7c-5 0-9.2-1.2-12.8-3.9-1.8-1.4-3.2-2.9-4.2-4.7-3-5.4 0-12.1 5.8-15.3 3.6-2 7.7-2.9 12-2.9 32.8 0 65.7-.1 98.5 0 8.3 0 14.5 3.1 17.6 8.9 1.4 2.6 1.5 5.4.3 8.1-2 4.5-5.9 7.6-12.1 9.1-1.7.4-3.4.6-5.1.6-16.7.1-33.5.1-50.3.1zM674.8 428.3c-16.7 0-33.4-.1-50.2 0-6.6 0-14.4-4.7-16.6-12-2.1-7-.9-13.2 4.3-18.5 3.6-3.7 8-5.4 13-5.4 33.3-.1 66.6-.1 99.9 0 9 0 16.1 5.8 17.6 14.9 1.7 10.4-4.9 18.8-14.2 20.6-1.2.2-2.4.4-3.7.4h-50.1zM348.6 425.6c-16.7 0-33.4-.1-50.2 0-6.5 0-14.5-4.7-16.7-12.2-2-6.9-.8-13 4.3-18.3 3.7-3.7 8.2-5.4 13.2-5.4 33.2-.1 66.3-.1 99.5 0 9.1 0 16.3 5.7 17.9 14.9 1.8 10.3-4.8 18.8-14.1 20.6-1.2.2-2.4.4-3.7.4h-50.2zM371.3 181.9H396c4 0 7.8.5 11.2 1.8 9.7 3.6 10 10.8 2.7 14.6-3.8 2-8.4 2.9-13.6 3-16.6 0-33.3.1-49.9 0-7.8 0-13.7-1.9-17.1-5.8-3.5-4-.9-9 5.8-11.6 3.5-1.3 7.3-1.9 11.5-1.9 4.2-.1 8.3 0 12.5 0 4-.1 8.1-.1 12.2-.1zM72.9 267.4H58.7c-3.7 0-7.3-.5-10.4-2-5.1-2.5-8.3-5.9-8.6-10.5-.3-5 2.2-9 7.8-11.9 2.9-1.5 6.2-2.3 9.9-2.3h32c8.1 0 15.4 4.6 17.1 10.8 1.8 6.4-3.6 13.8-13.4 15.5-1.6.3-3.3.5-5 .5-5.2-.1-10.2-.1-15.2-.1zM533.6 258.9h15.8c10.1 0 18.5 6.4 17.7 14.5-.6 6.1-6.8 11.1-15.1 12-1.7.2-3.5.3-5.2.3H519c-3.5 0-6.8-.5-9.8-1.9-5.5-2.5-8.7-6.1-9.1-11-.4-6.4 5.4-12.3 14.5-13.7 1.2-.2 2.5-.2 3.7-.2h15.3zM675.1 227.3h16.2c7.6 0 15.3 4.6 17 10.7 1.7 6.4-3.6 13.8-13.3 15.5-1.5.3-3.1.5-4.7.5-10.2 0-20.4.1-30.6 0-8.9-.1-16.4-4.7-17.8-11-1.5-7 3.7-13.4 13.2-15.3 1.3-.3 2.6-.4 3.9-.4h16.1zM755.7 194.1h16.2c7.6 0 15.3 4.6 17 10.7 1.7 6.4-3.6 13.8-13.3 15.5-1.5.3-3.1.5-4.7.5-10.2 0-20.4.1-30.6 0-8.9-.1-16.4-4.7-17.8-11-1.5-7 3.7-13.4 13.2-15.3 1.3-.3 2.6-.4 3.9-.4h16.1zM177.1 283h-14.9c-4 0-7.8-.8-11.1-2.6-4.7-2.6-7.3-6.1-7.5-10.5-.3-6.4 5.5-12.1 14.9-13.5.8-.1 1.7-.1 2.6-.1h31.7c3.7 0 7 .8 10 2.3 5.1 2.6 7.6 6.3 7.7 10.7.1 6.7-5.9 12.1-14.8 13.4-1.7.2-3.5.3-5.2.3h-13.4zM502.9 426.5h-15.1c-4.6.1-8.8-1.4-12.2-4.4-3.7-3.3-5.8-7.5-6-12.6-.1-3.9.7-7.5 3-10.7 3-4.3 7.1-7 12.4-7.8 1.8-.3 3.6-.4 5.4-.4 9.1 0 18.2-.1 27.4 0 7.9.1 13.9 3.4 17.3 10.8 2.4 5.3 2.1 10.7-.6 15.7-2.8 5.2-7.3 8.2-13.1 9.3-.6.1-1.3.1-2 .1h-16.5zM157.1 407.7c-5.3 0-10.7.1-16 0-8.3-.1-15-5.4-17.1-13.4-2.6-10.2 3.5-19.4 13.4-21.9 1.6-.4 3.3-.6 5-.6 9.8 0 19.6-.1 29.3.1 7.9.1 13.9 3.4 17.3 10.8 2.4 5.3 2.1 10.6-.7 15.7-2.8 5.2-7.3 8.2-13.1 9.3-.6.1-1.3.1-2 .1-5.3-.1-10.7-.1-16.1-.1zM645.6 194.5h-14.4c-4.3 0-8.3-.5-11.9-2-3.9-1.5-6.1-3.6-7-6.1-.9-2.6.3-4.9 3.1-7 3.5-2.6 8.2-4 14.3-4h31.7c6.2 0 11 1.5 14.6 4.1 4.2 3.1 4 7.9-.1 10.8-3.1 2.2-7 3.5-12.1 4-4.3.4-8.6.1-12.9.2h-5.3zM202.1 188.2c5.2 0 10.4.1 15.5 0 6.7-.1 14.6 2.5 16.7 6.4 2.1 3.7.9 7-4.4 9.9-3.6 1.9-7.9 2.8-12.8 2.8-10.2.1-20.4.1-30.6 0-8.4-.1-15.1-2.5-17.6-7-1.8-3.4-.3-6.4 4.1-9 3.7-2.2 8.4-3.1 13.8-3.1h15.3zM284.8 479.5h-15.5c-9 0-16.2-6.1-17.7-15-.9-5.6.6-10.8 4.7-15.1 3.9-4 8.7-5.8 14.1-5.8 9.9-.1 19.7-.1 29.6 0 3.9 0 7.6 1 10.9 3.4 3.8 2.7 6.2 6.3 7.2 10.8 1.8 7.9-2.2 15.3-8.3 19.2-2.5 1.6-5.4 2.5-8.5 2.5-5.5.1-11 0-16.5 0zM39.6 468.6H24.5c-9.1.1-16.5-5.9-18.1-14.9-1-5.6.5-10.8 4.5-15.1 4-4.2 8.9-5.9 14.5-6 9.7 0 19.4-.1 29.1 0 8.2.1 14.3 3.8 17.4 11.5 2.6 6.4 1 13.5-3.5 18.5-2.8 3.1-6.1 4.9-10.1 5.7-.8.2-1.6.2-2.4.2-5.4.1-10.9.1-16.3.1zM639.8 320.5h-13.6c-3.2 0-6.2-.4-9.1-1.7-5.8-2.6-9.2-7.1-10.4-13.3-.9-5 .2-9.4 3.1-13.4 3.4-4.8 8.1-7.5 14.1-7.5 10.7-.1 21.3-.1 32 0 6.1 0 10.8 2.8 14.5 7.7 4.2 5.6 4 15 0 20.3-3.1 4-7 6.7-12.1 7.5-3.7.6-7.4.2-11.1.4-2.6.1-5 0-7.4 0zM108.5 497.9h-6.1c-8.2 0-16.1-6.6-17.5-14.6-1.1-5.9.3-11 4.2-15.4 3.1-3.5 7.1-5.4 11.8-6 4.2-.5 8.3-.4 12.4-.3 5.7.1 10.9 1.7 14.9 6.1 2.8 3.1 4.4 6.8 4.6 11.1.2 4.1-.7 7.9-3.1 11.2-3.7 5.1-8.6 7.9-15 8-2.1-.1-4.1-.1-6.2-.1zM502.7 497.9h-6.1c-8.2 0-16-6.5-17.5-14.6-1.1-5.9.3-11 4.2-15.4 3.1-3.5 7.1-5.4 11.8-5.9 4.2-.5 8.3-.4 12.4-.3 5.7.1 10.9 1.7 14.9 6.1 2.8 3.1 4.4 6.8 4.6 11.1.2 4.1-.7 7.9-3.1 11.2-3.7 5.1-8.6 7.9-15 7.9-2.1-.1-4.1-.1-6.2-.1zM178.7 474.7h-6.4c-8 .2-15.2-5.6-17.2-13.5-2.2-8.5 2.5-17.3 9.8-20.6 2.6-1.2 5.3-1.9 8.2-1.8h11c6.1 0 11.3 2.4 15 7.2 3.2 4.1 4.4 8.8 3.3 14-1.6 7.9-6.5 12.6-14.2 14.5-.7.2-1.4.2-2.2.2h-7.3zM572.9 474.7h-6.4c-8 .2-15.2-5.6-17.2-13.5-2.2-8.5 2.5-17.3 9.8-20.6 2.6-1.2 5.3-1.9 8.2-1.9H578c6.2 0 11.4 2.3 15.3 7.2 3.2 4.1 4.4 8.8 3.4 14-1.5 7.9-6.5 12.6-14.2 14.5-.7.2-1.4.2-2.2.2-2.4.1-4.9.1-7.4.1zM75.6 200.4h-6.3c-8.2 0-15.9-3-17.4-7.8-1.7-5.6 4.7-10.1 14.4-11.1 1.7-.2 3.3-.3 5-.2 4.5.1 9-.2 13.5.2 7.7.7 13.8 4 14.7 8.4 1.1 5.2-5.5 9.7-15.2 10.5-2.8.1-5.8-.1-8.7 0 0-.1 0 0 0 0zM755.5 324c-2.9-.2-5.8.1-8.7-.4-6.8-1.3-11.5-5-14-11.4-2.2-5.7-1.5-11.3 1.9-16.2 3.3-4.9 8.1-7.8 14.1-7.9 4.3-.1 8.6 0 12.9 0 8.2-.2 15.6 5.6 17.6 13.9 2.3 9.7-4.6 20.3-14.8 21.7-3 .3-6 .1-9 .3zM244.7 324c-2.9-.2-5.8.1-8.7-.4-6.8-1.3-11.5-5-14-11.4-2.2-5.7-1.5-11.3 1.9-16.2 3.3-4.9 8.1-7.8 14.1-7.9 4.3-.1 8.6 0 12.9 0 8.2-.1 15.4 5.5 17.5 13.7 2.5 9.8-4.5 20.5-14.8 21.9-2.9.3-5.9.1-8.9.3zM348.1 347.7h-6.3c-7.6 0-15-5.1-17-13.4-1.5-6.4-.1-12.2 4.7-17 3.7-3.7 8.2-5.2 13.1-5.4 3.9-.2 7.7-.2 11.6 0 9.1.5 15.8 5.4 17.6 14.4 1.5 7.6-.6 14.7-9.2 19.4-2.7 1.5-5.5 2.2-8.6 2.1-2-.2-4-.1-5.9-.1zM682.3 364H676c-7.6 0-15-5.1-17-13.4-1.5-6.4-.2-12.2 4.7-17 3.7-3.7 8.1-5.2 13.1-5.4 3.9-.2 7.7-.2 11.6 0 9.1.5 15.8 5.3 17.6 14.4 1.5 7.6-.6 14.7-9.2 19.4-2.7 1.5-5.6 2.3-8.8 2.1-1.9-.1-3.8-.1-5.7-.1zM559.4 188.2h6.3c7.2 0 15.8 3 17.2 7.8.9 3.2-.5 6.1-4.9 8.5-2.8 1.5-6.2 2.4-10.2 2.7-5.1.4-10.2.3-15.3.2-8.3-.2-14.5-3-16.6-6.6-3-5.1 1.7-10.2 11.2-12 1.7-.3 3.5-.5 5.3-.5 2.5-.1 4.7-.1 7-.1zM577.7 353.7h-38c-6.6 0-12-5.4-12-12s5.4-12 12-12h38c6.6 0 12 5.4 12 12s-5.4 12-12 12z"/></g><g><path class="st8" d="M523.5 498h250.9l-6.1-21.1c-.5-2.7-1.8-5.3-4-7.3-6.7-6.4-14.2-2.5-17.8.1-1.1.8-2.8.5-3.4-.6l-13.3-25.4c-4.1-7.9-17.6-8.2-22.2-.5l-17.4 28.9c-.6 1-2.3.9-2.8-.1l-5-10.2c-3.8-7.8-16.8-8.5-21.9-1.3l-11.2 20.6c-.6 1.1-2.5 1-3-.1l-17-37.2c-4.2-7.9-17.7-8.1-22.2-.3l-7.7 13.2c-1.1 1.9-4.2 2.3-5.9.7l-5.3-5c-6.4-6.1-18.3-3.9-21 3.8l-3.5 22.4c-.2 1.2-2 1.2-2.1-.1l-.6-9.2c-.4-6-6.8-10.6-13.9-9.6-4 .5-7.7 2.7-9.4 6.4L523.5 498z"/><path class="st17" d="M772.6 492.9c-.4 0-.8-.3-1-.7l-4.3-15.9c-.5-2.7-1.8-5-3.7-6.8-6.1-5.8-13-2.4-16.5.2-.8.6-1.8.8-2.8.6-.9-.2-1.6-.7-2.1-1.5L729 443.3c-1.7-3.3-5.5-5.5-9.9-5.6-4.5-.2-8.5 1.8-10.5 5.1l-17.4 28.9c-.5.8-1.3 1.2-2.3 1.2-1 0-1.8-.6-2.2-1.3l-5-10.2c-1.6-3.2-5.1-5.4-9.3-5.7-4.4-.3-8.5 1.4-10.8 4.5l-11.2 20.5c-.5.8-1.4 1.3-2.4 1.3-1.1 0-2-.6-2.3-1.5l-17-37.2c-1.7-3.3-5.6-5.4-10-5.5-4.5 0-8.4 1.9-10.4 5.3l-7.7 13.2c-.7 1.1-1.9 1.9-3.3 2.1-1.5.2-3.1-.2-4.1-1.2l-5.3-5c-2.9-2.8-7.4-3.9-11.7-2.8-3.7.9-6.5 3.2-7.6 6.1l-3.5 22.3c-.2 1-1.1 1.6-2.2 1.6-1-.1-1.8-.8-1.9-1.7l-.6-9.4c-.2-2.4-1.4-4.6-3.4-6.2-2.5-2-5.9-2.9-9.3-2.5-4 .5-7.2 2.7-8.6 5.8l-12.6 26.2c-.2.5-.8.7-1.3.5-.5-.2-.7-.8-.5-1.3l12.6-26.2c1.7-3.8 5.5-6.3 10.2-6.9 3.9-.6 7.9.5 10.8 2.9 2.5 2 4 4.7 4.2 7.7l.6 9.2h.1l3.5-22.4c1.3-3.7 4.7-6.5 9-7.5 5-1.2 10.2.1 13.6 3.3l5.3 5c.6.6 1.5.8 2.4.7.8-.1 1.5-.6 1.9-1.2l7.7-13.2c2.3-4 7-6.3 12.1-6.3 5.2.1 9.7 2.6 11.8 6.6l17 37.2c.1.2.3.3.6.3.2 0 .5-.1.6-.3l11.2-20.7c2.6-3.7 7.4-5.8 12.6-5.4 5 .4 9.1 2.9 11 6.8l5 10.2c.1.1.3.2.5.2s.4 0 .5-.2l17.4-28.9c2.3-3.9 7-6.3 12.3-6.1 5.1.2 9.6 2.7 11.6 6.7l13.3 25.4c.1.2.4.4.7.5.4.1.9 0 1.2-.2 9.8-7 16.6-2.4 19.1 0 2.2 2 3.7 4.7 4.3 7.8l4.3 15.8c.1.5-.2 1.1-.7 1.2-.2.1-.3.1-.4.1z"/><path class="st0" d="M618.2 497.8V369.5c0-14.5-11.8-26.2-26.4-26.2-14.6 0-26.4 11.8-26.4 26.2v128.3h52.8z"/><path class="st1" d="M566.5 497.8V369.5c0-13.9 11.4-25.1 25.4-25.1s25.4 11.3 25.4 25.2v128.2h2V369.5c0-15-12.3-27.1-27.4-27.1s-27.4 12.2-27.4 27.2v128.2h2z"/><defs><path id="SVGID_00000064319489054310638860000002877994760477674424_" d="M566.5 487.1V369.5c0-13.9 11.4-25.2 25.4-25.2 14 0 25.4 11.3 25.4 25.2v117.6"/></defs><clipPath id="SVGID_00000086693514123511971200000015515759673277964713_"><use xlink:href="#SVGID_00000064319489054310638860000002877994760477674424_" style="overflow:visible"/></clipPath><g style="clip-path:url(#SVGID_00000086693514123511971200000015515759673277964713_)"><path class="st19" d="M577.3 469.6c-.6 0-1-.4-1-1V355.9c0-.6.4-1 1-1s1 .4 1 1v112.7c0 .5-.4 1-1 1zM590.3 487.6c-.6 0-1-.5-1-1 .2-27.5.2-54 0-81 0-.6.4-1 1-1s1 .4 1 1c.2 27 .2 53.5 0 81 0 .5-.4 1-1 1zM607.3 457.7c-.6 0-1-.4-1-1V324.1c0-.6.4-1 1-1s1 .4 1 1v132.6c0 .5-.5 1-1 1zM588.7 392.1c-.6 0-1-.4-1-1v-29.7c0-.6.4-1 1-1s1 .4 1 1v29.7c0 .5-.4 1-1 1zM578.3 487.8c-.6 0-1-.4-1-1v-4c0-.6.4-1 1-1s1 .4 1 1v4c0 .5-.4 1-1 1z"/></g><g><path class="st20" d="M566.5 400.9h50.7v10h-50.7z"/></g><g><path class="st0" d="M524.8 370.9H793v36H524.8"/><path class="st19" d="M730.2 379.2H529.9c-.6 0-1-.4-1-1s.4-1 1-1h200.3c.6 0 1 .4 1 1s-.4 1-1 1zM770.3 390.1H570c-.6 0-1-.4-1-1s.4-1 1-1h200.4c.6 0 1 .4 1 1s-.5 1-1.1 1zM740.3 401H539.9c-.6 0-1-.4-1-1s.4-1 1-1h200.4c.6 0 1 .4 1 1s-.5 1-1 1z"/><path class="st1" d="M524.8 405.8H793v2H524.8zM524.8 369.9H793v2H524.8z"/></g><g><circle class="st21" cx="590.8" cy="389.2" r="4.9"/><path class="st22" d="M590.8 395.1c-3.3 0-5.9-2.6-5.9-5.9s2.6-5.9 5.9-5.9 5.9 2.6 5.9 5.9-2.6 5.9-5.9 5.9zm0-9.8c-2.1 0-3.9 1.7-3.9 3.9s1.7 3.9 3.9 3.9c2.1 0 3.9-1.7 3.9-3.9s-1.7-3.9-3.9-3.9z"/><g><path class="st22" d="M592.5 391.5c-.1 0-.3-.1-.4-.2l-3.4-3.5c-.2-.2-.2-.5 0-.7.2-.2.5-.2.7 0l3.4 3.5c.2.2.2.5 0 .7 0 .1-.2.2-.3.2z"/><path class="st22" d="M589.1 391.5c-.1 0-.2 0-.3-.1-.2-.2-.2-.5 0-.7l3.3-3.5c.2-.2.5-.2.7 0 .2.2.2.5 0 .7l-3.3 3.5c-.1 0-.2.1-.4.1z"/></g></g><g><path class="st8" d="M261.9 498h250.9l-6.1-21.1c-.5-2.7-1.8-5.3-4-7.3-6.7-6.4-14.2-2.5-17.8.1-1.1.8-2.8.5-3.4-.6l-13.3-25.4c-4.1-7.9-17.6-8.2-22.2-.5l-17.4 28.9c-.6 1-2.3.9-2.8-.1l-5-10.2c-3.8-7.8-16.8-8.5-21.9-1.3l-11.2 20.6c-.6 1.1-2.5 1-3-.1l-17-37.2c-4.2-7.9-17.7-8.1-22.2-.3l-7.7 13.2c-1.1 1.9-4.2 2.3-5.9.7l-5.3-5c-6.4-6.1-18.3-3.9-21 3.8l-3.5 22.4c-.2 1.2-2 1.2-2.1-.1l-.6-9.2c-.4-6-6.8-10.6-13.9-9.6-4 .5-7.7 2.7-9.4 6.4L261.9 498z"/><path class="st17" d="M511 492.9c-.4 0-.8-.3-1-.7l-4.3-15.9c-.5-2.7-1.8-5-3.7-6.8-6.1-5.8-13-2.4-16.5.2-.8.6-1.8.8-2.8.6-.9-.2-1.6-.7-2.1-1.5l-13.3-25.5c-1.7-3.3-5.5-5.5-9.9-5.6-4.5-.2-8.5 1.8-10.5 5.1l-17.4 28.9c-.5.8-1.3 1.2-2.3 1.2-1 0-1.8-.6-2.2-1.3l-5-10.2c-1.6-3.2-5.1-5.4-9.3-5.7-4.4-.3-8.5 1.4-10.8 4.5l-11.2 20.5c-.5.8-1.4 1.3-2.4 1.3-1.1 0-2-.6-2.3-1.5l-17-37.2c-1.7-3.3-5.6-5.4-10-5.5h-.2c-4.4 0-8.2 2-10.1 5.3l-7.7 13.2c-.7 1.1-1.9 1.9-3.3 2.1-1.5.2-3.1-.2-4.1-1.2l-5.3-5c-2.9-2.8-7.4-3.9-11.7-2.8-3.7.9-6.5 3.2-7.6 6.1l-3.5 22.3c-.2 1-1.1 1.6-2.2 1.6-1-.1-1.8-.8-1.9-1.7l-.6-9.4c-.2-2.4-1.4-4.6-3.4-6.2-2.5-2-5.9-2.9-9.3-2.5-4 .5-7.2 2.7-8.6 5.8l-12.6 26.2c-.2.5-.8.7-1.3.5-.5-.2-.7-.8-.5-1.3l12.6-26.2c1.7-3.8 5.5-6.3 10.2-6.9 3.9-.6 7.9.5 10.8 2.9 2.5 2 4 4.7 4.2 7.7l.6 9.2h.1L305 455c1.3-3.7 4.7-6.5 9-7.5 5-1.2 10.2.1 13.6 3.3l5.3 5c.6.6 1.5.8 2.4.7.8-.1 1.5-.6 1.9-1.2l7.7-13.2c2.3-4 6.9-6.3 12.1-6.3 5.2.1 9.7 2.6 11.8 6.6l17 37.2c.1.2.3.3.6.3.2 0 .5-.1.6-.2l11.2-20.7c2.6-3.7 7.4-5.8 12.6-5.4 5 .4 9.1 2.9 11 6.8l5 10.2c.1.1.3.2.5.2s.4 0 .5-.2l17.4-28.9c2.3-3.9 7.1-6.3 12.3-6.1 5.1.2 9.6 2.7 11.6 6.7l13.3 25.4c.1.2.4.4.7.5.4.1.9 0 1.2-.2 9.8-7 16.6-2.4 19.1 0 2.2 2 3.7 4.7 4.3 7.8l4.3 15.8c.1.5-.2 1.1-.7 1.2-.1.1-.2.1-.3.1z"/><path class="st0" d="M356.6 497.8V369.5c0-14.5-11.8-26.2-26.4-26.2s-26.4 11.8-26.4 26.2v128.3h52.8z"/><path class="st1" d="M304.9 497.8V369.5c0-13.9 11.4-25.1 25.4-25.1 14 0 25.4 11.3 25.4 25.2v128.2h2V369.5c0-15-12.3-27.1-27.4-27.1-15.1 0-27.4 12.2-27.4 27.2v128.2h2z"/><defs><path id="SVGID_00000181085786033815545280000017201860968806339734_" d="M304.9 487.1V369.5c0-13.9 11.4-25.2 25.4-25.2 14 0 25.4 11.3 25.4 25.2v117.6"/></defs><clipPath id="SVGID_00000086688283728848798600000000117574841819445418_"><use xlink:href="#SVGID_00000181085786033815545280000017201860968806339734_" style="overflow:visible"/></clipPath><g style="clip-path:url(#SVGID_00000086688283728848798600000000117574841819445418_)"><path class="st19" d="M315.8 469.6c-.6 0-1-.4-1-1V355.9c0-.6.4-1 1-1s1 .4 1 1v112.7c0 .5-.5 1-1 1zM328.7 487.6c-.6 0-1-.5-1-1 .1-27.5.1-54 0-81 0-.6.4-1 1-1s1 .4 1 1c.1 27 .1 53.5 0 81 0 .5-.4 1-1 1zM345.7 457.7c-.6 0-1-.4-1-1V324.1c0-.6.4-1 1-1s1 .4 1 1v132.6c0 .5-.4 1-1 1zM327.1 392.1c-.6 0-1-.4-1-1v-29.7c0-.6.4-1 1-1s1 .4 1 1v29.7c0 .5-.4 1-1 1zM316.7 487.8c-.6 0-1-.4-1-1v-4c0-.6.4-1 1-1s1 .4 1 1v4c.1.5-.4 1-1 1z"/></g><g><path class="st20" d="M304.9 400.9h50.7v10h-50.7z"/></g><g><path class="st0" d="M263.2 370.9h267.6v36H263.2"/><path class="st19" d="M467.8 379.2H268.3c-.6 0-1-.4-1-1s.4-1 1-1h199.5c.6 0 1 .4 1 1s-.4 1-1 1zM507.7 390.1H308.3c-.6 0-1-.4-1-1s.4-1 1-1h199.5c.6 0 1 .4 1 1s-.5 1-1.1 1zM477.8 401H278.3c-.6 0-1-.4-1-1s.4-1 1-1h199.5c.6 0 1 .4 1 1s-.4 1-1 1z"/><path class="st1" d="M263.2 405.7h267.6v2H263.2zM263.2 369.9h267.6v2H263.2z"/></g><g><circle class="st21" cx="329.2" cy="389.2" r="4.9"/><path class="st22" d="M329.2 395.1c-3.3 0-5.9-2.6-5.9-5.9s2.6-5.9 5.9-5.9c3.3 0 5.9 2.6 5.9 5.9s-2.6 5.9-5.9 5.9zm0-9.8c-2.1 0-3.9 1.7-3.9 3.9s1.7 3.9 3.9 3.9c2.1 0 3.9-1.7 3.9-3.9s-1.7-3.9-3.9-3.9z"/><g><path class="st22" d="M330.9 391.5c-.1 0-.3-.1-.4-.2l-3.4-3.5c-.2-.2-.2-.5 0-.7.2-.2.5-.2.7 0l3.4 3.5c.2.2.2.5 0 .7 0 .1-.1.2-.3.2z"/><path class="st22" d="M327.5 391.5c-.1 0-.2 0-.3-.1-.2-.2-.2-.5 0-.7l3.3-3.5c.2-.2.5-.2.7 0 .2.2.2.5 0 .7l-3.3 3.5c-.1 0-.2.1-.4.1z"/></g></g></g><g><path class="st8" d="M.3 498h250.9l-6.1-21.1c-.5-2.7-1.8-5.3-4-7.3-6.7-6.4-14.2-2.5-17.8.1-1.1.8-2.8.5-3.4-.6l-13.3-25.4c-4.1-7.9-17.6-8.2-22.2-.5L167 472.1c-.6 1-2.3.9-2.8-.1l-5-10.2c-3.8-7.8-16.8-8.5-21.9-1.3l-11.2 20.6c-.6 1.1-2.5 1-3-.1l-17-37.2c-4.2-7.9-17.7-8.1-22.3-.3l-7.6 13.1c-1.1 1.9-4.2 2.3-5.9.7l-5.3-5c-6.4-6.1-18.3-3.9-21 3.8l-3.5 22.4c-.2 1.2-2 1.2-2.1-.1l-.6-9.2c-.4-6-6.8-10.6-13.9-9.6-4 .5-7.7 2.7-9.4 6.4L.3 498z"/><path class="st17" d="M249.5 492.9c-.4 0-.8-.3-1-.7l-4.3-15.9c-.5-2.7-1.8-5-3.7-6.8-6.1-5.8-13-2.4-16.5.2-.8.6-1.8.8-2.8.6-.9-.2-1.6-.7-2.1-1.5l-13.3-25.5c-1.7-3.3-5.5-5.5-9.9-5.6-4.5-.2-8.5 1.8-10.5 5.1l-17.4 29c-.5.8-1.3 1.2-2.3 1.2-1 0-1.8-.6-2.2-1.3l-5-10.2c-1.6-3.2-5.1-5.4-9.3-5.7-4.4-.3-8.5 1.4-10.8 4.5l-11.2 20.5c-.5.8-1.4 1.3-2.4 1.3-1.1 0-2-.6-2.3-1.5l-17-37.2c-1.7-3.3-5.6-5.4-10-5.5-4.5-.1-8.6 1.9-10.5 5.3l-7.6 13.2c-.7 1.1-1.9 1.9-3.3 2.1-1.5.2-3.1-.2-4.1-1.2l-5.3-5c-2.9-2.8-7.4-3.9-11.7-2.8-3.7.9-6.5 3.2-7.6 6.1l-3.5 22.3c-.2 1-1.1 1.6-2.2 1.6-1-.1-1.8-.8-1.9-1.7l-.6-9.4c-.2-2.4-1.4-4.6-3.4-6.2-2.5-2-5.9-2.9-9.3-2.5-4 .5-7.2 2.7-8.6 5.8L3.2 491.7c-.2.5-.8.7-1.3.5-.5-.2-.7-.8-.5-1.3L14 464.6c1.7-3.8 5.5-6.3 10.2-6.9 3.9-.6 7.9.5 10.8 2.9 2.5 2 4 4.7 4.2 7.7l.6 9.2h.1l3.5-22.4c1.3-3.7 4.7-6.5 9-7.5 5-1.2 10.2.1 13.6 3.3l5.3 5c.6.6 1.5.8 2.4.7.8-.1 1.5-.6 1.9-1.2l7.6-13.2c2.3-4 7.1-6.4 12.3-6.3 5.1.1 9.6 2.6 11.7 6.6l17 37.2c.1.2.3.3.6.3.2 0 .5-.1.6-.2l11.2-20.7c2.6-3.7 7.4-5.8 12.6-5.4 5 .4 9.1 2.9 11 6.8l5 10.2c.1.1.3.2.5.2s.4 0 .5-.2l17.4-28.9c2.3-3.9 7-6.3 12.3-6.1 5.1.2 9.6 2.7 11.6 6.7l13.3 25.4c.1.2.4.4.7.5.4.1.9 0 1.2-.2 9.8-7 16.6-2.4 19.1 0 2.2 2 3.7 4.7 4.3 7.8l4.3 15.8c.1.5-.2 1.1-.7 1.2h-.2z"/><path class="st0" d="M95 497.8V369.5c0-14.5-11.8-26.2-26.4-26.2s-26.4 11.8-26.4 26.2v128.3H95z"/><path class="st1" d="M43.3 497.8V369.5c0-13.9 11.4-25.1 25.4-25.1 14 0 25.4 11.3 25.4 25.2v128.2h2V369.5c0-15-12.3-27.1-27.4-27.1s-27.4 12.1-27.4 27.1v128.3h2z"/><defs><path id="SVGID_00000047742586586951581790000018380892483833532605_" d="M43.3 497.1V369.5c0-13.9 11.4-25.2 25.4-25.2 14 0 25.4 11.3 25.4 25.2v127.6"/></defs><clipPath id="SVGID_00000084492764763262563480000003953662398452685973_"><use xlink:href="#SVGID_00000047742586586951581790000018380892483833532605_" style="overflow:visible"/></clipPath><g style="clip-path:url(#SVGID_00000084492764763262563480000003953662398452685973_)"><path class="st19" d="M54.2 469.6c-.6 0-1-.4-1-1V355.9c0-.6.4-1 1-1s1 .4 1 1v112.7c0 .5-.5 1-1 1zM67.1 487.6c-.6 0-1-.4-1-1-.1-27.5-.1-54 0-81 0-.6.5-1 1-1 .6 0 1 .5 1 1-.1 27-.1 53.5 0 81 0 .5-.4 1-1 1zM84.1 457.7c-.6 0-1-.4-1-1V324.1c0-.6.4-1 1-1s1 .4 1 1v132.6c0 .5-.4 1-1 1zM65.5 392.1c-.6 0-1-.4-1-1v-29.7c0-.6.4-1 1-1s1 .4 1 1v29.7c0 .5-.4 1-1 1zM55.2 487.8c-.6 0-1-.4-1-1v-4c0-.6.4-1 1-1s1 .4 1 1v4c0 .5-.5 1-1 1z"/></g><g><path class="st20" d="M43.3 400.9H94v10H43.3z"/></g><g><path class="st0" d="M0 370.9h268.4v36H0"/><path class="st19" d="M206.2 379.2H6.7c-.6 0-1-.4-1-1s.4-1 1-1h199.5c.6 0 1 .4 1 1s-.4 1-1 1zM246.2 390.1H46.7c-.6 0-1-.4-1-1s.4-1 1-1h199.5c.6 0 1 .4 1 1s-.5 1-1 1zM216.2 401H16.7c-.6 0-1-.4-1-1s.4-1 1-1h199.5c.6 0 1 .4 1 1s-.4 1-1 1z"/><path class="st1" d="M0 405.7h268.6v2H0zM0 369.9h268.6v2H0z"/></g><g><circle class="st21" cx="67.6" cy="389.2" r="4.9"/><path class="st22" d="M67.6 395.1c-3.3 0-5.9-2.6-5.9-5.9s2.6-5.9 5.9-5.9c3.3 0 5.9 2.6 5.9 5.9s-2.6 5.9-5.9 5.9zm0-9.8c-2.1 0-3.9 1.7-3.9 3.9s1.7 3.9 3.9 3.9c2.1 0 3.9-1.7 3.9-3.9s-1.7-3.9-3.9-3.9z"/><g><path class="st22" d="M69.3 391.5c-.1 0-.3-.1-.4-.2l-3.4-3.5c-.2-.2-.2-.5 0-.7.2-.2.5-.2.7 0l3.4 3.5c.2.2.2.5 0 .7 0 .1-.1.2-.3.2z"/><path class="st22" d="M65.9 391.5c-.1 0-.2 0-.3-.1-.2-.2-.2-.5 0-.7l3.3-3.5c.2-.2.5-.2.7 0 .2.2.2.5 0 .7l-3.3 3.5c-.1 0-.2.1-.4.1z"/></g></g></g></g></svg>