<?xml version="1.0" encoding="utf-8"?>
<!-- Generator: Adobe Illustrator 26.2.1, SVG Export Plug-In . SVG Version: 6.00 Build 0)  -->
<svg version="1.1" id="Layer_2_00000001647501480954407860000001023038268120092575_"
	 xmlns="http://www.w3.org/2000/svg" xmlns:xlink="http://www.w3.org/1999/xlink" x="0px" y="0px" viewBox="0 0 792.4 498.3"
	 style="enable-background:new 0 0 792.4 498.3;" xml:space="preserve">
<style type="text/css">
	.st0{fill:#9B5F66;}
	.st1{fill:#4C3035;}
	.st2{clip-path:url(#SVGID_00000026865936682236877470000015473605699918633898_);}
	.st3{fill:none;stroke:#B27D85;stroke-linecap:round;stroke-miterlimit:10;}
	.st4{fill:none;stroke:#7F4F56;stroke-width:10;stroke-miterlimit:10;}
	.st5{fill:none;stroke:#4C3035;stroke-width:2;stroke-miterlimit:10;}
	.st6{fill:#BABA6A;stroke:#665D39;stroke-width:2;stroke-miterlimit:10;}
	.st7{fill:none;stroke:#665D39;stroke-linecap:round;stroke-miterlimit:10;}
	.st8{fill:#FC92B1;}
	.st9{fill:none;stroke:#995B73;stroke-width:2;stroke-linecap:round;stroke-miterlimit:10;}
	.st10{clip-path:url(#SVGID_00000061436223445430623330000015367308345277888940_);}
	.st11{clip-path:url(#SVGID_00000119075983672952448230000007880065746938804363_);}
	.st12{clip-path:url(#SVGID_00000147903622360913678370000010964112045344418222_);}
	.st13{clip-path:url(#SVGID_00000081616914482150569900000015878207172027576253_);}
	.st14{clip-path:url(#SVGID_00000050622101158434235290000016394730316109675198_);}
	.st15{fill:#FDFAEA;}
	.st16{fill:#EFEAD8;}
	.st17{clip-path:url(#SVGID_00000047020902916663600260000014642896150886891148_);}
	.st18{clip-path:url(#SVGID_00000126309375898829665380000013049884804905988785_);}
	.st19{fill:none;stroke:#B27D85;stroke-width:2;stroke-linecap:round;stroke-miterlimit:10;}
	.st20{clip-path:url(#SVGID_00000098214035398822844460000007783806979299040181_);}
	.st21{clip-path:url(#SVGID_00000124154539212519976560000007951075662680172177_);}
</style>
<g>
	<g>
		<g>
			<g>
				<g>
					<path class="st0" d="M688,261c-8.6,0-15.6-7-15.6-15.6V55.3c0-8.6,7-15.6,15.6-15.6s15.6,7,15.6,15.6v190.1
						C703.6,254,696.6,261,688,261z"/>
					<path class="st1" d="M688,40.6c8.1,0,14.6,6.5,14.6,14.6v190.1c0,8.1-6.5,14.6-14.6,14.6s-14.6-6.5-14.6-14.6v-190
						C673.3,47.2,679.9,40.6,688,40.6 M688,38.6c-9.2,0-16.6,7.5-16.6,16.6v190.1c0,9.2,7.5,16.6,16.6,16.6s16.6-7.5,16.6-16.6v-190
						C704.6,46.1,697.1,38.6,688,38.6L688,38.6z"/>
				</g>
				<g>
					<g>
						<defs>
							<path id="SVGID_1_" d="M688,260L688,260c-8.1,0-14.6-6.5-14.6-14.6V55.3c0-8.1,6.5-14.6,14.6-14.6l0,0
								c8.1,0,14.6,6.5,14.6,14.6v190.1C702.6,253.5,696.1,260,688,260z"/>
						</defs>
						<clipPath id="SVGID_00000078004262050238249500000016645809949026099109_">
							<use xlink:href="#SVGID_1_"  style="overflow:visible;"/>
						</clipPath>
						<g style="clip-path:url(#SVGID_00000078004262050238249500000016645809949026099109_);">
							<g>
								<line class="st3" x1="679.6" y1="247.3" x2="679.6" y2="312.7"/>
								<line class="st3" x1="687.1" y1="276.2" x2="687.1" y2="341.6"/>
								<line class="st3" x1="696.9" y1="228.9" x2="696.9" y2="305.8"/>
								<line class="st3" x1="686.2" y1="250.5" x2="686.2" y2="267.8"/>
								<line class="st3" x1="680.2" y1="321" x2="680.2" y2="333.8"/>
							</g>
							<g>
								<line class="st3" x1="679.6" y1="147.3" x2="679.6" y2="212.7"/>
								<line class="st3" x1="687.1" y1="176.2" x2="687.1" y2="241.6"/>
								<line class="st3" x1="696.9" y1="128.9" x2="696.9" y2="205.8"/>
								<line class="st3" x1="686.2" y1="150.5" x2="686.2" y2="167.8"/>
								<line class="st3" x1="680.2" y1="221" x2="680.2" y2="233.8"/>
							</g>
							<g>
								<line class="st3" x1="679.6" y1="47.3" x2="679.6" y2="112.7"/>
								<line class="st3" x1="687.1" y1="76.2" x2="687.1" y2="141.6"/>
								<line class="st3" x1="696.9" y1="28.9" x2="696.9" y2="105.8"/>
								<line class="st3" x1="686.2" y1="50.5" x2="686.2" y2="67.8"/>
								<line class="st3" x1="680.2" y1="121" x2="680.2" y2="133.8"/>
							</g>
						</g>
					</g>
				</g>
			</g>
			<line class="st4" x1="673.3" y1="76.3" x2="702.6" y2="76.3"/>
			<g>
				<polyline class="st0" points="649.3,56 792.3,56 792.3,61.2 792.3,76.9 649.3,76.9 				"/>
				<line class="st3" x1="662.2" y1="61.2" x2="717.4" y2="61.2"/>
				<line class="st3" x1="685.3" y1="66.6" x2="740.5" y2="66.6"/>
				<line class="st3" x1="668" y1="71.9" x2="763.2" y2="71.9"/>
				<line class="st5" x1="649.3" y1="76.8" x2="792.3" y2="76.8"/>
				<line class="st5" x1="649.3" y1="56" x2="792.3" y2="56"/>
			</g>
			<g>
				<circle class="st6" cx="687.4" cy="66.7" r="2.8"/>
				<g>
					<line class="st7" x1="686.4" y1="65.7" x2="688.4" y2="67.7"/>
					<line class="st7" x1="688.3" y1="65.7" x2="686.5" y2="67.7"/>
				</g>
			</g>
			<line class="st3" x1="735.3" y1="62.6" x2="750.5" y2="62.6"/>
			<line class="st3" x1="765.3" y1="66.6" x2="790.5" y2="66.6"/>
			<path class="st8" d="M649.3,163h141l-0.4-12.2c-0.3-1.5-1-3-2.3-4.2c-3.8-3.7-8.2-1.4-10.2,0c-0.6,0.5-1.6,0.3-1.9-0.4l-7.6-14.7
				c-2.4-4.6-10.1-4.7-12.7-0.3l-10,16.7c-0.3,0.6-1.3,0.5-1.6,0l-2.9-5.9c-2.2-4.5-9.7-4.9-12.6-0.7l-6.4,11.9
				c-0.3,0.6-1.4,0.6-1.7,0l-9.7-21.5c-2.4-4.6-10.2-4.7-12.8-0.2l-4.4,7.6c-0.6,1.1-2.4,1.3-3.4,0.4l-3-2.9
				c-3.6-3.5-10.5-2.2-12,2.2l-2,12.9c-0.1,0.6-1.2,0.6-1.2,0l-0.4-5.4c-0.2-3.4-3.9-6.1-8-5.6c-2.3,0.3-4.4,1.5-5.4,3.7L649.3,163z
				"/>
			<path class="st9" d="M787.7,157.7l0.9-4.8c0.3-1.4,0.3-2.9,0.1-4.3c-0.1-0.7-0.4-1.4-1-2c-3.8-3.7-8.2-1.4-10.2,0
				c-0.6,0.5-1.6,0.3-1.9-0.4l-7.6-14.7c-2.4-4.6-10.1-4.7-12.7-0.3l-10,16.7c-0.4,0.6-1.3,0.6-1.6-0.1l-2.9-5.9
				c-2.2-4.5-9.7-4.9-12.6-0.7l-6.4,11.9c-0.4,0.7-1.4,0.7-1.7-0.1l-9.7-21.5c-2.4-4.6-10.2-4.7-12.8-0.2l-4.4,7.6
				c-0.6,1.1-2.4,1.3-3.4,0.4l-3-2.9c-3.6-3.5-10.5-2.2-12,2.2l-2,12.9c-0.1,0.7-1.1,0.7-1.2-0.1l-0.4-5.4c-0.2-3.4-3.9-6.1-8-5.6
				c-2.3,0.3-4.4,1.5-5.4,3.7l-5.4,12.5"/>
		</g>
	</g>
	<g>
		<g>
			<g>
				<g>
					<path class="st0" d="M558,261c-8.6,0-15.6-7-15.6-15.6V55.3c0-8.6,7-15.6,15.6-15.6s15.6,7,15.6,15.6v190.1
						C573.6,254,566.6,261,558,261z"/>
					<path class="st1" d="M558,40.6c8.1,0,14.6,6.5,14.6,14.6v190.1c0,8.1-6.5,14.6-14.6,14.6s-14.6-6.5-14.6-14.6v-190
						C543.3,47.2,549.9,40.6,558,40.6 M558,38.6c-9.2,0-16.6,7.5-16.6,16.6v190.1c0,9.2,7.5,16.6,16.6,16.6s16.6-7.5,16.6-16.6v-190
						C574.6,46.1,567.1,38.6,558,38.6L558,38.6z"/>
				</g>
				<g>
					<g>
						<defs>
							<path id="SVGID_00000033335721969524654050000006279945550653771960_" d="M558,260L558,260c-8.1,0-14.6-6.5-14.6-14.6V55.3
								c0-8.1,6.5-14.6,14.6-14.6l0,0c8.1,0,14.6,6.5,14.6,14.6v190.1C572.6,253.5,566.1,260,558,260z"/>
						</defs>
						<clipPath id="SVGID_00000040568885049840004900000015781038253062595503_">
							<use xlink:href="#SVGID_00000033335721969524654050000006279945550653771960_"  style="overflow:visible;"/>
						</clipPath>
						<g style="clip-path:url(#SVGID_00000040568885049840004900000015781038253062595503_);">
							<g>
								<line class="st3" x1="549.6" y1="247.3" x2="549.6" y2="312.7"/>
								<line class="st3" x1="557.1" y1="276.2" x2="557.1" y2="341.6"/>
								<line class="st3" x1="566.9" y1="228.9" x2="566.9" y2="305.8"/>
								<line class="st3" x1="556.2" y1="250.5" x2="556.2" y2="267.8"/>
								<line class="st3" x1="550.2" y1="321" x2="550.2" y2="333.8"/>
							</g>
							<g>
								<line class="st3" x1="549.6" y1="147.3" x2="549.6" y2="212.7"/>
								<line class="st3" x1="557.1" y1="176.2" x2="557.1" y2="241.6"/>
								<line class="st3" x1="566.9" y1="128.9" x2="566.9" y2="205.8"/>
								<line class="st3" x1="556.2" y1="150.5" x2="556.2" y2="167.8"/>
								<line class="st3" x1="550.2" y1="221" x2="550.2" y2="233.8"/>
							</g>
							<g>
								<line class="st3" x1="549.6" y1="47.3" x2="549.6" y2="112.7"/>
								<line class="st3" x1="557.1" y1="76.2" x2="557.1" y2="141.6"/>
								<line class="st3" x1="566.9" y1="28.9" x2="566.9" y2="105.8"/>
								<line class="st3" x1="556.2" y1="50.5" x2="556.2" y2="67.8"/>
								<line class="st3" x1="550.2" y1="121" x2="550.2" y2="133.8"/>
							</g>
						</g>
					</g>
				</g>
			</g>
			<line class="st4" x1="543.3" y1="76.3" x2="572.6" y2="76.3"/>
			<g>
				<polyline class="st0" points="519.3,56 662.3,56 662.3,61.2 662.3,76.9 519.3,76.9 				"/>
				<line class="st3" x1="532.2" y1="61.2" x2="587.4" y2="61.2"/>
				<line class="st3" x1="555.3" y1="66.6" x2="610.5" y2="66.6"/>
				<line class="st3" x1="538" y1="71.9" x2="633.2" y2="71.9"/>
				<line class="st5" x1="519.3" y1="76.8" x2="662.3" y2="76.8"/>
				<line class="st5" x1="519.3" y1="56" x2="662.3" y2="56"/>
			</g>
			<g>
				<circle class="st6" cx="557.4" cy="66.7" r="2.8"/>
				<g>
					<line class="st7" x1="556.4" y1="65.7" x2="558.4" y2="67.7"/>
					<line class="st7" x1="558.3" y1="65.7" x2="556.5" y2="67.7"/>
				</g>
			</g>
			<line class="st3" x1="605.3" y1="62.6" x2="620.5" y2="62.6"/>
			<line class="st3" x1="635.3" y1="66.6" x2="660.5" y2="66.6"/>
			<path class="st8" d="M519.3,163h143l-2.4-12.2c-0.3-1.5-1-3-2.3-4.2c-3.8-3.7-8.2-1.4-10.2,0c-0.6,0.5-1.6,0.3-1.9-0.4l-7.6-14.7
				c-2.4-4.6-10.1-4.7-12.7-0.3l-10,16.7c-0.3,0.6-1.3,0.5-1.6,0l-2.9-5.9c-2.2-4.5-9.7-4.9-12.6-0.7l-6.4,11.9
				c-0.3,0.6-1.4,0.6-1.7,0l-9.7-21.5c-2.4-4.6-10.2-4.7-12.8-0.2l-4.4,7.6c-0.6,1.1-2.4,1.3-3.4,0.4l-3-2.9
				c-3.6-3.5-10.5-2.2-12,2.2l-2,12.9c-0.1,0.6-1.2,0.6-1.2,0l-0.4-5.4c-0.2-3.4-3.9-6.1-8-5.6c-2.3,0.3-4.4,1.5-5.4,3.7L519.3,163z
				"/>
			<path class="st9" d="M657.7,157.7l0.9-4.8c0.3-1.4,0.3-2.9,0.1-4.3c-0.1-0.7-0.4-1.4-1-2c-3.8-3.7-8.2-1.4-10.2,0
				c-0.6,0.5-1.6,0.3-1.9-0.4l-7.6-14.7c-2.4-4.6-10.1-4.7-12.7-0.3l-10,16.7c-0.4,0.6-1.3,0.6-1.6-0.1l-2.9-5.9
				c-2.2-4.5-9.7-4.9-12.6-0.7l-6.4,11.9c-0.4,0.7-1.4,0.7-1.7-0.1l-9.7-21.5c-2.4-4.6-10.2-4.7-12.8-0.2l-4.4,7.6
				c-0.6,1.1-2.4,1.3-3.4,0.4l-3-2.9c-3.6-3.5-10.5-2.2-12,2.2l-2,12.9c-0.1,0.7-1.1,0.7-1.2-0.1l-0.4-5.4c-0.2-3.4-3.9-6.1-8-5.6
				c-2.3,0.3-4.4,1.5-5.4,3.7l-5.4,12.5"/>
		</g>
	</g>
	<g>
		<g>
			<g>
				<g>
					<path class="st0" d="M428,261c-8.6,0-15.6-7-15.6-15.6V55.3c0-8.6,7-15.6,15.6-15.6s15.6,7,15.6,15.6v190.1
						C443.6,254,436.6,261,428,261z"/>
					<path class="st1" d="M428,40.6c8.1,0,14.6,6.5,14.6,14.6v190.1c0,8.1-6.6,14.6-14.6,14.6s-14.6-6.5-14.6-14.6v-190
						C413.3,47.2,419.9,40.6,428,40.6 M428,38.6c-9.2,0-16.6,7.5-16.6,16.6v190.1c0,9.2,7.5,16.6,16.6,16.6
						c9.2,0,16.6-7.5,16.6-16.6v-190C444.6,46.1,437.1,38.6,428,38.6L428,38.6z"/>
				</g>
				<g>
					<g>
						<defs>
							<path id="SVGID_00000139281755852565979230000009624477835627049610_" d="M428,260L428,260c-8.1,0-14.6-6.5-14.6-14.6V55.3
								c0-8.1,6.5-14.6,14.6-14.6l0,0c8.1,0,14.6,6.5,14.6,14.6v190.1C442.6,253.5,436.1,260,428,260z"/>
						</defs>
						<clipPath id="SVGID_00000158733899317006040790000015849772645909049278_">
							<use xlink:href="#SVGID_00000139281755852565979230000009624477835627049610_"  style="overflow:visible;"/>
						</clipPath>
						<g style="clip-path:url(#SVGID_00000158733899317006040790000015849772645909049278_);">
							<g>
								<line class="st3" x1="419.6" y1="247.3" x2="419.6" y2="312.7"/>
								<line class="st3" x1="427.1" y1="276.2" x2="427.1" y2="341.6"/>
								<line class="st3" x1="436.9" y1="228.9" x2="436.9" y2="305.8"/>
								<line class="st3" x1="426.2" y1="250.5" x2="426.2" y2="267.8"/>
								<line class="st3" x1="420.2" y1="321" x2="420.2" y2="333.8"/>
							</g>
							<g>
								<line class="st3" x1="419.6" y1="147.3" x2="419.6" y2="212.7"/>
								<line class="st3" x1="427.1" y1="176.2" x2="427.1" y2="241.6"/>
								<line class="st3" x1="436.9" y1="128.9" x2="436.9" y2="205.8"/>
								<line class="st3" x1="426.2" y1="150.5" x2="426.2" y2="167.8"/>
								<line class="st3" x1="420.2" y1="221" x2="420.2" y2="233.8"/>
							</g>
							<g>
								<line class="st3" x1="419.6" y1="47.3" x2="419.6" y2="112.7"/>
								<line class="st3" x1="427.1" y1="76.2" x2="427.1" y2="141.6"/>
								<line class="st3" x1="436.9" y1="28.9" x2="436.9" y2="105.8"/>
								<line class="st3" x1="426.2" y1="50.5" x2="426.2" y2="67.8"/>
								<line class="st3" x1="420.2" y1="121" x2="420.2" y2="133.8"/>
							</g>
						</g>
					</g>
				</g>
			</g>
			<line class="st4" x1="413.3" y1="76.3" x2="442.6" y2="76.3"/>
			<g>
				<polyline class="st0" points="389.3,56 532.3,56 532.3,61.2 532.3,76.9 389.3,76.9 				"/>
				<line class="st3" x1="402.2" y1="61.2" x2="457.4" y2="61.2"/>
				<line class="st3" x1="425.3" y1="66.6" x2="480.5" y2="66.6"/>
				<line class="st3" x1="408" y1="71.9" x2="503.2" y2="71.9"/>
				<line class="st5" x1="389.3" y1="76.8" x2="532.3" y2="76.8"/>
				<line class="st5" x1="389.3" y1="56" x2="532.3" y2="56"/>
			</g>
			<g>
				<circle class="st6" cx="427.4" cy="66.7" r="2.8"/>
				<g>
					<line class="st7" x1="426.4" y1="65.7" x2="428.4" y2="67.7"/>
					<line class="st7" x1="428.3" y1="65.7" x2="426.5" y2="67.7"/>
				</g>
			</g>
			<line class="st3" x1="475.3" y1="62.6" x2="490.5" y2="62.6"/>
			<line class="st3" x1="505.3" y1="66.6" x2="530.5" y2="66.6"/>
			<path class="st8" d="M389.3,163h143l-2.4-12.2c-0.3-1.5-1-3-2.3-4.2c-3.8-3.7-8.2-1.4-10.2,0c-0.6,0.5-1.6,0.3-1.9-0.4l-7.6-14.7
				c-2.4-4.6-10.1-4.7-12.7-0.3l-10,16.7c-0.3,0.6-1.3,0.5-1.6,0l-2.9-5.9c-2.2-4.5-9.7-4.9-12.6-0.7l-6.4,11.9
				c-0.3,0.6-1.4,0.6-1.7,0l-9.7-21.5c-2.4-4.6-10.2-4.7-12.8-0.2l-4.4,7.6c-0.6,1.1-2.4,1.3-3.4,0.4l-3-2.9
				c-3.6-3.5-10.5-2.2-12,2.2l-2,12.9c-0.1,0.6-1.2,0.6-1.2,0l-0.4-5.4c-0.2-3.4-3.9-6.1-8-5.6c-2.3,0.3-4.4,1.5-5.4,3.7L389.3,163z
				"/>
			<path class="st9" d="M527.7,157.7l0.9-4.8c0.3-1.4,0.3-2.9,0.1-4.3c-0.1-0.7-0.4-1.4-1-2c-3.8-3.7-8.2-1.4-10.2,0
				c-0.6,0.5-1.6,0.3-1.9-0.4l-7.6-14.7c-2.4-4.6-10.1-4.7-12.7-0.3l-10,16.7c-0.4,0.6-1.3,0.6-1.6-0.1l-2.9-5.9
				c-2.2-4.5-9.7-4.9-12.6-0.7l-6.4,11.9c-0.4,0.7-1.4,0.7-1.7-0.1l-9.7-21.5c-2.4-4.6-10.2-4.7-12.8-0.2l-4.4,7.6
				c-0.6,1.1-2.4,1.3-3.4,0.4l-3-2.9c-3.6-3.5-10.5-2.2-12,2.2l-2,12.9c-0.1,0.7-1.1,0.7-1.2-0.1l-0.4-5.4c-0.2-3.4-3.9-6.1-8-5.6
				c-2.3,0.3-4.4,1.5-5.4,3.7l-5.4,12.5"/>
		</g>
	</g>
	<g>
		<g>
			<g>
				<g>
					<path class="st0" d="M298,261c-8.6,0-15.6-7-15.6-15.6V55.3c0-8.6,7-15.6,15.6-15.6s15.6,7,15.6,15.6v190.1
						C313.6,254,306.6,261,298,261z"/>
					<path class="st1" d="M298,40.6c8.1,0,14.6,6.5,14.6,14.6v190.1c0,8.1-6.6,14.6-14.6,14.6s-14.6-6.5-14.6-14.6v-190
						C283.3,47.2,289.9,40.6,298,40.6 M298,38.6c-9.2,0-16.6,7.5-16.6,16.6v190.1c0,9.2,7.5,16.6,16.6,16.6
						c9.2,0,16.6-7.5,16.6-16.6v-190C314.6,46.1,307.1,38.6,298,38.6L298,38.6z"/>
				</g>
				<g>
					<g>
						<defs>
							<path id="SVGID_00000146493331829314327110000012072629334426119857_" d="M298,260L298,260c-8.1,0-14.6-6.5-14.6-14.6V55.3
								c0-8.1,6.5-14.6,14.6-14.6l0,0c8.1,0,14.6,6.5,14.6,14.6v190.1C312.6,253.5,306.1,260,298,260z"/>
						</defs>
						<clipPath id="SVGID_00000047036037309311105220000003565562872300863935_">
							<use xlink:href="#SVGID_00000146493331829314327110000012072629334426119857_"  style="overflow:visible;"/>
						</clipPath>
						<g style="clip-path:url(#SVGID_00000047036037309311105220000003565562872300863935_);">
							<g>
								<line class="st3" x1="289.6" y1="247.3" x2="289.6" y2="312.7"/>
								<line class="st3" x1="297.1" y1="276.2" x2="297.1" y2="341.6"/>
								<line class="st3" x1="306.9" y1="228.9" x2="306.9" y2="305.8"/>
								<line class="st3" x1="296.2" y1="250.5" x2="296.2" y2="267.8"/>
								<line class="st3" x1="290.2" y1="321" x2="290.2" y2="333.8"/>
							</g>
							<g>
								<line class="st3" x1="289.6" y1="147.3" x2="289.6" y2="212.7"/>
								<line class="st3" x1="297.1" y1="176.2" x2="297.1" y2="241.6"/>
								<line class="st3" x1="306.9" y1="128.9" x2="306.9" y2="205.8"/>
								<line class="st3" x1="296.2" y1="150.5" x2="296.2" y2="167.8"/>
								<line class="st3" x1="290.2" y1="221" x2="290.2" y2="233.8"/>
							</g>
							<g>
								<line class="st3" x1="289.6" y1="47.3" x2="289.6" y2="112.7"/>
								<line class="st3" x1="297.1" y1="76.2" x2="297.1" y2="141.6"/>
								<line class="st3" x1="306.9" y1="28.9" x2="306.9" y2="105.8"/>
								<line class="st3" x1="296.2" y1="50.5" x2="296.2" y2="67.8"/>
								<line class="st3" x1="290.2" y1="121" x2="290.2" y2="133.8"/>
							</g>
						</g>
					</g>
				</g>
			</g>
			<line class="st4" x1="283.3" y1="76.3" x2="312.6" y2="76.3"/>
			<g>
				<polyline class="st0" points="259.3,56 402.3,56 402.3,61.2 402.3,76.9 259.3,76.9 				"/>
				<line class="st3" x1="272.2" y1="61.2" x2="327.4" y2="61.2"/>
				<line class="st3" x1="295.3" y1="66.6" x2="350.5" y2="66.6"/>
				<line class="st3" x1="278" y1="71.9" x2="373.2" y2="71.9"/>
				<line class="st5" x1="259.3" y1="76.8" x2="402.3" y2="76.8"/>
				<line class="st5" x1="259.3" y1="56" x2="402.3" y2="56"/>
			</g>
			<g>
				<circle class="st6" cx="297.4" cy="66.7" r="2.8"/>
				<g>
					<line class="st7" x1="296.4" y1="65.7" x2="298.4" y2="67.7"/>
					<line class="st7" x1="298.3" y1="65.7" x2="296.5" y2="67.7"/>
				</g>
			</g>
			<line class="st3" x1="345.3" y1="62.6" x2="360.5" y2="62.6"/>
			<line class="st3" x1="375.3" y1="66.6" x2="400.5" y2="66.6"/>
			<path class="st8" d="M259.3,163h143l-2.4-12.2c-0.3-1.5-1-3-2.3-4.2c-3.8-3.7-8.2-1.4-10.2,0c-0.6,0.5-1.6,0.3-1.9-0.4l-7.6-14.7
				c-2.4-4.6-10.1-4.7-12.7-0.3l-10,16.7c-0.3,0.6-1.3,0.5-1.6,0l-2.9-5.9c-2.2-4.5-9.7-4.9-12.6-0.7l-6.4,11.9
				c-0.3,0.6-1.4,0.6-1.7,0l-9.7-21.5c-2.4-4.6-10.2-4.7-12.8-0.2l-4.4,7.6c-0.6,1.1-2.4,1.3-3.4,0.4l-3-2.9
				c-3.6-3.5-10.5-2.2-12,2.2l-2,12.9c-0.1,0.6-1.2,0.6-1.2,0l-0.4-5.4c-0.2-3.4-3.9-6.1-8-5.6c-2.3,0.3-4.4,1.5-5.4,3.7L259.3,163z
				"/>
			<path class="st9" d="M397.7,157.7l0.9-4.8c0.3-1.4,0.3-2.9,0.1-4.3c-0.1-0.7-0.4-1.4-1-2c-3.8-3.7-8.2-1.4-10.2,0
				c-0.6,0.5-1.6,0.3-1.9-0.4l-7.6-14.7c-2.4-4.6-10.1-4.7-12.7-0.3l-10,16.7c-0.4,0.6-1.3,0.6-1.6-0.1l-2.9-5.9
				c-2.2-4.5-9.7-4.9-12.6-0.7l-6.4,11.9c-0.4,0.7-1.4,0.7-1.7-0.1l-9.7-21.5c-2.4-4.6-10.2-4.7-12.8-0.2l-4.4,7.6
				c-0.6,1.1-2.4,1.3-3.4,0.4l-3-2.9c-3.6-3.5-10.5-2.2-12,2.2l-2,12.9c-0.1,0.7-1.1,0.7-1.2-0.1l-0.4-5.4c-0.2-3.4-3.9-6.1-8-5.6
				c-2.3,0.3-4.4,1.5-5.4,3.7l-5.4,12.5"/>
		</g>
	</g>
	<g>
		<g>
			<g>
				<g>
					<path class="st0" d="M168,261c-8.6,0-15.6-7-15.6-15.6V55.3c0-8.6,7-15.6,15.6-15.6s15.6,7,15.6,15.6v190.1
						C183.6,254,176.6,261,168,261z"/>
					<path class="st1" d="M168,40.6c8.1,0,14.6,6.5,14.6,14.6v190.1c0,8.1-6.6,14.6-14.6,14.6s-14.6-6.5-14.6-14.6v-190
						C153.3,47.2,159.9,40.6,168,40.6 M168,38.6c-9.2,0-16.6,7.5-16.6,16.6v190.1c0,9.2,7.5,16.6,16.6,16.6s16.6-7.5,16.6-16.6v-190
						C184.6,46.1,177.1,38.6,168,38.6L168,38.6z"/>
				</g>
				<g>
					<g>
						<defs>
							<path id="SVGID_00000123442692141966769540000001634339335394005424_" d="M168,260L168,260c-8.1,0-14.6-6.5-14.6-14.6V55.3
								c0-8.1,6.6-14.6,14.6-14.6l0,0c8.1,0,14.6,6.5,14.6,14.6v190.1C182.6,253.5,176.1,260,168,260z"/>
						</defs>
						<clipPath id="SVGID_00000054947237223468484690000011026687851401944486_">
							<use xlink:href="#SVGID_00000123442692141966769540000001634339335394005424_"  style="overflow:visible;"/>
						</clipPath>
						<g style="clip-path:url(#SVGID_00000054947237223468484690000011026687851401944486_);">
							<g>
								<line class="st3" x1="159.6" y1="247.3" x2="159.6" y2="312.7"/>
								<line class="st3" x1="167.1" y1="276.2" x2="167.1" y2="341.6"/>
								<line class="st3" x1="176.9" y1="228.9" x2="176.9" y2="305.8"/>
								<line class="st3" x1="166.2" y1="250.5" x2="166.2" y2="267.8"/>
								<line class="st3" x1="160.2" y1="321" x2="160.2" y2="333.8"/>
							</g>
							<g>
								<line class="st3" x1="159.6" y1="147.3" x2="159.6" y2="212.7"/>
								<line class="st3" x1="167.1" y1="176.2" x2="167.1" y2="241.6"/>
								<line class="st3" x1="176.9" y1="128.9" x2="176.9" y2="205.8"/>
								<line class="st3" x1="166.2" y1="150.5" x2="166.2" y2="167.8"/>
								<line class="st3" x1="160.2" y1="221" x2="160.2" y2="233.8"/>
							</g>
							<g>
								<line class="st3" x1="159.6" y1="47.3" x2="159.6" y2="112.7"/>
								<line class="st3" x1="167.1" y1="76.2" x2="167.1" y2="141.6"/>
								<line class="st3" x1="176.9" y1="28.9" x2="176.9" y2="105.8"/>
								<line class="st3" x1="166.2" y1="50.5" x2="166.2" y2="67.8"/>
								<line class="st3" x1="160.2" y1="121" x2="160.2" y2="133.8"/>
							</g>
						</g>
					</g>
				</g>
			</g>
			<line class="st4" x1="153.3" y1="76.3" x2="182.6" y2="76.3"/>
			<g>
				<polyline class="st0" points="129.3,56 272.3,56 272.3,61.2 272.3,76.9 129.3,76.9 				"/>
				<line class="st3" x1="142.2" y1="61.2" x2="197.4" y2="61.2"/>
				<line class="st3" x1="165.3" y1="66.6" x2="220.5" y2="66.6"/>
				<line class="st3" x1="148" y1="71.9" x2="243.2" y2="71.9"/>
				<line class="st5" x1="129.3" y1="76.8" x2="272.3" y2="76.8"/>
				<line class="st5" x1="129.3" y1="56" x2="272.3" y2="56"/>
			</g>
			<g>
				<circle class="st6" cx="167.4" cy="66.7" r="2.8"/>
				<g>
					<line class="st7" x1="166.4" y1="65.7" x2="168.4" y2="67.7"/>
					<line class="st7" x1="168.3" y1="65.7" x2="166.5" y2="67.7"/>
				</g>
			</g>
			<line class="st3" x1="215.3" y1="62.6" x2="230.5" y2="62.6"/>
			<line class="st3" x1="245.3" y1="66.6" x2="270.5" y2="66.6"/>
			<path class="st8" d="M129.3,163h143l-2.4-12.2c-0.3-1.5-1-3-2.3-4.2c-3.8-3.7-8.2-1.4-10.2,0c-0.6,0.5-1.6,0.3-1.9-0.4l-7.6-14.7
				c-2.4-4.6-10.1-4.7-12.7-0.3l-10,16.7c-0.3,0.6-1.3,0.5-1.6,0l-2.9-5.9c-2.2-4.5-9.7-4.9-12.6-0.7l-6.4,11.9
				c-0.3,0.6-1.4,0.6-1.7,0l-9.7-21.5c-2.4-4.6-10.2-4.7-12.8-0.2l-4.4,7.6c-0.6,1.1-2.4,1.3-3.4,0.4l-3-2.9
				c-3.6-3.5-10.5-2.2-12,2.2l-2,12.9c-0.1,0.6-1.2,0.6-1.2,0l-0.4-5.4c-0.2-3.4-3.9-6.1-8-5.6c-2.3,0.3-4.4,1.5-5.4,3.7L129.3,163z
				"/>
			<path class="st9" d="M267.7,157.7l0.9-4.8c0.3-1.4,0.3-2.9,0.1-4.3c-0.1-0.7-0.4-1.4-1-2c-3.8-3.7-8.2-1.4-10.2,0
				c-0.6,0.5-1.6,0.3-1.9-0.4l-7.6-14.7c-2.4-4.6-10.1-4.7-12.7-0.3l-10,16.7c-0.4,0.6-1.3,0.6-1.6-0.1l-2.9-5.9
				c-2.2-4.5-9.7-4.9-12.6-0.7l-6.4,11.9c-0.4,0.7-1.4,0.7-1.7-0.1l-9.7-21.5c-2.4-4.6-10.2-4.7-12.8-0.2l-4.4,7.6
				c-0.6,1.1-2.4,1.3-3.4,0.4l-3-2.9c-3.6-3.5-10.5-2.2-12,2.2l-2,12.9c-0.1,0.7-1.1,0.7-1.2-0.1l-0.4-5.4c-0.2-3.4-3.9-6.1-8-5.6
				c-2.3,0.3-4.4,1.5-5.4,3.7l-5.4,12.5"/>
		</g>
	</g>
	<g>
		<g>
			<g>
				<g>
					<path class="st0" d="M38,261c-8.6,0-15.6-7-15.6-15.6V55.3c0-8.6,7-15.6,15.6-15.6s15.6,7,15.6,15.6v190.1
						C53.6,254,46.6,261,38,261z"/>
					<path class="st1" d="M38,40.6c8.1,0,14.6,6.5,14.6,14.6v190.1c0,8.1-6.5,14.6-14.6,14.6s-14.6-6.5-14.6-14.6v-190
						C23.3,47.2,29.9,40.6,38,40.6 M38,38.6c-9.2,0-16.6,7.5-16.6,16.6v190.1c0,9.2,7.5,16.6,16.6,16.6s16.6-7.5,16.6-16.6v-190
						C54.6,46.1,47.1,38.6,38,38.6L38,38.6z"/>
				</g>
				<g>
					<g>
						<defs>
							<path id="SVGID_00000158741932383580830770000002660341847647220379_" d="M38,260L38,260c-8.1,0-14.6-6.5-14.6-14.6V55.3
								c0-8.1,6.5-14.6,14.6-14.6l0,0c8.1,0,14.6,6.5,14.6,14.6v190.1C52.6,253.5,46.1,260,38,260z"/>
						</defs>
						<clipPath id="SVGID_00000106860750291179338600000014934619094145898123_">
							<use xlink:href="#SVGID_00000158741932383580830770000002660341847647220379_"  style="overflow:visible;"/>
						</clipPath>
						<g style="clip-path:url(#SVGID_00000106860750291179338600000014934619094145898123_);">
							<g>
								<line class="st3" x1="29.6" y1="247.3" x2="29.6" y2="312.7"/>
								<line class="st3" x1="37.1" y1="276.2" x2="37.1" y2="341.6"/>
								<line class="st3" x1="46.9" y1="228.9" x2="46.9" y2="305.8"/>
								<line class="st3" x1="36.2" y1="250.5" x2="36.2" y2="267.8"/>
								<line class="st3" x1="30.2" y1="321" x2="30.2" y2="333.8"/>
							</g>
							<g>
								<line class="st3" x1="29.6" y1="147.3" x2="29.6" y2="212.7"/>
								<line class="st3" x1="37.1" y1="176.2" x2="37.1" y2="241.6"/>
								<line class="st3" x1="46.9" y1="128.9" x2="46.9" y2="205.8"/>
								<line class="st3" x1="36.2" y1="150.5" x2="36.2" y2="167.8"/>
								<line class="st3" x1="30.2" y1="221" x2="30.2" y2="233.8"/>
							</g>
							<g>
								<line class="st3" x1="29.6" y1="47.3" x2="29.6" y2="112.7"/>
								<line class="st3" x1="37.1" y1="76.2" x2="37.1" y2="141.6"/>
								<line class="st3" x1="46.9" y1="28.9" x2="46.9" y2="105.8"/>
								<line class="st3" x1="36.2" y1="50.5" x2="36.2" y2="67.8"/>
								<line class="st3" x1="30.2" y1="121" x2="30.2" y2="133.8"/>
							</g>
						</g>
					</g>
				</g>
			</g>
			<line class="st4" x1="23.3" y1="76.3" x2="52.6" y2="76.3"/>
			<g>
				<polyline class="st0" points="-0.7,56 142.3,56 142.3,61.2 142.3,76.9 -0.7,76.9 				"/>
				<line class="st3" x1="12.2" y1="61.2" x2="67.4" y2="61.2"/>
				<line class="st3" x1="35.3" y1="66.6" x2="90.5" y2="66.6"/>
				<line class="st3" x1="18" y1="71.9" x2="113.2" y2="71.9"/>
				<line class="st5" x1="-0.7" y1="76.8" x2="142.3" y2="76.8"/>
				<line class="st5" x1="-0.7" y1="56" x2="142.3" y2="56"/>
			</g>
			<g>
				<circle class="st6" cx="37.4" cy="66.7" r="2.8"/>
				<g>
					<line class="st7" x1="36.4" y1="65.7" x2="38.4" y2="67.7"/>
					<line class="st7" x1="38.3" y1="65.7" x2="36.5" y2="67.7"/>
				</g>
			</g>
			<line class="st3" x1="85.3" y1="62.6" x2="100.5" y2="62.6"/>
			<line class="st3" x1="115.3" y1="66.6" x2="140.5" y2="66.6"/>
			<path class="st8" d="M-0.7,163h143l-2.4-12.2c-0.3-1.5-1-3-2.3-4.2c-3.8-3.7-8.2-1.4-10.2,0c-0.6,0.5-1.6,0.3-1.9-0.4l-7.6-14.7
				c-2.4-4.6-10.1-4.7-12.7-0.3l-10,16.7c-0.3,0.6-1.3,0.5-1.6,0l-2.9-5.9c-2.2-4.5-9.7-4.9-12.6-0.7l-6.4,11.9
				c-0.3,0.6-1.4,0.6-1.7,0l-9.7-21.5c-2.4-4.6-10.2-4.7-12.8-0.2l-4.4,7.6c-0.6,1.1-2.4,1.3-3.4,0.4l-3-2.9
				c-3.6-3.5-10.5-2.2-12,2.2l-2,12.9c-0.1,0.6-1.2,0.6-1.2,0l-0.4-5.4c-0.2-3.4-3.9-6.1-8-5.6c-2.3,0.3-4.4,1.5-5.4,3.7L-0.7,163z"
				/>
			<path class="st9" d="M137.7,157.7l0.9-4.8c0.3-1.4,0.3-2.9,0.1-4.3c-0.1-0.7-0.4-1.4-1-2c-3.8-3.7-8.2-1.4-10.2,0
				c-0.6,0.5-1.6,0.3-1.9-0.4l-7.6-14.7c-2.4-4.6-10.1-4.7-12.7-0.3l-10,16.7c-0.4,0.6-1.3,0.6-1.6-0.1l-2.9-5.9
				c-2.2-4.5-9.7-4.9-12.6-0.7l-6.4,11.9c-0.4,0.7-1.4,0.7-1.7-0.1l-9.7-21.5c-2.4-4.6-10.2-4.7-12.8-0.2l-4.4,7.6
				c-0.6,1.1-2.4,1.3-3.4,0.4l-3-2.9c-3.6-3.5-10.5-2.2-12,2.2l-2,12.9c-0.1,0.7-1.1,0.7-1.2-0.1l-0.4-5.4c-0.2-3.4-3.9-6.1-8-5.6
				c-2.3,0.3-4.4,1.5-5.4,3.7L2.3,157"/>
		</g>
	</g>
</g>
<g>
	<rect x="-0.7" y="162.3" class="st15" width="793.1" height="335.2"/>
</g>
<g>
	<g>
		<g>
			<path class="st16" d="M3.3,360c26.2,0,52.4,0,78.6,0c8.4,0,15.8,6.2,17.2,14.6c1,5.8-0.3,11.2-4.8,15.7
				c-3.1,3.1-6.6,4.8-10.9,5.4c-1.8,0.2-3.6,0.3-5.4,0.3c-24.9,0-49.8,0-74.7,0C3.3,384,3.3,372,3.3,360z"/>
			<path class="st16" d="M439.5,344.1c-9.8,0-19.6,0-29.3,0c-2.7,0-5.1-1.2-7.1-3.4c-1.7-1.9-2.8-4.3-3.3-7.1
				c-1.2-7.1,2.2-14.2,7.5-16c1-0.3,2-0.6,3-0.6c19.6,0,39.1-0.1,58.7,0c6.5,0,11,7,10.5,14.5c-0.4,6-3.4,10.7-8.1,12.2
				c-0.9,0.3-1.8,0.3-2.7,0.3C459,344.1,449.3,344.1,439.5,344.1z"/>
			<path class="st16" d="M76.8,339.5c-16.6,0-33.3-0.1-49.9,0c-4.6,0-8.6-1.6-12-4.5c-2.9-2.5-4.7-5.7-5.6-9.5
				c-2.1-9.4,3.7-18.9,12.9-21.3c1.6-0.4,3.3-0.7,5-0.7c33.3,0,66.6-0.1,99.8,0c11.1,0,18.7,9.3,18,19.2
				c-0.6,7.9-5.7,14.2-13.8,16.2c-1.5,0.4-3,0.5-4.5,0.5C110.1,339.5,93.5,339.5,76.8,339.5z"/>
			<path class="st16" d="M311.6,273.1c-16.3,0-32.6,0-48.8,0c-5.6,0-10.5-1.4-14.4-4.6c-2-1.6-3.2-3.5-3.9-5.6
				c-1.4-3.8-0.6-7.5,2.4-10.7c3.6-3.8,8.5-5.9,15-5.9c33.4,0,66.9,0,100.3,0c3.7,0,7,0.8,10,2.3c5.3,2.7,8,6.6,7.8,11.4
				c-0.3,7-7.4,12.2-15.8,12.8c-3,0.2-6,0.2-8.9,0.3C340.7,273.2,326.2,273.1,311.6,273.1z"/>
			<path class="st16" d="M465.1,241.5c-16.6,0-33.1,0-49.7,0c-5,0-9.2-1.2-12.8-3.9c-1.8-1.4-3.2-2.9-4.2-4.7
				c-3-5.4,0-12.1,5.8-15.3c3.6-2,7.7-2.9,12-2.9c32.8,0,65.7-0.1,98.5,0c8.3,0,14.5,3.1,17.6,8.9c1.4,2.6,1.5,5.4,0.3,8.1
				c-2,4.5-5.9,7.6-12.1,9.1c-1.7,0.4-3.4,0.6-5.1,0.6C498.7,241.5,481.9,241.5,465.1,241.5z"/>
			<path class="st16" d="M674.7,429.3c-16.7,0-33.4-0.1-50.2,0c-6.6,0-14.4-4.7-16.6-12c-2.1-7-0.9-13.2,4.3-18.5
				c3.6-3.7,8-5.4,13-5.4c33.3-0.1,66.6-0.1,99.9,0c9,0,16.1,5.8,17.6,14.9c1.7,10.4-4.9,18.8-14.2,20.6c-1.2,0.2-2.4,0.4-3.7,0.4
				C708.1,429.3,691.4,429.3,674.7,429.3z"/>
			<path class="st16" d="M348.4,426.6c-16.7,0-33.4-0.1-50.2,0c-6.5,0-14.5-4.7-16.7-12.2c-2-6.9-0.8-13,4.3-18.3
				c3.7-3.7,8.2-5.4,13.2-5.4c33.2-0.1,66.3-0.1,99.5,0c9.1,0,16.3,5.7,17.9,14.9c1.8,10.3-4.8,18.8-14.1,20.6
				c-1.2,0.2-2.4,0.4-3.7,0.4C381.9,426.6,365.1,426.6,348.4,426.6z"/>
			<path class="st16" d="M371.1,182.8c8.2,0,16.5,0,24.7,0c4,0,7.8,0.5,11.2,1.8c9.7,3.6,10,10.8,2.7,14.6c-3.8,2-8.4,2.9-13.6,3
				c-16.6,0-33.3,0.1-49.9,0c-7.8,0-13.7-1.9-17.1-5.8c-3.5-4-0.9-9,5.8-11.6c3.5-1.3,7.3-1.9,11.5-1.9c4.2-0.1,8.3,0,12.5,0
				C362.9,182.8,367,182.8,371.1,182.8L371.1,182.8z"/>
			<path class="st16" d="M72.7,268.3c-4.7,0-9.5,0-14.2,0c-3.7,0-7.3-0.5-10.4-2c-5.1-2.5-8.3-5.9-8.6-10.5c-0.3-5,2.2-9,7.8-11.9
				c2.9-1.5,6.2-2.3,9.9-2.3c10.7,0,21.3,0,32,0c8.1,0,15.4,4.6,17.1,10.8c1.8,6.4-3.6,13.8-13.4,15.5c-1.6,0.3-3.3,0.5-5,0.5
				C82.7,268.3,77.7,268.3,72.7,268.3z"/>
			<path class="st16" d="M533.5,259.8c5.3,0,10.5,0,15.8,0c10.1,0,18.5,6.4,17.7,14.5c-0.6,6.1-6.8,11.1-15.1,12
				c-1.7,0.2-3.5,0.3-5.2,0.3c-9.3,0-18.5,0-27.8,0c-3.5,0-6.8-0.5-9.8-1.9c-5.5-2.5-8.7-6.1-9.1-11c-0.4-6.4,5.4-12.3,14.5-13.7
				c1.2-0.2,2.5-0.2,3.7-0.2C523.3,259.8,528.4,259.8,533.5,259.8L533.5,259.8z"/>
			<path class="st16" d="M675,228.2c5.4,0,10.8,0,16.2,0c7.6,0,15.3,4.6,17,10.7c1.7,6.4-3.6,13.8-13.3,15.5
				c-1.5,0.3-3.1,0.5-4.7,0.5c-10.2,0-20.4,0.1-30.6,0c-8.9-0.1-16.4-4.7-17.8-11c-1.5-7,3.7-13.4,13.2-15.3
				c1.3-0.3,2.6-0.4,3.9-0.4C664.2,228.2,669.6,228.2,675,228.2z"/>
			<path class="st16" d="M755.6,195c5.4,0,10.8,0,16.2,0c7.6,0,15.3,4.6,17,10.7c1.7,6.4-3.6,13.8-13.3,15.5
				c-1.5,0.3-3.1,0.5-4.7,0.5c-10.2,0-20.4,0.1-30.6,0c-8.9-0.1-16.4-4.7-17.8-11c-1.5-7,3.7-13.4,13.2-15.3
				c1.3-0.3,2.6-0.4,3.9-0.4C744.8,195,750.2,195,755.6,195z"/>
			<path class="st16" d="M176.9,283.9c-5,0-9.9,0-14.9,0c-4,0-7.8-0.8-11.1-2.6c-4.7-2.6-7.3-6.1-7.5-10.5
				c-0.3-6.4,5.5-12.1,14.9-13.5c0.8-0.1,1.7-0.1,2.6-0.1c10.6,0,21.2,0,31.7,0c3.7,0,7,0.8,10,2.3c5.1,2.6,7.6,6.3,7.7,10.7
				c0.1,6.7-5.9,12.1-14.8,13.4c-1.7,0.2-3.5,0.3-5.2,0.3C185.9,283.9,181.4,283.9,176.9,283.9z"/>
			<path class="st16" d="M502.8,427.5c-5,0-10.1,0-15.1,0c-4.6,0.1-8.8-1.4-12.2-4.4c-3.7-3.3-5.8-7.5-6-12.6
				c-0.1-3.9,0.7-7.5,3-10.7c3-4.3,7.1-7,12.4-7.8c1.8-0.3,3.6-0.4,5.4-0.4c9.1,0,18.2-0.1,27.4,0c7.9,0.1,13.9,3.4,17.3,10.8
				c2.4,5.3,2.1,10.7-0.6,15.7c-2.8,5.2-7.3,8.2-13.1,9.3c-0.6,0.1-1.3,0.1-2,0.1C513.7,427.5,508.3,427.5,502.8,427.5z"/>
			<path class="st16" d="M156.9,408.7c-5.3,0-10.7,0.1-16,0c-8.3-0.1-15-5.4-17.1-13.4c-2.6-10.2,3.5-19.4,13.4-21.9
				c1.6-0.4,3.3-0.6,5-0.6c9.8,0,19.6-0.1,29.3,0.1c7.9,0.1,13.9,3.4,17.3,10.8c2.4,5.3,2.1,10.6-0.7,15.7
				c-2.8,5.2-7.3,8.2-13.1,9.3c-0.6,0.1-1.3,0.1-2,0.1C167.7,408.7,162.3,408.7,156.9,408.7z"/>
			<path class="st16" d="M645.5,195.4c-4.8,0-9.6,0-14.4,0c-4.3,0-8.3-0.5-11.9-2c-3.9-1.5-6.1-3.6-7-6.1c-0.9-2.6,0.3-4.9,3.1-7
				c3.5-2.6,8.2-4,14.3-4c10.6,0,21.2,0,31.7,0c6.2,0,11,1.5,14.6,4.1c4.2,3.1,4,7.9-0.1,10.8c-3.1,2.2-7,3.5-12.1,4
				c-4.3,0.4-8.6,0.1-12.9,0.2C649,195.4,647.3,195.4,645.5,195.4z"/>
			<path class="st16" d="M201.9,189.1c5.2,0,10.4,0.1,15.5,0c6.7-0.1,14.6,2.5,16.7,6.4c2.1,3.7,0.9,7-4.4,9.9
				c-3.6,1.9-7.9,2.8-12.8,2.8c-10.2,0.1-20.4,0.1-30.6,0c-8.4-0.1-15.1-2.5-17.6-7c-1.8-3.4-0.3-6.4,4.1-9
				c3.7-2.2,8.4-3.1,13.8-3.1C191.8,189.1,196.8,189.1,201.9,189.1z"/>
			<path class="st16" d="M284.6,480.5c-5.2,0-10.4,0-15.5,0c-9,0-16.2-6.1-17.7-15c-0.9-5.6,0.6-10.8,4.7-15.1
				c3.9-4,8.7-5.8,14.1-5.8c9.9-0.1,19.7-0.1,29.6,0c3.9,0,7.6,1,10.9,3.4c3.8,2.7,6.2,6.3,7.2,10.8c1.8,7.9-2.2,15.3-8.3,19.2
				c-2.5,1.6-5.4,2.5-8.5,2.5C295.6,480.6,290.1,480.5,284.6,480.5z"/>
			<path class="st16" d="M39.3,469.6c-5,0-10.1,0-15.1,0c-9.1,0.1-16.5-5.9-18.1-14.9c-1-5.6,0.5-10.8,4.5-15.1
				c4-4.2,8.9-5.9,14.5-6c9.7,0,19.4-0.1,29.1,0c8.2,0.1,14.3,3.8,17.4,11.5c2.6,6.4,1,13.5-3.5,18.5c-2.8,3.1-6.1,4.9-10.1,5.7
				c-0.8,0.2-1.6,0.2-2.4,0.2C50.2,469.6,44.7,469.6,39.3,469.6z"/>
			<path class="st16" d="M639.7,321.5c-4.5,0-9,0-13.6,0c-3.2,0-6.2-0.4-9.1-1.7c-5.8-2.6-9.2-7.1-10.4-13.3
				c-0.9-5,0.2-9.4,3.1-13.4c3.4-4.8,8.1-7.5,14.1-7.5c10.7-0.1,21.3-0.1,32,0c6.1,0,10.8,2.8,14.5,7.7c4.2,5.6,4,15,0,20.3
				c-3.1,4-7,6.7-12.1,7.5c-3.7,0.6-7.4,0.2-11.1,0.4C644.5,321.6,642.1,321.5,639.7,321.5z"/>
			<path class="st16" d="M108.3,498.9c-2,0-4.1,0-6.1,0c-8.2,0-16.1-6.6-17.5-14.6c-1.1-5.9,0.3-11,4.2-15.4c3.1-3.5,7.1-5.4,11.8-6
				c4.2-0.5,8.3-0.4,12.4-0.3c5.7,0.1,10.9,1.7,14.9,6.1c2.8,3.1,4.4,6.8,4.6,11.1c0.2,4.1-0.7,7.9-3.1,11.2c-3.7,5.1-8.6,7.9-15,8
				C112.4,498.9,110.4,498.9,108.3,498.9z"/>
			<path class="st16" d="M502.6,498.9c-2,0-4.1,0-6.1,0c-8.2,0-16-6.5-17.5-14.6c-1.1-5.9,0.3-11,4.2-15.4c3.1-3.5,7.1-5.4,11.8-5.9
				c4.2-0.5,8.3-0.4,12.4-0.3c5.7,0.1,10.9,1.7,14.9,6.1c2.8,3.1,4.4,6.8,4.6,11.1c0.2,4.1-0.7,7.9-3.1,11.2
				c-3.7,5.1-8.6,7.9-15,7.9C506.7,498.9,504.7,498.9,502.6,498.9z"/>
			<path class="st16" d="M178.5,475.7c-2.1,0-4.2,0-6.4,0c-8,0.2-15.2-5.6-17.2-13.5c-2.2-8.5,2.5-17.3,9.8-20.6
				c2.6-1.2,5.3-1.9,8.2-1.8c3.7,0,7.3,0,11,0c6.1,0,11.3,2.4,15,7.2c3.2,4.1,4.4,8.8,3.3,14c-1.6,7.9-6.5,12.6-14.2,14.5
				c-0.7,0.2-1.4,0.2-2.2,0.2C183.5,475.7,181,475.7,178.5,475.7L178.5,475.7z"/>
			<path class="st16" d="M572.8,475.7c-2.1,0-4.2,0-6.4,0c-8,0.2-15.2-5.6-17.2-13.5c-2.2-8.5,2.5-17.3,9.8-20.6
				c2.6-1.2,5.3-1.9,8.2-1.9c3.6,0,7.2,0,10.7,0c6.2,0,11.4,2.3,15.3,7.2c3.2,4.1,4.4,8.8,3.4,14c-1.5,7.9-6.5,12.6-14.2,14.5
				c-0.7,0.2-1.4,0.2-2.2,0.2C577.8,475.7,575.3,475.7,572.8,475.7L572.8,475.7z"/>
			<path class="st16" d="M75.4,201.3c-2.1,0-4.2,0-6.3,0c-8.2,0-15.9-3-17.4-7.8c-1.7-5.6,4.7-10.1,14.4-11.1c1.7-0.2,3.3-0.3,5-0.2
				c4.5,0.1,9-0.2,13.5,0.2c7.7,0.7,13.8,4,14.7,8.4c1.1,5.2-5.5,9.7-15.2,10.5C81.3,201.4,78.3,201.2,75.4,201.3
				C75.4,201.2,75.4,201.3,75.4,201.3z"/>
			<path class="st16" d="M755.4,325c-2.9-0.2-5.8,0.1-8.7-0.4c-6.8-1.3-11.5-5-14-11.4c-2.2-5.7-1.5-11.3,1.9-16.2
				c3.3-4.9,8.1-7.8,14.1-7.9c4.3-0.1,8.6,0,12.9,0c8.2-0.2,15.6,5.6,17.6,13.9c2.3,9.7-4.6,20.3-14.8,21.7
				C761.4,325,758.4,324.8,755.4,325z"/>
			<path class="st16" d="M244.5,325c-2.9-0.2-5.8,0.1-8.7-0.4c-6.8-1.3-11.5-5-14-11.4c-2.2-5.7-1.5-11.3,1.9-16.2
				c3.3-4.9,8.1-7.8,14.1-7.9c4.3-0.1,8.6,0,12.9,0c8.2-0.1,15.4,5.5,17.5,13.7c2.5,9.8-4.5,20.5-14.8,21.9
				C250.5,325,247.5,324.8,244.5,325z"/>
			<path class="st16" d="M347.9,348.7c-2.1,0-4.2,0-6.3,0c-7.6,0-15-5.1-17-13.4c-1.5-6.4-0.1-12.2,4.7-17c3.7-3.7,8.2-5.2,13.1-5.4
				c3.9-0.2,7.7-0.2,11.6,0c9.1,0.5,15.8,5.4,17.6,14.4c1.5,7.6-0.6,14.7-9.2,19.4c-2.7,1.5-5.5,2.2-8.6,2.1
				C351.8,348.6,349.8,348.7,347.9,348.7z"/>
			<path class="st16" d="M682.2,365c-2.1,0-4.2,0-6.3,0c-7.6,0-15-5.1-17-13.4c-1.5-6.4-0.2-12.2,4.7-17c3.7-3.7,8.1-5.2,13.1-5.4
				c3.9-0.2,7.7-0.2,11.6,0c9.1,0.5,15.8,5.3,17.6,14.4c1.5,7.6-0.6,14.7-9.2,19.4c-2.7,1.5-5.6,2.3-8.8,2.1
				C686,365,684.1,365,682.2,365z"/>
			<path class="st16" d="M559.3,189.1c2.1,0,4.2,0,6.3,0c7.2,0,15.8,3,17.2,7.8c0.9,3.2-0.5,6.1-4.9,8.5c-2.8,1.5-6.2,2.4-10.2,2.7
				c-5.1,0.4-10.2,0.3-15.3,0.2c-8.3-0.2-14.5-3-16.6-6.6c-3-5.1,1.7-10.2,11.2-12c1.7-0.3,3.5-0.5,5.3-0.5
				C554.8,189.1,557,189.1,559.3,189.1z"/>
			<path class="st16" d="M577.6,354.7h-38c-6.6,0-12-5.4-12-12l0,0c0-6.6,5.4-12,12-12h38c6.6,0,12,5.4,12,12l0,0
				C589.6,349.3,584.2,354.7,577.6,354.7z"/>
		</g>
	</g>
</g>
<g>
	<g>
		<defs>
			<rect id="SVGID_00000060736338541933950440000013652846985105059496_" x="-0.7" y="191.5" width="5469.4" height="306.1"/>
		</defs>
		<clipPath id="SVGID_00000006707850166547190880000005089984704364735901_">
			<use xlink:href="#SVGID_00000060736338541933950440000013652846985105059496_"  style="overflow:visible;"/>
		</clipPath>
		<g style="clip-path:url(#SVGID_00000006707850166547190880000005089984704364735901_);">
			<g>
				<g>
					<path class="st8" d="M522,497.6h251.3l-6.1-21.2c-0.5-2.7-1.8-5.3-4-7.3c-6.7-6.4-14.2-2.5-17.8,0.1c-1.1,0.8-2.8,0.5-3.4-0.6
						L728.7,443c-4.1-8-17.6-8.3-22.2-0.5l-17.4,29.1c-0.6,1-2.3,0.9-2.8-0.1l-5-10.3c-3.8-7.8-16.8-8.6-21.9-1.3l-11.2,20.7
						c-0.6,1.1-2.5,1-3-0.1l-17-37.4c-4.2-8-17.7-8.2-22.2-0.3l-7.7,13.3c-1.1,1.9-4.2,2.3-5.9,0.7l-5.3-5c-6.4-6.1-18.3-3.9-21,3.8
						l-3.5,22.5c-0.2,1.2-2,1.2-2.1-0.1l-0.6-9.3c-0.4-6-6.8-10.7-13.9-9.7c-4,0.5-7.7,2.7-9.4,6.4L522,497.6z"/>
					<path class="st9" d="M771.5,492.3l-4.3-16c-0.5-2.7-1.8-5.3-4-7.3c-6.7-6.4-14.2-2.5-17.8,0.1c-1.1,0.8-2.8,0.5-3.4-0.6
						l-13.3-25.6c-4.1-8-17.6-8.3-22.2-0.5l-17.4,29.1c-0.6,1-2.3,0.9-2.8-0.1l-5-10.3c-3.8-7.8-16.8-8.6-21.9-1.3l-11.2,20.7
						c-0.6,1.1-2.5,1-3-0.1l-17-37.4c-4.2-8-17.7-8.2-22.2-0.3l-7.7,13.3c-1.1,1.9-4.2,2.3-5.9,0.7l-5.3-5c-6.4-6.1-18.3-3.9-21,3.8
						l-3.5,22.5c-0.2,1-2,1-2.1-0.1l-0.6-9.4c-0.4-6-6.8-10.7-13.9-9.7c-4,0.5-7.7,2.7-9.4,6.4L524,491.6"/>
					<g>
						<g>
							<path class="st0" d="M590.4,725.2c-14.5,0-26.4-11.8-26.4-26.4V369.1c0-14.5,11.8-26.4,26.4-26.4s26.4,11.8,26.4,26.4v329.7
								C616.8,713.4,604.9,725.2,590.4,725.2z"/>
							<path class="st1" d="M590.4,343.8c14,0,25.4,11.4,25.4,25.4v329.7c0,14-11.4,25.4-25.4,25.4S565,712.9,565,698.8V369.1
								C565,355.1,576.4,343.8,590.4,343.8 M590.4,341.8c-15.1,0-27.4,12.3-27.4,27.4v329.7c0,15.1,12.3,27.4,27.4,27.4
								c15.1,0,27.4-12.3,27.4-27.4V369.1C617.8,354,605.5,341.8,590.4,341.8L590.4,341.8z"/>
						</g>
						<g>
							<g>
								<defs>
									<path id="SVGID_00000175296903956246092110000012628053906532600759_" d="M590.4,724.2L590.4,724.2
										c-14,0-25.4-11.4-25.4-25.4V369.1c0-14,11.4-25.4,25.4-25.4l0,0c14,0,25.4,11.4,25.4,25.4v329.7
										C615.8,712.9,604.4,724.2,590.4,724.2z"/>
								</defs>
								<clipPath id="SVGID_00000044862908460873913500000018179668564907582100_">
									<use xlink:href="#SVGID_00000175296903956246092110000012628053906532600759_"  style="overflow:visible;"/>
								</clipPath>
								<g style="clip-path:url(#SVGID_00000044862908460873913500000018179668564907582100_);">
									<g>
										<line class="st19" x1="575.9" y1="695.4" x2="575.9" y2="808.8"/>
										<line class="st19" x1="588.9" y1="745.4" x2="588.9" y2="858.8"/>
										<line class="st19" x1="605.9" y1="663.4" x2="605.9" y2="796.8"/>
										<line class="st19" x1="587.3" y1="700.9" x2="587.3" y2="730.8"/>
										<line class="st19" x1="576.9" y1="823.1" x2="576.9" y2="845.3"/>
									</g>
									<g>
										<line class="st19" x1="575.9" y1="525.4" x2="575.9" y2="638.8"/>
										<line class="st19" x1="588.9" y1="575.4" x2="588.9" y2="688.8"/>
										<line class="st19" x1="605.9" y1="493.4" x2="605.9" y2="626.8"/>
										<line class="st19" x1="587.3" y1="530.9" x2="587.3" y2="560.8"/>
										<line class="st19" x1="576.9" y1="653.1" x2="576.9" y2="675.3"/>
									</g>
									<g>
										<line class="st19" x1="575.9" y1="355.4" x2="575.9" y2="468.8"/>
										<line class="st19" x1="588.9" y1="405.4" x2="588.9" y2="518.8"/>
										<line class="st19" x1="605.9" y1="323.4" x2="605.9" y2="456.8"/>
										<line class="st19" x1="587.3" y1="360.9" x2="587.3" y2="390.8"/>
										<line class="st19" x1="576.9" y1="483.1" x2="576.9" y2="505.3"/>
									</g>
								</g>
							</g>
						</g>
					</g>
					<line class="st4" x1="565" y1="405.7" x2="615.8" y2="405.7"/>
					<g>
						<polyline class="st0" points="523.3,370.5 792.4,370.5 792.4,379.5 792.4,406.7 523.3,406.7 						"/>
						<line class="st19" x1="528.4" y1="377.8" x2="729" y2="377.8"/>
						<line class="st19" x1="568.5" y1="388.8" x2="769.2" y2="388.8"/>
						<line class="st19" x1="538.4" y1="399.8" x2="739.1" y2="399.8"/>
						<line class="st5" x1="523.3" y1="406.5" x2="792.4" y2="406.5"/>
						<line class="st5" x1="523.3" y1="370.5" x2="792.4" y2="370.5"/>
					</g>
					<g>
						<circle class="st6" cx="589.4" cy="388.9" r="4.9"/>
						<g>
							<line class="st7" x1="587.7" y1="387.2" x2="591.1" y2="390.7"/>
							<line class="st7" x1="591" y1="387.2" x2="587.7" y2="390.7"/>
						</g>
					</g>
				</g>
			</g>
			<g>
				<g>
					<path class="st8" d="M260,497.6h251.3l-6.1-21.2c-0.5-2.7-1.8-5.3-4-7.3c-6.7-6.4-14.2-2.5-17.8,0.1c-1.1,0.8-2.8,0.5-3.4-0.6
						L466.7,443c-4.1-8-17.6-8.3-22.2-0.5l-17.4,29.1c-0.6,1-2.3,0.9-2.8-0.1l-5-10.3c-3.8-7.8-16.8-8.6-21.9-1.3l-11.2,20.7
						c-0.6,1.1-2.5,1-3-0.1l-17-37.4c-4.2-8-17.7-8.2-22.2-0.3l-7.7,13.3c-1.1,1.9-4.2,2.3-5.9,0.7l-5.3-5c-6.4-6.1-18.3-3.9-21,3.8
						l-3.5,22.5c-0.2,1.2-2,1.2-2.1-0.1l-0.6-9.3c-0.4-6-6.8-10.7-13.9-9.7c-4,0.5-7.7,2.7-9.4,6.4L260,497.6z"/>
					<path class="st9" d="M509.5,492.3l-4.3-16c-0.5-2.7-1.8-5.3-4-7.3c-6.7-6.4-14.2-2.5-17.8,0.1c-1.1,0.8-2.8,0.5-3.4-0.6
						l-13.3-25.6c-4.1-8-17.6-8.3-22.2-0.5l-17.4,29.1c-0.6,1-2.3,0.9-2.8-0.1l-5-10.3c-3.8-7.8-16.8-8.6-21.9-1.3l-11.2,20.7
						c-0.6,1.1-2.5,1-3-0.1l-17-37.4c-4.2-8-17.7-8.2-22.2-0.3l-7.7,13.3c-1.1,1.9-4.2,2.3-5.9,0.7l-5.3-5c-6.4-6.1-18.3-3.9-21,3.8
						l-3.5,22.5c-0.2,1-2,1-2.1-0.1l-0.6-9.4c-0.4-6-6.8-10.7-13.9-9.7c-4,0.5-7.7,2.7-9.4,6.4L262,491.6"/>
					<g>
						<g>
							<path class="st0" d="M328.4,725.2c-14.5,0-26.4-11.8-26.4-26.4V369.1c0-14.5,11.8-26.4,26.4-26.4s26.4,11.8,26.4,26.4v329.7
								C354.8,713.4,342.9,725.2,328.4,725.2z"/>
							<path class="st1" d="M328.4,343.8c14,0,25.4,11.4,25.4,25.4v329.7c0,14-11.4,25.4-25.4,25.4S303,712.9,303,698.8V369.1
								C303,355.1,314.4,343.8,328.4,343.8 M328.4,341.8c-15.1,0-27.4,12.3-27.4,27.4v329.7c0,15.1,12.3,27.4,27.4,27.4
								s27.4-12.3,27.4-27.4V369.1C355.8,354,343.5,341.8,328.4,341.8L328.4,341.8z"/>
						</g>
						<g>
							<g>
								<defs>
									<path id="SVGID_00000179619603399659108970000001950540008746346163_" d="M328.4,724.2L328.4,724.2
										c-14,0-25.4-11.4-25.4-25.4V369.1c0-14,11.4-25.4,25.4-25.4l0,0c14,0,25.4,11.4,25.4,25.4v329.7
										C353.8,712.9,342.4,724.2,328.4,724.2z"/>
								</defs>
								<clipPath id="SVGID_00000128475275568423888570000007755031497215128449_">
									<use xlink:href="#SVGID_00000179619603399659108970000001950540008746346163_"  style="overflow:visible;"/>
								</clipPath>
								<g style="clip-path:url(#SVGID_00000128475275568423888570000007755031497215128449_);">
									<g>
										<line class="st19" x1="313.9" y1="695.4" x2="313.9" y2="808.8"/>
										<line class="st19" x1="326.9" y1="745.4" x2="326.9" y2="858.8"/>
										<line class="st19" x1="343.9" y1="663.4" x2="343.9" y2="796.8"/>
										<line class="st19" x1="325.3" y1="700.9" x2="325.3" y2="730.8"/>
										<line class="st19" x1="314.9" y1="823.1" x2="314.9" y2="845.3"/>
									</g>
									<g>
										<line class="st19" x1="313.9" y1="525.4" x2="313.9" y2="638.8"/>
										<line class="st19" x1="326.9" y1="575.4" x2="326.9" y2="688.8"/>
										<line class="st19" x1="343.9" y1="493.4" x2="343.9" y2="626.8"/>
										<line class="st19" x1="325.3" y1="530.9" x2="325.3" y2="560.8"/>
										<line class="st19" x1="314.9" y1="653.1" x2="314.9" y2="675.3"/>
									</g>
									<g>
										<line class="st19" x1="313.9" y1="355.4" x2="313.9" y2="468.8"/>
										<line class="st19" x1="326.9" y1="405.4" x2="326.9" y2="518.8"/>
										<line class="st19" x1="343.9" y1="323.4" x2="343.9" y2="456.8"/>
										<line class="st19" x1="325.3" y1="360.9" x2="325.3" y2="390.8"/>
										<line class="st19" x1="314.9" y1="483.1" x2="314.9" y2="505.3"/>
									</g>
								</g>
							</g>
						</g>
					</g>
					<line class="st4" x1="303" y1="405.7" x2="353.8" y2="405.7"/>
					<g>
						<polyline class="st0" points="261.3,370.5 529.3,370.5 529.3,379.5 529.3,406.7 261.3,406.7 						"/>
						<line class="st19" x1="266.4" y1="377.8" x2="466.2" y2="377.8"/>
						<line class="st19" x1="306.4" y1="388.8" x2="506.2" y2="388.8"/>
						<line class="st19" x1="276.4" y1="399.8" x2="476.2" y2="399.8"/>
						<line class="st5" x1="261.3" y1="406.5" x2="529.3" y2="406.5"/>
						<line class="st5" x1="261.3" y1="370.5" x2="529.3" y2="370.5"/>
					</g>
					<g>
						<circle class="st6" cx="327.4" cy="388.9" r="4.9"/>
						<g>
							<line class="st7" x1="325.7" y1="387.2" x2="329.1" y2="390.7"/>
							<line class="st7" x1="329" y1="387.2" x2="325.7" y2="390.7"/>
						</g>
					</g>
				</g>
			</g>
			<g>
				<g>
					<path class="st8" d="M-2,497.6h251.3l-6.1-21.2c-0.5-2.7-1.8-5.3-4-7.3c-6.7-6.4-14.2-2.5-17.8,0.1c-1.1,0.8-2.8,0.5-3.4-0.6
						L204.7,443c-4.1-8-17.6-8.3-22.2-0.5l-17.4,29.1c-0.6,1-2.3,0.9-2.8-0.1l-5-10.3c-3.8-7.8-16.8-8.6-21.9-1.3l-11.2,20.7
						c-0.6,1.1-2.5,1-3-0.1l-17-37.4c-4.2-8-17.7-8.2-22.3-0.3L74.3,456c-1.1,1.9-4.2,2.3-5.9,0.7l-5.3-5c-6.4-6.1-18.3-3.9-21,3.8
						L38.6,478c-0.2,1.2-2,1.2-2.1-0.1l-0.6-9.3c-0.4-6-6.8-10.7-13.9-9.7c-4,0.5-7.7,2.7-9.4,6.4L-2,497.6z"/>
					<path class="st9" d="M247.5,492.3l-4.3-16c-0.5-2.7-1.8-5.3-4-7.3c-6.7-6.4-14.2-2.5-17.8,0.1c-1.1,0.8-2.8,0.5-3.4-0.6
						l-13.3-25.6c-4.1-8-17.6-8.3-22.2-0.5l-17.4,29.1c-0.6,1-2.3,0.9-2.8-0.1l-5-10.3c-3.8-7.8-16.8-8.6-21.9-1.3l-11.2,20.7
						c-0.6,1.1-2.5,1-3-0.1l-17-37.4c-4.2-8-17.7-8.2-22.3-0.3L74.3,456c-1.1,1.9-4.2,2.3-5.9,0.7l-5.3-5c-6.4-6.1-18.3-3.9-21,3.8
						L38.6,478c-0.2,1-2,1-2.1-0.1l-0.6-9.4c-0.4-6-6.8-10.7-13.9-9.7c-4,0.5-7.7,2.7-9.4,6.4L0,491.6"/>
					<g>
						<g>
							<path class="st0" d="M66.4,725.2c-14.5,0-26.4-11.8-26.4-26.4V369.1c0-14.5,11.8-26.4,26.4-26.4s26.4,11.8,26.4,26.4v329.7
								C92.8,713.4,80.9,725.2,66.4,725.2z"/>
							<path class="st1" d="M66.4,343.8c14,0,25.4,11.4,25.4,25.4v329.7c0,14-11.4,25.4-25.4,25.4S41,712.9,41,698.8V369.1
								C41,355.1,52.4,343.8,66.4,343.8 M66.4,341.8C51.3,341.8,39,354,39,369.1v329.7c0,15.1,12.3,27.4,27.4,27.4
								s27.4-12.3,27.4-27.4V369.1C93.8,354,81.5,341.8,66.4,341.8L66.4,341.8z"/>
						</g>
						<g>
							<g>
								<defs>
									<path id="SVGID_00000182512283324451263010000005851585483912968124_" d="M66.4,724.2L66.4,724.2
										c-14,0-25.4-11.4-25.4-25.4V369.1c0-14,11.4-25.4,25.4-25.4l0,0c14,0,25.4,11.4,25.4,25.4v329.7
										C91.8,712.9,80.4,724.2,66.4,724.2z"/>
								</defs>
								<clipPath id="SVGID_00000124155569900715866100000011913622836561876360_">
									<use xlink:href="#SVGID_00000182512283324451263010000005851585483912968124_"  style="overflow:visible;"/>
								</clipPath>
								<g style="clip-path:url(#SVGID_00000124155569900715866100000011913622836561876360_);">
									<g>
										<line class="st19" x1="51.9" y1="695.4" x2="51.9" y2="808.8"/>
										<line class="st19" x1="64.9" y1="745.4" x2="64.9" y2="858.8"/>
										<line class="st19" x1="81.9" y1="663.4" x2="81.9" y2="796.8"/>
										<line class="st19" x1="63.3" y1="700.9" x2="63.3" y2="730.8"/>
										<line class="st19" x1="52.9" y1="823.1" x2="52.9" y2="845.3"/>
									</g>
									<g>
										<line class="st19" x1="51.9" y1="525.4" x2="51.9" y2="638.8"/>
										<line class="st19" x1="64.9" y1="575.4" x2="64.9" y2="688.8"/>
										<line class="st19" x1="81.9" y1="493.4" x2="81.9" y2="626.8"/>
										<line class="st19" x1="63.3" y1="530.9" x2="63.3" y2="560.8"/>
										<line class="st19" x1="52.9" y1="653.1" x2="52.9" y2="675.3"/>
									</g>
									<g>
										<line class="st19" x1="51.9" y1="355.4" x2="51.9" y2="468.8"/>
										<line class="st19" x1="64.9" y1="405.4" x2="64.9" y2="518.8"/>
										<line class="st19" x1="81.9" y1="323.4" x2="81.9" y2="456.8"/>
										<line class="st19" x1="63.3" y1="360.9" x2="63.3" y2="390.8"/>
										<line class="st19" x1="52.9" y1="483.1" x2="52.9" y2="505.3"/>
									</g>
								</g>
							</g>
						</g>
					</g>
					<line class="st4" x1="41" y1="405.7" x2="91.8" y2="405.7"/>
					<g>
						<polyline class="st0" points="-0.7,370.5 267.3,370.5 267.3,379.5 267.3,406.7 -0.7,406.7 						"/>
						<line class="st19" x1="4.4" y1="377.8" x2="204.2" y2="377.8"/>
						<line class="st19" x1="44.4" y1="388.8" x2="244.2" y2="388.8"/>
						<line class="st19" x1="14.4" y1="399.8" x2="214.2" y2="399.8"/>
						<line class="st5" x1="-0.7" y1="406.5" x2="267.3" y2="406.5"/>
						<line class="st5" x1="-0.7" y1="370.5" x2="267.3" y2="370.5"/>
					</g>
					<g>
						<circle class="st6" cx="65.4" cy="388.9" r="4.9"/>
						<g>
							<line class="st7" x1="63.7" y1="387.2" x2="67.1" y2="390.7"/>
							<line class="st7" x1="67" y1="387.2" x2="63.7" y2="390.7"/>
						</g>
					</g>
				</g>
			</g>
		</g>
	</g>
</g>
</svg>
