<?xml version="1.0" encoding="utf-8"?>
<!-- Generator: Adobe Illustrator 26.2.1, SVG Export Plug-In . SVG Version: 6.00 Build 0)  -->
<svg version="1.1" id="Layer_1" xmlns="http://www.w3.org/2000/svg" xmlns:xlink="http://www.w3.org/1999/xlink" x="0px" y="0px"
	 viewBox="0 0 500 500" style="enable-background:new 0 0 500 500;" xml:space="preserve">
<style type="text/css">
	.st0{fill:#3730A3;}
</style>
<path class="st0" d="M126.6,71.3l6.9-8.8c-6.4-5.1-3-11.2,3.4-11.2h2v42.6h15.4V51.3h7.4c6,0,9.4,2.9,9.4,8.1c0,5.8-3.2,8.1-9.8,8.3
	l0.3,12.2c16.6,0.2,25.3-7.4,25.3-20.5S177.8,39,163,39h-26.2C112.6,39,110.7,62.8,126.6,71.3C126.5,71.3,126.5,71.3,126.6,71.3z
	 M209.5,94.9c5.7,0,10.5-2.3,13.6-6.1c2.6,4.1,7.4,6.1,12.9,6.1s11.3-2.2,15.7-6.2c4.3,4.1,10.5,6.2,16.8,6.2
	c11,0,21.2-6.1,23.3-17.9c2.3-0.2,4.6-0.8,6.8-1.7v6.3c0,9,6.7,13.3,14.6,13.3c5.4,0,10.9-2,15.2-5.7c4.2,3.7,10,5.8,16.6,5.8
	c12.2,0,21.6-7.3,23.5-18.1c6.2-0.8,12.4-3.9,16.4-8.7l-7.6-8.7c-3.3,3.6-7.1,5.3-10,4.7c-3.3-8.2-11.5-13.6-22.2-13.6
	c-14,0-23.9,9.3-23.9,22.2c0,2.6,0.4,5.1,1.2,7.4c-1.8,1.6-3.6,2.4-5.3,2.4c-2.2,0-3.8-1.6-3.8-4.5V35.9h-14.7v26
	c-2.6,2-5.3,2.9-7.5,2.4c-2.7-8.5-9.8-13.6-18.6-13.6c-4.3,0-8.7,1.2-12.1,4.2V35.9h-14.7v37.9c0,1.9,0.2,3.6,0.6,5.3
	c-2.2,2.4-4.4,3.6-6.5,3.6c-2.2,0-3.8-1.6-3.8-4.5V51.6h-14.7l0.2,2.9c-2.9-2.5-7.1-3.9-11.6-3.9c-11.5,0-20.2,8.3-20.2,22.1
	S198.2,95,209.5,94.9L209.5,94.9L209.5,94.9z M345,62.9c1.3,0,2.6,0.2,3.6,0.7c0.7,4.3,2.6,7.4,5.1,9.7c-0.2,5.7-3.6,9.4-8.8,9.4
	s-8.8-3.7-8.8-9.8C336.2,66.7,339.6,62.9,345,62.9C345,62.9,345,62.9,345,62.9z M260.3,67.3c1.7-2.9,4.9-4.7,8.2-4.7
	c1.4,0,2.7,0.3,3.8,0.8c0.8,4.1,2.4,7.2,4.7,9.4c-0.1,6.2-3.2,9.5-8.5,9.5s-8.2-3.6-8.2-9.3L260.3,67.3
	C260.3,67.3,260.3,67.3,260.3,67.3z M213.3,63.2c3.2,0,6,1.3,7.9,3.5v11.9c-1.7,2.5-4.6,3.9-8.1,3.9c-5.3,0-8.4-3.5-8.4-9.5
	S208.1,63.2,213.3,63.2C213.2,63.2,213.3,63.2,213.3,63.2z M86.6,136.1c-2.5-1.9-3.6-3.9-3.6-5.7c0-3.1,2.8-5.4,6.9-5.4h2v42.6h15.4
	v-42.6h7.8c6,0,9.4,2.6,9.4,8.1c0,6-3.9,8.3-10.8,8.3l-1.2,10.5l6,7.2c4.1,5.7,11,9.5,18.6,9.5c5.4,0,10.3-1.9,14.6-5.5
	c4.2,3.5,9.8,5.5,16.3,5.5c12.2,0,21.6-7.3,23.5-18.1c2-0.3,4.1-0.8,6-1.6v18.5h14.7v-26.7c1.6-2.7,4.6-4,7.3-4
	c3.6,0,6.8,2.2,6.8,6.8v23.9h14.7v-26.7c1.6-2.6,4.6-4,7.3-4c3.5,0,6.7,2.2,6.7,6.5v11.9c0,9,6.7,13.3,14.7,13.3
	c5.5,0,11.2-2.1,15.5-6c5.2,4.1,12.5,6,20.6,6c21.5,0,32.8-12.9,34.6-26.8c1.5,0.2,3.2,0.3,4.7,0.4v13.1c0,9,6.7,13.3,14.7,13.3
	c5.3,0,10.9-2,15.2-5.8c4.2,3.7,10,5.9,16.7,5.9c12.2,0,21.6-7.3,23.5-18.1c6.2-0.9,12.4-3.9,16.4-8.7l-7.6-8.7
	c-3.3,3.6-7.1,5.3-10,4.6c-3.3-8.2-11.5-13.6-22.2-13.6c-14,0-23.9,9.3-23.9,22.2c0,2.6,0.4,5.1,1.2,7.4c-1.8,1.6-3.7,2.5-5.4,2.5
	c-2.2,0-3.8-1.6-3.8-4.5v-19.8l-1.5-1.5c-6.7,0.1-14.2-0.3-18.8-1.2c-2.1-6.7-6.7-10.1-11.5-10.1c-4.3,0-8.3,2.7-8.3,8.4
	c0,5.3,3.5,8.9,8.8,11.2c-1.2,8.8-7.9,17.9-21.3,17.9c-5.1,0-9.5-1.3-12.1-4.6c0.5,0.1,1.2,0.1,1.7,0.1c10.1,0,20.2-4.6,20.2-13.9
	c0-7.3-6.5-14.1-17.4-14.1c-13.3,0-21.9,8.8-21.9,21.5c0,3,0.4,5.6,1.3,8c-1.9,1.6-3.7,2.5-5.4,2.5c-2.2,0-3.8-1.6-3.8-4.5v-12.3
	c0-10-7.8-15.2-16-15.2c-5.4,0-11.2,2.3-14.8,7.1c-2.6-4.7-8.1-7.1-13.8-7.1c-5,0-10.1,1.9-13.7,5.7v-4.7h-14v10.4
	c-2.6,1.9-5.2,2.7-7.3,2.2c-3.3-8.2-11.6-13.6-22.2-13.6c-14,0-23.9,9.3-23.9,22.2c0,2.6,0.4,5.1,1.2,7.3c-2.1,1.7-4.5,2.5-7,2.5
	c-3.1,0-5.9-1.5-8.1-4.1l-2.1-2.3c7.9-2.7,12.2-8.2,12.2-16.8c0-12.7-9.4-20.4-24.1-20.4H90c-14,0-20.5,7.9-20.5,16.3
	c0,6.1,3.6,12.5,10.3,16L86.6,136.1L86.6,136.1L86.6,136.1z M391.9,136.6c1.3,0,2.6,0.2,3.6,0.7c0.7,4.3,2.6,7.4,5.1,9.7
	c-0.2,5.7-3.6,9.4-8.8,9.4s-8.8-3.7-8.8-9.8S386.5,136.6,391.9,136.6L391.9,136.6L391.9,136.6z M299,136.5c2.4,0,4,1.5,4,3.2
	c0,3-4.1,4.6-8.5,4.6c-0.5,0-1,0-1.5-0.1C293.2,138.6,296.1,136.5,299,136.5L299,136.5z M168.2,136.6c1.3,0,2.6,0.2,3.6,0.7
	c0.7,4.3,2.6,7.4,5.1,9.7c-0.2,5.7-3.6,9.4-8.8,9.4s-8.8-3.7-8.8-9.8S162.8,136.6,168.2,136.6L168.2,136.6L168.2,136.6z
	 M149.4,236.2c0,2.9-1.4,4.5-3.9,4.5c-2.6,0-3.7-1.6-3.7-3.6c0-3.2,3.1-5.5,7.6-6V236.2z M294.7,210.1c2.3,0,4,1.4,4,3.2
	c0,2.9-4.1,4.6-8.7,4.6c-0.5,0-0.9,0-1.3-0.1C288.9,212.3,291.8,210.1,294.7,210.1L294.7,210.1z M204.4,213.9v11.9
	c-1.7,2.5-4.6,3.9-8.1,3.9c-5.3,0-8.4-3.5-8.4-9.5s3.5-9.7,8.6-9.7C199.6,210.4,202.5,211.7,204.4,213.9L204.4,213.9z M128.3,238.7
	c0,8.4,6.1,14.5,17.5,14.5c12,0,19.1-6,19.1-15.8v-51.2h-23.2c-13.9,0-20.5,7.9-20.5,16.3c0,6.1,3.6,12.5,10.2,16l6.9-8.8
	c-2.4-1.9-3.4-4-3.4-6c0-3.1,2.8-5.6,6.8-5.6h7.8v22.1C139.5,221.1,128.3,227.4,128.3,238.7L128.3,238.7L128.3,238.7z M172.7,219.9
	c0,13.5,8.6,22.2,19.9,22.2c5.7,0,10.5-2.3,13.6-6.1c2.6,4.1,7.4,6.1,12.9,6.1c0.6,0,1.1,0,1.7-0.1c15.2-0.8,23.8-13.3,25.3-26.7
	c1.6,0.1,3.2,0.3,4.9,0.4v13.1c0,9,6.7,13.3,14.6,13.3c5.5,0,11.3-2.1,15.6-6.1c5,4.1,12,6.1,19.3,6.1c6.6,0,13.5-1.6,19.5-4.5v3.5
	h14.7v-26.7c1.5-2.6,4.6-4,7.7-4c3.6,0,7,2.1,7,6.7v11.7c0,9,6.7,13.3,14.6,13.3c6.8,0,14.1-3.3,18.5-9.4l-7.5-7.4
	c-2.3,2.9-5,4.4-7.1,4.4s-3.8-1.6-3.8-4.5V213c0-10.1-8-15.1-16.2-15.1c-5.1,0-10.4,1.9-14,5.6v-4.6h-14v25.8
	c-4.3,3.1-11.3,5.5-17.5,5.5c-4.6,0-8.8-1.2-11.3-4.3c0.5,0.1,1,0.1,1.5,0.1c10.1,0,20.3-4.6,20.3-13.9c0-7.3-6.4-14.1-17.8-14.1
	c-12.8,0-21.6,8.5-21.6,21.4c0,3,0.5,5.7,1.4,8.1c-1.9,1.7-3.8,2.6-5.5,2.6c-2.2,0-3.8-1.6-3.8-4.5v-19.8l-1.5-1.5
	c-6.7,0.1-14.4-0.3-18.9-1.2c-2.1-6.7-6.7-10.1-11.2-10.1c-4.1,0-7.9,2.7-7.9,8.4c0,5.1,3.2,8.7,8.1,10.9
	c-0.7,7.2-3.3,15.6-10.2,17.6c-0.4,0.1-0.8,0.1-1.1,0.1c-2.2,0-3.8-1.6-3.8-4.5v-26.5h-14.7l0.2,2.9c-2.9-2.5-7.1-3.9-11.6-3.9
	C181.5,197.9,172.7,206.2,172.7,219.9L172.7,219.9L172.7,219.9z M302.8,177.8l-14.9,10.9l5.2,6.9l16.4-8L302.8,177.8L302.8,177.8z"
	/>
<path class="st0" d="M111.9,316.5L111.9,316.5c9.4,0,14.3-4.6,18.6-8.6c4.1-3.9,8.1-7.6,15.9-7.6h0c7.9,0,11.8,3.7,15.9,7.6
	c4.3,4.1,9.2,8.7,18.6,8.7h0c9.4,0,14.3-4.6,18.6-8.6c4.1-3.9,8.1-7.6,15.9-7.6h0c7.9,0,11.8,3.7,15.9,7.6c4.3,4.1,9.2,8.7,18.6,8.7
	h0c9.4,0,14.3-4.6,18.6-8.6c4.1-3.9,8.1-7.6,15.9-7.6h0c7.9,0,11.8,3.7,15.9,7.6c4.3,4.1,9.2,8.7,18.6,8.7h0
	c9.4,0,14.3-4.6,18.6-8.6c4.1-3.9,8.1-7.6,15.9-7.6h0c7.9,0,11.8,3.7,15.9,7.6c4.3,4.1,9.2,8.7,18.6,8.7h0c9.4,0,14.3-4.6,18.6-8.6
	c4.1-3.9,8.1-7.6,15.9-7.6h0v-3.9h0c-9.4,0-14.3,4.6-18.6,8.6c-4.1,3.9-8.1,7.6-15.9,7.6h0c-7.9,0-11.8-3.7-15.9-7.6
	c-4.3-4.1-9.2-8.7-18.6-8.7h0c-9.4,0-14.3,4.6-18.6,8.6c-4.1,3.9-8.1,7.6-15.9,7.6h0c-7.9,0-11.8-3.7-15.9-7.6
	c-4.3-4.1-9.2-8.7-18.6-8.7h0c-9.4,0-14.3,4.6-18.6,8.6c-4.1,3.9-8.1,7.6-15.9,7.6h0c-7.9,0-11.8-3.7-15.9-7.6
	c-4.3-4.1-9.2-8.7-18.6-8.7h0c-9.4,0-14.3,4.6-18.6,8.6c-4.1,3.9-8.1,7.6-15.9,7.6h0c-7.9,0-11.8-3.7-15.9-7.6
	c-4.3-4.1-9.2-8.7-18.6-8.7h0c-9.4,0-14.3,4.6-18.6,8.6c-4.2,3.9-8.1,7.6-15.9,7.6h0c-7.9,0-11.8-3.7-15.9-7.6
	c-4.3-4.1-9.2-8.7-18.6-8.7v3.9c7.9,0,11.8,3.7,15.9,7.6C97.6,311.9,102.5,316.5,111.9,316.5L111.9,316.5L111.9,316.5z"/>
<path class="st0" d="M93.3,292c4.3,4.1,9.2,8.7,18.6,8.7h0c9.4,0,14.3-4.6,18.6-8.6c4.1-3.9,8.1-7.6,15.9-7.6h0
	c7.9,0,11.8,3.7,15.9,7.6c4.3,4.1,9.2,8.7,18.6,8.7h0c9.4,0,14.3-4.6,18.6-8.6c4.1-3.9,8.1-7.6,15.9-7.6h0c7.9,0,11.8,3.7,15.9,7.6
	c4.3,4.1,9.2,8.7,18.6,8.7h0c9.4,0,14.3-4.6,18.6-8.6c4.1-3.9,8.1-7.6,15.9-7.6h0c7.9,0,11.8,3.7,15.9,7.6c4.3,4.1,9.2,8.7,18.6,8.7
	h0c9.4,0,14.3-4.6,18.6-8.6c4.1-3.9,8.1-7.6,15.9-7.6h0c7.9,0,11.8,3.7,15.9,7.6c4.3,4.1,9.2,8.7,18.6,8.7h0
	c9.4,0,14.3-4.6,18.6-8.6c4.1-3.9,8.1-7.6,15.9-7.6h0v-3.9h0c-9.4,0-14.3,4.6-18.6,8.6c-4.1,3.9-8.1,7.6-15.9,7.6h0
	c-7.9,0-11.8-3.7-15.9-7.6c-4.3-4.1-9.2-8.7-18.6-8.7h0c-9.4,0-14.3,4.6-18.6,8.6c-4.1,3.9-8.1,7.6-15.9,7.6h0
	c-7.9,0-11.8-3.7-15.9-7.6c-4.3-4.1-9.2-8.7-18.6-8.7h0c-9.4,0-14.3,4.6-18.6,8.6c-4.1,3.9-8.1,7.6-15.9,7.6h0
	c-7.9,0-11.8-3.7-15.9-7.6c-4.3-4.1-9.2-8.7-18.6-8.7h0c-9.4,0-14.3,4.6-18.6,8.6c-4.1,3.9-8.1,7.6-15.9,7.6h0
	c-7.9,0-11.8-3.7-15.9-7.6c-4.3-4.1-9.2-8.7-18.6-8.7h0c-9.4,0-14.3,4.6-18.6,8.6c-4.2,3.9-8.1,7.6-15.9,7.6h0
	c-7.9,0-11.8-3.7-15.9-7.6c-4.3-4.1-9.2-8.7-18.6-8.7v3.9C85.3,284.4,89.2,288.1,93.3,292L93.3,292L93.3,292z"/>
<path class="st0" d="M111.9,280.9c-7.9,0-11.8-3.7-15.9-7.6c-4.3-4.1-9.2-8.7-18.6-8.7v3.9c7.9,0,11.8,3.7,15.9,7.6
	c4.3,4.1,9.2,8.7,18.6,8.7h0c9.4,0,14.3-4.6,18.6-8.6c4.1-3.9,8.1-7.6,15.9-7.6h0c7.9,0,11.8,3.7,15.9,7.6c4.3,4.1,9.2,8.7,18.6,8.7
	h0c9.4,0,14.3-4.6,18.6-8.6c4.1-3.9,8.1-7.6,15.9-7.6h0c7.9,0,11.8,3.7,15.9,7.6c4.3,4.1,9.2,8.7,18.6,8.7h0
	c9.4,0,14.3-4.6,18.6-8.6c4.1-3.9,8.1-7.6,15.9-7.6h0c7.9,0,11.8,3.7,15.9,7.6c4.3,4.1,9.2,8.7,18.6,8.7h0c9.4,0,14.3-4.6,18.6-8.6
	c4.1-3.9,8.1-7.6,15.9-7.6h0c7.9,0,11.8,3.7,15.9,7.6c4.3,4.1,9.2,8.7,18.6,8.7h0c9.4,0,14.3-4.6,18.6-8.6c4.1-3.9,8.1-7.6,15.9-7.6
	h0v-3.9h0c-9.4,0-14.3,4.6-18.6,8.6c-4.1,3.9-8.1,7.6-15.9,7.6h0c-7.9,0-11.8-3.7-15.9-7.6c-4.3-4.1-9.2-8.7-18.6-8.7h0
	c-9.4,0-14.3,4.6-18.6,8.6c-4.1,3.9-8.1,7.6-15.9,7.6h0c-7.9,0-11.8-3.7-15.9-7.6c-4.3-4.1-9.2-8.7-18.6-8.7h0
	c-9.4,0-14.3,4.6-18.6,8.6c-4.1,3.9-8.1,7.6-15.9,7.6h0c-7.9,0-11.8-3.7-15.9-7.6c-4.3-4.1-9.2-8.7-18.6-8.7h0
	c-9.4,0-14.3,4.6-18.6,8.6c-4.1,3.9-8.1,7.6-15.9,7.6h0c-7.9,0-11.8-3.7-15.9-7.6c-4.3-4.1-9.2-8.7-18.6-8.7h0
	c-9.4,0-14.3,4.6-18.6,8.6C123.7,277.2,119.8,280.9,111.9,280.9L111.9,280.9L111.9,280.9z M62.4,355.2c-0.8,0-1.4-0.5-1.4-1.5V340
	h-5.4v13c-0.7,1.3-2.1,2-3.5,2c-2,0-3.4-1.2-3.4-3.3V340h-5.4v12c0,5,3.5,7.6,7.6,7.6c2.2,0,4.3-0.8,5.8-2.3
	c0.8,1.5,2.6,2.3,4.5,2.3c0.8,0,1.7-0.1,2.5-0.4l-0.4-4.1C62.9,355.1,62.7,355.2,62.4,355.2C62.4,355.2,62.4,355.2,62.4,355.2z
	 M72.5,355.2c-0.8,0-1.4-0.5-1.4-1.5V340h-5.4v14.9c0,3.1,2.4,4.7,5.2,4.7c0.9,0,1.8-0.2,2.7-0.5l-0.4-4.1
	C73.1,355.1,72.8,355.2,72.5,355.2L72.5,355.2z M95.5,340h-8.4c-8.5,0-9.1,8.3-3.6,11.3l2.4-3.1c-2.2-1.8-1.1-3.9,1.2-3.9h0.7v14.9
	h7.7c6.8,0,10.8-3.6,10.8-9.6S102.5,340,95.5,340L95.5,340z M95.5,355h-2.3v-10.6h2.2c3.8,0,5.4,1.9,5.4,5.3S99.2,355,95.5,355
	L95.5,355z M143.6,337.3c-2,0-3.2,1.1-3.2,2.8s1.2,2.8,3.2,2.8s3.2-1.1,3.2-2.8C146.9,338.3,145.6,337.3,143.6,337.3z M222.2,356.3
	l-2.6-2.6c-0.8,1-1.7,1.5-2.5,1.5s-1.3-0.5-1.3-1.6v-6.9l-0.5-0.5c-2.3,0-5-0.1-6.6-0.4c-0.7-2.3-2.3-3.5-4-3.5c-1.5,0-2.9,1-2.9,3
	c0,1.8,1.2,3.1,3.1,3.9c-0.4,3.1-2.8,6.3-7.5,6.3c-1.8,0-3.3-0.5-4.2-1.6c0.2,0,0.4,0,0.6,0c3.5,0,7.1-1.6,7.1-4.9
	c0-2.5-2.3-4.9-6.1-4.9c-4.7,0-7.7,3.1-7.7,7.5c0,1,0.1,2,0.4,2.8c-0.6,0.6-1.3,0.9-1.9,0.9c-0.8,0-1.3-0.5-1.3-1.6v-4.3
	c0-3.5-2.8-5.3-5.7-5.3c-1.8,0-3.6,0.6-4.9,2v-1.6h-4.9v9.8c-0.6,0.6-1.4,1.1-2.5,1.1c-0.3,0-0.6,0-0.9-0.1v-10.9h-5.1v1
	c-1-0.8-2.6-1.3-4.2-1.3c-4,0-7,2.9-7,6.9c0,1.2,0.2,2.2,0.7,3.1c-0.7,0.8-1.5,1.1-2.1,1.1c-0.8,0-1.3-0.5-1.3-1.6v-9.3h-5.1v10
	c-0.7,0.6-1.5,1-2.4,1h-0.1c0-0.2,0.1-0.4,0.1-0.6c0-3.1-3.2-6.8-8.6-10.8l-3.3,0.6l-3.4,9.5c-1.5,0.8-3.4,1.3-5.2,1.3
	c-1.6,0-3.1-0.4-4-1.5c0.2,0,0.3,0,0.5,0c3.6,0,7.1-1.6,7.1-4.9c0-2.5-2.2-4.9-6.2-4.9c-4.5,0-7.6,3-7.6,7.5c0,5.4,4.5,8,9.4,8
	c1.3,0,2.7-0.2,4.1-0.5l-0.1,0.2l4.8,0.4l3.4-10.3c1.8,1.3,3.6,3.1,4,4.8c-0.5-0.2-1.1-0.3-1.7-0.3c-2.1,0-3.2,1.3-3.2,2.8
	s1.1,2.9,3.9,2.9c1,0,2-0.2,2.9-0.6c0.6,0.3,1.4,0.6,2.4,0.6c1.5,0,3-0.5,4.3-1.4c0.9,1,2.4,1.4,3.9,1.4c2.2,0,4.4-1,6-2.7
	c1,0.6,2.2,0.9,3.5,0.9c1.8,0,3.4-0.6,4.5-1.7v2.1c-0.5-0.1-1-0.2-1.6-0.2c-2.5,0-5,1.2-5,3.6c0,2.5,2.8,3.6,5.6,3.6
	c3.3,0,6.2-1.5,6.2-5v-0.7c0.1,0,0.3,0,0.4,0c1,0,2-0.3,2.9-0.8v0.4h5.1v-9.4c0.5-0.9,1.6-1.4,2.7-1.4c1.3,0,2.5,0.7,2.5,2.4v4.1
	c0,3.1,2.4,4.7,5.1,4.7c1.9,0,3.9-0.7,5.4-2.1c1.8,1.4,4.4,2.1,7.2,2.1c7.5,0,11.5-4.5,12.1-9.4c0.5,0.1,1.1,0.1,1.6,0.1v4.6
	c0,3.1,2.4,4.7,5.1,4.7C218.1,359.6,220.7,358.4,222.2,356.3L222.2,356.3L222.2,356.3z M113.3,351.1c0.1-2,1.1-2.7,2.1-2.7
	c0.8,0,1.4,0.5,1.4,1.1c0,1-1.4,1.6-3,1.6C113.6,351.1,113.5,351.1,113.3,351.1L113.3,351.1z M158.3,362.1c-0.7,0-1.4-0.3-1.4-0.9
	s0.8-1,1.8-1c0.5,0,0.9,0,1.5,0.2C160.1,361.5,159.3,362.1,158.3,362.1L158.3,362.1z M160.2,352.4c-0.6,0.8-1.7,1.3-2.9,1.3
	c-1.8,0-3-1.1-3-2.7s1.2-2.8,3-2.8c1.2,0,2.2,0.5,2.9,1.3L160.2,352.4L160.2,352.4L160.2,352.4z M192.2,351.1c0.1-2,1.1-2.7,2.1-2.7
	c0.8,0,1.4,0.5,1.4,1.1c0,1.1-1.4,1.6-3,1.6C192.6,351.1,192.4,351.1,192.2,351.1L192.2,351.1z M228.6,362l8.9-25.5h-4.7l-9,25.5
	H228.6L228.6,362z M338.1,340.1c0,1.7,1.2,2.8,3.2,2.8s3.2-1.1,3.2-2.8c0-1.7-1.2-2.7-3.2-2.7S338.1,338.4,338.1,340.1z"/>
<path class="st0" d="M356.6,355.4c-2.6,0-4.6-1.2-4.6-4c0-1.8,0.8-3,2.2-3c1,0,1.5,0.6,1.7,1.8l5-0.8c-0.4-3.2-3.1-5.3-6.5-5.3
	c-3.9,0-7.7,2.6-7.7,7.9c0,0.9,0.1,1.7,0.4,2.5c-0.6,0.5-1.3,0.8-1.8,0.8c-0.8,0-1.3-0.5-1.3-1.6v-9.3h-5.1v9.8
	c-0.7,0.7-1.5,1.1-2.1,1.1c-0.8,0-1.3-0.5-1.3-1.6v-4.2c0-3.5-2.4-5.4-5.4-5.4c-1.8,0-3.6,0.7-4.9,2.1v-7.2h-5.1v15.3
	c-0.8,0.8-1.6,1.1-2.5,1.1c-0.2,0-0.4,0-0.5,0c0.6-1.2,0.9-2.6,0.9-4c0-4.4-3.4-7.2-6.9-7.2c-1.6,0-3.2,0.5-4.5,1.7l0-1.4h-5v9.7
	c-0.7,0.7-1.5,1.1-2.1,1.1c-0.8,0-1.3-0.5-1.3-1.6v-9.3h-5.1l0.1,1c-1-0.9-2.5-1.4-4.1-1.4c-4,0-7.1,2.9-7.1,7.7
	c0,1,0.1,1.9,0.4,2.7c-0.6,0.5-1.2,0.8-1.8,0.8c-0.8,0-1.3-0.5-1.3-1.6v-6.9l-0.5-0.5c-2.4,0-5-0.1-6.6-0.4
	c-0.7-2.4-2.4-3.5-3.9-3.5c-1.4,0-2.8,1-2.8,3c0,1.8,1.1,3,2.8,3.8c-0.3,2.8-1.4,6.1-4.5,6.3v-4.1h-5.4v0.5c-0.8,1.3-2.4,2-3.9,2
	c-2.8,0-4.7-2-4.7-5c0-3.1,2.1-4.7,4.4-4.7c1.9,0,3.6,1.1,3.6,3c0,0.5-0.1,1-0.4,1.4l5.1,0.9c0.5-1.1,0.8-2.2,0.8-3.2
	c0-4.1-4.1-6.5-8.9-6.5c-6.5,0-10.1,4.3-10.1,9.4s3.3,8.9,8.9,8.9c1.9,0,3.7-0.5,5.2-1.5v2.1c0,1.3-0.3,2.6-2,2.6
	c-1.2,0-1.7-0.6-1.8-1.5l-4.9,0.4c0,3.5,2.7,5.3,6.8,5.3c4,0,6.8-1.9,7.2-5.7c5.2-0.4,8.2-4.7,8.7-9.4c0.5,0,1.1,0.1,1.7,0.1v4.6
	c0,3.1,2.4,4.7,5.1,4.7c1.8,0,3.6-0.6,5.1-1.8c1.2,1.2,2.8,1.8,4.7,1.8c2,0,3.7-0.8,4.8-2.1c0.9,1.4,2.6,2.1,4.5,2.1
	c1.2,0,2.4-0.3,3.5-0.8v6.1h5.1v-15c0.7-1,1.7-1.4,2.8-1.4c2,0,3.1,1.6,3.1,3.9c0,0.4,0,0.9-0.2,1.3c-0.4-0.1-0.9-0.2-1.4-0.2
	c-2,0-3.3,1.3-3.3,3s1.2,3.2,3.4,3.2c0.8,0,1.7-0.2,2.4-0.6c1,0.4,2,0.6,3.2,0.6c1.1,0,2.2-0.3,3.2-0.8v0.4h5.1v-9.6
	c0.5-0.9,1.5-1.4,2.6-1.4c1.4,0,2.5,0.8,2.5,2.5v4.3c0,3.1,2.4,4.7,5.1,4.7c1.6,0,3.3-0.5,4.6-1.5c1,1,2.4,1.5,4,1.5
	c1.9,0,3.8-0.7,5.3-2c1.7,1.4,4,2,6.5,2c3.2,0,6.7-1.1,9.4-3.2l-2.1-3.1C361.1,354.6,358.7,355.4,356.6,355.4L356.6,355.4
	L356.6,355.4z M292.8,353.9c-0.6,0.9-1.6,1.4-2.8,1.4c-1.8,0-3-1.2-3-3.3s1.2-3.4,3-3.4c1.1,0,2.1,0.5,2.8,1.2V353.9L292.8,353.9z
	 M418.8,340.1c0,1.7,1.2,2.8,3.2,2.8s3.2-1.1,3.2-2.8c0-1.7-1.2-2.7-3.2-2.7S418.8,338.4,418.8,340.1z"/>
<path class="st0" d="M456.3,353.7c-0.7,1.1-1.9,1.6-2.9,1.6c-1.1,0-2.1-0.6-2.1-2.1v-5h2.5v-3.9h-2.5v-3.2H446v3.2h-1.5v3.9h1.5v5.6
	c-0.8,0.9-1.7,1.4-2.8,1.4h-0.1c0-0.2,0-0.4,0-0.6c0-3.1-3.2-6.8-8.6-10.8l-3.3,0.6l-3.6,10c-0.6,0.5-1.2,0.7-1.7,0.7
	c-0.8,0-1.3-0.5-1.3-1.6v-9.3h-5.1v10c-0.7,0.6-1.5,1-2.3,1c-1.1,0-2.1-0.6-2.1-2.1v-5h2.5v-3.9h-2.5v-3.2h-5.1v3.2h-1.5v3.9h1.5
	v5.6c-0.8,0.9-1.6,1.4-2.4,1.4s-1.3-0.5-1.3-1.6v-6.9l-0.5-0.5c-2.4,0-5-0.1-6.6-0.4c-0.7-2.4-2.4-3.5-3.9-3.5c-1.4,0-2.8,1-2.8,3
	c0,1.8,1.1,3,2.8,3.8c-0.2,2.2-0.9,4.7-2.7,5.8c-0.4,0.2-0.8,0.4-1.2,0.4c-0.8,0-1.4-0.5-1.4-1.5V340h-5.2v1.5
	c-1.7-1.2-3.7-1.8-5.8-1.8c-4.8,0-9.3,3.3-9.3,10s4.4,10,9.1,10c2.3,0,4.6-0.8,6.3-2.6c0.9,1.7,2.9,2.5,5,2.5c0.5,0,1,0,1.4-0.1
	c4.8-0.7,7.4-4.8,7.9-9.3c0.5,0,1.1,0.1,1.7,0.1v4.6c0,3.1,2.4,4.7,5.1,4.7c1.8,0,3.6-0.6,5-1.8c1.2,1.2,3,1.8,4.8,1.8
	c1.7,0,3.4-0.5,4.8-1.4c1,0.9,2.3,1.4,3.9,1.4c0.7,0,1.4-0.1,2.1-0.3l4,0.3l3.5-10.3c1.8,1.3,3.6,3.1,4,4.8
	c-0.5-0.2-1.1-0.3-1.7-0.3c-2.1,0-3.2,1.3-3.2,2.8s1.1,2.9,3.9,2.9c1,0,2-0.2,2.9-0.6c0.6,0.3,1.4,0.6,2.4,0.6
	c1.7,0,3.4-0.6,4.8-1.8c1.2,1.2,3,1.8,4.8,1.8c2.7,0,5.3-1.2,6.7-3.3L456.3,353.7L456.3,353.7L456.3,353.7z M384.4,352.7
	c-1.1,1.4-2.9,2.3-4.7,2.3c-2.8,0-4.7-2-4.7-5.3c0-3.4,1.9-5.4,4.9-5.4c1.7,0,3.4,0.7,4.5,1.8V352.7L384.4,352.7z M252.4,384.4h-4.8
	c-17.4,0-31.6,14.2-31.6,31.6v26.5c0,17.5,14.2,31.6,31.6,31.6h4.8c17.4,0,31.7-14.2,31.7-31.6v-26.5
	C284.1,398.6,269.9,384.5,252.4,384.4L252.4,384.4z M280.2,442.6c0,15.3-12.5,27.8-27.8,27.8h-4.8c-15.3,0-27.8-12.5-27.8-27.8
	v-26.5c0-15.3,12.5-27.8,27.8-27.8h4.8c15.3,0,27.8,12.5,27.8,27.8V442.6L280.2,442.6z"/>
<path class="st0" d="M266.6,400.5l-2.7-2.8l-11.9,11.4v-12.4h-3.9v12.4l-12-11.4l-2.7,2.8l14.7,14v6.6l-12-11.4l-2.7,2.8l14.7,14
	v6.6l-12-11.4l-2.7,2.8l14.7,14V462h3.9v-23.6l14.6-14l-2.7-2.8L252,433.1v-6.6l14.6-14l-2.7-2.8L252,421.1v-6.6L266.6,400.5
	L266.6,400.5z"/>
</svg>
