<?xml version="1.0" encoding="utf-8"?>
<!-- Generator: Adobe Illustrator 26.2.1, SVG Export Plug-In . SVG Version: 6.00 Build 0)  -->
<svg version="1.1" id="Layer_2_00000163784810909063729480000001905619635690174851_"
	 xmlns="http://www.w3.org/2000/svg" xmlns:xlink="http://www.w3.org/1999/xlink" x="0px" y="0px" viewBox="0 0 445.1 664.1"
	 style="enable-background:new 0 0 445.1 664.1;" xml:space="preserve">
<style type="text/css">
	.st0{fill:none;stroke:#000000;stroke-width:10;stroke-linecap:round;stroke-linejoin:round;stroke-miterlimit:10;}
	.st1{fill:#2D82A1;stroke:#000000;stroke-width:3;stroke-miterlimit:10;}
	.st2{fill:#94DAE3;stroke:#000000;stroke-miterlimit:10;}
	.st3{fill:none;stroke:#7EBAC2;stroke-width:7;stroke-linecap:round;stroke-miterlimit:10;}
	.st4{fill:none;stroke:#000000;stroke-width:12;stroke-linecap:round;stroke-linejoin:round;stroke-miterlimit:10;}
	.st5{stroke:#000000;stroke-width:3;stroke-linecap:round;stroke-miterlimit:10;}
	.st6{fill:#2D82A1;}
	.st7{fill:#215F75;}
	.st8{fill:#3598BD;}
	.st9{fill:none;stroke:#000000;stroke-width:3;stroke-miterlimit:10;}
	.st10{fill:#FCFAF7;}
	.st11{fill:none;stroke:#E6E6E6;stroke-width:7;stroke-linecap:round;stroke-linejoin:round;stroke-miterlimit:10;}
	.st12{fill:none;stroke:#000000;stroke-width:3;stroke-linecap:round;stroke-linejoin:round;stroke-miterlimit:10;}
	.st13{fill:none;stroke:#000000;stroke-linecap:round;stroke-miterlimit:10;}
	.st14{fill:none;stroke:#000000;stroke-width:3;stroke-linecap:round;stroke-miterlimit:10;}
	.st15{fill:#FCFAF7;stroke:#000000;stroke-width:3;stroke-linecap:round;stroke-miterlimit:10;}
	.st16{fill:#FFE100;stroke:#000000;stroke-width:3;stroke-linecap:round;stroke-linejoin:round;stroke-miterlimit:10;}
	.st17{fill:#FFE100;stroke:#000000;stroke-linecap:round;stroke-linejoin:round;stroke-miterlimit:10;}
	.st18{fill:#FFEF73;}
	.st19{fill:#EBD300;}
	.st20{fill:none;stroke:#000000;stroke-linecap:round;stroke-linejoin:round;stroke-miterlimit:10;}
	.st21{fill:#94DAE3;stroke:#000000;stroke-width:3;stroke-linecap:round;stroke-linejoin:round;stroke-miterlimit:10;}
</style>
<path class="st0" d="M183.8,324.7c10,10.2,15.1,24.2,19.1,38c7.7,26.7,12.1,54.4,13.1,82.2l13.8,0.3"/>
<path class="st1" d="M213.4,451.5v-1c0-1.7,1.3-3,3-3h14c1.7,0,3,1.3,3,3v1c0,1.7-1.3,3-3,3h-14
	C214.7,454.5,213.4,453.1,213.4,451.5z"/>
<path class="st2" d="M91.7,480.6c-40.4,0-73.3-32.9-73.3-73.3S51.3,334,91.7,334s73.3,32.9,73.3,73.3S132.2,480.6,91.7,480.6
	L91.7,480.6z M91.7,345.9c-33.8,0-61.3,27.5-61.3,61.3s27.5,61.3,61.3,61.3S153,441,153,407.2S125.6,345.9,91.7,345.9z"/>
<path class="st3" d="M143.4,452.5c10.7-12.2,17.2-28,17.2-45.4c0-38.4-31.8-69.6-71-69.6"/>
<circle class="st4" cx="91.7" cy="407.3" r="76.8"/>
<circle cx="91.7" cy="407.3" r="14.5"/>
<path d="M91.9,424.3c0.6,0,1,0.5,1,1l-0.3,60.5c0,0.5-0.4,1-1,1s-1-0.5-1-1l0.3-60.4C90.9,424.7,91.4,424.3,91.9,424.3z M81.9,421.1
	c0.4,0.3,0.5,1,0.2,1.4l-35.9,48.8c-0.3,0.4-0.9,0.5-1.3,0.2c-0.5-0.3-0.6-1-0.2-1.5l35.8-48.7C80.8,420.9,81.4,420.8,81.9,421.1
	L81.9,421.1z M75.6,412.7c0.2,0.5-0.1,1.1-0.6,1.3l-57.7,18.4c-0.5,0.2-1-0.1-1.2-0.6c-0.2-0.5,0.1-1.1,0.7-1.3L74.4,412
	C74.9,411.9,75.4,412.2,75.6,412.7z M75.5,402.2c-0.2,0.5-0.7,0.8-1.3,0.6l-57.5-19c-0.5-0.2-0.8-0.7-0.6-1.2
	c0.2-0.5,0.8-0.8,1.3-0.7l57.4,19C75.4,401.1,75.7,401.7,75.5,402.2L75.5,402.2z M81.6,393.6c-0.4,0.3-1.1,0.2-1.4-0.2l-35.3-49.2
	c-0.3-0.4-0.2-1,0.2-1.3c0.5-0.3,1.1-0.2,1.5,0.2l35.3,49.1C82.1,392.7,82,393.3,81.6,393.6z M91.6,390.3c-0.6,0-1-0.5-1-1l0.3-60.5
	c0-0.5,0.4-1,1-1s1,0.5,1,1l-0.3,60.4C92.6,389.8,92.1,390.3,91.6,390.3z M101.6,393.4c-0.4-0.3-0.5-1-0.2-1.4l35.9-48.8
	c0.3-0.4,0.9-0.5,1.3-0.2c0.5,0.3,0.6,1,0.2,1.5L103,393.2C102.7,393.6,102,393.7,101.6,393.4L101.6,393.4z M107.9,401.9
	c-0.2-0.5,0.1-1.1,0.6-1.3l57.7-18.4c0.5-0.2,1,0.1,1.2,0.6s-0.1,1.1-0.7,1.3l-57.6,18.4C108.6,402.7,108,402.4,107.9,401.9z
	 M108,412.4c0.2-0.5,0.7-0.8,1.3-0.6l57.5,19c0.5,0.2,0.8,0.7,0.6,1.2s-0.8,0.8-1.3,0.7l-57.4-19C108.1,413.5,107.8,412.9,108,412.4
	L108,412.4z M101.9,420.9c0.4-0.3,1.1-0.2,1.4,0.2l35.3,49.2c0.3,0.4,0.2,1-0.2,1.3c-0.5,0.3-1.1,0.2-1.5-0.2l-35.3-49.1
	C101.3,421.9,101.4,421.3,101.9,420.9z"/>
<path class="st2" d="M348.7,480.6c-40.4,0-73.3-32.9-73.3-73.3s32.9-73.3,73.3-73.3s73.3,32.9,73.3,73.3S389.2,480.6,348.7,480.6
	L348.7,480.6z M348.7,345.9c-33.8,0-61.3,27.5-61.3,61.3s27.5,61.3,61.3,61.3S410,441,410,407.2S382.6,345.9,348.7,345.9z"/>
<path class="st3" d="M401.7,361.7c-10.4-12.5-25.1-21.3-42.2-24c-38-5.9-73.7,20.7-79.7,59.4"/>
<circle class="st4" cx="348.7" cy="407.3" r="76.8"/>
<circle cx="348.7" cy="407.3" r="14.5"/>
<path d="M348.9,424.3c0.6,0,1,0.5,1,1l-0.3,60.5c0,0.6-0.5,1-1,1c-0.6,0-1-0.5-1-1l0.3-60.5C347.9,424.7,348.4,424.3,348.9,424.3z
	 M338.9,421.1c0.4,0.3,0.5,1,0.2,1.4l-35.8,48.7c-0.3,0.4-1,0.5-1.4,0.2s-0.5-1-0.2-1.4l35.8-48.7
	C337.8,420.9,338.4,420.8,338.9,421.1z M332.6,412.7c0.2,0.5-0.1,1.1-0.6,1.3l-57.6,18.4c-0.5,0.2-1.1-0.1-1.3-0.6
	c-0.2-0.5,0.1-1.1,0.6-1.3l57.6-18.4C331.9,411.9,332.4,412.2,332.6,412.7z M332.5,402.2c-0.2,0.5-0.7,0.8-1.3,0.6l-57.4-19
	c-0.5-0.2-0.8-0.7-0.6-1.3c0.2-0.5,0.7-0.8,1.3-0.6l57.4,19C332.4,401.1,332.7,401.7,332.5,402.2z M338.6,393.6
	c-0.4,0.3-1.1,0.2-1.4-0.2l-35.3-49.1c-0.3-0.4-0.2-1.1,0.2-1.4c0.4-0.3,1.1-0.2,1.4,0.2l35.3,49.1
	C339.1,392.7,339,393.3,338.6,393.6z M348.6,390.3c-0.6,0-1-0.5-1-1l0.3-60.5c0-0.6,0.5-1,1-1c0.6,0,1,0.5,1,1l-0.3,60.5
	C349.6,389.8,349.1,390.3,348.6,390.3z M358.6,393.4c-0.4-0.3-0.5-1-0.2-1.4l35.8-48.7c0.3-0.4,1-0.5,1.4-0.2s0.5,1,0.2,1.4
	L360,393.2C359.7,393.6,359,393.7,358.6,393.4L358.6,393.4z M364.9,401.9c-0.2-0.5,0.1-1.1,0.6-1.3l57.6-18.4
	c0.5-0.2,1.1,0.1,1.3,0.6c0.2,0.5-0.1,1.1-0.6,1.3l-57.6,18.4C365.6,402.7,365,402.4,364.9,401.9z M365,412.4
	c0.2-0.5,0.7-0.8,1.3-0.6l57.4,19c0.5,0.2,0.8,0.7,0.6,1.3c-0.2,0.5-0.7,0.8-1.3,0.6l-57.4-19C365.1,413.5,364.8,412.9,365,412.4z
	 M358.9,420.9c0.4-0.3,1.1-0.2,1.4,0.2l35.3,49.1c0.3,0.4,0.2,1.1-0.2,1.4c-0.4,0.3-1.1,0.2-1.4-0.2l-35.3-49.1
	C358.3,421.9,358.4,421.3,358.9,420.9z"/>
<path class="st5" d="M207.8,411L91.7,394.5 M204.8,446L89.2,420"/>
<ellipse cx="205.9" cy="428.3" rx="19.2" ry="19.5"/>
<ellipse cx="205.9" cy="428.3" rx="19.2" ry="19.5"/>
<g>
	<path class="st6" d="M354.6,400.1l-70.2-139c-1.7-3.3-5.7-4.5-8.9-2.8c-3.1,1.7-4.2,5.7-2.6,8.9l8.8,17.4c0.8,1.5,0.3,3.4-1,4.4
		l-91.8,68.6c-1.7,1.3-4.2,0.7-5.2-1.3l-15.4-33.9c-1.5-3.2-5.3-4.9-8.5-3.6c-3.4,1.4-4.9,5.4-3.4,8.7l6.8,15c0.9,2,0.3,4.4-1.5,5.7
		l-73.2,54.6c-2.9,2.1-3.5,6.2-1.3,9.1c1.3,1.7,3.1,2.4,5.2,2.6c0.4,0,2.8,0.7,3.2,0.6c0.3,0.1,3,0.5,3.3,0.6l105,20.2
		c4.4,0.8,8.9-0.8,11.6-4.4c15.4-19.8,66.5-85.4,83.1-106.8c0.9-1.2,2.8-1,3.5,0.3l40.9,81c1.1,2.3,3.4,3.6,5.8,3.6
		c1,0,2-0.2,2.9-0.7C355,407.2,356.2,403.3,354.6,400.1L354.6,400.1z M196.5,420.8l-84.6-16c-1.3-0.2-1.7-1.9-0.6-2.7l56.4-42
		c1.3-1,3.2-0.5,3.9,1l26.4,58C198.4,419.9,197.5,421,196.5,420.8z M192.7,371.1l94.4-70.5c1-0.8,2.5-0.4,3,0.7l2.4,4.8
		c1,2,0.8,4.5-0.6,6.3L212,415.3c-0.4,0.6-1.3,0.5-1.6-0.2l-18.5-40.7C191.4,373.1,191.7,371.8,192.7,371.1L192.7,371.1z"/>
</g>
<g>
	<path class="st7" d="M339.4,383.1c-3.6-6.6-7.2-13.3-10.8-19.9c-7.3-13.6-14.7-27.2-22-40.8c-1.3-2.5-3.2-2.4-4.4,0.1
		c-0.3,0.5-0.5,1.2-0.6,1.9c0.3,0.2,0.5,0.4,0.7,0.8L343,406c1.1,2.3,3.4,3.6,5.8,3.6c0.3,0,0.7,0,1-0.1c0.3-2.2,0.3-4.7,0-5.5
		C347.5,396.6,343,389.9,339.4,383.1z M299,306.3c-0.6-1.9-2.4-5-4.3-2.4c-0.7,0.9-1.3,1.7-2,2.6c0.8,1.9,0.5,4.2-0.8,5.8L212,415.2
		l-0.2,0.2c0,1.3,0.2,2.7,0.6,3.8c0.6,1.9,2.4,5,4.3,2.4c27.1-35.2,54.2-70.5,81.4-105.7C300,313.4,299.9,309.1,299,306.3z M169,324
		c-3.1,0.3-6.1,1.2-9,2.1c-1.4,0.4-2.2,1.9-2.7,3.7l5.8,12.7c0.4,1,0.5,2,0.3,3c4.3-1.7,8.7-3.5,12.5-6.1L169,324z M193.1,364.4
		c30-21.6,59.7-43.7,89.3-65.7c0.5,0.1,1.1-0.2,1.7-0.8c1.7-1.8,1.8-6.2,1.2-8.8c-0.3-1.8-0.8-3.4-1.5-4.3c-1.2-3.2-2.3-6.4-3.5-9.6
		c-1.4-3.9-2.4-8.3-4.9-11.7c-1.5-2.2-2.6-0.5-3.3,1.8c0.1,0.7,0.3,1.4,0.7,2.1l8.8,17.4c0.8,1.5,0.3,3.4-1,4.4L190,356.8
		C189.7,360.8,191,365.9,193.1,364.4z M196,410.6c-0.7-0.1-1.4-0.2-2-0.4l4,8.7c0.4,1-0.4,2-1.4,1.8l-84.6-16
		c-1.3-0.2-1.7-1.9-0.6-2.7l56.4-42l0.1-0.1c-0.1-3.7-1.4-7.5-3.2-6.1c-18.4,13.9-35.9,29.4-55,42.5c-2.5,1.7-3.2,10.8,0.2,12
		c6.5,2.3,13.5,3.1,20.2,4.4c7.5,1.4,14.9,2.7,22.4,4.1c14.6,2.6,29.2,5.3,43.8,7.9C200,425.3,200.7,411.5,196,410.6L196,410.6z"/>
</g>
<g>
	<path class="st8" d="M354.6,400.1l-69.2-137c-0.1,0.2-0.2,0.3-0.4,0.5c-1.1,2-0.9,5.7,0.1,7.7c22.4,44.4,45.1,88.7,67.9,133
		c0.5,0.9,1,1.4,1.6,1.6C355.5,404.1,355.6,402,354.6,400.1L354.6,400.1z"/>
</g>
<g>
	<path class="st9" d="M354.6,400.1l-70.2-139c-1.7-3.3-5.7-4.5-8.9-2.8c-3.1,1.7-4.2,5.7-2.6,8.9l8.8,17.4c0.8,1.5,0.3,3.4-1,4.4
		l-91.8,68.6c-1.7,1.3-4.2,0.7-5.2-1.3l-15.4-33.9c-1.5-3.2-5.3-4.9-8.5-3.6c-3.4,1.4-4.9,5.4-3.4,8.7l6.8,15c0.9,2,0.3,4.4-1.5,5.7
		l-73.2,54.6c-2.9,2.1-3.5,6.2-1.3,9.1c1.3,1.7,3.1,2.4,5.2,2.6c0.4,0,2.8,0.7,3.2,0.6c0.3,0.1,3,0.5,3.3,0.6l105,20.2
		c4.4,0.8,8.9-0.8,11.6-4.4c15.4-19.8,66.5-85.4,83.1-106.8c0.9-1.2,2.8-1,3.5,0.3l40.9,81c1.1,2.3,3.4,3.6,5.8,3.6
		c1,0,2-0.2,2.9-0.7C355,407.2,356.2,403.3,354.6,400.1L354.6,400.1z M196.5,420.8l-84.6-16c-1.3-0.2-1.7-1.9-0.6-2.7l56.4-42
		c1.3-1,3.2-0.5,3.9,1l26.4,58C198.4,419.9,197.5,421,196.5,420.8z M192.7,371.1l94.4-70.5c1-0.8,2.5-0.4,3,0.7l2.4,4.8
		c1,2,0.8,4.5-0.6,6.3L212,415.3c-0.4,0.6-1.3,0.5-1.6-0.2l-18.5-40.7C191.4,373.1,191.7,371.8,192.7,371.1L192.7,371.1z"/>
</g>
<g>
	<path class="st10" d="M250.5,256.3c4.4,1.7,4.2,1.4,5.5,1.6c1.2,0.2,2.1,0,3.2,0l0.3-0.3c0,0,17.9-46.5,20.4-95.6
		c-1-1.3-2.1-2.5-3.4-3.5c-0.6-0.5-1.2-0.9-1.8-1.4c-11.4-3.1-30.3-6.3-43.1,34C218.5,232.1,236,251,250.5,256.3z"/>
	<path class="st11" d="M260.4,256.8c-4,0.7-8.2-0.6-11.6-2.8c-6.9-4.4-20.1-17.5-19.3-38.1c0.3-8.4,2.5-16.7,5-24.7
		c10.5-33.9,26-33.2,33.1-33.7c4.2-0.3,8.8-0.5,12.3,2"/>
	<path class="st12" d="M250.5,256.3c4.4,1.7,4.2,1.4,5.5,1.6c1.2,0.2,2.1,0,3.2,0l0.3-0.3c0,0,17.9-46.5,20.4-95.6
		c-1-1.3-2.1-2.5-3.4-3.5c-0.6-0.5-1.2-0.9-1.8-1.4c-11.4-3.1-30.3-6.3-43.1,34C218.5,232.1,236,251,250.5,256.3z"/>
	<path class="st13" d="M242.7,231.7c-0.9,1.1-1.7,2.4-2.4,3.7 M233.9,238.5c-1.2,1.3-2.3,2.8-3.3,4.2 M237.3,244.2
		c-1.2,1.4-2.4,2.8-3.4,4.4 M242.1,248.9c-1.1,1.9-2.1,3.9-3,5.9 M249.4,253.6c-0.6,1.9-1.2,3.7-1.8,5.6 M256.4,255.7
		c-0.3,1.7-0.5,3.3-0.8,5 M247.5,239.1c-0.8,1.4-1.6,2.7-2.4,4.1 M250.3,243.9c-0.8,1.3-1.6,2.7-2.3,4 M254.9,246.5
		c-0.4,1.5-0.7,3-0.9,4.5 M260.2,244.2c0,1.2,0.1,2.4,0.1,3.6 M251.8,232c-0.6,0.6-1.2,1.1-1.8,1.7 M258.6,236.3
		c-0.5,1.2-1.1,2.3-1.6,3.5 M263.5,240.9c1.2,1.5,2.3,3.2,3.2,4.9 M260.8,251.1c1.1,1.2,2.2,2.5,3.2,3.8 M239.4,224.7
		c-0.8,1-1.7,2-2.5,2.9 M250.7,226c-0.3,0.5,0.1-0.3-0.2,0.2 M238.3,218.3C238.1,218.8,238.6,217.9,238.3,218.3 M273.4,160.8
		c15.3-3.2,31.2-3.7,46.8-1.5 M275.4,162.3c14.2-1.5,28.6-0.6,42.5,2.6"/>
	<path class="st13" d="M278.5,162.1c12.2,2.3,25.1,2.1,36.4,7.2 M278.2,163.6c7.8,1.9,15.4,4.2,22.9,7"/>
	<path class="st14" d="M265.5,182.4c-1.3,5.6-2.6,11.3-3.8,16.9"/>
	<path class="st15" d="M266.9,202.4l1.4-6.1c0.9-3.7,4.6-6,8.3-5.1l0,0c3.7,0.9,6,4.6,5.1,8.3l-1.4,6.1c-0.9,3.7-4.6,6-8.3,5.1l0,0
		C268.3,209.8,266,206.1,266.9,202.4z"/>
	<path class="st14" d="M262.4,215.2c-1.2,3.1-1.6,6.1-1.8,9.1c-0.3,5.9,2.3,9.3,5.7,9.8"/>
	<path class="st13" d="M260.9,176.2c0.5,0.9,1,1.7,1.5,2.6 M273,177.7c-0.9,0.9-1.9,1.7-2.8,2.6 M265,175c0.1,1.2,0.2,2.5,0.2,3.8
		 M269.2,175.4c-0.8,1-1.3,2.3-1.5,3.6"/>
</g>
<path class="st16" d="M96,316.2l141.8,29c3.5,0.7,7-1.6,7.7-5.1l16.6-79.1c0.3-1.4-0.8-2.7-2.2-2.7c-14.1,0.4-43.7-16.6-27.8-66.8
	c15.5-48.8,40-33.8,49.2-32.4c10.1,1.5,3.9-64.6-61.4-77c-61.6-11.7-84.8,25.9-90.5,51.6c-5.1,22.7-31.8,146.6-38,175.3
	C90.6,312.3,92.7,315.6,96,316.2z"/>
<path class="st17" d="M173.7,301.1l28-7.3"/>
<path class="st16" d="M96,316.2l141.8,29c3.5,0.7,7-1.6,7.7-5.1l16.6-79.1c0.3-1.4-0.8-2.7-2.2-2.7c-14.1,0.4-43.7-16.6-27.8-66.8
	c15.5-48.8,40-33.8,49.2-32.4c10.1,1.5,3.9-64.6-61.4-77c-61.6-11.7-84.8,25.9-90.5,51.6c-5.1,22.7-31.8,146.6-38,175.3
	C90.6,312.3,92.7,315.6,96,316.2z"/>
<g>
	<path class="st18" d="M219.9,82.1c-61.6-11.7-84.8,25.9-90.5,51.6c-5.1,22.7-31.8,146.6-38,175.3c-0.7,3.3,1.4,6.5,4.7,7.2l5.5,1.1
		c6.1-27.4,12.1-54.8,18.2-82.2c3.2-14.3,6.3-28.6,9.5-42.8c1.6-7.1,3.2-14.3,4.7-21.4c0.7-3.2,1.4-6.5,2.1-9.7
		c0.3-1.4,0.7-2.7,1-4.1c0.1-0.3,0.1-0.5,0.2-0.7c0.1-0.2,0.2-0.6,0.4-1.1c0.9-2.4,1.9-4.8,3-7.1c0.5-1.1,1-2.1,1.6-3.1
		c0.1-0.1,0.1-0.3,0.2-0.4c0.1-0.2,0.2-0.4,0.4-0.6c3.1-4.8,6.3-9.3,10.2-13.5c6.2-6.8,14.7-13,23.5-17.5c18.4-9.4,40.6-11,60.1-3.9
		c10.5,3.8,21.3,10,29,17.2c4.4,4.1,8.4,8.7,11.8,13.7c0,0,1.5,2.3,1.6,2.4c0.6,1,1.1,2,1.7,3c1.4,2.7,2.7,5.3,4.4,7.8
		C286.8,136.8,272.5,92.1,219.9,82.1L219.9,82.1z"/>
</g>
<path class="st19" d="M256.1,269.7c-7.7,17.5-26.7,29-45.9,27.6c-1-0.1-2-0.2-3-0.4c0.3-2.1-0.2-4.8-1.7-4.8c-3,0-6.2,0.8-9.2,1.6
	c-13.4-5.8-24.2-18.1-27.1-32.5c-0.8-4-3.1-1.1-2.6,1.6c2.7,13.5,10.9,25.5,22.2,32.9c-4.1,1-8.1,2-12.2,3c-2.8,0.7-2.1,8.9,0.1,8.4
	l15.4-3.9c2.7-0.7,5.7-1.2,8.5-2c2.2,0.7,4.5,1.2,6.9,1.6c21.1,3,42.1-9.9,50.6-29.1C258.8,272.4,257.4,266.8,256.1,269.7
	L256.1,269.7z"/>
<path class="st12" d="M96,316.2l141.8,29c3.5,0.7,7-1.6,7.7-5.1l16.6-79.1c0.3-1.4-0.8-2.7-2.2-2.7c-14.1,0.4-43.7-16.6-27.8-66.8
	c15.5-48.8,40-33.8,49.2-32.4c10.1,1.5,3.9-64.6-61.4-77c-61.6-11.7-84.8,25.9-90.5,51.6c-5.1,22.7-31.8,146.6-38,175.3
	C90.6,312.3,92.7,315.6,96,316.2z"/>
<path class="st20" d="M173.7,301.1l28-7.3"/>
<g>
	<path d="M113.7,194.5l-25.5-5.4c-6.4-1.4-12.7,2.8-14.1,9.2l-6,28.6c-1.6,0-3.1,1.4-3.5,3.3c-0.4,1.9,0.4,3.7,1.9,4.4l-4.4,20.7
		c-1.4,6.4,2.8,12.7,9.2,14.1l25.5,5.4c6.4,1.4,12.7-2.8,14.1-9.2l12-56.9C124.3,202.2,120.1,195.9,113.7,194.5L113.7,194.5z"/>
</g>
<path class="st9" d="M117.7,219.2c31.3,3.3,69.5,12.3,62.1,34.4c-7.1,21.4-64.6,6.2-76.2,1.8"/>
<circle class="st21" cx="278.1" cy="263.7" r="6.5"/>
<path class="st0" d="M172.2,253.4c-0.1,13.1,6.1,26.4,16.9,33.6c8.1,5.4,18.4,7.2,28,5.7s18.6-6.1,26.1-12.4
	c6.3-5.3,11.5-11.7,17.9-16.9c6.4-5.1,14.4-9,22.6-7.8"/>
<path class="st1" d="M184.5,426.8l0.7-0.7c1.2-1.2,3.1-1.2,4.2,0l9.9,9.9c1.2,1.2,1.2,3.1,0,4.2l-0.7,0.7c-1.2,1.2-3.1,1.2-4.2,0
	l-9.9-9.9C183.3,429.8,183.3,427.9,184.5,426.8z"/>
<path class="st0" d="M172.9,331.9c11.3-2,23-4,34.2-1.6s22.2,9.9,24.9,21.1c2,8-0.5,16.5-3.7,24.1c-8,18.7-20.9,35.2-37.1,47.4
	c3.8,3.9,7.6,7.7,11.4,11.6"/>
</svg>
