<svg version="1.1" id="Layer_2" xmlns="http://www.w3.org/2000/svg" x="0" y="0" viewBox="0 0 445.1 664.1" style="enable-background:new 0 0 445.1 664.1" xml:space="preserve"><style>.st0{fill:none;stroke-width:10;stroke-linecap:round;stroke-linejoin:round}.st0,.st1,.st2{stroke:#000;stroke-miterlimit:10}.st1{fill:#2d82a1;stroke-width:3}.st2{fill:#94dae3}.st3,.st4,.st5{stroke-linecap:round;stroke-miterlimit:10}.st3{fill:none;stroke:#7ebac2;stroke-width:7}.st4,.st5{stroke:#000}.st4{fill:none;stroke-width:12;stroke-linejoin:round}.st5{stroke-width:3}.st7{fill:#215f75}.st12,.st9{stroke-width:3}.st9{fill:none;stroke:#000;stroke-miterlimit:10}.st12{stroke-linejoin:round}.st12,.st13,.st14,.st16{fill:none;stroke:#000;stroke-linecap:round;stroke-miterlimit:10}.st14,.st16{stroke-width:3}.st16{fill:#ffe100;stroke-linejoin:round}</style><path class="st0" d="M183.8 264.7c10 10.2 15.1 24.2 19.1 38 7.7 26.7 12.1 54.4 13.1 82.2l13.8.3"/><path class="st1" d="M213.4 391.5v-1c0-1.7 1.3-3 3-3h14c1.7 0 3 1.3 3 3v1c0 1.7-1.3 3-3 3h-14c-1.7 0-3-1.4-3-3z"/><path class="st2" d="M91.7 420.6c-40.4 0-73.3-32.9-73.3-73.3S51.3 274 91.7 274s73.3 32.9 73.3 73.3-32.8 73.3-73.3 73.3zm0-134.7c-33.8 0-61.3 27.5-61.3 61.3s27.5 61.3 61.3 61.3S153 381 153 347.2s-27.4-61.3-61.3-61.3z"/><path class="st3" d="M143.4 392.5c10.7-12.2 17.2-28 17.2-45.4 0-38.4-31.8-69.6-71-69.6"/><circle class="st4" cx="91.7" cy="347.3" r="76.8"/><circle cx="91.7" cy="347.3" r="14.5"/><path d="M91.9 364.3c.6 0 1 .5 1 1l-.3 60.5c0 .5-.4 1-1 1s-1-.5-1-1l.3-60.4c0-.7.5-1.1 1-1.1zM81.9 361.1c.4.3.5 1 .2 1.4l-35.9 48.8c-.3.4-.9.5-1.3.2-.5-.3-.6-1-.2-1.5l35.8-48.7c.3-.4.9-.5 1.4-.2zM75.6 352.7c.2.5-.1 1.1-.6 1.3l-57.7 18.4c-.5.2-1-.1-1.2-.6-.2-.5.1-1.1.7-1.3L74.4 352c.5-.1 1 .2 1.2.7zM75.5 342.2c-.2.5-.7.8-1.3.6l-57.5-19c-.5-.2-.8-.7-.6-1.2.2-.5.8-.8 1.3-.7l57.4 19c.6.2.9.8.7 1.3zM81.6 333.6c-.4.3-1.1.2-1.4-.2l-35.3-49.2c-.3-.4-.2-1 .2-1.3.5-.3 1.1-.2 1.5.2l35.3 49.1c.2.5.1 1.1-.3 1.4zM91.6 330.3c-.6 0-1-.5-1-1l.3-60.5c0-.5.4-1 1-1s1 .5 1 1l-.3 60.4c0 .6-.5 1.1-1 1.1zM101.6 333.4c-.4-.3-.5-1-.2-1.4l35.9-48.8c.3-.4.9-.5 1.3-.2.5.3.6 1 .2 1.5L103 333.2c-.3.4-1 .5-1.4.2zM107.9 341.9c-.2-.5.1-1.1.6-1.3l57.7-18.4c.5-.2 1 .1 1.2.6.2.5-.1 1.1-.7 1.3l-57.6 18.4c-.5.2-1.1-.1-1.2-.6zM108 352.4c.2-.5.7-.8 1.3-.6l57.5 19c.5.2.8.7.6 1.2-.2.5-.8.8-1.3.7l-57.4-19c-.6-.2-.9-.8-.7-1.3zM101.9 360.9c.4-.3 1.1-.2 1.4.2l35.3 49.2c.3.4.2 1-.2 1.3-.5.3-1.1.2-1.5-.2l-35.3-49.1c-.3-.4-.2-1 .3-1.4z"/><path class="st2" d="M348.7 420.6c-40.4 0-73.3-32.9-73.3-73.3s32.9-73.3 73.3-73.3 73.3 32.9 73.3 73.3-32.8 73.3-73.3 73.3zm0-134.7c-33.8 0-61.3 27.5-61.3 61.3s27.5 61.3 61.3 61.3S410 381 410 347.2s-27.4-61.3-61.3-61.3z"/><path class="st3" d="M401.7 301.7c-10.4-12.5-25.1-21.3-42.2-24-38-5.9-73.7 20.7-79.7 59.4"/><circle class="st4" cx="348.7" cy="347.3" r="76.8"/><circle cx="348.7" cy="347.3" r="14.5"/><path d="M348.9 364.3c.6 0 1 .5 1 1l-.3 60.5c0 .6-.5 1-1 1-.6 0-1-.5-1-1l.3-60.5c0-.6.5-1 1-1zM338.9 361.1c.4.3.5 1 .2 1.4l-35.8 48.7c-.3.4-1 .5-1.4.2-.4-.3-.5-1-.2-1.4l35.8-48.7c.3-.4.9-.5 1.4-.2zM332.6 352.7c.2.5-.1 1.1-.6 1.3l-57.6 18.4c-.5.2-1.1-.1-1.3-.6-.2-.5.1-1.1.6-1.3l57.6-18.4c.6-.2 1.1.1 1.3.6zM332.5 342.2c-.2.5-.7.8-1.3.6l-57.4-19c-.5-.2-.8-.7-.6-1.3.2-.5.7-.8 1.3-.6l57.4 19c.5.2.8.8.6 1.3zM338.6 333.6c-.4.3-1.1.2-1.4-.2l-35.3-49.1c-.3-.4-.2-1.1.2-1.4.4-.3 1.1-.2 1.4.2l35.3 49.1c.3.5.2 1.1-.2 1.4zM348.6 330.3c-.6 0-1-.5-1-1l.3-60.5c0-.6.5-1 1-1 .6 0 1 .5 1 1l-.3 60.5c0 .5-.5 1-1 1zM358.6 333.4c-.4-.3-.5-1-.2-1.4l35.8-48.7c.3-.4 1-.5 1.4-.2.4.3.5 1 .2 1.4L360 333.2c-.3.4-1 .5-1.4.2zM364.9 341.9c-.2-.5.1-1.1.6-1.3l57.6-18.4c.5-.2 1.1.1 1.3.6.2.5-.1 1.1-.6 1.3l-57.6 18.4c-.6.2-1.2-.1-1.3-.6zM365 352.4c.2-.5.7-.8 1.3-.6l57.4 19c.5.2.8.7.6 1.3-.2.5-.7.8-1.3.6l-57.4-19c-.5-.2-.8-.8-.6-1.3zM358.9 360.9c.4-.3 1.1-.2 1.4.2l35.3 49.1c.3.4.2 1.1-.2 1.4-.4.3-1.1.2-1.4-.2l-35.3-49.1c-.4-.4-.3-1 .2-1.4z"/><path class="st5" d="M207.8 351 91.7 334.5M204.8 386 89.2 360"/><ellipse cx="205.9" cy="368.3" rx="19.2" ry="19.5"/><ellipse cx="205.9" cy="368.3" rx="19.2" ry="19.5"/><g><path d="m354.6 340.1-70.2-139c-1.7-3.3-5.7-4.5-8.9-2.8-3.1 1.7-4.2 5.7-2.6 8.9l8.8 17.4c.8 1.5.3 3.4-1 4.4l-91.8 68.6c-1.7 1.3-4.2.7-5.2-1.3l-15.4-33.9c-1.5-3.2-5.3-4.9-8.5-3.6-3.4 1.4-4.9 5.4-3.4 8.7l6.8 15c.9 2 .3 4.4-1.5 5.7l-73.2 54.6c-2.9 2.1-3.5 6.2-1.3 9.1 1.3 1.7 3.1 2.4 5.2 2.6.4 0 2.8.7 3.2.6.3.1 3 .5 3.3.6l105 20.2c4.4.8 8.9-.8 11.6-4.4 15.4-19.8 66.5-85.4 83.1-106.8.9-1.2 2.8-1 3.5.3l40.9 81c1.1 2.3 3.4 3.6 5.8 3.6 1 0 2-.2 2.9-.7 3.3-1.7 4.5-5.6 2.9-8.8zm-158.1 20.7-84.6-16c-1.3-.2-1.7-1.9-.6-2.7l56.4-42c1.3-1 3.2-.5 3.9 1l26.4 58c.4.8-.5 1.9-1.5 1.7zm-3.8-49.7 94.4-70.5c1-.8 2.5-.4 3 .7l2.4 4.8c1 2 .8 4.5-.6 6.3L212 355.3c-.4.6-1.3.5-1.6-.2l-18.5-40.7c-.5-1.3-.2-2.6.8-3.3z" style="fill:#2d82a1"/></g><g><path class="st7" d="M339.4 323.1c-3.6-6.6-7.2-13.3-10.8-19.9-7.3-13.6-14.7-27.2-22-40.8-1.3-2.5-3.2-2.4-4.4.1-.3.5-.5 1.2-.6 1.9.3.2.5.4.7.8L343 346c1.1 2.3 3.4 3.6 5.8 3.6.3 0 .7 0 1-.1.3-2.2.3-4.7 0-5.5-2.3-7.4-6.8-14.1-10.4-20.9zM299 246.3c-.6-1.9-2.4-5-4.3-2.4-.7.9-1.3 1.7-2 2.6.8 1.9.5 4.2-.8 5.8L212 355.2l-.2.2c0 1.3.2 2.7.6 3.8.6 1.9 2.4 5 4.3 2.4 27.1-35.2 54.2-70.5 81.4-105.7 1.9-2.5 1.8-6.8.9-9.6zM169 264c-3.1.3-6.1 1.2-9 2.1-1.4.4-2.2 1.9-2.7 3.7l5.8 12.7c.4 1 .5 2 .3 3 4.3-1.7 8.7-3.5 12.5-6.1L169 264zM193.1 304.4c30-21.6 59.7-43.7 89.3-65.7.5.1 1.1-.2 1.7-.8 1.7-1.8 1.8-6.2 1.2-8.8-.3-1.8-.8-3.4-1.5-4.3-1.2-3.2-2.3-6.4-3.5-9.6-1.4-3.9-2.4-8.3-4.9-11.7-1.5-2.2-2.6-.5-3.3 1.8.1.7.3 1.4.7 2.1l8.8 17.4c.8 1.5.3 3.4-1 4.4L190 296.8c-.3 4 1 9.1 3.1 7.6zM196 350.6c-.7-.1-1.4-.2-2-.4l4 8.7c.4 1-.4 2-1.4 1.8l-84.6-16c-1.3-.2-1.7-1.9-.6-2.7l56.4-42 .1-.1c-.1-3.7-1.4-7.5-3.2-6.1-18.4 13.9-35.9 29.4-55 42.5-2.5 1.7-3.2 10.8.2 12 6.5 2.3 13.5 3.1 20.2 4.4 7.5 1.4 14.9 2.7 22.4 4.1 14.6 2.6 29.2 5.3 43.8 7.9 3.7.6 4.4-13.2-.3-14.1z"/></g><g><path d="m354.6 340.1-69.2-137c-.1.2-.2.3-.4.5-1.1 2-.9 5.7.1 7.7 22.4 44.4 45.1 88.7 67.9 133 .5.9 1 1.4 1.6 1.6.9-1.8 1-3.9 0-5.8z" style="fill:#3598bd"/></g><g><path class="st9" d="m354.6 340.1-70.2-139c-1.7-3.3-5.7-4.5-8.9-2.8-3.1 1.7-4.2 5.7-2.6 8.9l8.8 17.4c.8 1.5.3 3.4-1 4.4l-91.8 68.6c-1.7 1.3-4.2.7-5.2-1.3l-15.4-33.9c-1.5-3.2-5.3-4.9-8.5-3.6-3.4 1.4-4.9 5.4-3.4 8.7l6.8 15c.9 2 .3 4.4-1.5 5.7l-73.2 54.6c-2.9 2.1-3.5 6.2-1.3 9.1 1.3 1.7 3.1 2.4 5.2 2.6.4 0 2.8.7 3.2.6.3.1 3 .5 3.3.6l105 20.2c4.4.8 8.9-.8 11.6-4.4 15.4-19.8 66.5-85.4 83.1-106.8.9-1.2 2.8-1 3.5.3l40.9 81c1.1 2.3 3.4 3.6 5.8 3.6 1 0 2-.2 2.9-.7 3.3-1.7 4.5-5.6 2.9-8.8zm-158.1 20.7-84.6-16c-1.3-.2-1.7-1.9-.6-2.7l56.4-42c1.3-1 3.2-.5 3.9 1l26.4 58c.4.8-.5 1.9-1.5 1.7zm-3.8-49.7 94.4-70.5c1-.8 2.5-.4 3 .7l2.4 4.8c1 2 .8 4.5-.6 6.3L212 355.3c-.4.6-1.3.5-1.6-.2l-18.5-40.7c-.5-1.3-.2-2.6.8-3.3z"/></g><g><path d="M250.5 196.3c4.4 1.7 4.2 1.4 5.5 1.6 1.2.2 2.1 0 3.2 0l.3-.3s17.9-46.5 20.4-95.6c-1-1.3-2.1-2.5-3.4-3.5-.6-.5-1.2-.9-1.8-1.4-11.4-3.1-30.3-6.3-43.1 34-13.1 41 4.4 59.9 18.9 65.2z" style="fill:#fcfaf7"/><path d="M260.4 196.8c-4 .7-8.2-.6-11.6-2.8-6.9-4.4-20.1-17.5-19.3-38.1.3-8.4 2.5-16.7 5-24.7 10.5-33.9 26-33.2 33.1-33.7 4.2-.3 8.8-.5 12.3 2" style="fill:none;stroke:#e6e6e6;stroke-width:7;stroke-linecap:round;stroke-linejoin:round;stroke-miterlimit:10"/><path class="st12" d="M250.5 196.3c4.4 1.7 4.2 1.4 5.5 1.6 1.2.2 2.1 0 3.2 0l.3-.3s17.9-46.5 20.4-95.6c-1-1.3-2.1-2.5-3.4-3.5-.6-.5-1.2-.9-1.8-1.4-11.4-3.1-30.3-6.3-43.1 34-13.1 41 4.4 59.9 18.9 65.2z"/><path class="st13" d="M242.7 171.7c-.9 1.1-1.7 2.4-2.4 3.7M233.9 178.5c-1.2 1.3-2.3 2.8-3.3 4.2M237.3 184.2c-1.2 1.4-2.4 2.8-3.4 4.4M242.1 188.9c-1.1 1.9-2.1 3.9-3 5.9M249.4 193.6c-.6 1.9-1.2 3.7-1.8 5.6M256.4 195.7c-.3 1.7-.5 3.3-.8 5M247.5 179.1c-.8 1.4-1.6 2.7-2.4 4.1M250.3 183.9c-.8 1.3-1.6 2.7-2.3 4M254.9 186.5c-.4 1.5-.7 3-.9 4.5M260.2 184.2c0 1.2.1 2.4.1 3.6M251.8 172c-.6.6-1.2 1.1-1.8 1.7M258.6 176.3c-.5 1.2-1.1 2.3-1.6 3.5M263.5 180.9c1.2 1.5 2.3 3.2 3.2 4.9M260.8 191.1c1.1 1.2 2.2 2.5 3.2 3.8M239.4 164.7c-.8 1-1.7 2-2.5 2.9M250.7 166c-.3.5.1-.3-.2.2M238.3 158.3c-.2.5.3-.4 0 0M273.4 100.8c15.3-3.2 31.2-3.7 46.8-1.5M275.4 102.3c14.2-1.5 28.6-.6 42.5 2.6"/><path class="st13" d="M278.5 102.1c12.2 2.3 25.1 2.1 36.4 7.2M278.2 103.6c7.8 1.9 15.4 4.2 22.9 7"/><path class="st14" d="M265.5 122.4c-1.3 5.6-2.6 11.3-3.8 16.9"/><path d="m266.9 142.4 1.4-6.1c.9-3.7 4.6-6 8.3-5.1h0c3.7.9 6 4.6 5.1 8.3l-1.4 6.1c-.9 3.7-4.6 6-8.3 5.1h0c-3.7-.9-6-4.6-5.1-8.3z" style="fill:#fcfaf7;stroke:#000;stroke-width:3;stroke-linecap:round;stroke-miterlimit:10"/><path class="st14" d="M262.4 155.2c-1.2 3.1-1.6 6.1-1.8 9.1-.3 5.9 2.3 9.3 5.7 9.8"/><path class="st13" d="M260.9 116.2c.5.9 1 1.7 1.5 2.6M273 117.7c-.9.9-1.9 1.7-2.8 2.6M265 115c.1 1.2.2 2.5.2 3.8M269.2 115.4c-.8 1-1.3 2.3-1.5 3.6"/></g><path class="st16" d="m96 256.2 141.8 29c3.5.7 7-1.6 7.7-5.1l16.6-79.1c.3-1.4-.8-2.7-2.2-2.7-14.1.4-43.7-16.6-27.8-66.8 15.5-48.8 40-33.8 49.2-32.4 10.1 1.5 3.9-64.6-61.4-77-61.6-11.7-84.8 25.9-90.5 51.6-5.1 22.7-31.8 146.6-38 175.3-.8 3.3 1.3 6.6 4.6 7.2z"/><path style="fill:#ffe100;stroke:#000;stroke-linecap:round;stroke-linejoin:round;stroke-miterlimit:10" d="m173.7 241.1 28-7.3"/><path class="st16" d="m96 256.2 141.8 29c3.5.7 7-1.6 7.7-5.1l16.6-79.1c.3-1.4-.8-2.7-2.2-2.7-14.1.4-43.7-16.6-27.8-66.8 15.5-48.8 40-33.8 49.2-32.4 10.1 1.5 3.9-64.6-61.4-77-61.6-11.7-84.8 25.9-90.5 51.6-5.1 22.7-31.8 146.6-38 175.3-.8 3.3 1.3 6.6 4.6 7.2z"/><g><path d="M219.9 22.1c-61.6-11.7-84.8 25.9-90.5 51.6-5.1 22.7-31.8 146.6-38 175.3-.7 3.3 1.4 6.5 4.7 7.2l5.5 1.1c6.1-27.4 12.1-54.8 18.2-82.2 3.2-14.3 6.3-28.6 9.5-42.8 1.6-7.1 3.2-14.3 4.7-21.4.7-3.2 1.4-6.5 2.1-9.7.3-1.4.7-2.7 1-4.1.1-.3.1-.5.2-.7.1-.2.2-.6.4-1.1.9-2.4 1.9-4.8 3-7.1.5-1.1 1-2.1 1.6-3.1.1-.1.1-.3.2-.4.1-.2.2-.4.4-.6 3.1-4.8 6.3-9.3 10.2-13.5 6.2-6.8 14.7-13 23.5-17.5 18.4-9.4 40.6-11 60.1-3.9 10.5 3.8 21.3 10 29 17.2 4.4 4.1 8.4 8.7 11.8 13.7 0 0 1.5 2.3 1.6 2.4.6 1 1.1 2 1.7 3 1.4 2.7 2.7 5.3 4.4 7.8 1.6-16.5-12.7-61.2-65.3-71.2z" style="fill:#ffef73"/></g><path d="M256.1 209.7c-7.7 17.5-26.7 29-45.9 27.6-1-.1-2-.2-3-.4.3-2.1-.2-4.8-1.7-4.8-3 0-6.2.8-9.2 1.6-13.4-5.8-24.2-18.1-27.1-32.5-.8-4-3.1-1.1-2.6 1.6 2.7 13.5 10.9 25.5 22.2 32.9-4.1 1-8.1 2-12.2 3-2.8.7-2.1 8.9.1 8.4l15.4-3.9c2.7-.7 5.7-1.2 8.5-2 2.2.7 4.5 1.2 6.9 1.6 21.1 3 42.1-9.9 50.6-29.1.7-1.3-.7-6.9-2-4z" style="fill:#ebd300"/><path class="st12" d="m96 256.2 141.8 29c3.5.7 7-1.6 7.7-5.1l16.6-79.1c.3-1.4-.8-2.7-2.2-2.7-14.1.4-43.7-16.6-27.8-66.8 15.5-48.8 40-33.8 49.2-32.4 10.1 1.5 3.9-64.6-61.4-77-61.6-11.7-84.8 25.9-90.5 51.6-5.1 22.7-31.8 146.6-38 175.3-.8 3.3 1.3 6.6 4.6 7.2z"/><path style="fill:none;stroke:#000;stroke-linecap:round;stroke-linejoin:round;stroke-miterlimit:10" d="m173.7 241.1 28-7.3"/><g><path d="m113.7 134.5-25.5-5.4c-6.4-1.4-12.7 2.8-14.1 9.2l-6 28.6c-1.6 0-3.1 1.4-3.5 3.3-.4 1.9.4 3.7 1.9 4.4l-4.4 20.7c-1.4 6.4 2.8 12.7 9.2 14.1l25.5 5.4c6.4 1.4 12.7-2.8 14.1-9.2l12-56.9c1.4-6.5-2.8-12.8-9.2-14.2z"/></g><path class="st9" d="M117.7 159.2c31.3 3.3 69.5 12.3 62.1 34.4-7.1 21.4-64.6 6.2-76.2 1.8"/><circle cx="278.1" cy="203.7" r="6.5" style="fill:#94dae3;stroke:#000;stroke-width:3;stroke-linecap:round;stroke-linejoin:round;stroke-miterlimit:10"/><path class="st0" d="M172.2 193.4c-.1 13.1 6.1 26.4 16.9 33.6 8.1 5.4 18.4 7.2 28 5.7s18.6-6.1 26.1-12.4c6.3-5.3 11.5-11.7 17.9-16.9 6.4-5.1 14.4-9 22.6-7.8"/><path class="st1" d="m184.5 366.8.7-.7c1.2-1.2 3.1-1.2 4.2 0l9.9 9.9c1.2 1.2 1.2 3.1 0 4.2l-.7.7c-1.2 1.2-3.1 1.2-4.2 0l-9.9-9.9c-1.2-1.2-1.2-3.1 0-4.2z"/><path class="st0" d="M172.9 271.9c11.3-2 23-4 34.2-1.6s22.2 9.9 24.9 21.1c2 8-.5 16.5-3.7 24.1-8 18.7-20.9 35.2-37.1 47.4 3.8 3.9 7.6 7.7 11.4 11.6"/></svg>