<?xml version="1.0" encoding="utf-8"?>
<!-- Generator: Adobe Illustrator 26.2.1, SVG Export Plug-In . SVG Version: 6.00 Build 0)  -->
<svg version="1.1" id="Layer_2" xmlns="http://www.w3.org/2000/svg" xmlns:xlink="http://www.w3.org/1999/xlink" x="0px" y="0px"
	 viewBox="0 0 445.1 664.1" style="enable-background:new 0 0 445.1 664.1;" xml:space="preserve">
<style type="text/css">
	.st0{fill:none;stroke:#000000;stroke-width:10;stroke-linecap:round;stroke-linejoin:round;stroke-miterlimit:10;}
	.st1{fill:#2D82A1;stroke:#000000;stroke-width:3;stroke-miterlimit:10;}
	.st2{fill:#94DAE3;stroke:#000000;stroke-miterlimit:10;}
	.st3{fill:none;stroke:#7EBAC2;stroke-width:7;stroke-linecap:round;stroke-miterlimit:10;}
	.st4{fill:none;stroke:#000000;stroke-width:12;stroke-linecap:round;stroke-linejoin:round;stroke-miterlimit:10;}
	.st5{stroke:#000000;stroke-width:3;stroke-linecap:round;stroke-miterlimit:10;}
	.st6{fill:#2D82A1;}
	.st7{fill:#215F75;}
	.st8{fill:#3598BD;}
	.st9{fill:none;stroke:#000000;stroke-width:3;stroke-miterlimit:10;}
	.st10{fill:#FCFAF7;}
	.st11{fill:none;stroke:#E6E6E6;stroke-width:7;stroke-linecap:round;stroke-linejoin:round;stroke-miterlimit:10;}
	.st12{fill:none;stroke:#000000;stroke-width:3;stroke-linecap:round;stroke-linejoin:round;stroke-miterlimit:10;}
	.st13{fill:none;stroke:#000000;stroke-linecap:round;stroke-miterlimit:10;}
	.st14{fill:none;stroke:#000000;stroke-width:3;stroke-linecap:round;stroke-miterlimit:10;}
	.st15{fill:#FCFAF7;stroke:#000000;stroke-width:3;stroke-linecap:round;stroke-miterlimit:10;}
	.st16{fill:#FFE100;stroke:#000000;stroke-width:3;stroke-linecap:round;stroke-linejoin:round;stroke-miterlimit:10;}
	.st17{fill:#FFE100;stroke:#000000;stroke-linecap:round;stroke-linejoin:round;stroke-miterlimit:10;}
	.st18{fill:#FFEF73;}
	.st19{fill:#EBD300;}
	.st20{fill:none;stroke:#000000;stroke-linecap:round;stroke-linejoin:round;stroke-miterlimit:10;}
	.st21{fill:#94DAE3;stroke:#000000;stroke-width:3;stroke-linecap:round;stroke-linejoin:round;stroke-miterlimit:10;}
</style>
<g>
	<path class="st0" d="M183.8,264.7c10,10.2,15.1,24.2,19.1,38c7.7,26.7,12.1,54.4,13.1,82.2c4.6,0.1,9.2,0.2,13.8,0.3"/>
	<path class="st1" d="M213.4,391.5v-1c0-1.7,1.3-3,3-3h14c1.7,0,3,1.3,3,3v1c0,1.7-1.3,3-3,3h-14
		C214.7,394.5,213.4,393.1,213.4,391.5z"/>
	<path class="st2" d="M91.7,420.6c-40.4,0-73.3-32.9-73.3-73.3s32.9-73.3,73.3-73.3c40.4,0,73.3,32.9,73.3,73.3
		S132.2,420.6,91.7,420.6z M91.7,285.9c-33.8,0-61.3,27.5-61.3,61.3s27.5,61.3,61.3,61.3c33.8,0,61.3-27.5,61.3-61.3
		S125.6,285.9,91.7,285.9z"/>
	<path class="st3" d="M143.4,392.5c10.7-12.2,17.2-28,17.2-45.4c0-38.4-31.8-69.6-71-69.6"/>
	<circle class="st4" cx="91.7" cy="347.3" r="76.8"/>
	<circle cx="91.7" cy="347.3" r="14.5"/>
	<g>
		<path d="M91.9,364.3L91.9,364.3c0.6,0,1,0.5,1,1l-0.3,60.5c0,0.5-0.4,1-1,1l0,0c-0.6,0-1-0.5-1-1l0.3-60.4
			C90.9,364.7,91.4,364.3,91.9,364.3z"/>
		<path d="M81.9,361.1L81.9,361.1c0.4,0.3,0.5,1,0.2,1.4l-35.9,48.8c-0.3,0.4-0.9,0.5-1.3,0.2l0,0c-0.5-0.3-0.6-1-0.2-1.5l35.8-48.7
			C80.8,360.9,81.4,360.8,81.9,361.1z"/>
		<path d="M75.6,352.7L75.6,352.7c0.2,0.5-0.1,1.1-0.6,1.3l-57.7,18.4c-0.5,0.2-1-0.1-1.2-0.6l0,0c-0.2-0.5,0.1-1.1,0.7-1.3
			L74.4,352C74.9,351.9,75.4,352.2,75.6,352.7z"/>
		<path d="M75.5,342.2L75.5,342.2c-0.2,0.5-0.7,0.8-1.3,0.6l-57.5-19c-0.5-0.2-0.8-0.7-0.6-1.2l0,0c0.2-0.5,0.8-0.8,1.3-0.7l57.4,19
			C75.4,341.1,75.7,341.7,75.5,342.2z"/>
		<path d="M81.6,333.6L81.6,333.6c-0.4,0.3-1.1,0.2-1.4-0.2l-35.3-49.2c-0.3-0.4-0.2-1,0.2-1.3l0,0c0.5-0.3,1.1-0.2,1.5,0.2
			l35.3,49.1C82.1,332.7,82,333.3,81.6,333.6z"/>
		<path d="M91.6,330.3L91.6,330.3c-0.6,0-1-0.5-1-1l0.3-60.5c0-0.5,0.4-1,1-1h0c0.6,0,1,0.5,1,1l-0.3,60.4
			C92.6,329.8,92.1,330.3,91.6,330.3z"/>
		<path d="M101.6,333.4L101.6,333.4c-0.4-0.3-0.5-1-0.2-1.4l35.9-48.8c0.3-0.4,0.9-0.5,1.3-0.2v0c0.5,0.3,0.6,1,0.2,1.5L103,333.2
			C102.7,333.6,102,333.7,101.6,333.4z"/>
		<path d="M107.9,341.9L107.9,341.9c-0.2-0.5,0.1-1.1,0.6-1.3l57.7-18.4c0.5-0.2,1,0.1,1.2,0.6l0,0c0.2,0.5-0.1,1.1-0.7,1.3
			l-57.6,18.4C108.6,342.7,108,342.4,107.9,341.9z"/>
		<path d="M108,352.4L108,352.4c0.2-0.5,0.7-0.8,1.3-0.6l57.5,19c0.5,0.2,0.8,0.7,0.6,1.2l0,0c-0.2,0.5-0.8,0.8-1.3,0.7l-57.4-19
			C108.1,353.5,107.8,352.9,108,352.4z"/>
		<path d="M101.9,360.9L101.9,360.9c0.4-0.3,1.1-0.2,1.4,0.2l35.3,49.2c0.3,0.4,0.2,1-0.2,1.3l0,0c-0.5,0.3-1.1,0.2-1.5-0.2
			l-35.3-49.1C101.3,361.9,101.4,361.3,101.9,360.9z"/>
	</g>
	<path class="st2" d="M348.7,420.6c-40.4,0-73.3-32.9-73.3-73.3s32.9-73.3,73.3-73.3c40.4,0,73.3,32.9,73.3,73.3
		S389.2,420.6,348.7,420.6z M348.7,285.9c-33.8,0-61.3,27.5-61.3,61.3s27.5,61.3,61.3,61.3c33.8,0,61.3-27.5,61.3-61.3
		S382.6,285.9,348.7,285.9z"/>
	<path class="st3" d="M401.7,301.7c-10.4-12.5-25.1-21.3-42.2-24c-38-5.9-73.7,20.7-79.7,59.4"/>
	<circle class="st4" cx="348.7" cy="347.3" r="76.8"/>
	<circle cx="348.7" cy="347.3" r="14.5"/>
	<g>
		<path d="M348.9,364.3L348.9,364.3c0.6,0,1,0.5,1,1l-0.3,60.5c0,0.6-0.5,1-1,1l0,0c-0.6,0-1-0.5-1-1l0.3-60.5
			C347.9,364.7,348.4,364.3,348.9,364.3z"/>
		<path d="M338.9,361.1L338.9,361.1c0.4,0.3,0.5,1,0.2,1.4l-35.8,48.7c-0.3,0.4-1,0.5-1.4,0.2l0,0c-0.4-0.3-0.5-1-0.2-1.4l35.8-48.7
			C337.8,360.9,338.4,360.8,338.9,361.1z"/>
		<path d="M332.6,352.7L332.6,352.7c0.2,0.5-0.1,1.1-0.6,1.3l-57.6,18.4c-0.5,0.2-1.1-0.1-1.3-0.6l0,0c-0.2-0.5,0.1-1.1,0.6-1.3
			l57.6-18.4C331.9,351.9,332.4,352.2,332.6,352.7z"/>
		<path d="M332.5,342.2L332.5,342.2c-0.2,0.5-0.7,0.8-1.3,0.6l-57.4-19c-0.5-0.2-0.8-0.7-0.6-1.3l0,0c0.2-0.5,0.7-0.8,1.3-0.6
			l57.4,19C332.4,341.1,332.7,341.7,332.5,342.2z"/>
		<path d="M338.6,333.6L338.6,333.6c-0.4,0.3-1.1,0.2-1.4-0.2l-35.3-49.1c-0.3-0.4-0.2-1.1,0.2-1.4h0c0.4-0.3,1.1-0.2,1.4,0.2
			l35.3,49.1C339.1,332.7,339,333.3,338.6,333.6z"/>
		<path d="M348.6,330.3L348.6,330.3c-0.6,0-1-0.5-1-1l0.3-60.5c0-0.6,0.5-1,1-1l0,0c0.6,0,1,0.5,1,1l-0.3,60.5
			C349.6,329.8,349.1,330.3,348.6,330.3z"/>
		<path d="M358.6,333.4L358.6,333.4c-0.4-0.3-0.5-1-0.2-1.4l35.8-48.7c0.3-0.4,1-0.5,1.4-0.2l0,0c0.4,0.3,0.5,1,0.2,1.4L360,333.2
			C359.7,333.6,359,333.7,358.6,333.4z"/>
		<path d="M364.9,341.9L364.9,341.9c-0.2-0.5,0.1-1.1,0.6-1.3l57.6-18.4c0.5-0.2,1.1,0.1,1.3,0.6l0,0c0.2,0.5-0.1,1.1-0.6,1.3
			l-57.6,18.4C365.6,342.7,365,342.4,364.9,341.9z"/>
		<path d="M365,352.4L365,352.4c0.2-0.5,0.7-0.8,1.3-0.6l57.4,19c0.5,0.2,0.8,0.7,0.6,1.3l0,0c-0.2,0.5-0.7,0.8-1.3,0.6l-57.4-19
			C365.1,353.5,364.8,352.9,365,352.4z"/>
		<path d="M358.9,360.9L358.9,360.9c0.4-0.3,1.1-0.2,1.4,0.2l35.3,49.1c0.3,0.4,0.2,1.1-0.2,1.4l0,0c-0.4,0.3-1.1,0.2-1.4-0.2
			l-35.3-49.1C358.3,361.9,358.4,361.3,358.9,360.9z"/>
	</g>
	<line class="st5" x1="207.8" y1="351" x2="91.7" y2="334.5"/>
	<line class="st5" x1="204.8" y1="386" x2="89.2" y2="360"/>
	<ellipse cx="205.9" cy="368.3" rx="19.2" ry="19.5"/>
	<ellipse cx="205.9" cy="368.3" rx="19.2" ry="19.5"/>
	<g>
		<path class="st6" d="M354.6,340.1l-70.2-139c-1.7-3.3-5.7-4.5-8.9-2.8c-3.1,1.7-4.2,5.7-2.6,8.9l8.8,17.4c0.8,1.5,0.3,3.4-1,4.4
			l-91.8,68.6c-1.7,1.3-4.2,0.7-5.2-1.3l-15.4-33.9c-1.5-3.2-5.3-4.9-8.5-3.6c-3.4,1.4-4.9,5.4-3.4,8.7l6.8,15
			c0.9,2,0.3,4.4-1.5,5.7l-73.2,54.6c-2.9,2.1-3.5,6.2-1.3,9.1c1.3,1.7,3.1,2.4,5.2,2.6c0.4,0,2.8,0.7,3.2,0.6
			c0.3,0.1,3,0.5,3.3,0.6l105,20.2c4.4,0.8,8.9-0.8,11.6-4.4c15.4-19.8,66.5-85.4,83.1-106.8c0.9-1.2,2.8-1,3.5,0.3L343,346
			c1.1,2.3,3.4,3.6,5.8,3.6c1,0,2-0.2,2.9-0.7C355,347.2,356.2,343.3,354.6,340.1z M196.5,360.8l-84.6-16c-1.3-0.2-1.7-1.9-0.6-2.7
			l56.4-42c1.3-1,3.2-0.5,3.9,1l26.4,58C198.4,359.9,197.5,361,196.5,360.8z M192.7,311.1l94.4-70.5c1-0.8,2.5-0.4,3,0.7l2.4,4.8
			c1,2,0.8,4.5-0.6,6.3l-79.9,102.9c-0.4,0.6-1.3,0.5-1.6-0.2l-18.5-40.7C191.4,313.1,191.7,311.8,192.7,311.1z"/>
	</g>
	<g>
		<path class="st7" d="M339.4,323.1c-3.6-6.6-7.2-13.3-10.8-19.9c-7.3-13.6-14.7-27.2-22-40.8c-1.3-2.5-3.2-2.4-4.4,0.1
			c-0.3,0.5-0.5,1.2-0.6,1.9c0.3,0.2,0.5,0.4,0.7,0.8L343,346c1.1,2.3,3.4,3.6,5.8,3.6c0.3,0,0.7,0,1-0.1c0.3-2.2,0.3-4.7,0-5.5
			C347.5,336.6,343,329.9,339.4,323.1z"/>
		<path class="st7" d="M299,246.3c-0.6-1.9-2.4-5-4.3-2.4c-0.7,0.9-1.3,1.7-2,2.6c0.8,1.9,0.5,4.2-0.8,5.8l-79.9,102.9
			c-0.1,0.1-0.2,0.2-0.2,0.2c0,1.3,0.2,2.7,0.6,3.8c0.6,1.9,2.4,5,4.3,2.4c27.1-35.2,54.2-70.5,81.4-105.7
			C300,253.4,299.9,249.1,299,246.3z"/>
		<path class="st7" d="M169,264c-3.1,0.3-6.1,1.2-9,2.1c-1.4,0.4-2.2,1.9-2.7,3.7l5.8,12.7c0.4,1,0.5,2,0.3,3
			c4.3-1.7,8.7-3.5,12.5-6.1L169,264z"/>
		<path class="st7" d="M193.1,304.4c30-21.6,59.7-43.7,89.3-65.7c0.5,0.1,1.1-0.2,1.7-0.8c1.7-1.8,1.8-6.2,1.2-8.8
			c-0.3-1.8-0.8-3.4-1.5-4.3c-1.2-3.2-2.3-6.4-3.5-9.6c-1.4-3.9-2.4-8.3-4.9-11.7c-1.5-2.2-2.6-0.5-3.3,1.8c0.1,0.7,0.3,1.4,0.7,2.1
			l8.8,17.4c0.8,1.5,0.3,3.4-1,4.4L190,296.8C189.7,300.8,191,305.9,193.1,304.4z"/>
		<path class="st7" d="M196,350.6c-0.7-0.1-1.4-0.2-2-0.4l4,8.7c0.4,1-0.4,2-1.4,1.8l-84.6-16c-1.3-0.2-1.7-1.9-0.6-2.7l56.4-42
			c0,0,0.1-0.1,0.1-0.1c-0.1-3.7-1.4-7.5-3.2-6.1c-18.4,13.9-35.9,29.4-55,42.5c-2.5,1.7-3.2,10.8,0.2,12c6.5,2.3,13.5,3.1,20.2,4.4
			c7.5,1.4,14.9,2.7,22.4,4.1c14.6,2.6,29.2,5.3,43.8,7.9C200,365.3,200.7,351.5,196,350.6z"/>
	</g>
	<g>
		<path class="st8" d="M354.6,340.1l-69.2-137c-0.1,0.2-0.2,0.3-0.4,0.5c-1.1,2-0.9,5.7,0.1,7.7c22.4,44.4,45.1,88.7,67.9,133
			c0.5,0.9,1,1.4,1.6,1.6C355.5,344.1,355.6,342,354.6,340.1z"/>
	</g>
	<g>
		<path class="st9" d="M354.6,340.1l-70.2-139c-1.7-3.3-5.7-4.5-8.9-2.8c-3.1,1.7-4.2,5.7-2.6,8.9l8.8,17.4c0.8,1.5,0.3,3.4-1,4.4
			l-91.8,68.6c-1.7,1.3-4.2,0.7-5.2-1.3l-15.4-33.9c-1.5-3.2-5.3-4.9-8.5-3.6c-3.4,1.4-4.9,5.4-3.4,8.7l6.8,15
			c0.9,2,0.3,4.4-1.5,5.7l-73.2,54.6c-2.9,2.1-3.5,6.2-1.3,9.1c1.3,1.7,3.1,2.4,5.2,2.6c0.4,0,2.8,0.7,3.2,0.6
			c0.3,0.1,3,0.5,3.3,0.6l105,20.2c4.4,0.8,8.9-0.8,11.6-4.4c15.4-19.8,66.5-85.4,83.1-106.8c0.9-1.2,2.8-1,3.5,0.3L343,346
			c1.1,2.3,3.4,3.6,5.8,3.6c1,0,2-0.2,2.9-0.7C355,347.2,356.2,343.3,354.6,340.1z M196.5,360.8l-84.6-16c-1.3-0.2-1.7-1.9-0.6-2.7
			l56.4-42c1.3-1,3.2-0.5,3.9,1l26.4,58C198.4,359.9,197.5,361,196.5,360.8z M192.7,311.1l94.4-70.5c1-0.8,2.5-0.4,3,0.7l2.4,4.8
			c1,2,0.8,4.5-0.6,6.3l-79.9,102.9c-0.4,0.6-1.3,0.5-1.6-0.2l-18.5-40.7C191.4,313.1,191.7,311.8,192.7,311.1z"/>
	</g>
	<g>
		<g>
			<path class="st10" d="M250.5,196.3c4.4,1.7,4.2,1.4,5.5,1.6c1.2,0.2,2.1,0,3.2,0c0.2-0.2,0.3-0.3,0.3-0.3s17.9-46.5,20.4-95.6
				c-1-1.3-2.1-2.5-3.4-3.5c-0.6-0.5-1.2-0.9-1.8-1.4c-11.4-3.1-30.3-6.3-43.1,34C218.5,172.1,236,191,250.5,196.3z"/>
			<path class="st11" d="M260.4,196.8c-4,0.7-8.2-0.6-11.6-2.8c-6.9-4.4-20.1-17.5-19.3-38.1c0.3-8.4,2.5-16.7,5-24.7
				c10.5-33.9,26-33.2,33.1-33.7c4.2-0.3,8.8-0.5,12.3,2"/>
			<path class="st12" d="M250.5,196.3c4.4,1.7,4.2,1.4,5.5,1.6c1.2,0.2,2.1,0,3.2,0c0.2-0.2,0.3-0.3,0.3-0.3s17.9-46.5,20.4-95.6
				c-1-1.3-2.1-2.5-3.4-3.5c-0.6-0.5-1.2-0.9-1.8-1.4c-11.4-3.1-30.3-6.3-43.1,34C218.5,172.1,236,191,250.5,196.3z"/>
		</g>
		<path class="st13" d="M242.7,171.7c-0.9,1.1-1.7,2.4-2.4,3.7"/>
		<path class="st13" d="M233.9,178.5c-1.2,1.3-2.3,2.8-3.3,4.2"/>
		<path class="st13" d="M237.3,184.2c-1.2,1.4-2.4,2.8-3.4,4.4"/>
		<path class="st13" d="M242.1,188.9c-1.1,1.9-2.1,3.9-3,5.9"/>
		<path class="st13" d="M249.4,193.6c-0.6,1.9-1.2,3.7-1.8,5.6"/>
		<path class="st13" d="M256.4,195.7c-0.3,1.7-0.5,3.3-0.8,5"/>
		<path class="st13" d="M247.5,179.1c-0.8,1.4-1.6,2.7-2.4,4.1"/>
		<path class="st13" d="M250.3,183.9c-0.8,1.3-1.6,2.7-2.3,4"/>
		<path class="st13" d="M254.9,186.5c-0.4,1.5-0.7,3-0.9,4.5"/>
		<path class="st13" d="M260.2,184.2c0,1.2,0.1,2.4,0.1,3.6"/>
		<path class="st13" d="M251.8,172c-0.6,0.6-1.2,1.1-1.8,1.7"/>
		<path class="st13" d="M258.6,176.3c-0.5,1.2-1.1,2.3-1.6,3.5"/>
		<path class="st13" d="M263.5,180.9c1.2,1.5,2.3,3.2,3.2,4.9"/>
		<path class="st13" d="M260.8,191.1c1.1,1.2,2.2,2.5,3.2,3.8"/>
		<path class="st13" d="M239.4,164.7c-0.8,1-1.7,2-2.5,2.9"/>
		<path class="st13" d="M250.7,166c-0.3,0.5,0.1-0.3-0.2,0.2"/>
		<path class="st13" d="M238.3,158.3C238.1,158.8,238.6,157.9,238.3,158.3"/>
		<path class="st13" d="M273.4,100.8c15.3-3.2,31.2-3.7,46.8-1.5"/>
		<path class="st13" d="M275.4,102.3c14.2-1.5,28.6-0.6,42.5,2.6"/>
		<path class="st13" d="M278.5,102.1c12.2,2.3,25.1,2.1,36.4,7.2"/>
		<path class="st13" d="M278.2,103.6c7.8,1.9,15.4,4.2,22.9,7"/>
		<path class="st14" d="M265.5,122.4c-1.3,5.6-2.6,11.3-3.8,16.9"/>
		<path class="st15" d="M266.9,142.4l1.4-6.1c0.9-3.7,4.6-6,8.3-5.1h0c3.7,0.9,6,4.6,5.1,8.3l-1.4,6.1c-0.9,3.7-4.6,6-8.3,5.1l0,0
			C268.3,149.8,266,146.1,266.9,142.4z"/>
		<path class="st14" d="M262.4,155.2c-1.2,3.1-1.6,6.1-1.8,9.1c-0.3,5.9,2.3,9.3,5.7,9.8"/>
		<path class="st13" d="M260.9,116.2c0.5,0.9,1,1.7,1.5,2.6"/>
		<path class="st13" d="M273,117.7c-0.9,0.9-1.9,1.7-2.8,2.6"/>
		<path class="st13" d="M265,115c0.1,1.2,0.2,2.5,0.2,3.8"/>
		<path class="st13" d="M269.2,115.4c-0.8,1-1.3,2.3-1.5,3.6"/>
	</g>
	<path class="st16" d="M96,256.2l141.8,29c3.5,0.7,7-1.6,7.7-5.1l16.6-79.1c0.3-1.4-0.8-2.7-2.2-2.7c-14.1,0.4-43.7-16.6-27.8-66.8
		c15.5-48.8,40-33.8,49.2-32.4c10.1,1.5,3.9-64.6-61.4-77c-61.6-11.7-84.8,25.9-90.5,51.6c-5.1,22.7-31.8,146.6-38,175.3
		C90.6,252.3,92.7,255.6,96,256.2z"/>
	<line class="st17" x1="173.7" y1="241.1" x2="201.7" y2="233.8"/>
	<path class="st16" d="M96,256.2l141.8,29c3.5,0.7,7-1.6,7.7-5.1l16.6-79.1c0.3-1.4-0.8-2.7-2.2-2.7c-14.1,0.4-43.7-16.6-27.8-66.8
		c15.5-48.8,40-33.8,49.2-32.4c10.1,1.5,3.9-64.6-61.4-77c-61.6-11.7-84.8,25.9-90.5,51.6c-5.1,22.7-31.8,146.6-38,175.3
		C90.6,252.3,92.7,255.6,96,256.2z"/>
	<g>
		<path class="st18" d="M219.9,22.1c-61.6-11.7-84.8,25.9-90.5,51.6c-5.1,22.7-31.8,146.6-38,175.3c-0.7,3.3,1.4,6.5,4.7,7.2
			l5.5,1.1c6.1-27.4,12.1-54.8,18.2-82.2c3.2-14.3,6.3-28.6,9.5-42.8c1.6-7.1,3.2-14.3,4.7-21.4c0.7-3.2,1.4-6.5,2.1-9.7
			c0.3-1.4,0.7-2.7,1-4.1c0.1-0.3,0.1-0.5,0.2-0.7c0.1-0.2,0.2-0.6,0.4-1.1c0.9-2.4,1.9-4.8,3-7.1c0.5-1.1,1-2.1,1.6-3.1
			c0.1-0.1,0.1-0.3,0.2-0.4c0.1-0.2,0.2-0.4,0.4-0.6c3.1-4.8,6.3-9.3,10.2-13.5c6.2-6.8,14.7-13,23.5-17.5
			c18.4-9.4,40.6-11,60.1-3.9c10.5,3.8,21.3,10,29,17.2c4.4,4.1,8.4,8.7,11.8,13.7c0,0,1.5,2.3,1.6,2.4c0.6,1,1.1,2,1.7,3
			c1.4,2.7,2.7,5.3,4.4,7.8C286.8,76.8,272.5,32.1,219.9,22.1z"/>
	</g>
	<path class="st19" d="M256.1,209.7c-7.7,17.5-26.7,29-45.9,27.6c-1-0.1-2-0.2-3-0.4c0.3-2.1-0.2-4.8-1.7-4.8c-3,0-6.2,0.8-9.2,1.6
		c-13.4-5.8-24.2-18.1-27.1-32.5c-0.8-4-3.1-1.1-2.6,1.6c2.7,13.5,10.9,25.5,22.2,32.9c-4.1,1-8.1,2-12.2,3
		c-2.8,0.7-2.1,8.9,0.1,8.4l15.4-3.9c2.7-0.7,5.7-1.2,8.5-2c2.2,0.7,4.5,1.2,6.9,1.6c21.1,3,42.1-9.9,50.6-29.1
		C258.8,212.4,257.4,206.8,256.1,209.7z"/>
	<path class="st12" d="M96,256.2l141.8,29c3.5,0.7,7-1.6,7.7-5.1l16.6-79.1c0.3-1.4-0.8-2.7-2.2-2.7c-14.1,0.4-43.7-16.6-27.8-66.8
		c15.5-48.8,40-33.8,49.2-32.4c10.1,1.5,3.9-64.6-61.4-77c-61.6-11.7-84.8,25.9-90.5,51.6c-5.1,22.7-31.8,146.6-38,175.3
		C90.6,252.3,92.7,255.6,96,256.2z"/>
	<line class="st20" x1="173.7" y1="241.1" x2="201.7" y2="233.8"/>
	<g>
		<path d="M113.7,134.5l-25.5-5.4c-6.4-1.4-12.7,2.8-14.1,9.2l-6,28.6c-1.6,0-3.1,1.4-3.5,3.3c-0.4,1.9,0.4,3.7,1.9,4.4l-4.4,20.7
			c-1.4,6.4,2.8,12.7,9.2,14.1l25.5,5.4c6.4,1.4,12.7-2.8,14.1-9.2l12-56.9C124.3,142.2,120.1,135.9,113.7,134.5z"/>
	</g>
	<path class="st9" d="M117.7,159.2c31.3,3.3,69.5,12.3,62.1,34.4c-7.1,21.4-64.6,6.2-76.2,1.8"/>
	<circle class="st21" cx="278.1" cy="203.7" r="6.5"/>
	<path class="st0" d="M172.2,193.4c-0.1,13.1,6.1,26.4,16.9,33.6c8.1,5.4,18.4,7.2,28,5.7s18.6-6.1,26.1-12.4
		c6.3-5.3,11.5-11.7,17.9-16.9c6.4-5.1,14.4-9,22.6-7.8"/>
	<path class="st1" d="M184.5,366.8l0.7-0.7c1.2-1.2,3.1-1.2,4.2,0l9.9,9.9c1.2,1.2,1.2,3.1,0,4.2l-0.7,0.7c-1.2,1.2-3.1,1.2-4.2,0
		l-9.9-9.9C183.3,369.8,183.3,367.9,184.5,366.8z"/>
	<path class="st0" d="M172.9,271.9c11.3-2,23-4,34.2-1.6s22.2,9.9,24.9,21.1c2,8-0.5,16.5-3.7,24.1c-8,18.7-20.9,35.2-37.1,47.4
		c3.8,3.9,7.6,7.7,11.4,11.6"/>
</g>
<g>
</g>
<g>
</g>
<g>
</g>
<g>
</g>
<g>
</g>
<g>
</g>
<g>
</g>
<g>
</g>
<g>
</g>
<g>
</g>
<g>
</g>
<g>
</g>
<g>
</g>
<g>
</g>
<g>
</g>
</svg>
