<svg version="1.1" id="Layer_2" xmlns="http://www.w3.org/2000/svg" x="0" y="0" viewBox="0 0 5476 2249.7" style="enable-background:new 0 0 5476 2249.7" xml:space="preserve"><style>.st1{fill:#f0eced}</style><circle cx="2714.8" cy="215.3" r="156.5" style="fill:#fce7ca"/><path class="st1" d="M3089.7 855.1c-6.1-17.3-12.3-43.5.4-62.1 21.4-31.2 82.7-21.7 85.3-38.6 1.3-8.4-13.7-11.5-26.4-28.4-19.5-26.1-23.5-71.9-4.1-97.5 23.6-30.9 75-23.5 77.2-42.6 1-9.2-10.7-11.7-14.2-28.4-3.4-16.4 2.8-38.3 16.2-44.7 17.5-8.2 39.6 13.4 46.7 6.1 4.4-4.6-3.8-13.4-4.1-30.5-.1-3.2-.1-32.6 20.3-44.7 18.7-11 47.1-3.1 52.8 10.2 3.5 8.2-3.1 15.1 2 22.3 3.3 4.6 8.2 5 24.4 8.1 20.9 4.1 31.5 6.2 34.5 10.2 8.1 10.5-3.2 26.2 4.1 32.5 5.5 4.8 16.2-.8 26.4-4.1 27.3-8.7 58.4-2.6 77.2 8.1 26.4 15.1 41.9 47.5 42.6 75.1.8 29.2-15 49-6.1 56.9 6.3 5.6 16.6-2.3 32.5-4.1 45.3-5.1 84.6 44.6 89.4 50.8 4.3 5.6 39.7 51.5 28.2 90.9-1.7 5.7-5.6 15.6-1.8 18.8 4.4 3.7 14.9-5.3 30.5-12.2 6.6-2.9 44.6-19.9 67-6.1 18.5 11.4 15.4 36.9 28.4 38.6 8.4 1.1 11.9-9.4 26.4-18.3 16.1-9.9 38-13.1 54.8-8.1 30.8 9 45.6 45 48.7 69 6.1 46.1-26.1 79-30.5 83.3H3096l-6.3-110.5zM2507.4 993.7c20.5-39.8 8.6-140.4-46.1-168-32.9-16.6-73.9-3.2-75.6-2.6-25.6 8.7-37.9 25.2-44.3 20.9-10.6-7.2 25.5-49.7 13-91.2-10.7-35.7-55.3-63.8-91.2-59.9-30.1 3.2-52.4 28.7-57.3 23.5-2.9-3.1 4.7-12.2 9.3-24.6 10.2-27.8.8-62.3-14.5-82.3-28.1-36.7-85.6-36.8-122.5-23.5-54.4 19.7-90.5 78.3-83.4 122.5 4.3 26.3 22.5 39 15.6 49.5-12.4 19.1-76-18.9-112.1 10.4-17 13.8-17.7 34.1-28.7 33.9-14.5-.3-13.6-35.9-36.5-49.5-27.9-16.6-79.3 6.4-106.9 39.1-30.2 35.8-39.2 92-18.2 125.1 9.7 15.4 22.4 20.2 20.9 31.3-2.8 20.6-49.2 18.4-62.6 44.3-7.1 13.7-5.8 36.7 23.5 78.2h815.8l1.8-77.1z"/><path d="M3969.1 1537.9c-79.2-28.6-176.5-66.2-289.5-154.5-258.2-201.6-604-892.2-964.8-892.2-368.6 0-691.2 695.9-951.7 905.4-95.4 76.7-181.8 114.7-256.2 141.3h2462.2z" style="fill:#ac9dd1"/><path d="m2706.1 847.5 72.3-49.6c12.3-8.5 28.6-8.5 41-.2l71.1 47.7c13.5 9.1 31.4 8.1 43.9-2.4l68.6-57.6c9.3-7.8 21.8-10.5 33.5-7.2l48.7 13.8c35.7 10.1 62.1-33.3 36.6-60.2C2991.2 593.9 2854.1 491 2714.9 491c-144.5 0-282 107-411.4 249.7-25.7 28.3 4 72 39.8 58.8l8.7-3.2c12.1-4.5 25.6-2.3 35.7 5.8l49.8 40.3c13.2 10.7 32.1 10.8 45.5.4l55.6-43.5c11.9-9.3 28.3-10.3 41.3-2.6l86.9 52c12.1 7.4 27.5 6.9 39.3-1.2z" style="fill:#d0c8e8"/><path d="M2714.8 491.2c360.8 0 706.7 690.7 964.8 892.2 113 88.2 210.3 125.9 289.5 154.5H1506.9c74.4-26.6 160.8-64.6 256.2-141.3 260.5-209.5 583-905.4 951.7-905.4m0-2c-29.4 0-59.6 4.5-89.9 13.3-28.6 8.4-58.2 21-87.8 37.4-54.3 30.1-109.7 73-169.4 131.1-110 107.2-213.3 245.7-313.1 379.6-104.2 139.8-202.6 271.8-292.9 344.4-43.7 35.1-88.1 64.3-135.7 89.2-36.4 19-74.5 35.5-119.9 51.8l-10.8 3.9h2485.1l-10.8-3.9c-38.2-13.8-83.1-30.5-131.9-54.8-55.1-27.4-106.5-59.9-157.1-99.4-89.2-69.7-189.9-199.1-296.5-336.2-202.6-260.8-432.5-556.4-669.3-556.4z" style="fill:#6e6780"/></svg>