<?xml version="1.0" encoding="utf-8"?>
<!-- Generator: Adobe Illustrator 26.2.1, SVG Export Plug-In . SVG Version: 6.00 Build 0)  -->
<svg version="1.1" id="Layer_2" xmlns="http://www.w3.org/2000/svg" xmlns:xlink="http://www.w3.org/1999/xlink" x="0px" y="0px"
	 viewBox="0 0 5476 2249.7" style="enable-background:new 0 0 5476 2249.7;" xml:space="preserve">
<style type="text/css">
	.st0{fill:#FCE7CA;}
	.st1{fill:#F0ECED;}
	.st2{fill:#AC9DD1;}
	.st3{fill:#D0C8E8;}
	.st4{fill:#6E6780;}
</style>
<g>
	<circle class="st0" cx="2714.8" cy="215.3" r="156.5"/>
	<path class="st1" d="M3089.7,855.1c-6.1-17.3-12.3-43.5,0.4-62.1c21.4-31.2,82.7-21.7,85.3-38.6c1.3-8.4-13.7-11.5-26.4-28.4
		c-19.5-26.1-23.5-71.9-4.1-97.5c23.6-30.9,75-23.5,77.2-42.6c1-9.2-10.7-11.7-14.2-28.4c-3.4-16.4,2.8-38.3,16.2-44.7
		c17.5-8.2,39.6,13.4,46.7,6.1c4.4-4.6-3.8-13.4-4.1-30.5c-0.1-3.2-0.1-32.6,20.3-44.7c18.7-11,47.1-3.1,52.8,10.2
		c3.5,8.2-3.1,15.1,2,22.3c3.3,4.6,8.2,5,24.4,8.1c20.9,4.1,31.5,6.2,34.5,10.2c8.1,10.5-3.2,26.2,4.1,32.5
		c5.5,4.8,16.2-0.8,26.4-4.1c27.3-8.7,58.4-2.6,77.2,8.1c26.4,15.1,41.9,47.5,42.6,75.1c0.8,29.2-15,49-6.1,56.9
		c6.3,5.6,16.6-2.3,32.5-4.1c45.3-5.1,84.6,44.6,89.4,50.8c4.3,5.6,39.7,51.5,28.2,90.9c-1.7,5.7-5.6,15.6-1.8,18.8
		c4.4,3.7,14.9-5.3,30.5-12.2c6.6-2.9,44.6-19.9,67-6.1c18.5,11.4,15.4,36.9,28.4,38.6c8.4,1.1,11.9-9.4,26.4-18.3
		c16.1-9.9,38-13.1,54.8-8.1c30.8,9,45.6,45,48.7,69c6.1,46.1-26.1,79-30.5,83.3h-822.5L3089.7,855.1z"/>
	<path class="st1" d="M2507.4,993.7c20.5-39.8,8.6-140.4-46.1-168c-32.9-16.6-73.9-3.2-75.6-2.6c-25.6,8.7-37.9,25.2-44.3,20.9
		c-10.6-7.2,25.5-49.7,13-91.2c-10.7-35.7-55.3-63.8-91.2-59.9c-30.1,3.2-52.4,28.7-57.3,23.5c-2.9-3.1,4.7-12.2,9.3-24.6
		c10.2-27.8,0.8-62.3-14.5-82.3c-28.1-36.7-85.6-36.8-122.5-23.5c-54.4,19.7-90.5,78.3-83.4,122.5c4.3,26.3,22.5,39,15.6,49.5
		c-12.4,19.1-76-18.9-112.1,10.4c-17,13.8-17.7,34.1-28.7,33.9c-14.5-0.3-13.6-35.9-36.5-49.5c-27.9-16.6-79.3,6.4-106.9,39.1
		c-30.2,35.8-39.2,92-18.2,125.1c9.7,15.4,22.4,20.2,20.9,31.3c-2.8,20.6-49.2,18.4-62.6,44.3c-7.1,13.7-5.8,36.7,23.5,78.2h815.8
		L2507.4,993.7z"/>
	<g>
		<g>
			<path class="st2" d="M3969.1,1537.9c-79.2-28.6-176.5-66.2-289.5-154.5c-258.2-201.6-604-892.2-964.8-892.2
				c-368.6,0-691.2,695.9-951.7,905.4c-95.4,76.7-181.8,114.7-256.2,141.3H3969.1z"/>
		</g>
		<path class="st3" d="M2706.1,847.5l72.3-49.6c12.3-8.5,28.6-8.5,41-0.2l71.1,47.7c13.5,9.1,31.4,8.1,43.9-2.4l68.6-57.6
			c9.3-7.8,21.8-10.5,33.5-7.2l48.7,13.8c35.7,10.1,62.1-33.3,36.6-60.2c-130.6-137.9-267.7-240.8-406.9-240.8
			c-144.5,0-282,107-411.4,249.7c-25.7,28.3,4,72,39.8,58.8l8.7-3.2c12.1-4.5,25.6-2.3,35.7,5.8l49.8,40.3
			c13.2,10.7,32.1,10.8,45.5,0.4l55.6-43.5c11.9-9.3,28.3-10.3,41.3-2.6l86.9,52C2678.9,856.1,2694.3,855.6,2706.1,847.5z"/>
		<g>
			<path class="st4" d="M2714.8,491.2c360.8,0,706.7,690.7,964.8,892.2c113,88.2,210.3,125.9,289.5,154.5H1506.9
				c74.4-26.6,160.8-64.6,256.2-141.3C2023.6,1187.1,2346.1,491.2,2714.8,491.2 M2714.8,489.2c-29.4,0-59.6,4.5-89.9,13.3
				c-28.6,8.4-58.2,21-87.8,37.4c-54.3,30.1-109.7,73-169.4,131.1c-110,107.2-213.3,245.7-313.1,379.6
				c-104.2,139.8-202.6,271.8-292.9,344.4c-43.7,35.1-88.1,64.3-135.7,89.2c-36.4,19-74.5,35.5-119.9,51.8l-10.8,3.9h11.5h2462.2
				h11.4l-10.8-3.9c-38.2-13.8-83.1-30.5-131.9-54.8c-55.1-27.4-106.5-59.9-157.1-99.4c-89.2-69.7-189.9-199.1-296.5-336.2
				C3181.5,784.8,2951.6,489.2,2714.8,489.2L2714.8,489.2z"/>
		</g>
	</g>
</g>
<g>
</g>
<g>
</g>
<g>
</g>
<g>
</g>
<g>
</g>
<g>
</g>
<g>
</g>
<g>
</g>
<g>
</g>
<g>
</g>
<g>
</g>
<g>
</g>
<g>
</g>
<g>
</g>
<g>
</g>
</svg>
