<?xml version="1.0" encoding="utf-8"?>
<!-- Generator: Adobe Illustrator 26.2.1, SVG Export Plug-In . SVG Version: 6.00 Build 0)  -->
<svg version="1.1" id="Layer_2_00000024710647322581625730000015237847114803384196_"
	 xmlns="http://www.w3.org/2000/svg" xmlns:xlink="http://www.w3.org/1999/xlink" x="0px" y="0px" viewBox="0 0 5476 2249.7"
	 style="enable-background:new 0 0 5476 2249.7;" xml:space="preserve">
<style type="text/css">
	.st0{fill:#CC6981;stroke:#592E38;stroke-width:2;stroke-miterlimit:10;}
	.st1{fill:none;stroke:#A35467;stroke-width:3;stroke-linecap:round;stroke-miterlimit:10;}
	.st2{fill:#E56C89;}
	.st3{fill:none;stroke:#662F3A;stroke-width:2;stroke-miterlimit:10;}
	.st4{fill:#BC5870;}
	.st5{fill:#D8647A;stroke:#BC5870;stroke-width:2;stroke-miterlimit:10;}
	.st6{fill:none;stroke:#BC5870;stroke-width:2;stroke-miterlimit:10;}
</style>
<g>
	<path class="st0" d="M650.4,1077.8c-0.6-5.1-5.3-8.7-10.4-8.1c-5.1,0.6-8.7,5.3-8.1,10.4c5.7,46.1-3.6,80.9-27.8,103.4
		c-41,38.1-114.3,32.3-139.4,28.9v-21.6c7.6,1.9,17,3.5,26.9,3.5c12.8,0,26.6-2.6,39.3-10.4c15.3-9.4,26.5-24.8,33.3-46
		c5.7-0.9,14-2.8,22.4-7.1c13.8-7.1,30.2-21.9,29.7-52c-0.1-5.1-4.3-9.2-9.5-9.1c-5.1,0.1-9.2,4.3-9.1,9.5
		c0.3,16.5-5.9,27.9-19.1,34.9c-3.2,1.7-6.5,2.9-9.5,3.8c1.8-10.4,2.9-21.8,3.2-34.2c0.1-5.1-4-9.4-9.1-9.5s-9.4,4-9.5,9.1
		c-0.4,16.5-2.2,30.9-5.4,43.1c-0.2,0.4-0.3,0.9-0.4,1.3c-5.3,19.2-14.3,32.8-26.7,40.5c-18.9,11.7-42.6,7.6-56.5,3.5v-12.1
		c2.1,0.2,4.2,0.3,6.2,0.3c11.6,0,21.6-3.2,29.1-9.4c15-12.4,19.7-35.4,14-68.5c-0.9-5.1-5.7-8.4-10.8-7.6
		c-5.1,0.9-8.5,5.7-7.6,10.8c4.5,25.6,1.9,43.2-7.4,50.9c-6.3,5.2-15.7,5.8-23.5,4.8v-23.2c0-3.3,1.8-46.7-1.3-46.7
		c-6.5,0-20.8-4.4-64.1-4.4c-3.6,0-1.4,40.8-1.9,42.7c-6.4,0.7-15,0.5-20-3.7c-4.4-3.7-6-10.8-4.9-21.1c0.6-5.1-3.1-9.7-8.2-10.3
		c-5.1-0.6-9.7,3.1-10.3,8.2c-1.9,16.9,1.9,29.5,11.4,37.5c6.5,5.5,15.6,8.4,26.4,8.4c0.8,0,1.7,0,2.5-0.1c0.7,0,1.4-0.1,2-0.1v14.9
		c-4.9,0.7-11.4,1.4-18.7,1.5c-12.8,0.1-30.4-2.1-41.5-12.5c-10.9-10.2-14.4-27.5-10.2-51.3c0.9-5.1-2.5-9.9-7.6-10.8
		s-9.9,2.5-10.8,7.6c-5.3,30.4,0,53.4,15.9,68.2c14.9,13.9,36.2,17.4,53.9,17.4c7.2,0,13.7-0.6,19-1.3v51c-27,3.4-97.1,7.8-137-29.2
		c-9.5-8.9-16.7-19.6-21.6-32.3c19.4-4.8,33.2-14,41.1-27.3c13.2-22.2,4.5-47.1,4.1-48.1c-1.7-4.8-7.1-7.3-11.9-5.6
		c-4.8,1.7-7.3,7.1-5.6,11.9c0.1,0.2,6,17.8-2.6,32.3c-5.4,9.1-15.6,15.4-30.3,19c-3.1-15.6-3.5-33.4-1-53.3c0.6-5.1-3-9.7-8.1-10.4
		c-5.1-0.6-9.7,3-10.4,8.1c-3,24.6-2.2,46.4,2.6,65.5c-0.1,0.8-0.1,1.6,0,2.4c0.2,1.6,0.9,3.1,1.8,4.3c5.7,18.7,15.5,34.4,29.2,47.1
		c32.1,29.8,79,36.5,114.5,36.5c14,0,26.3-1,35.1-2.1v610.7c0,18.9,15.3,34.2,34.2,34.2l0,0c18.9,0,34.2-15.3,34.2-34.2v-610.9
		c9,1.2,22.2,2.4,37.5,2.4c35.5,0,82.5-6.7,114.5-36.5C645.6,1170.4,656.9,1130.3,650.4,1077.8z"/>
	<line class="st1" x1="417.8" y1="1101.6" x2="417.8" y2="1288.7"/>
	<line class="st1" x1="434.6" y1="1194.6" x2="434.6" y2="1437.6"/>
	<line class="st1" x1="422.5" y1="1352.8" x2="422.5" y2="1595.8"/>
	<line class="st1" x1="441.1" y1="1464.5" x2="441.1" y2="1595.8"/>
	<line class="st1" x1="441.1" y1="1622.7" x2="441.1" y2="1660.9"/>
	<line class="st1" x1="441.1" y1="1678.5" x2="441.1" y2="1828.4"/>
	<line class="st1" x1="452.3" y1="1092.3" x2="452.3" y2="1335.3"/>
	<line class="st1" x1="452.3" y1="1501.7" x2="452.3" y2="1744.7"/>
	<line class="st1" x1="450.4" y1="1408.7" x2="450.4" y2="1446.9"/>
	<line class="st1" x1="422.5" y1="1613.4" x2="422.5" y2="1865.7"/>
	<line class="st1" x1="435.5" y1="1110.9" x2="435.5" y2="1149.1"/>
	<g>
		<path class="st2" d="M764.2,818.7c0,7.1-8,7.1-8,14.2c0,7.1,8,7.1,8,14.2c0,7.1-8,7.1-8,14.2c0,7.1,8,7.1,8,14.2s-8,7.1-8,14.2
			c0,21.9,4.3,44.3-2.1,64.1c-6.7,20.5-23.5,36-36,53.1c-12.5,17.2-22.2,38-39.4,50.6c-17.1,12.4-39.7,15.2-60.2,21.9
			c-19.8,6.4-39.7,17.7-61.6,17.7c-25.6,0-25.6-8-51.2-8c-25.6,0-25.6,8-51.2,8s-25.6-8-51.2-8s-25.6,8-51.2,8s-25.6-8-51.2-8
			c-21.9,0-44.3,4.3-64.1-2.1c-20.5-6.7-36-23.5-53.1-36c-17.2-12.5-38-22.2-50.6-39.4c-12.4-17.1-15.2-39.7-21.9-60.2
			c-6.4-19.8-17.7-39.7-17.7-61.6c0-7.1,8-7.1,8-14.2c0-7.1-8-7.1-8-14.2c0-7.1,8-7.1,8-14.2c0-7.1-8-7.1-8-14.2s8-7.1,8-14.2
			c0-21.9-4.3-44.3,2.1-64.1c6.7-20.5,23.5-36,36-53.1c12.5-17.2,22.2-38,39.4-50.6c17.1-12.4,39.7-15.2,60.2-21.9
			c19.8-6.4,39.7-17.7,61.6-17.7c25.6,0,25.6,8,51.2,8s25.6-8,51.2-8s25.6,8,51.2,8s25.6-8,51.2-8c25.6,0,25.6,8,51.2,8
			c21.9,0,44.3-4.3,64.1,2.1c20.5,6.7,36,23.5,53.1,36c17.2,12.5,38,22.2,50.6,39.4c12.4,17.1,15.2,39.7,21.9,60.2
			C752.9,776.9,764.2,796.8,764.2,818.7z"/>
		<path class="st3" d="M764.2,818.7c0,7.1-8,7.1-8,14.2c0,7.1,8,7.1,8,14.2c0,7.1-8,7.1-8,14.2c0,7.1,8,7.1,8,14.2s-8,7.1-8,14.2
			c0,21.9,4.3,44.3-2.1,64.1c-6.7,20.5-23.5,36-36,53.1c-12.5,17.2-22.2,38-39.4,50.6c-17.1,12.4-39.7,15.2-60.2,21.9
			c-19.8,6.4-39.7,17.7-61.6,17.7c-25.6,0-25.6-8-51.2-8c-25.6,0-25.6,8-51.2,8s-25.6-8-51.2-8s-25.6,8-51.2,8s-25.6-8-51.2-8
			c-21.9,0-44.3,4.3-64.1-2.1c-20.5-6.7-36-23.5-53.1-36c-17.2-12.5-38-22.2-50.6-39.4c-12.4-17.1-15.2-39.7-21.9-60.2
			c-6.4-19.8-17.7-39.7-17.7-61.6c0-7.1,8-7.1,8-14.2c0-7.1-8-7.1-8-14.2c0-7.1,8-7.1,8-14.2c0-7.1-8-7.1-8-14.2s8-7.1,8-14.2
			c0-21.9-4.3-44.3,2.1-64.1c6.7-20.5,23.5-36,36-53.1c12.5-17.2,22.2-38,39.4-50.6c17.1-12.4,39.7-15.2,60.2-21.9
			c19.8-6.4,39.7-17.7,61.6-17.7c25.6,0,25.6,8,51.2,8s25.6-8,51.2-8s25.6,8,51.2,8s25.6-8,51.2-8c25.6,0,25.6,8,51.2,8
			c21.9,0,44.3-4.3,64.1,2.1c20.5,6.7,36,23.5,53.1,36c17.2,12.5,38,22.2,50.6,39.4c12.4,17.1,15.2,39.7,21.9,60.2
			C752.9,776.9,764.2,796.8,764.2,818.7z"/>
	</g>
	<g>
		<g>
			<path class="st4" d="M273.3,955c3.8,0,7.9-1.7,10.6-4.4c2.6-2.6,4.6-6.9,4.4-10.6c-0.2-3.9-1.4-7.9-4.4-10.6
				c-2.9-2.7-6.5-4.4-10.6-4.4c-3.8,0-7.9,1.7-10.6,4.4c-2.6,2.6-4.6,6.9-4.4,10.6c0.2,3.9,1.4,7.9,4.4,10.6
				C265.6,953.3,269.2,955,273.3,955L273.3,955z"/>
		</g>
	</g>
	<g>
		<g>
			<path class="st4" d="M223.3,660.6c-2.1,1.4-4.2,3-6,4.8c-1.9,1.8-3.4,4-4.9,6c-2.3,3.2-3.9,7.1-5.1,10.8c-0.4,1.3-0.7,2.7-1,4
				c-0.4,2.6-0.8,5.3-0.9,8c0,2,0.3,4,0.5,6c0.3,2,0.6,4,1.2,6c0.8,2.6,1.9,5.1,3.1,7.5c1.3,2.5,3.1,4.7,4.9,6.9
				c2.3,2.8,7.1,4.4,10.6,4.4c3.7,0,8.1-1.6,10.6-4.4c2.6-2.9,4.6-6.6,4.4-10.6c-0.2-1.3-0.4-2.7-0.5-4c-0.7-2.5-2-4.7-3.9-6.6
				c-0.2-0.2-0.4-0.5-0.6-0.8c0.8,1,1.6,2,2.3,3c-1.2-1.5-2.1-3.2-2.8-4.9c0.5,1.2,1,2.4,1.5,3.6c-0.8-2-1.3-4-1.7-6.1
				c0.2,1.3,0.4,2.7,0.5,4c-0.3-2.4-0.3-4.9,0-7.3c-0.2,1.3-0.4,2.7-0.5,4c0.3-2.4,1-4.8,1.9-7.1c-0.5,1.2-1,2.4-1.5,3.6
				c0.8-2,1.9-3.8,3.2-5.5c-0.8,1-1.6,2-2.3,3c1.2-1.5,2.5-2.9,4-4c-1,0.8-2,1.6-3,2.3c0.3-0.3,0.7-0.5,1-0.8c3.3-2.2,5.8-5,6.9-9
				c1-3.6,0.5-8.4-1.5-11.6c-2.1-3.2-5.1-6-9-6.9C231.1,658.3,226.6,658.3,223.3,660.6L223.3,660.6z"/>
		</g>
	</g>
	<g>
		<g>
			<path class="st4" d="M642.6,989.7c-0.4,1.2-0.8,2.3-1.3,3.5c0.5-1.2,1-2.4,1.5-3.6c-1.3,2.9-2.9,5.7-4.8,8.2c0.8-1,1.6-2,2.3-3
				c-2,2.6-4.4,5-7,7c1-0.8,2-1.6,3-2.3c-2.6,2-5.5,3.7-8.6,5c1.2-0.5,2.4-1,3.6-1.5c-1.1,0.5-2.3,0.9-3.5,1.2c-3.7,1.1-7,3.5-9,6.9
				c-1.9,3.2-2.7,8-1.5,11.6s3.4,7.1,6.9,9s7.7,2.7,11.6,1.5c16.9-5.2,30.3-18.5,35.6-35.4c1.1-3.6,0.4-8.3-1.5-11.6
				c-1.8-3.1-5.4-6.1-9-6.9c-3.8-0.9-8.1-0.7-11.6,1.5C646.1,982.9,643.8,985.9,642.6,989.7L642.6,989.7z"/>
		</g>
	</g>
	<circle class="st5" cx="635.8" cy="730.8" r="21.2"/>
	<g>
		<g>
			<path class="st4" d="M354,1008c-1.3,0.3-2.6,0.6-3.8,0.7c1.3-0.2,2.7-0.4,4-0.5c-3.4,0.4-6.8,0.4-10.2,0c1.3,0.2,2.7,0.4,4,0.5
				c-3.4-0.5-6.7-1.4-9.8-2.7c1.2,0.5,2.4,1,3.6,1.5c-3-1.3-5.8-2.9-8.5-4.9c1,0.8,2,1.6,3,2.3c-0.7-0.6-1.4-1.1-2.1-1.8
				c-3-2.7-6.5-4.4-10.6-4.4c-3.7,0-8.1,1.6-10.6,4.4c-2.6,2.9-4.6,6.6-4.4,10.6c0.2,3.8,1.4,8,4.4,10.6
				c6.5,5.8,14.2,10.2,22.8,12.3c8.6,2.2,17.6,2.2,26.2,0.1c3.6-0.9,7.1-3.7,9-6.9c1.9-3.2,2.7-8,1.5-11.6s-3.4-7.1-6.9-9
				C362,1007.6,358.1,1007,354,1008L354,1008z"/>
		</g>
	</g>
	<circle class="st5" cx="353.9" cy="880.1" r="17"/>
	<circle class="st5" cx="473.5" cy="961.2" r="21.2"/>
	<g>
		<g>
			<path class="st4" d="M201.9,854.3c-3-0.5-6.1-1-9.1-0.8s-6.1,0.6-9,1.4c-2.9,0.8-5.7,2-8.3,3.4s-4.9,3.2-7.2,5
				c-3.7,2.9-6.9,6.8-9.2,10.9c-3.1,5.4-4.6,11.1-5,17.3c-0.3,3.7,1.9,8.1,4.4,10.6c2.6,2.6,6.9,4.6,10.6,4.4
				c3.9-0.2,7.9-1.4,10.6-4.4c0.8-1,1.6-2,2.3-3c1.4-2.3,2-4.9,2-7.6c0-0.5,0.1-0.9,0.1-1.4c-0.2,1.3-0.4,2.7-0.5,4
				c0.3-2,0.8-4,1.6-5.9c-0.5,1.2-1,2.4-1.5,3.6c0.9-2,2-3.8,3.3-5.6c-0.8,1-1.6,2-2.3,3c1.4-1.8,3.1-3.4,4.9-4.8
				c-1,0.8-2,1.6-3,2.3c1.8-1.4,3.8-2.6,5.9-3.5c-1.2,0.5-2.4,1-3.6,1.5c2.1-0.9,4.3-1.5,6.6-1.8c-1.3,0.2-2.7,0.4-4,0.5
				c1.9-0.2,3.9-0.2,5.8,0c-1.3-0.2-2.7-0.4-4-0.5c0.2,0,0.5,0.1,0.7,0.1c2,0.6,4,0.7,6,0.3c2-0.1,3.9-0.7,5.6-1.8
				c3.1-1.8,6.1-5.4,6.9-9c0.9-3.8,0.7-8.1-1.5-11.6C208.9,858.1,205.7,854.9,201.9,854.3L201.9,854.3z"/>
		</g>
	</g>
	<g>
		<g>
			<path class="st4" d="M604.9,917.7c3.8,0,7.9-1.7,10.6-4.4c2.6-2.6,4.6-6.9,4.4-10.6c-0.2-3.9-1.4-7.9-4.4-10.6
				c-2.9-2.7-6.5-4.4-10.6-4.4c-3.8,0-7.9,1.7-10.6,4.4c-2.6,2.6-4.6,6.9-4.4,10.6c0.2,3.9,1.4,7.9,4.4,10.6
				C597.2,916,600.8,917.7,604.9,917.7L604.9,917.7z"/>
		</g>
	</g>
	<circle class="st5" cx="426.9" cy="701.1" r="21.2"/>
	<g>
		<g>
			<path class="st4" d="M501.7,789.4c0.2,6.2,1.7,11.7,4.5,17.3c1.4,2.7,3.2,5.1,5.1,7.4c1.1,1.4,2.3,2.6,3.6,3.8
				c4.7,4.1,9.4,6.9,15.3,9c2.8,1,5.7,1.3,8.7,1.7c1.9,0.2,3.7,0.3,5.6,0.1c2.1,0.1,4-0.4,5.8-1.3c1.9-0.6,3.5-1.6,4.8-3.1
				c2.6-2.6,4.6-6.9,4.4-10.6c-0.2-3.9-1.4-7.9-4.4-10.6c-2.7-2.5-6.7-4.8-10.6-4.4c-1.9,0.2-3.7,0.2-5.6-0.1c1.3,0.2,2.7,0.4,4,0.5
				c-2.1-0.3-4.1-0.9-6-1.6c1.2,0.5,2.4,1,3.6,1.5c-2.2-0.9-4.2-2.1-6-3.5c1,0.8,2,1.6,3,2.3c-1.9-1.4-3.5-3.1-5-4.9
				c0.8,1,1.6,2,2.3,3c-1.4-1.8-2.5-3.6-3.4-5.7c0.5,1.2,1,2.4,1.5,3.6c-0.8-1.9-1.4-3.9-1.7-6c0.2,1.3,0.4,2.7,0.5,4
				c-0.1-0.8-0.2-1.6-0.2-2.4c-0.1-3.9-1.6-7.8-4.4-10.6c-2.6-2.6-6.9-4.6-10.6-4.4c-3.9,0.2-7.9,1.4-10.6,4.4
				C503.4,781.7,501.6,785.4,501.7,789.4L501.7,789.4z"/>
		</g>
	</g>
	<g>
		<g>
			<path class="st4" d="M330.2,793.1c3.8,0,7.9-1.7,10.6-4.4c2.6-2.6,4.6-6.9,4.4-10.6c-0.2-3.9-1.4-7.9-4.4-10.6
				c-2.9-2.7-6.5-4.4-10.6-4.4c-3.8,0-7.9,1.7-10.6,4.4c-2.6,2.6-4.6,6.9-4.4,10.6c0.2,3.9,1.4,7.9,4.4,10.6
				C322.5,791.4,326.1,793.1,330.2,793.1L330.2,793.1z"/>
		</g>
	</g>
	<g>
		<g>
			<path class="st4" d="M674.4,827.8c0.2,1,0.4,2,0.6,3.1c-0.2-1.3-0.4-2.7-0.5-4c0.4,3.3,0.4,6.7,0,10c0.2-1.3,0.4-2.7,0.5-4
				c-0.5,3.5-1.4,6.8-2.7,10.1c0.5-1.2,1-2.4,1.5-3.6c-1.3,3-2.9,5.8-4.8,8.4c0.8-1,1.6-2,2.3-3c-0.7,0.9-1.5,1.8-2.3,2.7
				c-2.7,2.9-4.4,6.6-4.4,10.6c0,3.7,1.6,8.1,4.4,10.6c2.9,2.6,6.6,4.6,10.6,4.4c3.9-0.2,7.9-1.5,10.6-4.4
				c5.9-6.4,10.4-14.1,12.6-22.6c2.3-8.6,2.4-17.5,0.5-26.2c-0.8-3.6-3.8-7.2-6.9-9c-3.2-1.9-8-2.7-11.6-1.5s-7.1,3.4-9,6.9
				C673.9,820,673.4,823.8,674.4,827.8L674.4,827.8z"/>
		</g>
	</g>
</g>
<g>
	<g>
		<g>
			<rect x="1219.6" y="1432.2" class="st0" width="55.5" height="376.9"/>
			<path class="st1" d="M1230.3,1485.2c-0.2,13.2-0.2,27.2,0,39.8"/>
			<line class="st1" x1="1230.3" y1="1540.4" x2="1230.3" y2="1577.7"/>
			<line class="st1" x1="1247.9" y1="1505.2" x2="1247.9" y2="1656.8"/>
			<path class="st1" d="M1259.3,1485c-0.3,40.4-0.3,80.4,0,120.8"/>
			<line class="st1" x1="1230.3" y1="1628.2" x2="1230.3" y2="1779.8"/>
			<line class="st1" x1="1256.7" y1="1698.5" x2="1256.7" y2="1797.3"/>
		</g>
	</g>
	<g>
		<path class="st2" d="M1267.2,1536.3c19.1,0,38.5,7.9,55.2,4.2c18.6-4.1,32.2-19.6,47.4-27.6c16.7-8.7,37.1-11.6,49.3-24.1
			c12.9-13.2,15.1-33.7,22.5-50c7.5-16.3,21.5-31.5,22.9-49.8c1.3-17.4-10.1-34.6-14.8-52.8c-14.1-54.5-4.4-57-18.5-111.6
			c-14.1-54.5-23.8-52-37.9-106.6c-14.1-54.5-4.4-57-18.5-111.6c-14.1-54.5-23.8-52-37.9-106.6c-14.1-54.5-4.4-57-18.5-111.6
			c-14.1-54.5-23.8-52-37.9-106.6c-1.6-6.1,3.6-16-0.6-20s-14.5,1.3-20.3-0.7c-5.5-1.9-9.9-12.6-15.9-12.6s-10.3,10.7-15.9,12.6
			c-5.8,2-16.1-3.4-20.3,0.7c-4.2,4,1,13.9-0.6,20c-14.1,54.5-23.8,52-37.9,106.6c-14.1,54.5-4.4,57-18.5,111.6
			c-14.1,54.5-23.8,52-37.9,106.6c-14.1,54.5-4.4,57-18.5,111.6c-14.1,54.5-23.8,52-37.9,106.6c-14.1,54.5-5.9,56.6-18.5,111.5
			c-2.1,22.8-11.6,42.7-9.1,60.9c3.1,22.7,18.9,39,27.6,55.3c10.4,19.4,16.6,40.9,32.1,52.8c16.7,12.8,40.1,13.1,58.9,19.4
			c20.7,6.9,39.6,20.2,58,21.9C1240.8,1549.6,1236.6,1538.5,1267.2,1536.3z"/>
		<path class="st3" d="M1267.2,1536.3c19.1,0,38.5,7.9,55.2,4.2c18.6-4.1,32.2-19.6,47.4-27.6c16.7-8.7,37.1-11.6,49.3-24.1
			c12.9-13.2,15.1-33.7,22.5-50c7.5-16.3,21.5-31.5,22.9-49.8c1.3-17.4-10.1-34.6-14.8-52.8c-14.1-54.5-4.4-57-18.5-111.6
			c-14.1-54.5-23.8-52-37.9-106.6c-14.1-54.5-4.4-57-18.5-111.6c-14.1-54.5-23.8-52-37.9-106.6c-14.1-54.5-4.4-57-18.5-111.6
			c-14.1-54.5-23.8-52-37.9-106.6c-1.6-6.1,3.6-16-0.6-20s-14.5,1.3-20.3-0.7c-5.5-1.9-9.9-12.6-15.9-12.6s-10.3,10.7-15.9,12.6
			c-5.8,2-16.1-3.4-20.3,0.7c-4.2,4,1,13.9-0.6,20c-14.1,54.5-23.8,52-37.9,106.6c-14.1,54.5-4.4,57-18.5,111.6
			c-14.1,54.5-23.8,52-37.9,106.6c-14.1,54.5-4.4,57-18.5,111.6c-14.1,54.5-23.8,52-37.9,106.6c-14.1,54.5-5.9,56.6-18.5,111.5
			c-2.1,22.8-11.6,42.7-9.1,60.9c3.1,22.7,18.9,39,27.6,55.3c10.4,19.4,16.6,40.9,32.1,52.8c16.7,12.8,40.1,13.1,58.9,19.4
			c20.7,6.9,39.6,20.2,58,21.9C1240.8,1549.6,1236.6,1538.5,1267.2,1536.3z"/>
	</g>
	<g>
		<g>
			<path class="st4" d="M1292,1004.6c3.8,0,7.9-1.7,10.6-4.4c2.6-2.6,4.6-6.9,4.4-10.6c-0.2-3.9-1.4-7.9-4.4-10.6
				c-2.9-2.7-6.5-4.4-10.6-4.4c-3.8,0-7.9,1.7-10.6,4.4c-2.6,2.6-4.6,6.9-4.4,10.6c0.2,3.9,1.4,7.9,4.4,10.6
				C1284.3,1002.9,1287.9,1004.6,1292,1004.6L1292,1004.6z"/>
		</g>
	</g>
	<circle class="st6" cx="1192.6" cy="858.6" r="10.6"/>
	<g>
		<g>
			<path class="st4" d="M1250.6,897.6c11.3,10.8,29,12.3,42.5,4.9c3.4-1.9,6.7-4.4,9.1-7.5c1.8-2.3,3.1-4.4,3.1-7.4
				c0-2.6-1.1-5.7-3.1-7.4c-2-1.8-4.6-3.2-7.4-3.1c-2.6,0.1-5.7,0.9-7.4,3.1c-1.1,1.4-2.4,2.7-3.9,3.8c0.7-0.5,1.4-1.1,2.1-1.6
				c-1.6,1.2-3.4,2.2-5.2,3c0.8-0.4,1.7-0.7,2.5-1.1c-2.2,0.9-4.5,1.5-6.8,1.9c0.9-0.1,1.9-0.3,2.8-0.4c-2.5,0.3-4.9,0.3-7.4,0
				c0.9,0.1,1.9,0.3,2.8,0.4c-2.2-0.3-4.4-0.9-6.5-1.7c0.8,0.4,1.7,0.7,2.5,1.1c-1.9-0.8-3.6-1.8-5.2-3c0.7,0.5,1.4,1.1,2.1,1.6
				c-0.6-0.5-1.2-1-1.7-1.5c-2-1.9-4.7-3.1-7.4-3.1c-2.6,0-5.7,1.1-7.4,3.1c-1.8,2-3.2,4.6-3.1,7.4
				C1247.6,892.9,1248.5,895.7,1250.6,897.6L1250.6,897.6z"/>
		</g>
	</g>
	<g>
		<g>
			<path class="st4" d="M1156.4,992c3.3,6.2,9,11.5,15.5,14.4c3.8,1.7,7.4,2.8,11.5,3.4c4.1,0.6,7.9,0.4,12.1-0.3
				c3.8-0.7,7.7-2.3,11-4.4c2.3-1.5,4.1-3.6,4.8-6.3c0.7-2.5,0.4-5.9-1.1-8.1c-1.4-2.2-3.6-4.2-6.3-4.8c-2.7-0.6-5.7-0.5-8.1,1.1
				c-1.1,0.7-2.2,1.3-3.3,1.8c0.8-0.4,1.7-0.7,2.5-1.1c-1.9,0.8-4,1.4-6.1,1.7c0.9-0.1,1.9-0.3,2.8-0.4c-2.3,0.3-4.6,0.3-6.9,0
				c0.9,0.1,1.9,0.3,2.8,0.4c-2.5-0.3-5-1-7.3-2c0.8,0.4,1.7,0.7,2.5,1.1c-2-0.9-3.9-2-5.7-3.3c0.7,0.5,1.4,1.1,2.1,1.6
				c-1.6-1.2-3-2.6-4.2-4.2c0.5,0.7,1.1,1.4,1.6,2.1c-0.8-1-1.4-2.1-2-3.2c-2.6-4.9-9.7-6.8-14.4-3.8
				C1155.3,980.8,1153.7,986.8,1156.4,992L1156.4,992z"/>
		</g>
	</g>
	<g>
		<g>
			<path class="st4" d="M1286.7,1072.6c4.8,5.2,11.8,8.8,18.8,9.9c4.1,0.6,7.9,0.8,12,0.2c4.1-0.6,7.7-1.7,11.5-3.5
				c3.5-1.7,6.9-4.2,9.5-7.1c1.9-2.1,3.1-4.6,3.1-7.4c0-2.6-1.1-5.7-3.1-7.4c-2-1.8-4.6-3.2-7.4-3.1c-2.7,0.1-5.6,1-7.4,3.1
				c-0.9,1-2,2-3.1,2.9c0.7-0.5,1.4-1.1,2.1-1.6c-1.6,1.2-3.2,2.1-5,2.9c0.8-0.4,1.7-0.7,2.5-1.1c-2.2,0.9-4.5,1.5-6.9,1.9
				c0.9-0.1,1.9-0.2,2.8-0.4c-2.5,0.3-5,0.3-7.5,0c0.9,0.1,1.9,0.3,2.8,0.4c-2.3-0.3-4.4-0.9-6.5-1.8c0.8,0.4,1.7,0.7,2.5,1.1
				c-1.9-0.8-3.6-1.8-5.3-3.1c0.7,0.5,1.4,1.1,2.1,1.6c-0.9-0.7-1.8-1.5-2.6-2.4c-3.8-4-11.1-4.1-14.8,0
				C1282.7,1062.1,1282.7,1068.3,1286.7,1072.6L1286.7,1072.6z"/>
		</g>
	</g>
	<g>
		<g>
			<path class="st4" d="M1137.9,1117.6c4.3,5.5,11.2,9.4,18,11.1c3.5,0.8,7.2,1.3,10.8,1.1c3.6-0.2,7.4-0.7,10.8-2.1
				c4.6-1.8,8.5-4,12.1-7.4c4-3.8,4.1-11.1,0-14.8c-4.3-3.9-10.6-4-14.8,0c-0.6,0.5-1.1,1-1.7,1.5c0.7-0.5,1.4-1.1,2.1-1.6
				c-1.5,1.2-3.2,2.1-5,2.9c0.8-0.4,1.7-0.7,2.5-1.1c-2.1,0.9-4.2,1.4-6.5,1.8c0.9-0.1,1.9-0.2,2.8-0.4c-2.5,0.3-4.9,0.3-7.4,0
				c0.9,0.1,1.9,0.3,2.8,0.4c-2.3-0.3-4.6-0.9-6.8-1.8c0.8,0.4,1.7,0.7,2.5,1.1c-2-0.8-3.8-1.9-5.5-3.2c0.7,0.5,1.4,1.1,2.1,1.6
				c-1.4-1.1-2.7-2.4-3.9-3.8c-1.5-2-5-3.1-7.4-3.1c-2.6,0-5.7,1.1-7.4,3.1c-1.8,2-3.2,4.6-3.1,7.4c0.1,0.9,0.2,1.9,0.4,2.8
				C1135.7,1114.7,1136.6,1116.3,1137.9,1117.6L1137.9,1117.6z"/>
		</g>
	</g>
	<g>
		<g>
			<path class="st4" d="M1217.3,719.8c4.6,6.8,11.1,11.5,18.9,14c6.8,2.2,14.8,2.3,21.6,0.2c4.7-1.5,8.6-3.8,12.4-6.9
				c2-1.6,3.1-5,3.1-7.4c0-2.6-1.1-5.7-3.1-7.4c-2-1.8-4.6-3.2-7.4-3.1c-0.9,0.1-1.9,0.3-2.8,0.4c-1.8,0.5-3.3,1.4-4.6,2.7
				c-0.2,0.1-0.3,0.3-0.5,0.4c0.7-0.5,1.4-1.1,2.1-1.6c-1.5,1.2-3.2,2.1-4.9,2.9c0.8-0.4,1.7-0.7,2.5-1.1c-2.1,0.9-4.2,1.4-6.4,1.8
				c0.9-0.1,1.9-0.3,2.8-0.4c-2.4,0.3-4.9,0.3-7.3,0c0.9,0.1,1.9,0.2,2.8,0.4c-2.3-0.3-4.6-0.9-6.8-1.8c0.8,0.4,1.7,0.7,2.5,1.1
				c-2.1-0.9-4-2-5.8-3.3c0.7,0.5,1.4,1.1,2.1,1.6c-1.5-1.2-2.8-2.5-4-4c0.5,0.7,1.1,1.4,1.6,2.1c-0.3-0.3-0.5-0.7-0.7-1
				c-1.6-2.3-3.5-4.1-6.3-4.8c-2.5-0.7-5.9-0.4-8.1,1.1c-2.2,1.4-4.2,3.6-4.8,6.3C1215.7,714.4,1215.8,717.5,1217.3,719.8
				L1217.3,719.8z"/>
		</g>
	</g>
	<g>
		<g>
			<path class="st4" d="M1221.6,1182.7c4.3,5.5,11.2,9.4,18,11.1c3.5,0.8,7.2,1.3,10.8,1.1c3.6-0.2,7.4-0.7,10.8-2.1
				c4.6-1.8,8.5-4,12.1-7.4c4-3.8,4.1-11.1,0-14.8c-4.3-3.9-10.6-4-14.8,0c-0.6,0.5-1.1,1-1.7,1.5c0.7-0.5,1.4-1.1,2.1-1.6
				c-1.5,1.2-3.2,2.1-5,2.9c0.8-0.4,1.7-0.7,2.5-1.1c-2.1,0.9-4.2,1.4-6.5,1.8c0.9-0.1,1.9-0.2,2.8-0.4c-2.5,0.3-4.9,0.3-7.4,0
				c0.9,0.1,1.9,0.2,2.8,0.4c-2.3-0.3-4.6-0.9-6.8-1.8c0.8,0.4,1.7,0.7,2.5,1.1c-2-0.8-3.8-1.9-5.5-3.2c0.7,0.5,1.4,1.1,2.1,1.6
				c-1.4-1.1-2.7-2.4-3.9-3.8c-1.6-2-5-3.1-7.4-3.1c-2.6,0-5.7,1.1-7.4,3.1c-1.8,2-3.2,4.6-3.1,7.4c0.1,0.9,0.2,1.9,0.4,2.8
				C1219.4,1179.9,1220.3,1181.4,1221.6,1182.7L1221.6,1182.7z"/>
		</g>
	</g>
	<g>
		<g>
			<path class="st4" d="M1317.5,1256.2c13.5,8,31,5.1,42.5-5.1c2.9-2.6,5.5-5.9,7.1-9.4c1.2-2.6,1.8-5.2,1.1-8.1
				c-0.7-2.4-2.6-5.1-4.8-6.3c-2.4-1.3-5.4-1.9-8.1-1.1c-2.5,0.8-5.1,2.4-6.3,4.8c-0.7,1.4-1.5,2.8-2.5,4c0.5-0.7,1.1-1.4,1.6-2.1
				c-1.2,1.6-2.7,3-4.2,4.2c0.7-0.5,1.4-1.1,2.1-1.6c-1.9,1.4-3.9,2.6-6,3.5c0.8-0.4,1.7-0.7,2.5-1.1c-2.3,0.9-4.6,1.6-7,1.9
				c0.9-0.1,1.9-0.3,2.8-0.4c-2.3,0.3-4.6,0.3-6.9,0c0.9,0.1,1.9,0.2,2.8,0.4c-2-0.3-3.9-0.8-5.8-1.6c0.8,0.4,1.7,0.7,2.5,1.1
				c-1-0.4-1.9-0.9-2.8-1.4c-2.3-1.4-5.5-1.8-8.1-1.1c-2.4,0.7-5.1,2.6-6.3,4.8C1311,1246.9,1312.4,1253.2,1317.5,1256.2
				L1317.5,1256.2z"/>
		</g>
	</g>
	<g>
		<g>
			<path class="st4" d="M1099.9,1241.4c2.9,6.4,8.6,11.9,14.7,15.1c6.3,3.3,13.8,5.2,20.9,4.4c4.9-0.6,9.3-1.7,13.7-4.2
				c2.3-1.3,4.1-3.8,4.8-6.3c0.7-2.5,0.4-5.9-1.1-8.1c-3.1-4.8-9.2-6.6-14.4-3.8c-0.7,0.4-1.5,0.8-2.3,1.1c0.8-0.4,1.7-0.7,2.5-1.1
				c-1.9,0.8-3.8,1.3-5.8,1.6c0.9-0.1,1.9-0.2,2.8-0.4c-2.3,0.3-4.7,0.3-7,0c0.9,0.1,1.9,0.2,2.8,0.4c-2.4-0.4-4.8-1-7.1-2
				c0.8,0.4,1.7,0.7,2.5,1.1c-2.1-0.9-4-2-5.8-3.4c0.7,0.5,1.4,1.1,2.1,1.6c-1.7-1.3-3.2-2.8-4.5-4.5c0.5,0.7,1.1,1.4,1.6,2.1
				c-1-1.4-1.9-2.8-2.6-4.4c-1-2.3-4-4.2-6.3-4.8c-2.5-0.7-5.9-0.4-8.1,1.1c-2.2,1.4-4.2,3.6-4.8,6.3c-0.1,0.9-0.3,1.9-0.4,2.8
				C1098.5,1238,1098.9,1239.8,1099.9,1241.4L1099.9,1241.4z"/>
		</g>
	</g>
	<g>
		<g>
			<path class="st4" d="M1203.1,1339c8.3,13.2,24.9,19.1,39.9,15.3c3.8-1,7.6-2.6,10.8-5c2.3-1.7,4-3.4,4.8-6.3
				c0.7-2.5,0.4-5.9-1.1-8.1c-1.4-2.2-3.6-4.2-6.3-4.8c-2.6-0.6-5.9-0.6-8.1,1.1c-1.5,1.2-3.2,2.1-4.9,2.9c0.8-0.4,1.7-0.7,2.5-1.1
				c-2,0.8-4,1.3-6.1,1.6c0.9-0.1,1.9-0.2,2.8-0.4c-2.4,0.3-4.9,0.3-7.3,0c0.9,0.1,1.9,0.2,2.8,0.4c-2.3-0.3-4.6-1-6.8-1.8
				c0.8,0.4,1.7,0.7,2.5,1.1c-2.1-0.9-4-2-5.8-3.3c0.7,0.5,1.4,1.1,2.1,1.6c-1.5-1.2-2.9-2.5-4-4c0.5,0.7,1.1,1.4,1.6,2.1
				c-0.5-0.6-0.9-1.2-1.3-1.8c-1.4-2.3-3.6-4.1-6.3-4.8c-2.5-0.7-5.9-0.4-8.1,1.1c-2.2,1.4-4.2,3.6-4.8,6.3
				C1201.4,1333.6,1201.6,1336.6,1203.1,1339L1203.1,1339z"/>
		</g>
	</g>
	<g>
		<g>
			<path class="st4" d="M1082,1379.7c1.7,4.3,3.7,7.8,6.7,11.3c2.3,2.7,5.3,5,8.4,6.8s6.6,3.3,10,4.1c3.5,0.8,7.3,1.3,10.9,1.1
				c5-0.4,9.3-1.5,13.8-3.8c2.3-1.1,4.2-3.9,4.8-6.3c0.7-2.5,0.4-5.9-1.1-8.1c-1.4-2.2-3.6-4.2-6.3-4.8c-2.9-0.7-5.5-0.3-8.1,1.1
				c-0.5,0.2-1,0.5-1.5,0.7c0.8-0.4,1.7-0.7,2.5-1.1c-1.9,0.8-3.8,1.3-5.8,1.5c0.9-0.1,1.9-0.3,2.8-0.4c-2.2,0.3-4.4,0.2-6.7-0.1
				c0.9,0.1,1.9,0.3,2.8,0.4c-2.3-0.3-4.6-1-6.8-1.9c0.8,0.4,1.7,0.7,2.5,1.1c-2.2-0.9-4.2-2.1-6.1-3.5c0.7,0.5,1.4,1.1,2.1,1.6
				c-1.7-1.3-3.2-2.8-4.5-4.5c0.5,0.7,1.1,1.4,1.6,2.1c-1.2-1.5-2.1-3.2-2.9-4.9c0.4,0.8,0.7,1.7,1.1,2.5c-0.1-0.2-0.2-0.4-0.2-0.6
				c-1-2.6-2.3-4.8-4.8-6.3c-2.3-1.3-5.6-1.9-8.1-1.1s-5,2.4-6.3,4.8C1081.8,1374,1081,1377.1,1082,1379.7L1082,1379.7z"/>
		</g>
	</g>
	<g>
		<g>
			<path class="st4" d="M1196.8,1471.1c2.3,2.7,5.3,5,8.4,6.7s6.6,3.1,10.1,3.7c3.5,0.7,7.2,1.1,10.7,0.7c2.2-0.2,4.5-0.5,6.6-1.1
				c2.1-0.5,4.2-1.4,6.2-2.3c3.6-1.6,6.9-4,9.7-6.8c1.9-2,3.1-4.7,3.1-7.4c0-2.6-1.1-5.7-3.1-7.4c-2-1.8-4.6-3.2-7.4-3.1
				s-5.5,1-7.4,3.1c-0.8,0.8-1.6,1.5-2.4,2.2c0.7-0.5,1.4-1.1,2.1-1.6c-1.6,1.2-3.4,2.3-5.3,3.1c0.8-0.4,1.7-0.7,2.5-1.1
				c-2.1,0.9-4.3,1.4-6.5,1.8c0.9-0.1,1.9-0.2,2.8-0.4c-2.5,0.3-5,0.3-7.5,0c0.9,0.1,1.9,0.2,2.8,0.4c-2.3-0.3-4.4-0.9-6.6-1.8
				c0.8,0.4,1.7,0.7,2.5,1.1c-1.9-0.8-3.7-1.8-5.3-3c0.7,0.5,1.4,1.1,2.1,1.6c-1.2-0.9-2.3-2-3.3-3.1c-1.7-1.9-4.9-3.1-7.4-3.1
				c-2.6,0-5.7,1.1-7.4,3.1c-1.8,2-3.2,4.6-3.1,7.4C1193.8,1466.6,1194.8,1469,1196.8,1471.1L1196.8,1471.1z"/>
		</g>
	</g>
	<g>
		<g>
			<path class="st4" d="M1332.3,1407.1c3.5,3,7,5,11.3,6.6c3.4,1.3,7.1,1.8,10.7,1.9c7.1,0.3,14.8-1.7,20.8-5.5
				c4.1-2.6,7.3-5.9,10.2-9.9c1.5-2.1,1.7-5.7,1.1-8.1c-0.7-2.4-2.6-5.1-4.8-6.3c-2.4-1.3-5.4-1.9-8.1-1.1c-2.7,0.9-4.6,2.5-6.3,4.8
				c-0.2,0.3-0.4,0.5-0.6,0.8c0.5-0.7,1.1-1.4,1.6-2.1c-1.2,1.5-2.5,2.9-4,4c0.7-0.5,1.4-1.1,2.1-1.6c-1.7,1.3-3.5,2.4-5.5,3.2
				c0.8-0.4,1.7-0.7,2.5-1.1c-2.3,1-4.6,1.6-7.1,1.9c0.9-0.1,1.9-0.3,2.8-0.4c-2.4,0.3-4.9,0.3-7.3,0c0.9,0.1,1.9,0.3,2.8,0.4
				c-2.2-0.3-4.4-0.9-6.4-1.8c0.8,0.4,1.7,0.7,2.5,1.1c-1.8-0.8-3.4-1.7-4.9-2.9c0.7,0.5,1.4,1.1,2.1,1.6c-0.3-0.2-0.5-0.4-0.7-0.6
				c-2.2-1.8-4.5-3.1-7.4-3.1c-2.6,0-5.7,1.1-7.4,3.1c-1.8,2-3.2,4.6-3.1,7.4C1329.4,1402.3,1330.2,1405.3,1332.3,1407.1
				L1332.3,1407.1z"/>
		</g>
	</g>
	<circle class="st6" cx="1339.8" cy="1168.1" r="10.6"/>
	<circle class="st6" cx="1147.5" cy="1182.7" r="22.1"/>
	<g>
		<g>
			<path class="st4" d="M1248.4,1282.9c3.8,0,7.9-1.7,10.6-4.4c2.6-2.6,4.6-6.9,4.4-10.6c-0.2-3.9-1.4-7.9-4.4-10.6
				c-2.9-2.7-6.5-4.4-10.6-4.4c-3.8,0-7.9,1.7-10.6,4.4c-2.6,2.6-4.6,6.9-4.4,10.6c0.2,3.9,1.4,7.9,4.4,10.6
				C1240.7,1281.2,1244.4,1282.9,1248.4,1282.9L1248.4,1282.9z"/>
		</g>
	</g>
	<circle class="st6" cx="1126.5" cy="1315.8" r="10.6"/>
	<circle class="st6" cx="1312.5" cy="1467.8" r="10.6"/>
	<circle class="st4" cx="1405.9" cy="1313.4" r="8.2"/>
	<g>
		<g>
			<path class="st4" d="M1194.3,797.8c2.7,3.8,5.5,6.6,9.3,9.2c2.9,2.1,6.4,3.5,9.8,4.6c6.8,2.1,14.8,2.1,21.6-0.1
				c4.7-1.5,8.6-3.8,12.4-7c2-1.7,3.1-5,3.1-7.4c0-2.6-1.1-5.7-3.1-7.4c-2-1.8-4.6-3.2-7.4-3.1c-2.9,0.1-5.2,1.2-7.4,3.1
				c-0.3,0.3-0.7,0.5-1,0.8c0.7-0.5,1.4-1.1,2.1-1.6c-1.5,1.1-3.2,2.1-4.9,2.8c0.8-0.4,1.7-0.7,2.5-1.1c-2,0.8-4,1.3-6.1,1.7
				c0.9-0.1,1.9-0.3,2.8-0.4c-2.4,0.3-4.9,0.3-7.3,0c0.9,0.1,1.9,0.2,2.8,0.4c-2.4-0.3-4.8-1-7.1-1.9c0.8,0.4,1.7,0.7,2.5,1.1
				c-2-0.8-3.8-1.9-5.5-3.2c0.7,0.5,1.4,1.1,2.1,1.6c-1.5-1.2-2.9-2.5-4-4c0.5,0.7,1.1,1.4,1.6,2.1c-0.2-0.3-0.4-0.5-0.6-0.8
				c-1.6-2.3-3.5-4.1-6.3-4.8c-2.5-0.7-5.9-0.4-8.1,1.1c-2.2,1.4-4.2,3.6-4.8,6.3C1192.6,792.3,1192.6,795.5,1194.3,797.8
				L1194.3,797.8z"/>
		</g>
	</g>
</g>
</svg>
