<svg version="1.1" id="Layer_2_00000024710647322581625730000015237847114803384196_" xmlns="http://www.w3.org/2000/svg" x="0" y="0" viewBox="0 0 5476 2249.7" style="enable-background:new 0 0 5476 2249.7" xml:space="preserve"><style>.st1{fill:#a777b2}.st2,.st3{fill:#cc6981;stroke:#592e38;stroke-width:2;stroke-miterlimit:10}.st3{fill:none;stroke:#a35467;stroke-width:3;stroke-linecap:round}.st4{fill:#e56c89}.st5{fill:none;stroke:#662f3a;stroke-width:2;stroke-miterlimit:10}.st6{fill:#bc5870}.st7,.st8,.st9{fill:#d8647a;stroke:#bc5870;stroke-width:2;stroke-miterlimit:10}.st8,.st9{fill:none}.st9{fill:#e27695;stroke:#7f3d4f}.st10{fill:#cc547f}</style><path d="M55.7 1776h1258c11.6 0 16.9-17.9 8.1-27.3-33.1-35.1-66.4-67.2-102.3-97-62-51.4-132.9-77.3-197.2-111.3-68.3-36.1-133-80.9-202.2-96.7-72.1-16.4-145.2-2.1-216.4 4.6-58.2 5.6-118.6-.1-175 20.7-55.2 20.4-103.4 66.2-155.9 100.8-50.6 33.2-108.1 56.6-155.3 102.2-25.3 24.5-48.1 50.1-70.6 77.4-7.9 9.8-2.4 26.6 8.8 26.6z" style="fill:#b680c1;stroke:#685c7f;stroke-width:2;stroke-miterlimit:10"/><ellipse class="st1" cx="1189.3" cy="1723.6" rx="52.8" ry="28.7"/><ellipse class="st1" cx="711.4" cy="1534.7" rx="52.8" ry="28.7"/><ellipse class="st1" cx="1119.3" cy="1655.5" rx="21.9" ry="21.8"/><ellipse class="st1" cx="622.7" cy="1507.8" rx="21.9" ry="21.8"/><ellipse class="st1" cx="178.9" cy="1707.8" rx="35.3" ry="19.2"/><path class="st2" d="M650.4 867.8c-.6-5.1-5.3-8.7-10.4-8.1-5.1.6-8.7 5.3-8.1 10.4 5.7 46.1-3.6 80.9-27.8 103.4-41 38.1-114.3 32.3-139.4 28.9v-21.6c7.6 1.9 17 3.5 26.9 3.5 12.8 0 26.6-2.6 39.3-10.4 15.3-9.4 26.5-24.8 33.3-46 5.7-.9 14-2.8 22.4-7.1 13.8-7.1 30.2-21.9 29.7-52-.1-5.1-4.3-9.2-9.5-9.1-5.1.1-9.2 4.3-9.1 9.5.3 16.5-5.9 27.9-19.1 34.9-3.2 1.7-6.5 2.9-9.5 3.8 1.8-10.4 2.9-21.8 3.2-34.2.1-5.1-4-9.4-9.1-9.5s-9.4 4-9.5 9.1c-.4 16.5-2.2 30.9-5.4 43.1-.2.4-.3.9-.4 1.3-5.3 19.2-14.3 32.8-26.7 40.5-18.9 11.7-42.6 7.6-56.5 3.5v-12.1c2.1.2 4.2.3 6.2.3 11.6 0 21.6-3.2 29.1-9.4 15-12.4 19.7-35.4 14-68.5-.9-5.1-5.7-8.4-10.8-7.6-5.1.9-8.5 5.7-7.6 10.8 4.5 25.6 1.9 43.2-7.4 50.9-6.3 5.2-15.7 5.8-23.5 4.8v-23.2c0-3.3 1.8-46.7-1.3-46.7-6.5 0-20.8-4.4-64.1-4.4-3.6 0-1.4 40.8-1.9 42.7-6.4.7-15 .5-20-3.7-4.4-3.7-6-10.8-4.9-21.1.6-5.1-3.1-9.7-8.2-10.3-5.1-.6-9.7 3.1-10.3 8.2-1.9 16.9 1.9 29.5 11.4 37.5 6.5 5.5 15.6 8.4 26.4 8.4.8 0 1.7 0 2.5-.1.7 0 1.4-.1 2-.1V933c-4.9.7-11.4 1.4-18.7 1.5-12.8.1-30.4-2.1-41.5-12.5-10.9-10.2-14.4-27.5-10.2-51.3.9-5.1-2.5-9.9-7.6-10.8s-9.9 2.5-10.8 7.6c-5.3 30.4 0 53.4 15.9 68.2 14.9 13.9 36.2 17.4 53.9 17.4 7.2 0 13.7-.6 19-1.3v51c-27 3.4-97.1 7.8-137-29.2-9.5-8.9-16.7-19.6-21.6-32.3 19.4-4.8 33.2-14 41.1-27.3 13.2-22.2 4.5-47.1 4.1-48.1-1.7-4.8-7.1-7.3-11.9-5.6-4.8 1.7-7.3 7.1-5.6 11.9.1.2 6 17.8-2.6 32.3-5.4 9.1-15.6 15.4-30.3 19-3.1-15.6-3.5-33.4-1-53.3.6-5.1-3-9.7-8.1-10.4-5.1-.6-9.7 3-10.4 8.1-3 24.6-2.2 46.4 2.6 65.5-.1.8-.1 1.6 0 2.4.2 1.6.9 3.1 1.8 4.3 5.7 18.7 15.5 34.4 29.2 47.1 32.1 29.8 79 36.5 114.5 36.5 14 0 26.3-1 35.1-2.1v610.7c0 18.9 15.3 34.2 34.2 34.2 18.9 0 34.2-15.3 34.2-34.2v-610.9c9 1.2 22.2 2.4 37.5 2.4 35.5 0 82.5-6.7 114.5-36.5 29-26.9 40.3-67 33.8-119.5z"/><path class="st3" d="M417.8 891.6v187.1m16.8-94.1v243m-12.1-84.8v243m18.6-131.3v131.3m0 26.9v38.2m0 17.6v149.9m11.2-736.1v243m0 166.4v243m-1.9-336v38.2m-27.9 166.5v252.3m13-754.8v38.2"/><path class="st4" d="M764.2 608.7c0 7.1-8 7.1-8 14.2s8 7.1 8 14.2-8 7.1-8 14.2 8 7.1 8 14.2-8 7.1-8 14.2c0 21.9 4.3 44.3-2.1 64.1-6.7 20.5-23.5 36-36 53.1-12.5 17.2-22.2 38-39.4 50.6-17.1 12.4-39.7 15.2-60.2 21.9-19.8 6.4-39.7 17.7-61.6 17.7-25.6 0-25.6-8-51.2-8s-25.6 8-51.2 8-25.6-8-51.2-8-25.6 8-51.2 8-25.6-8-51.2-8c-21.9 0-44.3 4.3-64.1-2.1-20.5-6.7-36-23.5-53.1-36-17.2-12.5-38-22.2-50.6-39.4-12.4-17.1-15.2-39.7-21.9-60.2-6.4-19.8-17.7-39.7-17.7-61.6 0-7.1 8-7.1 8-14.2s-8-7.1-8-14.2 8-7.1 8-14.2-8-7.1-8-14.2 8-7.1 8-14.2c0-21.9-4.3-44.3 2.1-64.1 6.7-20.5 23.5-36 36-53.1 12.5-17.2 22.2-38 39.4-50.6 17.1-12.4 39.7-15.2 60.2-21.9 19.8-6.4 39.7-17.7 61.6-17.7 25.6 0 25.6 8 51.2 8s25.6-8 51.2-8 25.6 8 51.2 8 25.6-8 51.2-8 25.6 8 51.2 8c21.9 0 44.3-4.3 64.1 2.1 20.5 6.7 36 23.5 53.1 36 17.2 12.5 38 22.2 50.6 39.4 12.4 17.1 15.2 39.7 21.9 60.2 6.4 19.8 17.7 39.7 17.7 61.6z"/><path class="st5" d="M764.2 608.7c0 7.1-8 7.1-8 14.2s8 7.1 8 14.2-8 7.1-8 14.2 8 7.1 8 14.2-8 7.1-8 14.2c0 21.9 4.3 44.3-2.1 64.1-6.7 20.5-23.5 36-36 53.1-12.5 17.2-22.2 38-39.4 50.6-17.1 12.4-39.7 15.2-60.2 21.9-19.8 6.4-39.7 17.7-61.6 17.7-25.6 0-25.6-8-51.2-8s-25.6 8-51.2 8-25.6-8-51.2-8-25.6 8-51.2 8-25.6-8-51.2-8c-21.9 0-44.3 4.3-64.1-2.1-20.5-6.7-36-23.5-53.1-36-17.2-12.5-38-22.2-50.6-39.4-12.4-17.1-15.2-39.7-21.9-60.2-6.4-19.8-17.7-39.7-17.7-61.6 0-7.1 8-7.1 8-14.2s-8-7.1-8-14.2 8-7.1 8-14.2-8-7.1-8-14.2 8-7.1 8-14.2c0-21.9-4.3-44.3 2.1-64.1 6.7-20.5 23.5-36 36-53.1 12.5-17.2 22.2-38 39.4-50.6 17.1-12.4 39.7-15.2 60.2-21.9 19.8-6.4 39.7-17.7 61.6-17.7 25.6 0 25.6 8 51.2 8s25.6-8 51.2-8 25.6 8 51.2 8 25.6-8 51.2-8 25.6 8 51.2 8c21.9 0 44.3-4.3 64.1 2.1 20.5 6.7 36 23.5 53.1 36 17.2 12.5 38 22.2 50.6 39.4 12.4 17.1 15.2 39.7 21.9 60.2 6.4 19.8 17.7 39.7 17.7 61.6z"/><path class="st6" d="M273.3 745c3.8 0 7.9-1.7 10.6-4.4 2.6-2.6 4.6-6.9 4.4-10.6-.2-3.9-1.4-7.9-4.4-10.6-2.9-2.7-6.5-4.4-10.6-4.4-3.8 0-7.9 1.7-10.6 4.4-2.6 2.6-4.6 6.9-4.4 10.6.2 3.9 1.4 7.9 4.4 10.6 2.9 2.7 6.5 4.4 10.6 4.4zm-50-294.4c-2.1 1.4-4.2 3-6 4.8-1.9 1.8-3.4 4-4.9 6-2.3 3.2-3.9 7.1-5.1 10.8-.4 1.3-.7 2.7-1 4-.4 2.6-.8 5.3-.9 8 0 2 .3 4 .5 6 .3 2 .6 4 1.2 6 .8 2.6 1.9 5.1 3.1 7.5 1.3 2.5 3.1 4.7 4.9 6.9 2.3 2.8 7.1 4.4 10.6 4.4 3.7 0 8.1-1.6 10.6-4.4 2.6-2.9 4.6-6.6 4.4-10.6-.2-1.3-.4-2.7-.5-4-.7-2.5-2-4.7-3.9-6.6-.2-.2-.4-.5-.6-.8.8 1 1.6 2 2.3 3-1.2-1.5-2.1-3.2-2.8-4.9l1.5 3.6c-.8-2-1.3-4-1.7-6.1.2 1.3.4 2.7.5 4-.3-2.4-.3-4.9 0-7.3-.2 1.3-.4 2.7-.5 4 .3-2.4 1-4.8 1.9-7.1l-1.5 3.6c.8-2 1.9-3.8 3.2-5.5-.8 1-1.6 2-2.3 3 1.2-1.5 2.5-2.9 4-4-1 .8-2 1.6-3 2.3.3-.3.7-.5 1-.8 3.3-2.2 5.8-5 6.9-9 1-3.6.5-8.4-1.5-11.6-2.1-3.2-5.1-6-9-6.9-3.6-.6-8.1-.6-11.4 1.7zm419.3 329.1c-.4 1.2-.8 2.3-1.3 3.5l1.5-3.6c-1.3 2.9-2.9 5.7-4.8 8.2.8-1 1.6-2 2.3-3-2 2.6-4.4 5-7 7 1-.8 2-1.6 3-2.3-2.6 2-5.5 3.7-8.6 5l3.6-1.5c-1.1.5-2.3.9-3.5 1.2-3.7 1.1-7 3.5-9 6.9-1.9 3.2-2.7 8-1.5 11.6s3.4 7.1 6.9 9 7.7 2.7 11.6 1.5c16.9-5.2 30.3-18.5 35.6-35.4 1.1-3.6.4-8.3-1.5-11.6-1.8-3.1-5.4-6.1-9-6.9-3.8-.9-8.1-.7-11.6 1.5-3.2 2.1-5.5 5.1-6.7 8.9z"/><circle class="st7" cx="635.8" cy="520.8" r="21.2"/><path class="st6" d="M354 798c-1.3.3-2.6.6-3.8.7 1.3-.2 2.7-.4 4-.5-3.4.4-6.8.4-10.2 0 1.3.2 2.7.4 4 .5-3.4-.5-6.7-1.4-9.8-2.7l3.6 1.5c-3-1.3-5.8-2.9-8.5-4.9 1 .8 2 1.6 3 2.3-.7-.6-1.4-1.1-2.1-1.8-3-2.7-6.5-4.4-10.6-4.4-3.7 0-8.1 1.6-10.6 4.4-2.6 2.9-4.6 6.6-4.4 10.6.2 3.8 1.4 8 4.4 10.6 6.5 5.8 14.2 10.2 22.8 12.3 8.6 2.2 17.6 2.2 26.2.1 3.6-.9 7.1-3.7 9-6.9 1.9-3.2 2.7-8 1.5-11.6s-3.4-7.1-6.9-9c-3.6-1.6-7.5-2.2-11.6-1.2z"/><circle class="st7" cx="353.9" cy="670.1" r="17"/><circle class="st7" cx="473.5" cy="751.2" r="21.2"/><path class="st6" d="M201.9 644.3c-3-.5-6.1-1-9.1-.8s-6.1.6-9 1.4c-2.9.8-5.7 2-8.3 3.4s-4.9 3.2-7.2 5c-3.7 2.9-6.9 6.8-9.2 10.9-3.1 5.4-4.6 11.1-5 17.3-.3 3.7 1.9 8.1 4.4 10.6 2.6 2.6 6.9 4.6 10.6 4.4 3.9-.2 7.9-1.4 10.6-4.4.8-1 1.6-2 2.3-3 1.4-2.3 2-4.9 2-7.6 0-.5.1-.9.1-1.4-.2 1.3-.4 2.7-.5 4 .3-2 .8-4 1.6-5.9l-1.5 3.6c.9-2 2-3.8 3.3-5.6-.8 1-1.6 2-2.3 3 1.4-1.8 3.1-3.4 4.9-4.8-1 .8-2 1.6-3 2.3 1.8-1.4 3.8-2.6 5.9-3.5l-3.6 1.5c2.1-.9 4.3-1.5 6.6-1.8-1.3.2-2.7.4-4 .5 1.9-.2 3.9-.2 5.8 0-1.3-.2-2.7-.4-4-.5.2 0 .5.1.7.1 2 .6 4 .7 6 .3 2-.1 3.9-.7 5.6-1.8 3.1-1.8 6.1-5.4 6.9-9 .9-3.8.7-8.1-1.5-11.6-2.1-2.8-5.3-6-9.1-6.6zm403 63.4c3.8 0 7.9-1.7 10.6-4.4 2.6-2.6 4.6-6.9 4.4-10.6-.2-3.9-1.4-7.9-4.4-10.6-2.9-2.7-6.5-4.4-10.6-4.4-3.8 0-7.9 1.7-10.6 4.4-2.6 2.6-4.6 6.9-4.4 10.6.2 3.9 1.4 7.9 4.4 10.6 2.9 2.7 6.5 4.4 10.6 4.4z"/><circle class="st7" cx="426.9" cy="491.1" r="21.2"/><path class="st6" d="M501.7 579.4c.2 6.2 1.7 11.7 4.5 17.3 1.4 2.7 3.2 5.1 5.1 7.4 1.1 1.4 2.3 2.6 3.6 3.8 4.7 4.1 9.4 6.9 15.3 9 2.8 1 5.7 1.3 8.7 1.7 1.9.2 3.7.3 5.6.1 2.1.1 4-.4 5.8-1.3 1.9-.6 3.5-1.6 4.8-3.1 2.6-2.6 4.6-6.9 4.4-10.6-.2-3.9-1.4-7.9-4.4-10.6-2.7-2.5-6.7-4.8-10.6-4.4-1.9.2-3.7.2-5.6-.1 1.3.2 2.7.4 4 .5-2.1-.3-4.1-.9-6-1.6l3.6 1.5c-2.2-.9-4.2-2.1-6-3.5 1 .8 2 1.6 3 2.3-1.9-1.4-3.5-3.1-5-4.9.8 1 1.6 2 2.3 3-1.4-1.8-2.5-3.6-3.4-5.7l1.5 3.6c-.8-1.9-1.4-3.9-1.7-6 .2 1.3.4 2.7.5 4-.1-.8-.2-1.6-.2-2.4-.1-3.9-1.6-7.8-4.4-10.6-2.6-2.6-6.9-4.6-10.6-4.4-3.9.2-7.9 1.4-10.6 4.4-2.5 2.9-4.3 6.6-4.2 10.6zm-171.5 3.7c3.8 0 7.9-1.7 10.6-4.4 2.6-2.6 4.6-6.9 4.4-10.6-.2-3.9-1.4-7.9-4.4-10.6-2.9-2.7-6.5-4.4-10.6-4.4-3.8 0-7.9 1.7-10.6 4.4-2.6 2.6-4.6 6.9-4.4 10.6.2 3.9 1.4 7.9 4.4 10.6 2.9 2.7 6.5 4.4 10.6 4.4z"/><g><path class="st6" d="M674.4 617.8c.2 1 .4 2 .6 3.1-.2-1.3-.4-2.7-.5-4 .4 3.3.4 6.7 0 10 .2-1.3.4-2.7.5-4-.5 3.5-1.4 6.8-2.7 10.1l1.5-3.6c-1.3 3-2.9 5.8-4.8 8.4.8-1 1.6-2 2.3-3-.7.9-1.5 1.8-2.3 2.7-2.7 2.9-4.4 6.6-4.4 10.6 0 3.7 1.6 8.1 4.4 10.6 2.9 2.6 6.6 4.6 10.6 4.4 3.9-.2 7.9-1.5 10.6-4.4 5.9-6.4 10.4-14.1 12.6-22.6 2.3-8.6 2.4-17.5.5-26.2-.8-3.6-3.8-7.2-6.9-9-3.2-1.9-8-2.7-11.6-1.5s-7.1 3.4-9 6.9c-1.9 3.7-2.4 7.5-1.4 11.5z"/></g><g><path class="st2" d="M989.6 1252.2h55.5v376.9h-55.5v-376.9z"/><path class="st3" d="M1000.3 1305.2c-.2 13.2-.2 27.2 0 39.8m0 15.4v37.3m17.6-72.5v151.6m11.4-171.8c-.3 40.4-.3 80.4 0 120.8m-29 22.4v151.6m26.4-81.3v98.8"/><path class="st4" d="M1037.2 1356.3c19.1 0 38.5 7.9 55.2 4.2 18.6-4.1 32.2-19.6 47.4-27.6 16.7-8.7 37.1-11.6 49.3-24.1 12.9-13.2 15.1-33.7 22.5-50 7.5-16.3 21.5-31.5 22.9-49.8 1.3-17.4-10.1-34.6-14.8-52.8-14.1-54.5-4.4-57-18.5-111.6-14.1-54.5-23.8-52-37.9-106.6-14.1-54.5-4.4-57-18.5-111.6-14.1-54.5-23.8-52-37.9-106.6-14.1-54.5-4.4-57-18.5-111.6-14.1-54.5-23.8-52-37.9-106.6-1.6-6.1 3.6-16-.6-20s-14.5 1.3-20.3-.7c-5.5-1.9-9.9-12.6-15.9-12.6s-10.3 10.7-15.9 12.6c-5.8 2-16.1-3.4-20.3.7-4.2 4 1 13.9-.6 20-14.1 54.5-23.8 52-37.9 106.6-14.1 54.5-4.4 57-18.5 111.6-14.1 54.5-23.8 52-37.9 106.6-14.1 54.5-4.4 57-18.5 111.6-14.1 54.5-23.8 52-37.9 106.6-14.1 54.5-5.9 56.6-18.5 111.5-2.1 22.8-11.6 42.7-9.1 60.9 3.1 22.7 18.9 39 27.6 55.3 10.4 19.4 16.6 40.9 32.1 52.8 16.7 12.8 40.1 13.1 58.9 19.4 20.7 6.9 39.6 20.2 58 21.9 35.6 3.2 31.4-7.9 62-10.1z"/><path class="st5" d="M1037.2 1356.3c19.1 0 38.5 7.9 55.2 4.2 18.6-4.1 32.2-19.6 47.4-27.6 16.7-8.7 37.1-11.6 49.3-24.1 12.9-13.2 15.1-33.7 22.5-50 7.5-16.3 21.5-31.5 22.9-49.8 1.3-17.4-10.1-34.6-14.8-52.8-14.1-54.5-4.4-57-18.5-111.6-14.1-54.5-23.8-52-37.9-106.6-14.1-54.5-4.4-57-18.5-111.6-14.1-54.5-23.8-52-37.9-106.6-14.1-54.5-4.4-57-18.5-111.6-14.1-54.5-23.8-52-37.9-106.6-1.6-6.1 3.6-16-.6-20s-14.5 1.3-20.3-.7c-5.5-1.9-9.9-12.6-15.9-12.6s-10.3 10.7-15.9 12.6c-5.8 2-16.1-3.4-20.3.7-4.2 4 1 13.9-.6 20-14.1 54.5-23.8 52-37.9 106.6-14.1 54.5-4.4 57-18.5 111.6-14.1 54.5-23.8 52-37.9 106.6-14.1 54.5-4.4 57-18.5 111.6-14.1 54.5-23.8 52-37.9 106.6-14.1 54.5-5.9 56.6-18.5 111.5-2.1 22.8-11.6 42.7-9.1 60.9 3.1 22.7 18.9 39 27.6 55.3 10.4 19.4 16.6 40.9 32.1 52.8 16.7 12.8 40.1 13.1 58.9 19.4 20.7 6.9 39.6 20.2 58 21.9 35.6 3.2 31.4-7.9 62-10.1z"/><path class="st6" d="M1062 824.6c3.8 0 7.9-1.7 10.6-4.4 2.6-2.6 4.6-6.9 4.4-10.6-.2-3.9-1.4-7.9-4.4-10.6-2.9-2.7-6.5-4.4-10.6-4.4-3.8 0-7.9 1.7-10.6 4.4-2.6 2.6-4.6 6.9-4.4 10.6.2 3.9 1.4 7.9 4.4 10.6 2.9 2.7 6.5 4.4 10.6 4.4z"/><circle class="st8" cx="962.6" cy="678.6" r="10.6"/><path class="st6" d="M1020.6 717.6c11.3 10.8 29 12.3 42.5 4.9 3.4-1.9 6.7-4.4 9.1-7.5 1.8-2.3 3.1-4.4 3.1-7.4 0-2.6-1.1-5.7-3.1-7.4-2-1.8-4.6-3.2-7.4-3.1-2.6.1-5.7.9-7.4 3.1-1.1 1.4-2.4 2.7-3.9 3.8.7-.5 1.4-1.1 2.1-1.6-1.6 1.2-3.4 2.2-5.2 3 .8-.4 1.7-.7 2.5-1.1-2.2.9-4.5 1.5-6.8 1.9.9-.1 1.9-.3 2.8-.4-2.5.3-4.9.3-7.4 0 .9.1 1.9.3 2.8.4-2.2-.3-4.4-.9-6.5-1.7.8.4 1.7.7 2.5 1.1-1.9-.8-3.6-1.8-5.2-3 .7.5 1.4 1.1 2.1 1.6-.6-.5-1.2-1-1.7-1.5-2-1.9-4.7-3.1-7.4-3.1-2.6 0-5.7 1.1-7.4 3.1-1.8 2-3.2 4.6-3.1 7.4 0 2.8.9 5.6 3 7.5zM926.4 812c3.3 6.2 9 11.5 15.5 14.4 3.8 1.7 7.4 2.8 11.5 3.4 4.1.6 7.9.4 12.1-.3 3.8-.7 7.7-2.3 11-4.4 2.3-1.5 4.1-3.6 4.8-6.3.7-2.5.4-5.9-1.1-8.1-1.4-2.2-3.6-4.2-6.3-4.8-2.7-.6-5.7-.5-8.1 1.1-1.1.7-2.2 1.3-3.3 1.8.8-.4 1.7-.7 2.5-1.1-1.9.8-4 1.4-6.1 1.7.9-.1 1.9-.3 2.8-.4-2.3.3-4.6.3-6.9 0 .9.1 1.9.3 2.8.4-2.5-.3-5-1-7.3-2 .8.4 1.7.7 2.5 1.1-2-.9-3.9-2-5.7-3.3.7.5 1.4 1.1 2.1 1.6-1.6-1.2-3-2.6-4.2-4.2.5.7 1.1 1.4 1.6 2.1-.8-1-1.4-2.1-2-3.2-2.6-4.9-9.7-6.8-14.4-3.8-4.9 3.1-6.5 9.1-3.8 14.3zm130.3 80.6c4.8 5.2 11.8 8.8 18.8 9.9 4.1.6 7.9.8 12 .2 4.1-.6 7.7-1.7 11.5-3.5 3.5-1.7 6.9-4.2 9.5-7.1 1.9-2.1 3.1-4.6 3.1-7.4 0-2.6-1.1-5.7-3.1-7.4-2-1.8-4.6-3.2-7.4-3.1-2.7.1-5.6 1-7.4 3.1-.9 1-2 2-3.1 2.9.7-.5 1.4-1.1 2.1-1.6-1.6 1.2-3.2 2.1-5 2.9.8-.4 1.7-.7 2.5-1.1-2.2.9-4.5 1.5-6.9 1.9.9-.1 1.9-.2 2.8-.4-2.5.3-5 .3-7.5 0 .9.1 1.9.3 2.8.4-2.3-.3-4.4-.9-6.5-1.8.8.4 1.7.7 2.5 1.1-1.9-.8-3.6-1.8-5.3-3.1.7.5 1.4 1.1 2.1 1.6-.9-.7-1.8-1.5-2.6-2.4-3.8-4-11.1-4.1-14.8 0-4.1 4.4-4.1 10.6-.1 14.9zm-148.8 45c4.3 5.5 11.2 9.4 18 11.1 3.5.8 7.2 1.3 10.8 1.1 3.6-.2 7.4-.7 10.8-2.1 4.6-1.8 8.5-4 12.1-7.4 4-3.8 4.1-11.1 0-14.8-4.3-3.9-10.6-4-14.8 0-.6.5-1.1 1-1.7 1.5.7-.5 1.4-1.1 2.1-1.6-1.5 1.2-3.2 2.1-5 2.9.8-.4 1.7-.7 2.5-1.1-2.1.9-4.2 1.4-6.5 1.8.9-.1 1.9-.2 2.8-.4-2.5.3-4.9.3-7.4 0 .9.1 1.9.3 2.8.4-2.3-.3-4.6-.9-6.8-1.8.8.4 1.7.7 2.5 1.1-2-.8-3.8-1.9-5.5-3.2.7.5 1.4 1.1 2.1 1.6-1.4-1.1-2.7-2.4-3.9-3.8-1.5-2-5-3.1-7.4-3.1-2.6 0-5.7 1.1-7.4 3.1-1.8 2-3.2 4.6-3.1 7.4.1.9.2 1.9.4 2.8.4 1.6 1.3 3.2 2.6 4.5zm79.4-397.8c4.6 6.8 11.1 11.5 18.9 14 6.8 2.2 14.8 2.3 21.6.2 4.7-1.5 8.6-3.8 12.4-6.9 2-1.6 3.1-5 3.1-7.4 0-2.6-1.1-5.7-3.1-7.4-2-1.8-4.6-3.2-7.4-3.1-.9.1-1.9.3-2.8.4-1.8.5-3.3 1.4-4.6 2.7-.2.1-.3.3-.5.4.7-.5 1.4-1.1 2.1-1.6-1.5 1.2-3.2 2.1-4.9 2.9.8-.4 1.7-.7 2.5-1.1-2.1.9-4.2 1.4-6.4 1.8.9-.1 1.9-.3 2.8-.4-2.4.3-4.9.3-7.3 0 .9.1 1.9.2 2.8.4-2.3-.3-4.6-.9-6.8-1.8.8.4 1.7.7 2.5 1.1-2.1-.9-4-2-5.8-3.3.7.5 1.4 1.1 2.1 1.6-1.5-1.2-2.8-2.5-4-4 .5.7 1.1 1.4 1.6 2.1-.3-.3-.5-.7-.7-1-1.6-2.3-3.5-4.1-6.3-4.8-2.5-.7-5.9-.4-8.1 1.1-2.2 1.4-4.2 3.6-4.8 6.3-.5 2.4-.4 5.5 1.1 7.8zm4.3 462.9c4.3 5.5 11.2 9.4 18 11.1 3.5.8 7.2 1.3 10.8 1.1 3.6-.2 7.4-.7 10.8-2.1 4.6-1.8 8.5-4 12.1-7.4 4-3.8 4.1-11.1 0-14.8-4.3-3.9-10.6-4-14.8 0-.6.5-1.1 1-1.7 1.5.7-.5 1.4-1.1 2.1-1.6-1.5 1.2-3.2 2.1-5 2.9.8-.4 1.7-.7 2.5-1.1-2.1.9-4.2 1.4-6.5 1.8.9-.1 1.9-.2 2.8-.4-2.5.3-4.9.3-7.4 0 .9.1 1.9.2 2.8.4-2.3-.3-4.6-.9-6.8-1.8.8.4 1.7.7 2.5 1.1-2-.8-3.8-1.9-5.5-3.2.7.5 1.4 1.1 2.1 1.6-1.4-1.1-2.7-2.4-3.9-3.8-1.6-2-5-3.1-7.4-3.1-2.6 0-5.7 1.1-7.4 3.1-1.8 2-3.2 4.6-3.1 7.4.1.9.2 1.9.4 2.8.4 1.7 1.3 3.2 2.6 4.5zm95.9 73.5c13.5 8 31 5.1 42.5-5.1 2.9-2.6 5.5-5.9 7.1-9.4 1.2-2.6 1.8-5.2 1.1-8.1-.7-2.4-2.6-5.1-4.8-6.3-2.4-1.3-5.4-1.9-8.1-1.1-2.5.8-5.1 2.4-6.3 4.8-.7 1.4-1.5 2.8-2.5 4 .5-.7 1.1-1.4 1.6-2.1-1.2 1.6-2.7 3-4.2 4.2.7-.5 1.4-1.1 2.1-1.6-1.9 1.4-3.9 2.6-6 3.5.8-.4 1.7-.7 2.5-1.1-2.3.9-4.6 1.6-7 1.9.9-.1 1.9-.3 2.8-.4-2.3.3-4.6.3-6.9 0 .9.1 1.9.2 2.8.4-2-.3-3.9-.8-5.8-1.6.8.4 1.7.7 2.5 1.1-1-.4-1.9-.9-2.8-1.4-2.3-1.4-5.5-1.8-8.1-1.1-2.4.7-5.1 2.6-6.3 4.8-2.7 5.3-1.3 11.6 3.8 14.6zm-217.6-14.8c2.9 6.4 8.6 11.9 14.7 15.1 6.3 3.3 13.8 5.2 20.9 4.4 4.9-.6 9.3-1.7 13.7-4.2 2.3-1.3 4.1-3.8 4.8-6.3.7-2.5.4-5.9-1.1-8.1-3.1-4.8-9.2-6.6-14.4-3.8-.7.4-1.5.8-2.3 1.1.8-.4 1.7-.7 2.5-1.1-1.9.8-3.8 1.3-5.8 1.6.9-.1 1.9-.2 2.8-.4-2.3.3-4.7.3-7 0 .9.1 1.9.2 2.8.4-2.4-.4-4.8-1-7.1-2 .8.4 1.7.7 2.5 1.1-2.1-.9-4-2-5.8-3.4.7.5 1.4 1.1 2.1 1.6-1.7-1.3-3.2-2.8-4.5-4.5.5.7 1.1 1.4 1.6 2.1-1-1.4-1.9-2.8-2.6-4.4-1-2.3-4-4.2-6.3-4.8-2.5-.7-5.9-.4-8.1 1.1-2.2 1.4-4.2 3.6-4.8 6.3-.1.9-.3 1.9-.4 2.8.4 2 .8 3.8 1.8 5.4zm103.2 97.6c8.3 13.2 24.9 19.1 39.9 15.3 3.8-1 7.6-2.6 10.8-5 2.3-1.7 4-3.4 4.8-6.3.7-2.5.4-5.9-1.1-8.1-1.4-2.2-3.6-4.2-6.3-4.8-2.6-.6-5.9-.6-8.1 1.1-1.5 1.2-3.2 2.1-4.9 2.9.8-.4 1.7-.7 2.5-1.1-2 .8-4 1.3-6.1 1.6.9-.1 1.9-.2 2.8-.4-2.4.3-4.9.3-7.3 0 .9.1 1.9.2 2.8.4-2.3-.3-4.6-1-6.8-1.8.8.4 1.7.7 2.5 1.1-2.1-.9-4-2-5.8-3.3.7.5 1.4 1.1 2.1 1.6-1.5-1.2-2.9-2.5-4-4 .5.7 1.1 1.4 1.6 2.1-.5-.6-.9-1.2-1.3-1.8-1.4-2.3-3.6-4.1-6.3-4.8-2.5-.7-5.9-.4-8.1 1.1-2.2 1.4-4.2 3.6-4.8 6.3-.6 2.5-.4 5.5 1.1 7.9zM852 1199.7c1.7 4.3 3.7 7.8 6.7 11.3 2.3 2.7 5.3 5 8.4 6.8s6.6 3.3 10 4.1c3.5.8 7.3 1.3 10.9 1.1 5-.4 9.3-1.5 13.8-3.8 2.3-1.1 4.2-3.9 4.8-6.3.7-2.5.4-5.9-1.1-8.1-1.4-2.2-3.6-4.2-6.3-4.8-2.9-.7-5.5-.3-8.1 1.1-.5.2-1 .5-1.5.7.8-.4 1.7-.7 2.5-1.1-1.9.8-3.8 1.3-5.8 1.5.9-.1 1.9-.3 2.8-.4-2.2.3-4.4.2-6.7-.1.9.1 1.9.3 2.8.4-2.3-.3-4.6-1-6.8-1.9.8.4 1.7.7 2.5 1.1-2.2-.9-4.2-2.1-6.1-3.5.7.5 1.4 1.1 2.1 1.6-1.7-1.3-3.2-2.8-4.5-4.5.5.7 1.1 1.4 1.6 2.1-1.2-1.5-2.1-3.2-2.9-4.9.4.8.7 1.7 1.1 2.5-.1-.2-.2-.4-.2-.6-1-2.6-2.3-4.8-4.8-6.3-2.3-1.3-5.6-1.9-8.1-1.1s-5 2.4-6.3 4.8c-1 2.6-1.8 5.7-.8 8.3zm114.8 91.4c2.3 2.7 5.3 5 8.4 6.7s6.6 3.1 10.1 3.7c3.5.7 7.2 1.1 10.7.7 2.2-.2 4.5-.5 6.6-1.1 2.1-.5 4.2-1.4 6.2-2.3 3.6-1.6 6.9-4 9.7-6.8 1.9-2 3.1-4.7 3.1-7.4 0-2.6-1.1-5.7-3.1-7.4-2-1.8-4.6-3.2-7.4-3.1s-5.5 1-7.4 3.1c-.8.8-1.6 1.5-2.4 2.2.7-.5 1.4-1.1 2.1-1.6-1.6 1.2-3.4 2.3-5.3 3.1.8-.4 1.7-.7 2.5-1.1-2.1.9-4.3 1.4-6.5 1.8.9-.1 1.9-.2 2.8-.4-2.5.3-5 .3-7.5 0 .9.1 1.9.2 2.8.4-2.3-.3-4.4-.9-6.6-1.8.8.4 1.7.7 2.5 1.1-1.9-.8-3.7-1.8-5.3-3 .7.5 1.4 1.1 2.1 1.6-1.2-.9-2.3-2-3.3-3.1-1.7-1.9-4.9-3.1-7.4-3.1-2.6 0-5.7 1.1-7.4 3.1-1.8 2-3.2 4.6-3.1 7.4s1.1 5.2 3.1 7.3zm135.5-64c3.5 3 7 5 11.3 6.6 3.4 1.3 7.1 1.8 10.7 1.9 7.1.3 14.8-1.7 20.8-5.5 4.1-2.6 7.3-5.9 10.2-9.9 1.5-2.1 1.7-5.7 1.1-8.1-.7-2.4-2.6-5.1-4.8-6.3-2.4-1.3-5.4-1.9-8.1-1.1-2.7.9-4.6 2.5-6.3 4.8-.2.3-.4.5-.6.8.5-.7 1.1-1.4 1.6-2.1-1.2 1.5-2.5 2.9-4 4 .7-.5 1.4-1.1 2.1-1.6-1.7 1.3-3.5 2.4-5.5 3.2.8-.4 1.7-.7 2.5-1.1-2.3 1-4.6 1.6-7.1 1.9.9-.1 1.9-.3 2.8-.4-2.4.3-4.9.3-7.3 0 .9.1 1.9.3 2.8.4-2.2-.3-4.4-.9-6.4-1.8.8.4 1.7.7 2.5 1.1-1.8-.8-3.4-1.7-4.9-2.9.7.5 1.4 1.1 2.1 1.6-.3-.2-.5-.4-.7-.6-2.2-1.8-4.5-3.1-7.4-3.1-2.6 0-5.7 1.1-7.4 3.1-1.8 2-3.2 4.6-3.1 7.4.2 2.9 1 5.9 3.1 7.7z"/><circle class="st8" cx="1109.8" cy="988.1" r="10.6"/><circle class="st8" cx="917.5" cy="1002.7" r="22.1"/><path class="st6" d="M1018.4 1102.9c3.8 0 7.9-1.7 10.6-4.4 2.6-2.6 4.6-6.9 4.4-10.6-.2-3.9-1.4-7.9-4.4-10.6-2.9-2.7-6.5-4.4-10.6-4.4-3.8 0-7.9 1.7-10.6 4.4-2.6 2.6-4.6 6.9-4.4 10.6.2 3.9 1.4 7.9 4.4 10.6 2.9 2.7 6.6 4.4 10.6 4.4z"/><circle class="st8" cx="896.5" cy="1135.8" r="10.6"/><circle class="st8" cx="1082.5" cy="1287.8" r="10.6"/><circle class="st6" cx="1175.9" cy="1133.4" r="8.2"/><path class="st6" d="M964.3 617.8c2.7 3.8 5.5 6.6 9.3 9.2 2.9 2.1 6.4 3.5 9.8 4.6 6.8 2.1 14.8 2.1 21.6-.1 4.7-1.5 8.6-3.8 12.4-7 2-1.7 3.1-5 3.1-7.4 0-2.6-1.1-5.7-3.1-7.4-2-1.8-4.6-3.2-7.4-3.1-2.9.1-5.2 1.2-7.4 3.1-.3.3-.7.5-1 .8.7-.5 1.4-1.1 2.1-1.6-1.5 1.1-3.2 2.1-4.9 2.8.8-.4 1.7-.7 2.5-1.1-2 .8-4 1.3-6.1 1.7.9-.1 1.9-.3 2.8-.4-2.4.3-4.9.3-7.3 0 .9.1 1.9.2 2.8.4-2.4-.3-4.8-1-7.1-1.9.8.4 1.7.7 2.5 1.1-2-.8-3.8-1.9-5.5-3.2.7.5 1.4 1.1 2.1 1.6-1.5-1.2-2.9-2.5-4-4 .5.7 1.1 1.4 1.6 2.1-.2-.3-.4-.5-.6-.8-1.6-2.3-3.5-4.1-6.3-4.8-2.5-.7-5.9-.4-8.1 1.1-2.2 1.4-4.2 3.6-4.8 6.3-.7 2.5-.7 5.7 1 8z"/></g><path class="st9" d="M634.4 1613.8c-6.4-2.3-16.5.5-22.5 4.4-10.1 6.2-12.4 14.9-14.4 14.2-4.8-1.8 22.2-74.2-24.8-71.7-.4 0-.7 0-1.1.2-48.6 7.5-14.4 80.7-13.3 83.9 8.9 26.3-27.7-5.3-26.6-42.4.5-16.7 6.6-14.7 5-29.3-1.1-9.8-16.9-14.2-26.3-11.5-16.1 4.4-19.3 32.1-20.1 37.8-2.1 18.1 3.2 31.6-.7 33.2-3.4 1.4-7.1-8.9-19.3-13.1-2-.7-13.7-4.8-22.4 1.6-8.7 6.2-8.5 18.6-8.5 20.8.2 10.6 6 17.6 4.6 18.5-1.4 1.1-6.9-6.6-15.4-13.1-11.7-9.1-30.5-17.6-37.8-11.5-6 5 .5 16.9-5.3 20.8-5.5 3.7-12.6-6-27-6.9-16.3-1.1-19.9 10.8-35.5 9.2-13.5-1.4-17.6-10.8-26.3-8.5-3.5.9-6.2 3.4-8.5 6.6-4.3 6 0 14.2 7.5 14.2h328.8c3.4 0 6.4-1.8 8-4.6 6.8-12.7 22.4-45.4 1.9-52.8z"/><g><path class="st9" d="m1155.1 1688.8-293.4-1.7c-19.4-23.6-19.4-33.3-12.6-36.7 7.4-3.8 24.3-.9 25.2-3.1.7-1.8-10.8-2.9-16.2-8.2-6.5-6.4-2-17.3 9-22.4 9.9-4.6 23.1-3.6 23.4-6.1.2-1.8-6.4-2.3-11.5-6.5-4-3.3-4.6-6.7-4.7-7.8-1-7.9 9.3-16 21.6-18.4 9.4-1.8 13.1 1 18-1 12.3-5-4.3-25.2 5.4-28.6 7.6-2.6 22.9 8.3 30.6 5.1 7.5-3.1-1.7-11.8 7.2-20.4 7.4-7.2 24.6-11.8 34.2-9.2 11.9 3.2 12.1 17.5 14.4 17.3 1.4-.2-.2-5 6.1-9.5 0 0 .5-.3 1.1-.7 6.4-4 25.2-7.3 36-3.1 10.6 4.1 5.7 12.3 14.4 14.3 7.8 1.7 13.4-4.5 25.2-4.1 12.9.4 26.7 8.6 27 16.3.4 10.3-23.2 16.8-19.8 20.4 3.3 3.3 24-3.8 36 2 13.1 6.4 9.7 18.1 9 20.4-2.9 9.8-14.2 14.8-10.8 17.3 3.8 2.8 17.6-3.4 28.8 0 10.2 3.1 14.6 12.9 10.8 20.4-5.4 10.6-27 15.4-25.2 17.3 1.7 1.7 17.6-4.5 28.8-1 10.7 3.3 13.6 14.3 9 22.4-6.1 10.6-24.2 14.7-27 15.3z"/><circle class="st10" cx="1054.7" cy="1651.1" r="4.3"/><circle class="st10" cx="1015.6" cy="1627.6" r="4.3"/><circle class="st10" cx="1078.2" cy="1565" r="4.3"/><circle class="st10" cx="1070.3" cy="1596.3" r="4.3"/><circle class="st10" cx="1109.5" cy="1635.5" r="4.3"/><circle class="st10" cx="1031.2" cy="1565" r="4.3"/><circle class="st10" cx="1023.4" cy="1573.6" r="4.3"/><circle class="st10" cx="984.2" cy="1667.6" r="4.3"/><circle class="st10" cx="1101.7" cy="1659.7" r="4.3"/><circle class="st10" cx="984.2" cy="1589.3" r="4.3"/><circle class="st10" cx="935.6" cy="1627.6" r="4.3"/><circle class="st10" cx="944.2" cy="1579.3" r="4.3"/></g></svg>